<svg enable-background="new 0 0 1242 792" viewBox="0 0 1242 792" xmlns="http://www.w3.org/2000/svg" xmlns:xlink="http://www.w3.org/1999/xlink"><clipPath id="a"><path d="m0 0h1242v792h-1242z"/></clipPath><mask id="b" height="367" maskUnits="userSpaceOnUse" width="440.6" x="316" y="309"><path d="m578 309h-248c-7.7 0-14 6.3-14 14v339c0 7.7 6.3 14 14 14h248c7.7 0 14-6.3 14-14v-339c0-7.7-6.3-14-14-14z" fill="#fff"/></mask><g clip-path="url(#a)"><path d="m612-10.6h-621.7v811.4h621.7z" fill="#78c51c"/><path clip-rule="evenodd" d="m493 34c0-7.7-6.3-14-14-14h-445c-7.7 0-14 6.3-14 14v188 67 180c0 7.7 6.3 14 14 14h248c7.7 0 14-6.3 14-14v-166c0-7.7 6.3-14 14-14h169c7.7 0 14-6.3 14-14z" fill="#043f2e" fill-rule="evenodd"/><path d="m58.3 88h-15.7c-.8 0-1.2-.4-1.2-1.2v-.4c0-.8.3-1.1 1-1.3l1.5-.5c1-.4 1.3-.8 1.3-1.9v-24.1c0-1-.3-1.5-1.3-1.8l-1.5-.5c-.7-.2-1-.5-1-1.3v-.3c0-.7.5-1.1 1.2-1.2 3.5-.5 6.2-.5 9.5-.5 14.1 0 21.5 8.8 21.5 19.5 0 9.8-6.5 15.5-15.3 15.5zm-6.4-3.1h3.2c8.6 0 13.3-4.4 13.3-13.1 0-9.8-6.8-16-14.3-16-.7 0-1.2 0-2.2.2-1.7.3-2.2.9-2.2 2.3v24.5c.1 1.4.9 2.1 2.2 2.1zm33.3 3.6c-5.2 0-8.3-2.4-8.3-7.2 0-5 4.2-8 11.2-8 1.2 0 2.6.1 3.6.2.4.1.7-.1.7-.5v-2.2c0-3.6-1.7-5.1-4.7-5.1-2.2 0-4.1 1.2-5.8 3.8-.5.7-.8.9-1.4.9s-.8-.3-1.2-.9l-1.2-2.8c-.4-.8-.3-1.4.6-1.9 2.1-1.1 5.7-1.8 8.9-1.8 6.4 0 9.1 3.1 9.1 9l.1 11.6c0 1.2.4 1.6 1.3 1.6 1.4 0 1.7-1.7 2.6-1.7.7 0 1.1.5 1.1 1.2 0 2.1-1.8 3.8-4.3 3.8-2.2 0-3.2-.8-4.3-2.8-.2-.4-.7-.4-.9-.1-1.6 1.8-4.2 2.9-7.1 2.9zm1.2-3.4c2.8 0 4.6-1.4 5.4-2.4.4-.6.7-1.1.7-2v-3.6c0-.4-.2-.7-.6-.8-.9-.2-2.1-.3-3.3-.3-5.2 0-6.9 2-6.9 4.8-.2 2.8 1.6 4.3 4.7 4.3zm27.7 3.4c-2.3 0-3.7-.6-4.9-.6s-1.7.6-2.4.6-1-.3-1.3-.9l-3.2-6.1c-.4-.8-.2-1.5.4-1.8l.3-.2c.6-.3 1.3-.2 1.8.6 2.5 3.6 5.5 5.4 8.9 5.4 3.1 0 4.6-1.4 4.6-3.6 0-2.1-1.6-3.3-4.7-4.2l-4.1-1.2c-4.1-1.2-6.6-3.1-6.6-6.8 0-3.8 2.9-6.5 8.1-6.5 1.6 0 2.7.4 4.1.4 1.1 0 1.7-.5 2.2-.5.6 0 .8.2 1 .7l2.7 5.2c.3.7.2 1.2-.4 1.6l-.2.1c-.7.3-1.2.3-1.8-.3-2.9-3-5-4.5-7.6-4.5-2.8 0-4.1 1.3-4.1 3 0 1.8 1.4 2.8 4.7 3.8l4.1 1.2c4.3 1.3 6.8 3.4 6.9 7.3.1 4.7-3.5 7.3-8.5 7.3zm20.5-.5h-8.7c-.8 0-1.2-.4-1.2-1.2v-.3c0-.7.3-1.1 1.1-1.2l1-.3c1-.3 1.4-.8 1.4-1.9v-25.3c0-1.5-.4-2.2-2.3-2.6-.8-.2-1.1-.5-1.1-1.2v-.3c0-.7.3-1 1-1.2l4.7-1.8c1.1-.5 1.9 0 1.9 1.2v13.4c0 .5.4.6.9.3l.7-.4c2.4-1.5 4.9-2.3 7.6-2.3 4.1 0 6.3 2.6 6.3 7.1v13c0 1.1.4 1.6 1.4 1.9l.9.3c.7.2 1.1.6 1.1 1.2v.3c0 .8-.4 1.2-1.2 1.2h-5.4c-.8 0-1.2-.4-1.2-1.2v-15.8c0-2.9-.8-4.4-3.3-4.4s-5.2.9-6.6 1.8c-.9.5-1.1 1-1.1 1.9v12.8c0 1.1.4 1.6 1.4 1.9l1 .3c.7.2 1.1.6 1.1 1.2v.3c-.2.9-.6 1.3-1.4 1.3zm31.1.5c-2.2 0-3.9-.4-5.6-1.5-.4-.3-.7-.3-1.1 0l-1 .9c-.9.8-2.1.6-2.1-.5v-29.7c0-1.3-.2-2-2.3-2.5-.9-.2-1.1-.5-1.1-1.2v-.2c0-.7.3-1 1-1.2l4.7-1.8c1.2-.5 2 0 2 1.2v12.4c0 .4.2.6.8.3 1.4-.8 3.4-1.6 5.6-1.6 6.3 0 10.9 4.3 10.9 12.3.1 8.5-5.6 13.1-11.8 13.1zm-1.3-3.3c5.2 0 8.5-3 8.5-9.5 0-6-3.2-9.4-7.9-9.4-1.6 0-2.8.2-3.6.8s-1.1 1.1-1.1 2.4v12.8c0 1 .3 1.7.9 2.1.7.4 2.1.8 3.2.8zm28.4 3.3c-6.8 0-12-5.2-12-12.8s5.2-12.8 12-12.8 12 5.2 12 12.8-5.2 12.8-12 12.8zm.7-3.7c4 0 6.9-2.9 6.9-8 0-5.6-2.9-10.3-8.4-10.3-4 0-6.9 2.9-6.9 7.9 0 5.7 3 10.4 8.4 10.4zm22.6 3.7c-5.2 0-8.4-2.4-8.4-7.2 0-5 4.1-8 11.2-8 1.2 0 2.6.1 3.6.2.4.1.7-.1.7-.5v-2.2c0-3.6-1.7-5.1-4.7-5.1-2.2 0-4.1 1.2-5.8 3.8-.5.7-.9.9-1.4.9-.6 0-.9-.3-1.1-.9l-1.2-2.8c-.4-.8-.3-1.4.6-1.9 2.1-1.1 5.7-1.8 8.9-1.8 6.4 0 9.1 3.1 9.1 9l.1 11.6c0 1.2.4 1.6 1.3 1.6 1.4 0 1.7-1.7 2.6-1.7.6 0 1.1.5 1.1 1.2 0 2.1-1.8 3.8-4.3 3.8-2.1 0-3.2-.8-4.3-2.8-.2-.4-.6-.4-.9-.1-1.6 1.8-4.2 2.9-7.1 2.9zm1.2-3.4c2.8 0 4.6-1.4 5.4-2.4.4-.6.6-1.1.6-2v-3.6c0-.4-.1-.7-.6-.8-.9-.2-2.1-.3-3.4-.3-5.2 0-6.9 2-6.9 4.8s1.8 4.3 4.9 4.3zm26.8 2.9h-9.2c-.8 0-1.2-.4-1.2-1.2v-.3c0-.7.4-1.1 1.1-1.2l1-.3c1-.3 1.4-.8 1.4-1.9v-13c0-1.5-.4-2.1-2.3-2.6-.8-.2-1.1-.5-1.1-1.2v-.3c0-.6.3-.9 1.1-1.2l4.4-1.8c1.2-.5 1.9 0 1.9 1.2v1.2c0 .5.5.8 1 .2 1.8-1.6 4.3-2.8 6.6-2.8 1.2 0 1.8.6 1.7 1.7l-.4 3.4c-.1.9-.6 1.2-1.1 1.2s-.9-.2-1.6-.7c-.9-.7-1.7-1.1-2.9-1.1-2 0-3.1 1.1-3.1 3.4v12.3c0 1.1.4 1.7 1.4 1.9l1.6.3c.6.1 1 .4 1 1.2v.3c-.1.8-.5 1.3-1.3 1.3zm18.7.5c-5.6 0-10.6-4.2-10.6-12.2 0-8.4 5.7-13.3 13.2-13.3 1 0 2.3.2 3.4.3.4.1.6 0 .6-.5v-5.2c0-1.3-.1-2-2.8-2.5-1-.2-1.1-.7-1.1-1.2v-.2c0-.7.3-1 1-1.2l5.1-1.8c1.1-.4 2-.1 2 1.2v31.1c0 .8.2 1.6 1.4 1.8l.9.2c.7.2 1.1.5 1.1 1.3v.3c0 .8-.5 1.2-1.2 1.2h-4.7c-.7 0-1.1-.3-1.3-.9l-.1-.6c-.1-.4-.5-.5-.9-.2-1 1.2-2.9 2.4-6 2.4zm2-3.4c2 0 3-.4 3.7-.9.6-.4 1-.9 1-1.7v-14c0-1.2-.6-1.7-1.5-2-.9-.2-1.4-.3-2.4-.3-5 0-8.6 3.4-8.6 9.4-.1 5.7 3.3 9.5 7.8 9.5zm26.5 3.4c-2.3 0-3.7-.6-5-.6-1.1 0-1.6.6-2.4.6-.7 0-1-.3-1.3-.9l-3.1-6.1c-.4-.8-.2-1.5.5-1.8l.4-.2c.6-.3 1.3-.2 1.8.6 2.5 3.6 5.5 5.4 8.9 5.4 3.1 0 4.5-1.4 4.5-3.6 0-2.1-1.5-3.3-4.7-4.2l-4.1-1.2c-4.1-1.2-6.6-3.1-6.6-6.8 0-3.8 3-6.5 8.1-6.5 1.6 0 2.7.4 4.1.4 1.1 0 1.6-.5 2.1-.5s.8.2 1 .7l2.8 5.4c.4.7.1 1.2-.5 1.6l-.1.1c-.6.3-1.2.3-1.8-.3-2.9-3-5-4.5-7.6-4.5-2.9 0-4.1 1.3-4.1 3 0 1.8 1.4 2.8 4.7 3.8l4.1 1.2c4.4 1.3 6.9 3.4 6.9 7.3 0 4.5-3.6 7.1-8.6 7.1zm-241.4 55.5h-8.9c-.8 0-1.2-.4-1.2-1.2v-.4c0-.6.2-.9.9-1.2l1.1-.4c1.3-.6 2-1.3 2.5-2.5l8.8-23.1c.5-1.3 0-2.1-1.1-2.5l-1.7-.6c-1-.4-1.3-.9-1.1-1.7l.1-.4c.2-.7.6-1.1 1.4-1.1h5.8c.8 0 1.3.3 1.5 1.1l11 27.7c.7 1.8 1.3 2.4 2.6 2.9l1.1.4c.7.3.9.7.9 1.2v.4c0 .8-.4 1.2-1.2 1.2h-9.4c-.8 0-1.2-.4-1.2-1.2v-.4c0-.6.2-.9.9-1.1l1-.4c1.3-.4 1.4-.9 1-2l-1.7-4.4c-.1-.3-.3-.4-.7-.4h-12.2c-.3 0-.6.1-.7.5l-1.5 3.9c-.5 1.2-.1 1.9 1.3 2.6l.9.4c.7.2.9.6.9 1.1v.4c.1.8-.4 1.2-1.1 1.2zm1.5-13.1h9.4c.5 0 .7-.2.5-.7l-4.8-12.8c-.2-.5-.6-.5-.8 0l-4.8 12.8c-.1.5.1.7.5.7zm33.9 13.1h-9.2c-.8 0-1.2-.4-1.2-1.2v-.4c0-.7.3-1.1 1.1-1.2l1-.3c1-.3 1.3-.8 1.3-1.9v-12.9c0-1.5-.4-2.1-2.3-2.6-.8-.2-1.1-.5-1.1-1.2v-.3c0-.6.3-.9 1.1-1.2l4.4-1.8c1.2-.4 1.9 0 1.9 1.2v1.2c0 .5.5.8 1 .2 1.8-1.6 4.3-2.8 6.6-2.8 1.2 0 1.8.6 1.7 1.7l-.3 3.4c-.1.9-.6 1.2-1.2 1.2s-.8-.2-1.7-.7c-.8-.7-1.7-1.1-2.8-1.1-2 0-3.1 1.1-3.1 3.4v12c0 1.1.3 1.6 1.3 1.9l1.6.3c.6.1 1 .4 1 1.2v.4c.1 1.1-.3 1.5-1.1 1.5zm29.8-6.9c.6.4.7 1 .2 2.1-1.2 2.6-4.3 5.4-9.8 5.4-7 0-12.2-5.1-12.2-12.8 0-7.8 5-12.8 11.4-12.8 4.9 0 8.8 2.8 9.9 7.7.2.9-.2 1.4-.9 1.6l-14.8 5.5c-.3.1-.4.4-.3.8 1.2 3.4 3.9 5.8 8 5.8 3.2 0 5.3-1.2 6.6-2.7.5-.7 1.2-1 1.9-.6zm-10.6-14.9c-3.9 0-7 2.9-7 7.7 0 .1 0 .4.1.6.1.3.2.4.7.2l10.8-4.1c.4-.2.8-.3.6-.9-.9-2.4-2.9-3.5-5.2-3.5zm23 21.8h-8.7c-.8 0-1.2-.4-1.2-1.2v-.4c0-.7.3-1.1 1.1-1.2l1-.3c1-.3 1.3-.8 1.3-1.9v-12.9c0-1.5-.4-2.1-2.3-2.6-.8-.2-1.1-.5-1.1-1.2v-.3c0-.6.3-.9 1.1-1.2l4.4-1.8c1.2-.4 1.9 0 1.9 1.2v1.1c0 .5.4.7.8.4l.8-.4c2.4-1.5 5.1-2.4 7.8-2.4 4.1 0 6.3 2.6 6.3 7v13.1c0 1.1.4 1.6 1.4 1.9l.9.3c.7.2 1.1.6 1.1 1.2v.4c0 .8-.4 1.2-1.2 1.2h-5.4c-.8 0-1.2-.4-1.2-1.2v-15.9c0-2.9-.8-4.4-3.3-4.4s-5.2 1-6.7 1.9c-.9.5-1.2 1-1.2 1.9v12.7c0 1.1.3 1.6 1.3 1.9l1 .3c.7.2 1 .6 1 1.2v.4c.3.8-.2 1.2-.9 1.2zm17.8-25.1c-.9.1-1.3-.3-1.3-1-.1-.6.2-1 .9-1.2 2.8-.8 3.8-1.8 3.8-3.1 0-.3-.2-.5-.4-.5s-.4.1-.6.1c-1.4 0-2.8-1.2-2.8-3s1.4-3.2 3.4-3.2 3.9 1.4 3.9 4.8c-.1 4.4-2.9 6.5-6.9 7.1zm18.6 25.6c-3.9 0-5.6-1.9-5.6-5.1v-16.2c0-.3-.2-.6-.6-.6h-1.8c-.8 0-1.2-.4-1.2-1.1v-.3c0-.6.2-1 .9-1.4 1.7-1.2 3-2.8 4.4-4.8.4-.7.9-.9 1.5-.9.8 0 1.2.5 1.2 1.3v3.6c0 .3.2.6.6.6h4.6c.8 0 1.2.4 1.2 1.2v.8c0 .8-.4 1.2-1.2 1.2h-4.9c-.4 0-.6.2-.6.6v15.4c0 1.6.8 2.4 2.3 2.4 2.6 0 2.8-1.2 3.9-1.2.6 0 .9.4.9 1 .2 1.7-1.9 3.5-5.6 3.5zm40.3.5h-.2c-.6 0-.9-.1-1.4-.4-.6-.3-.9-.5-1.8-.5h-20.2c-.8 0-1.2-.4-1.2-1.2v-.4c0-.8.4-1.1 1-1.4l1.4-.5c1-.4 1.4-.9 1.4-1.9v-24.3c0-1.1-.4-1.5-1.4-1.9l-1.4-.5c-.6-.2-1-.6-1-1.3v-.4c0-.8.4-1.2 1.2-1.2h18.1c.8 0 1.2-.2 1.8-.5.5-.3.8-.5 1.4-.5h.2c.6 0 1.1.3 1.3.9l3.2 6.7c.2.6.1 1.1-.4 1.4l-.3.2c-.6.4-1.2.3-1.7-.2-3.4-3.8-5.6-4.9-13.2-4.9-2.4 0-3.1.7-3.1 2.1v7.1c0 .3.2.6.6.6h5.6c2.3 0 3-.7 3.9-.7.6 0 .9.3 1.1.9l3.1 6.1c.2.6.2 1-.4 1.4l-.4.2c-.6.4-1.1.2-1.6-.4-2.9-3.5-5.3-4.6-8.9-4.6h-2.4c-.4 0-.6.2-.6.6v13.3c0 1.4 1.2 2.1 3.2 2.1 8.1 0 11.1-1.1 14.6-6.3.4-.6 1-.8 1.7-.4l.4.2c.7.3.8.9.6 1.5l-2.8 7.9c-.2.9-.7 1.2-1.4 1.2zm16.3-1h-8.7c-.8 0-1.2-.4-1.2-1.2v-.4c0-.7.4-1.1 1.1-1.2l1-.3c1-.3 1.4-.8 1.4-1.9v-12.9c0-1.5-.4-2.1-2.3-2.6-.8-.2-1.1-.5-1.1-1.2v-.3c0-.6.3-.9 1.1-1.2l4.4-1.8c1.2-.4 1.9 0 1.9 1.2v1.1c0 .5.4.7.8.4l.8-.4c2.4-1.5 5.1-2.4 7.8-2.4 4.1 0 6.3 2.6 6.3 7v13.1c0 1.1.4 1.6 1.4 1.9l.9.3c.7.2 1.1.6 1.1 1.2v.4c0 .8-.4 1.2-1.2 1.2h-5.4c-.8 0-1.2-.4-1.2-1.2v-15.9c0-2.9-.8-4.4-3.3-4.4s-5.2 1-6.6 1.9c-.9.5-1.1 1-1.1 1.9v12.7c0 1.1.4 1.6 1.4 1.9l1 .3c.7.2 1.1.6 1.1 1.2v.4c-.2.8-.6 1.2-1.4 1.2zm31.1.5c-6.8 0-12-5.2-12-12.8s5.2-12.8 12-12.8 12 5.2 12 12.8-5.2 12.8-12 12.8zm.7-3.6c4 0 6.9-2.9 6.9-8 0-5.6-3-10.3-8.4-10.3-4 0-6.9 2.9-6.9 7.9 0 5.6 3 10.4 8.4 10.4zm23.6 3.6c-5.1 0-6.9-2.7-6.9-6.9v-11.6c0-1.6-.4-2.1-2.4-2.4-.8-.2-1-.6-1-1.2v-.2c0-.5.1-.8 1-1.2l4.8-1.8c1.1-.4 2-.1 2 1.2v16.4c0 2.9.7 4.2 3.6 4.2 2.5 0 4.8-.8 6.4-1.9.9-.6 1.1-1.1 1.1-2.1v-11c0-1.6-.4-2.1-2.3-2.4-.8-.2-1.1-.5-1.1-1.2v-.2c0-.5.1-.8 1-1.2l4.7-1.8c1.1-.4 1.9-.1 1.9 1.2v18.8c0 1 .4 1.6 1.4 1.9l.9.2c.8.2 1.2.5 1.2 1.3v.3c0 .8-.5 1.2-1.2 1.2h-4.8c-.9 0-1.2-.4-1.4-1.2l-.1-.6c-.1-.6-.5-.7-.9-.4l-.7.6c-1.7 1.2-4.4 2-7.2 2zm28.6 10.8c-7 0-10.5-2.5-10.5-6.1 0-1.9 1.1-3.6 2.9-4.8.4-.3.5-.5 0-.8-1.1-.8-1.8-2.1-1.8-3.6 0-2.1 1.5-3.9 4-4.8.4-.1.5-.4.1-.8-1.6-1.6-2.7-3.9-2.7-6.4 0-4.9 4-9.2 10-9.2 1.7 0 3.3.4 4.7 1.1.4.2.8.2 1-.4.8-2.1 2.5-4.3 3.9-4.3.6 0 1 .3 1.4.9l.9 1.6c.2.4.4.8.4 1.2 0 .6-.3.8-1.1 1.2l-2.9 1.3c-.4.1-.5.4-.2.8 1.2 1.4 2.1 3.6 2.1 5.7 0 4.9-4.2 9.2-10 9.2-2 0-2.9-.3-4.5-.3s-2.9.8-2.9 2.2c0 1.5 1.4 2.3 3.8 2.3 2.8 0 7.3-.5 10-.5 4.1 0 6.7 2.1 6.7 5.8-.2 4.6-4 8.7-15.3 8.7zm2.5-21c2.9 0 5.1-2.2 5.1-5.5 0-4.1-2.6-6.9-6.1-6.9-2.9 0-5.1 2.2-5.1 5.5 0 4.1 2.3 6.9 6.1 6.9zm-1.9 18c6.8 0 9.8-2 9.8-4.8 0-2.2-1.4-3.1-4.3-3.1-3 0-7 .6-9.6.4-.4-.1-.5 0-.8.2-1.1.9-1.6 1.9-1.6 3.4-.1 2.3 2 3.9 6.5 3.9zm25.3-8.3h-8.7c-.8 0-1.2-.4-1.2-1.2v-.4c0-.7.4-1.1 1-1.2l1-.3c1-.3 1.4-.8 1.4-1.9v-25.2c0-1.6-.4-2.2-2.3-2.6-.8-.2-1-.5-1-1.2v-.3c0-.7.3-.9 1-1.2l4.7-1.8c1.1-.4 2-.1 2 1.2v13.4c0 .5.5.6.9.3l.7-.4c2.5-1.6 4.9-2.3 7.6-2.3 4.1 0 6.3 2.6 6.3 7.1v13c0 1.1.4 1.6 1.4 1.9l1 .3c.7.2 1 .6 1 1.2v.4c0 .8-.5 1.2-1.2 1.2h-5.4c-.8 0-1.2-.4-1.2-1.2v-15.9c0-2.9-.8-4.4-3.3-4.4s-5.2.9-6.6 1.8c-.9.5-1.1 1-1.1 1.9v12.8c0 1.1.4 1.6 1.4 1.9l1 .3c.7.2 1 .6 1 1.2v.4c-.2.8-.6 1.2-1.4 1.2zm35 .5c-3.9 0-5.6-1.9-5.6-5.1v-16.2c0-.3-.2-.6-.6-.6h-1.8c-.8 0-1.2-.4-1.2-1.1v-.3c0-.6.2-1 .9-1.4 1.7-1.2 3-2.8 4.5-4.8.5-.7 1-.9 1.5-.9.8 0 1.2.5 1.2 1.3v3.6c0 .3.2.6.6.6h4.6c.8 0 1.2.4 1.2 1.2v.8c0 .8-.5 1.2-1.2 1.2h-4.9c-.4 0-.6.2-.6.6v15.4c0 1.6.8 2.4 2.3 2.4 2.5 0 2.8-1.2 4-1.2.5 0 1 .4 1 1-.1 1.7-2.2 3.5-5.9 3.5zm19.4 0c-6.8 0-12-5.2-12-12.8s5.2-12.8 12-12.8 12 5.2 12 12.8-5.2 12.8-12 12.8zm.7-3.6c4 0 6.9-2.9 6.9-8 0-5.6-3-10.3-8.4-10.3-4 0-6.9 2.9-6.9 7.9 0 5.6 3 10.4 8.4 10.4zm-328 59.6c-8.9 0-14-3.6-13.3-13.5l1-16.6c0-1.1-.3-1.5-1.3-1.9l-1.5-.5c-.7-.2-1-.6-1-1.4v-.4c0-.8.5-1.2 1.2-1.2h9.9c.8 0 1.2.4 1.2 1.2v.4c0 .8-.3 1.1-1 1.4l-1.5.5c-1 .4-1.3.9-1.3 1.9l-.9 16.6c-.4 7.4 2.8 9.9 9.2 9.9 5.9 0 8.9-2.6 8.6-9.2l-.8-17.4c-.1-1.1-.3-1.6-1.3-1.9l-1.5-.5c-.7-.2-1-.6-1-1.3v-.4c0-.8.5-1.2 1.2-1.2h8.8c.8 0 1.2.4 1.2 1.2v.4c0 .7-.3 1.1-1 1.3l-1.4.5c-1 .4-1.4.8-1.3 1.9l.9 17.4c.3 9.2-4.6 12.8-13.1 12.8zm28.1-.5h-8.7c-.8 0-1.2-.4-1.2-1.2v-.4c0-.7.3-1.1 1.1-1.2l1-.3c1-.3 1.3-.8 1.3-1.9v-12.9c0-1.5-.4-2.1-2.3-2.6-.8-.2-1.1-.5-1.1-1.2v-.3c0-.6.3-.9 1.1-1.2l4.4-1.8c1.2-.4 1.9 0 1.9 1.2v1.1c0 .5.4.6.8.4l.8-.4c2.4-1.5 5.1-2.4 7.8-2.4 4.1 0 6.3 2.6 6.3 7v13.1c0 1.1.3 1.6 1.4 1.9l.9.3c.7.2 1.1.6 1.1 1.2v.4c0 .8-.4 1.2-1.2 1.2h-5.4c-.8 0-1.2-.4-1.2-1.2v-15.9c0-2.9-.8-4.4-3.3-4.4s-5.2 1-6.7 1.9c-.9.5-1.2 1-1.2 1.9v12.7c0 1.1.3 1.6 1.3 1.9l1 .3c.7.2 1.1.6 1.1 1.2v.4c.2.8-.2 1.2-1 1.2zm29.8.5c-5.6 0-10.6-4.2-10.6-12.2 0-8.4 5.7-13.3 13.2-13.3 1.1 0 2.3.1 3.4.4.4.1.7-.1.7-.4v-5.2c0-1.4-.2-2.1-2.8-2.5-.9-.1-1.1-.6-1.1-1.2v-.2c0-.6.3-.9 1.1-1.2l5.2-1.9c1.1-.4 2-.1 2 1.2v31.1c0 .8.2 1.6 1.3 1.9l.9.2c.7.2 1.1.5 1.1 1.3v.3c0 .8-.4 1.2-1.2 1.2h-4.7c-.7 0-1.2-.3-1.3-.9l-.2-.6c-.1-.4-.5-.5-.9-.1-1 .9-3 2.1-6.1 2.1zm2-3.4c1.9 0 3.1-.4 3.7-.9.7-.4 1-.9 1-1.7v-13.9c0-1.2-.6-1.7-1.6-2-.8-.2-1.4-.3-2.4-.3-5.1 0-8.7 3.4-8.7 9.4.1 5.6 3.6 9.4 8 9.4zm36.7-4c.6.4.6 1 .2 2.1-1.1 2.6-4.4 5.4-9.9 5.4-7 0-12.2-5.1-12.2-12.8 0-7.8 5-12.8 11.4-12.8 4.9 0 8.8 2.8 9.9 7.7.2.9-.1 1.4-.9 1.6l-14.9 5.5c-.4.1-.4.4-.4.8 1.1 3.4 3.9 5.8 8 5.8 3.1 0 5.4-1.2 6.6-2.7.9-.7 1.6-1 2.2-.6zm-10.5-14.9c-3.9 0-7 2.9-7 7.7 0 .1 0 .4.1.6.1.3.2.4.6.2l10.8-4.1c.4-.1.8-.4.6-.9-.9-2.4-2.9-3.5-5.1-3.5zm23.4 21.8h-9.2c-.8 0-1.2-.4-1.2-1.2v-.4c0-.7.4-1.1 1.1-1.2l1-.3c1-.3 1.4-.8 1.4-1.9v-12.9c0-1.5-.4-2.1-2.3-2.6-.8-.2-1.1-.5-1.1-1.2v-.3c0-.6.3-.9 1.1-1.2l4.4-1.8c1.2-.4 1.9 0 1.9 1.2v1.2c0 .5.5.8 1 .2 1.8-1.6 4.3-2.8 6.6-2.8 1.2 0 1.8.6 1.7 1.7l-.4 3.4c-.1.9-.6 1.2-1.1 1.2s-.9-.2-1.6-.6c-.9-.6-1.7-1.1-2.9-1.1-2 0-3.1 1.1-3.1 3.4v12.2c0 1.1.4 1.6 1.4 1.9l1.6.3c.6.1 1 .4 1 1.2v.4c-.1.8-.6 1.2-1.3 1.2zm19.9.5c-2.3 0-3.7-.6-4.9-.6-1.1 0-1.6.6-2.4.6-.7 0-1-.4-1.3-.9l-3.1-6.1c-.4-.8-.2-1.5.4-1.8l.4-.2c.6-.3 1.3-.2 1.8.6 2.5 3.6 5.5 5.4 8.9 5.4 3.1 0 4.6-1.4 4.6-3.6 0-2.1-1.6-3.3-4.7-4.2l-4.1-1.2c-4.1-1.2-6.6-3.1-6.6-6.8 0-3.8 2.9-6.6 8.1-6.6 1.6 0 2.7.4 4.1.4 1.1 0 1.6-.4 2.1-.4.6 0 .8.2 1 .7l2.8 5.4c.4.6.1 1.2-.4 1.6l-.1.1c-.6.3-1.2.3-1.8-.4-2.9-3-5-4.5-7.6-4.5-2.9 0-4.1 1.3-4.1 3 0 1.9 1.4 2.9 4.7 3.9l4.1 1.2c4.4 1.4 6.9 3.4 6.9 7.4-.2 4.4-3.8 7-8.8 7zm19.4 0c-3.9 0-5.6-1.9-5.6-5.1v-16.1c0-.4-.2-.6-.6-.6h-1.8c-.8 0-1.2-.4-1.2-1.1v-.4c0-.6.2-1 .9-1.4 1.7-1.2 3-2.8 4.4-4.9.4-.7.9-.9 1.5-.9.8 0 1.2.5 1.2 1.3v3.6c0 .4.2.6.6.6h4.6c.8 0 1.2.4 1.2 1.2v.9c0 .8-.4 1.2-1.2 1.2h-4.9c-.4 0-.6.2-.6.6v15.4c0 1.6.8 2.4 2.3 2.4 2.6 0 2.8-1.2 3.9-1.2.6 0 .9.4.9 1 .2 1.7-1.9 3.5-5.6 3.5zm16 0c-5.2 0-8.4-2.4-8.4-7.2 0-5 4.1-8 11.2-8 1.2 0 2.6.1 3.6.2.4.1.7-.1.7-.5v-2.1c0-3.6-1.7-5.1-4.7-5.1-2.2 0-4.1 1.2-5.8 3.8-.5.7-.9.9-1.4.9-.6 0-.9-.4-1.1-.9l-1.2-2.8c-.4-.9-.3-1.4.6-1.9 2.1-1.1 5.7-1.9 8.9-1.9 6.4 0 9.1 3.1 9.1 9l.1 11.6c0 1.1.4 1.6 1.3 1.6 1.4 0 1.7-1.6 2.6-1.6.6 0 1.1.5 1.1 1.2 0 2.1-1.8 3.8-4.3 3.8-2.1 0-3.2-.9-4.3-2.9-.2-.4-.6-.4-.9-.1-1.6 1.8-4.2 2.9-7.1 2.9zm1.2-3.4c2.8 0 4.6-1.4 5.4-2.4.4-.6.6-1.1.6-2v-3.6c0-.4-.1-.6-.6-.8-.9-.2-2.1-.3-3.4-.3-5.2 0-6.9 2-6.9 4.9 0 2.7 1.8 4.2 4.9 4.2zm26.3 2.9h-8.7c-.8 0-1.2-.4-1.2-1.2v-.4c0-.7.4-1.1 1.1-1.2l1-.3c1-.3 1.4-.8 1.4-1.9v-12.9c0-1.5-.4-2.1-2.3-2.6-.8-.2-1.1-.5-1.1-1.2v-.3c0-.6.3-.9 1.1-1.2l4.4-1.8c1.2-.4 1.9 0 1.9 1.2v1.1c0 .5.4.6.8.4l.8-.4c2.4-1.5 5.1-2.4 7.8-2.4 4.1 0 6.3 2.6 6.3 7v13.1c0 1.1.4 1.6 1.4 1.9l1 .3c.7.2 1 .6 1 1.2v.4c0 .8-.5 1.2-1.2 1.2h-5.4c-.8 0-1.2-.4-1.2-1.2v-15.9c0-2.9-.8-4.4-3.3-4.4s-5.2 1-6.6 1.9c-.9.5-1.1 1-1.1 1.9v12.7c0 1.1.4 1.6 1.4 1.9l1 .3c.7.2 1.1.6 1.1 1.2v.4c-.2.8-.7 1.2-1.4 1.2zm29.8.5c-5.6 0-10.5-4.2-10.5-12.2 0-8.4 5.7-13.3 13.2-13.3 1 0 2.3.1 3.4.4.4.1.6-.1.6-.4v-5.2c0-1.4-.1-2.1-2.8-2.5-1-.1-1.1-.6-1.1-1.2v-.2c0-.6.3-.9 1-1.2l5.1-1.9c1.1-.4 2-.1 2 1.2v31.1c0 .8.2 1.6 1.4 1.9l.9.2c.7.2 1.1.5 1.1 1.3v.3c0 .8-.5 1.2-1.2 1.2h-4.7c-.7 0-1.1-.3-1.3-.9l-.1-.6c-.1-.4-.5-.5-.9-.1-1.1.9-3 2.1-6.1 2.1zm2-3.4c2 0 3-.4 3.7-.9.6-.4 1-.9 1-1.7v-13.9c0-1.2-.6-1.7-1.5-2-.9-.2-1.4-.3-2.4-.3-5 0-8.6 3.4-8.6 9.4-.1 5.6 3.3 9.4 7.8 9.4zm40 3.4c-10.1 0-17.4-6.9-17.4-18.5 0-10.2 6.5-17.4 16-17.4 2.4 0 4.5.8 5.7.8 1.6 0 2-.6 2.9-.6h.3c.8 0 1.1.4 1.5 1.1l3.5 8c.4.9.2 1.2-.4 1.7l-.4.2c-.6.4-1.3.4-1.9-.4-3.9-4.9-6.6-7.6-11.5-7.6-6.1 0-11 4.6-11 12.3 0 9.2 5.5 15.6 13.8 15.6 4.5 0 7-1.6 8.9-3.5.7-.7 1.5-1.1 2.2-.7.6.2.9.7.9 1.4.1 2.6-4.5 7.6-13.1 7.6zm24.6-.5h-8.7c-.8 0-1.2-.4-1.2-1.2v-.4c0-.7.4-1.1 1-1.2l1-.3c1-.3 1.4-.8 1.4-1.9v-25.2c0-1.6-.4-2.2-2.3-2.6-.8-.1-1-.5-1-1.1v-.3c0-.6.3-.9 1-1.2l4.7-1.9c1.1-.4 2-.1 2 1.2v13.4c0 .5.5.6.9.4l.7-.4c2.5-1.6 4.9-2.4 7.6-2.4 4.1 0 6.3 2.6 6.3 7.1v13c0 1.1.4 1.6 1.4 1.9l1 .3c.7.2 1 .6 1 1.2v.4c0 .8-.5 1.2-1.2 1.2h-5.4c-.8 0-1.2-.4-1.2-1.2v-15.9c0-2.9-.8-4.4-3.3-4.4s-5.2.9-6.6 1.9c-.9.5-1.1 1-1.1 1.9v12.7c0 1.1.4 1.6 1.4 1.9l1 .3c.7.2 1 .6 1 1.2v.4c-.2.8-.6 1.2-1.4 1.2zm28.4.5c-5.1 0-6.9-2.7-6.9-6.9v-11.6c0-1.6-.4-2.1-2.4-2.4-.8-.1-1-.6-1-1.2v-.2c0-.5.1-.9 1-1.2l4.8-1.9c1.1-.4 2-.1 2 1.2v16.4c0 2.9.7 4.2 3.6 4.2 2.5 0 4.8-.8 6.4-1.9.9-.6 1.1-1.1 1.1-2.1v-10.9c0-1.6-.4-2.1-2.3-2.4-.8-.1-1.1-.5-1.1-1.2v-.2c0-.5.1-.9 1-1.2l4.7-1.9c1.1-.4 1.9-.1 1.9 1.2v18.8c0 1 .4 1.6 1.4 1.9l.9.2c.8.2 1.2.5 1.2 1.3v.3c0 .8-.5 1.2-1.2 1.2h-4.8c-.9 0-1.2-.4-1.4-1.2l-.1-.6c-.1-.6-.5-.7-.9-.4l-.7.6c-1.7 1.3-4.5 2.1-7.2 2.1zm29.2-.5h-9.2c-.8 0-1.2-.4-1.2-1.2v-.4c0-.7.4-1.1 1-1.2l1-.3c1-.3 1.4-.8 1.4-1.9v-12.9c0-1.5-.4-2.1-2.3-2.6-.8-.2-1.1-.5-1.1-1.2v-.3c0-.6.3-.9 1-1.2l4.5-1.8c1.2-.4 2 0 2 1.2v1.2c0 .5.5.8 1 .2 1.8-1.6 4.3-2.8 6.6-2.8 1.2 0 1.8.6 1.7 1.7l-.4 3.4c-.1.9-.6 1.2-1.1 1.2s-.9-.2-1.6-.6c-.9-.6-1.7-1.1-2.9-1.1-2 0-3 1.1-3 3.4v12.2c0 1.1.4 1.6 1.4 1.9l1.5.3c.6.1 1 .4 1 1.2v.4c-.1.8-.5 1.2-1.3 1.2zm18.3 0h-8.7c-.8 0-1.2-.4-1.2-1.2v-.4c0-.7.4-1.1 1-1.2l1-.3c1-.3 1.4-.8 1.4-1.9v-12.9c0-1.5-.4-2.1-2.3-2.6-.8-.2-1.1-.5-1.1-1.2v-.3c0-.6.3-.9 1-1.2l4.5-1.8c1.2-.4 2 0 2 1.2v1.1c0 .5.4.6.8.4l.8-.4c2.4-1.5 5.1-2.4 7.8-2.4 4.1 0 6.3 2.6 6.3 7v13.1c0 1.1.4 1.6 1.4 1.9l1 .3c.7.2 1 .6 1 1.2v.4c0 .8-.5 1.2-1.2 1.2h-5.4c-.8 0-1.2-.4-1.2-1.2v-15.9c0-2.9-.8-4.4-3.3-4.4s-5.2 1-6.6 1.9c-.9.5-1.1 1-1.1 1.9v12.7c0 1.1.4 1.6 1.4 1.9l1 .3c.7.2 1 .6 1 1.2v.4c-.1.8-.6 1.2-1.3 1.2z" fill="#eef2e3"/><g mask="url(#b)"><path d="m578 309h-248c-7.7 0-14 6.3-14 14v339c0 7.7 6.3 14 14 14h248c7.7 0 14-6.3 14-14v-339c0-7.7-6.3-14-14-14z" fill="#eef2e3"/><path d="m583.6 379h-209.7c-4.9 0-8.9 4-8.9 8.9v133c0 4.9 4 8.9 8.9 8.9h209.7c4.9 0 8.9-4 8.9-8.9v-133c0-4.9-4-8.9-8.9-8.9z" fill="#043f2e" stroke="#eef2e3" stroke-miterlimit="10"/><g fill="#eef2e3"><path d="m414.4 393.1h-33.7c-1.3 0-2.4 1.1-2.4 2.4v2.4c0 1.3 1.1 2.4 2.4 2.4h33.7c1.3 0 2.4-1.1 2.4-2.4v-2.4c0-1.4-1.1-2.4-2.4-2.4z"/><path d="m406.4 403.9h-25.7c-1.3 0-2.4 1.1-2.4 2.4v2.4c0 1.3 1.1 2.4 2.4 2.4h25.7c1.3 0 2.4-1.1 2.4-2.4v-2.4c0-1.3-1.1-2.4-2.4-2.4z"/><path d="m450.7 403.9h-33.7c-1.3 0-2.4 1.1-2.4 2.4v2.4c0 1.3 1.1 2.4 2.4 2.4h33.7c1.3 0 2.4-1.1 2.4-2.4v-2.4c0-1.3-1.1-2.4-2.4-2.4z"/><path d="m493.6 403.9h-47.4c-1.3 0-2.4 1.1-2.4 2.4v2.4c0 1.3 1.1 2.4 2.4 2.4h47.4c1.3 0 2.4-1.1 2.4-2.4v-2.4c-.1-1.3-1.1-2.4-2.4-2.4z"/><path d="m502.3 393.1h-77.3c-1.3 0-2.4 1.1-2.4 2.4v2.4c0 1.3 1.1 2.4 2.4 2.4h77.2c1.3 0 2.4-1.1 2.4-2.4v-2.4c0-1.4-1-2.4-2.3-2.4z"/><path d="m414.4 415.2h-33.7c-1.3 0-2.4 1.1-2.4 2.4v2.4c0 1.3 1.1 2.4 2.4 2.4h33.7c1.3 0 2.4-1.1 2.4-2.4v-2.4c0-1.3-1.1-2.4-2.4-2.4z"/><path d="m406.4 426.1h-25.7c-1.3 0-2.4 1.1-2.4 2.4v2.4c0 1.3 1.1 2.4 2.4 2.4h25.7c1.3 0 2.4-1.1 2.4-2.4v-2.4c0-1.4-1.1-2.4-2.4-2.4z"/><path d="m506.2 426.1h-25.7c-1.3 0-2.4 1.1-2.4 2.4v2.4c0 1.3 1.1 2.4 2.4 2.4h25.7c1.3 0 2.4-1.1 2.4-2.4v-2.4c0-1.4-1.1-2.4-2.4-2.4z"/><path d="m450.7 426.1h-33.7c-1.3 0-2.4 1.1-2.4 2.4v2.4c0 1.3 1.1 2.4 2.4 2.4h33.7c1.3 0 2.4-1.1 2.4-2.4v-2.4c0-1.4-1.1-2.4-2.4-2.4z"/><path d="m479.8 426.1h-33.7c-1.3 0-2.4 1.1-2.4 2.4v2.4c0 1.3 1.1 2.4 2.4 2.4h33.7c1.3 0 2.4-1.1 2.4-2.4v-2.4c0-1.4-1.1-2.4-2.4-2.4z"/><path d="m527.9 415.2h-102.9c-1.3 0-2.4 1.1-2.4 2.4v2.4c0 1.3 1.1 2.4 2.4 2.4h102.9c1.3 0 2.4-1.1 2.4-2.4v-2.4c0-1.3-1-2.4-2.4-2.4z"/><path d="m414.4 437.4h-33.7c-1.3 0-2.4 1.1-2.4 2.4v2.4c0 1.3 1.1 2.4 2.4 2.4h33.7c1.3 0 2.4-1.1 2.4-2.4v-2.4c0-1.3-1.1-2.4-2.4-2.4z"/><path d="m406.4 448.3h-25.7c-1.3 0-2.4 1.1-2.4 2.4v2.4c0 1.3 1.1 2.4 2.4 2.4h25.7c1.3 0 2.4-1.1 2.4-2.4v-2.4c0-1.4-1.1-2.4-2.4-2.4z"/><path d="m450.7 448.3h-33.7c-1.3 0-2.4 1.1-2.4 2.4v2.4c0 1.3 1.1 2.4 2.4 2.4h33.7c1.3 0 2.4-1.1 2.4-2.4v-2.4c0-1.4-1.1-2.4-2.4-2.4z"/><path d="m429.2 459.9h-48.5c-1.3 0-2.4 1.1-2.4 2.4v2.4c0 1.3 1.1 2.4 2.4 2.4h48.5c1.3 0 2.4-1.1 2.4-2.4v-2.4c0-1.4-1-2.4-2.4-2.4z"/><path d="m491 459.9h-51.1c-1.3 0-2.4 1.1-2.4 2.4v2.4c0 1.3 1.1 2.4 2.4 2.4h51.1c1.3 0 2.4-1.1 2.4-2.4v-2.4c-.1-1.4-1.1-2.4-2.4-2.4z"/><path d="m479.8 448.3h-33.7c-1.3 0-2.4 1.1-2.4 2.4v2.4c0 1.3 1.1 2.4 2.4 2.4h33.7c1.3 0 2.4-1.1 2.4-2.4v-2.4c0-1.4-1.1-2.4-2.4-2.4z"/><path d="m502.3 437.4h-77.3c-1.3 0-2.4 1.1-2.4 2.4v2.4c0 1.3 1.1 2.4 2.4 2.4h77.2c1.3 0 2.4-1.1 2.4-2.4v-2.4c0-1.3-1-2.4-2.3-2.4z"/></g><path d="m623.5 637.7s59.7 29.8 103.1-3.6l20-62-123.8-81.9-113.8 50.3s-29.5 26.3-3.4 36.3l30.5-2.8s-5.5 12.9 13.8 28.3c0 0 3.8 9.6 25.8 20.2 10.5 5.1 42.2 13 47.8 15.2z" fill="#043f2e" stroke="#eef2e3" stroke-miterlimit="10"/><path d="m625 607.4 23-24.8-109.5-101.4-23 24.8z" fill="#043f2e" stroke="#eef2e3" stroke-miterlimit="10"/><path d="m532.4 498.6c6.4-6.9 9.3-14.4 6.7-16.9s-10 1.1-16.3 7.9c-6.4 6.9-9.3 14.4-6.7 16.9s9.9-1.1 16.3-7.9z" fill="#043f2e" stroke="#eef2e3" stroke-miterlimit="10"/><path d="m523.4 478.2 9.3 8.6c.8.7-1.3 4.2-4.6 7.8s-6.6 5.9-7.4 5.2l-9.3-8.6z" fill="#043f2e" stroke="#eef2e3" stroke-miterlimit="10"/><path d="m478.2 506.6c28.8 0 52.1-23.3 52.1-52.1s-23.3-52.1-52.1-52.1-52.1 23.3-52.1 52.1 23.3 52.1 52.1 52.1z" fill="#043f2e" stroke="#eef2e3" stroke-miterlimit="10"/><path d="m478.2 500.9c25.7 0 46.5-20.8 46.5-46.5s-20.9-46.4-46.5-46.4c-25.7 0-46.5 20.8-46.5 46.5s20.8 46.4 46.5 46.4z" fill="#043f2e" stroke="#eef2e3" stroke-miterlimit="10"/><path d="m478.2 497.1c23.5 0 42.6-19.1 42.6-42.6s-19.1-42.6-42.6-42.6-42.6 19.1-42.6 42.6 19 42.6 42.6 42.6z" fill="#043f2e"/><path d="m756 533.3s-123.2-82.7-141.7-80.4-76.4 48.6-76.4 48.6-17.7 15 1.1 27.2 74.3-19.1 74.3-19.1 16 62.2 80.7 76.1c0 0 31.4 3.3 52.7-13.6z" fill="#043f2e" stroke="#eef2e3" stroke-miterlimit="10"/><path d="m596.1 607.7 27.9-8.2s18.4-6 24.8 9.4c6.3 15.5-13.7 19.8-13.7 19.8l-40 9.2s-18.5 3.4-21.6-9.5 10.4-17.1 22.6-20.7z" fill="#043f2e" stroke="#eef2e3" stroke-miterlimit="10"/><path d="m563.6 595.5 49.6-22s18.1-7.8 26.5 5.7c8.5 13.5-11.9 23.3-11.9 23.3l-57.2 21.5s-17.1 3.6-20.9-9.7c-3.7-13.2 13.9-18.8 13.9-18.8z" fill="#043f2e" stroke="#eef2e3" stroke-miterlimit="10"/><path d="m530.3 576.6 74.1-33.2s18.4-10 27.9 5-14 23.6-14 23.6l-67.9 33.7s-17.8 2.6-24.3-11.3c-6.7-14 4.2-17.8 4.2-17.8z" fill="#043f2e" stroke="#eef2e3" stroke-miterlimit="10"/><path d="m565.8 529.3s12.6-.4 18.2 6.6c6.1 7.6 4.7 18.6-2.6 21.8-7.4 3.3-46.2 17.8-67.1 23.1-12.9 3.3-36.2-13.9-19.5-34.5 3.5-4.3 14.2-5.8 14.2-5.8z" fill="#043f2e" stroke="#eef2e3" stroke-miterlimit="10"/><path d="m489.1 439.2h2.7c.3 0 .5-.2.5-.5s-.2-.5-.5-.5h-6.1c-.3 0-.5.2-.5.5s.2.5.5.5h2.3v6 .2h-2.2v10.7h2.6v.1 6h-2.7c-.3 0-.5.2-.5.5s.2.5.5.5h6.1c.3 0 .5-.2.5-.5s-.2-.5-.5-.5h-2.3v-6c0-.1 0-.1 0-.1h2.2v-10.7h-2.6s0-.1 0-.2z" fill="#eef2e3"/><path d="m449.4 447.8c.3 0 .5-.2.5-.5s-.2-.5-.5-.5h-6.1c-.3 0-.5.2-.5.5s.2.5.5.5h2.3v5.8h-2.6v11.5h3v5.8h-2.7c-.3 0-.5.2-.5.5s.2.5.5.5h6.1c.3 0 .5-.2.5-.5s-.2-.5-.5-.5h-2.4v-5.8h2.6v-11.5h-3v-5.8z" fill="#eef2e3"/><path d="m481.2 439.7c.3 0 .5-.2.5-.5s-.2-.5-.5-.5h-6.1c-.3 0-.5.2-.5.5s.2.5.5.5h2.3v5.8h-2.6v22.5h3v2.5h-2.7c-.3 0-.5.2-.5.5s.2.5.5.5h6.1c.3 0 .5-.2.5-.5s-.2-.5-.5-.5h-2.3v-2.5h2.6v-22.6h-3v-5.8h2.7z" fill="#eef2e3"/><path d="m470.6 450.7c.3 0 .5-.2.5-.5s-.2-.5-.5-.5h-6.1c-.3 0-.5.2-.5.5s.2.5.5.5h2.3v8.6h-2.6v11.5h3v2.9h-2.7c-.3 0-.5.2-.5.5s.2.5.5.5h6.1c.3 0 .5-.2.5-.5s-.2-.5-.5-.5h-2.3v-2.9h2.6v-11.5h-3v-8.6z" fill="#eef2e3"/><path d="m460 443.7c.3 0 .5-.2.5-.5s-.2-.5-.5-.5h-6.1c-.3 0-.5.2-.5.5s.2.5.5.5h2.3v7.4h-2.6v14.2h3v3.5h-2.7c-.3 0-.5.2-.5.5s.2.5.5.5h6.1c.3 0 .5-.2.5-.5s-.2-.5-.5-.5h-2.3v-3.5h2.6v-14.2h-3v-7.4z" fill="#eef2e3"/><path d="m502.5 435.2c.3 0 .5-.2.5-.5s-.2-.5-.5-.5h-6.1c-.3 0-.5.2-.5.5s.2.5.5.5h2.3v7.8h-2.2v15.6h2.6v1.7h-2.7c-.3 0-.5.2-.5.5s.2.5.5.5h6.1c.3 0 .5-.2.5-.5s-.2-.5-.5-.5h-2.3v-1.7h2.2v-15.6h-2.6v-7.8z" fill="#eef2e3"/><path d="m513.1 465.2h-2.3v-3h2.5v-11.2h-2.9v-8.8h2.7c.3 0 .5-.2.5-.5s-.2-.5-.5-.5h-6.1c-.3 0-.5.2-.5.5s.2.5.5.5h2.3v8.8h-2.5v11.2h2.9v3h-2.7c-.3 0-.5.2-.5.5s.2.5.5.5h6.1c.3 0 .5-.2.5-.5s-.2-.5-.5-.5z" fill="#eef2e3"/><path d="m560.6 484.2s1 23.1-29.6 35.2" fill="none" stroke="#eef2e3" stroke-miterlimit="10"/><path d="m575.7 531s-20.7 8.7-17 20c1.2 3.5 4.6 9.1 28.3 0" fill="none" stroke="#eef2e3" stroke-miterlimit="10"/></g><path d="m43.4 377h1.6l3.3-11.3 3.2 11.3h1.6l3.7-14.3h-1.6l-2.9 11.6-3.3-11.6h-1.2l-3.4 11.5-2.9-11.5h-1.8zm15.4 0h1.7v-6.3c0-1.9 1.4-2.9 2.9-2.9 1.7 0 2.5.8 2.5 2.7v6.5h1.7v-6.4c0-3-1.5-4.2-3.7-4.2-1.7 0-2.9.9-3.4 1.8v-6.7h-1.7zm12.2 3.6h1.7l5.8-14.1h-1.7l-2.9 7.5-3.2-7.5h-1.8l4.1 9.4zm17.7-3.6h1.7v-6.2l4.5-8.1h-1.7l-3.6 6.6-3.7-6.6h-2l4.8 8.1zm11-1.2c-2.1 0-3.4-1.6-3.4-3.9v-.2c0-2.4 1.3-4 3.4-4s3.4 1.6 3.4 4v.1c0 2.4-1.3 4-3.4 4zm0 1.4c3 0 5.2-2.2 5.2-5.3v-.2c0-3.1-2.2-5.3-5.1-5.3-3 0-5.1 2.2-5.1 5.3v.2c-.2 3 2 5.3 5 5.3zm10.8 0c1.7 0 2.8-.9 3.3-1.8v1.7h1.7v-10.5h-1.7v6.3c0 1.9-1.4 2.9-2.9 2.9-1.6 0-2.4-.8-2.4-2.7v-6.5h-1.7v6.6c.1 2.8 1.7 4 3.7 4zm13-.2h1.7v-12.3l7.2 12.3h2v-14.3h-1.7v11.8l-7-11.8h-2.3v14.3zm18.2.2c2.4 0 4.1-1.1 4.5-3.2h-1.7c-.2 1.2-1.2 1.8-2.8 1.8-2.1 0-3.3-1.3-3.4-3.7h7.9v-.5c0-3.7-2.3-5.2-4.7-5.2-2.9 0-4.9 2.2-4.9 5.4v.2c.1 3.1 2.2 5.2 5.1 5.2zm-3.3-6.4c.3-1.9 1.4-3 3.1-3s2.8.9 3 3zm14.3 6.4c2.4 0 4.1-1.1 4.5-3.2h-1.7c-.2 1.2-1.2 1.8-2.8 1.8-2.1 0-3.3-1.3-3.4-3.7h7.9v-.5c0-3.7-2.3-5.2-4.7-5.2-2.9 0-4.9 2.2-4.9 5.4v.2c0 3.1 2.1 5.2 5.1 5.2zm-3.3-6.4c.3-1.9 1.4-3 3.1-3s2.8.9 3 3zm13.9 6.4c1.5 0 3-1 3.6-2v1.8h1.7v-15.5h-1.7v6.7c-.6-1-1.7-1.9-3.4-1.9-2.9 0-4.9 2.3-4.9 5.5v.2c0 3.2 2 5.2 4.7 5.2zm.2-1.4c-1.8 0-3.2-1.3-3.2-3.9v-.2c0-2.5 1.2-4 3.3-4 2 0 3.3 1.3 3.3 3.9v.2c0 2.7-1.5 4-3.4 4zm15.5 1.4c1.5 0 2.5-.5 3.3-1.5v1.3h1.7v-6.9c0-2.9-1.8-3.7-3.8-3.7s-3.9.9-4.1 3.3h1.7c.2-1.3 1-1.9 2.4-1.9 1.6 0 2.2.7 2.2 2.4v.8h-1.5c-2.7 0-5.2.8-5.2 3.2-.2 2 1.4 3 3.3 3zm.2-1.3c-1.5 0-2-.7-2-1.8 0-1.5 1.5-2.1 3.6-2.1h1.4v1.3c.1 1.7-1.3 2.6-3 2.6zm-135.5 25.1h1.7v-12.9h4.2v-1.4h-10v1.4h4.2v12.9zm10.6-1.2c-2.1 0-3.4-1.6-3.4-3.9v-.2c0-2.4 1.3-4 3.4-4s3.4 1.6 3.4 4v.1c.1 2.4-1.3 4-3.4 4zm0 1.4c3 0 5.2-2.2 5.2-5.3v-.2c0-3.1-2.2-5.3-5.1-5.3s-5.1 2.2-5.1 5.3v.2c-.1 3 2 5.3 5 5.3zm11.7-1.4c-2.1 0-3.4-1.6-3.4-3.9v-.2c0-2.4 1.3-4 3.4-4s3.4 1.6 3.4 4v.1c0 2.4-1.3 4-3.4 4zm0 1.4c3 0 5.2-2.2 5.2-5.3v-.2c0-3.1-2.2-5.3-5.1-5.3s-5.1 2.2-5.1 5.3v.2c-.1 3 2 5.3 5 5.3zm7.4-.2h1.6v-15.5h-1.7v15.5zm9.9 0h1.7v-9.1h2.6v-1.4h-2.6v-1.9c0-1.1.4-1.8 1.5-1.8.5 0 .9.1 1.2.2v-1.4c-.4-.1-.7-.2-1.2-.2-2.1 0-3.1 1.2-3.1 3.4v1.7h-1.5v1.4h1.5v9.1zm10-1.2c-2.1 0-3.4-1.6-3.4-3.9v-.2c0-2.4 1.3-4 3.4-4s3.4 1.6 3.4 4v.1c0 2.4-1.3 4-3.4 4zm0 1.4c3 0 5.2-2.2 5.2-5.3v-.2c0-3.1-2.2-5.3-5.1-5.3s-5.1 2.2-5.1 5.3v.2c-.1 3 2 5.3 5 5.3zm7.3-.2h1.7v-5.7c0-2.6 1.3-3.2 3.4-3.3v-1.6c-1.9.1-2.8.9-3.4 2.1v-1.9h-1.7zm11.1 0h1.6l1.4-4.1h5.9l1.4 4.1h1.7l-4.8-14.3h-2.3zm5.9-12.9 2.5 7.4h-5zm11.8 13.1c1.5 0 3-1 3.6-2v1.8h1.7v-15.5h-1.7v6.7c-.6-1-1.7-1.9-3.4-1.9-2.9 0-4.9 2.3-4.9 5.5v.2c0 3.2 2 5.2 4.7 5.2zm.2-1.4c-1.8 0-3.2-1.3-3.2-3.9v-.2c0-2.5 1.2-4 3.3-4 2 0 3.3 1.3 3.3 3.9v.2c.1 2.7-1.4 4-3.4 4zm10.7 1.2h2.1l3.8-10.5h-1.7l-3.1 8.8-3.1-8.8h-1.8zm10.2.2c1.5 0 2.5-.5 3.3-1.5v1.3h1.7v-6.9c0-2.9-1.8-3.7-3.8-3.7s-3.9.9-4.1 3.3h1.7c.2-1.3 1-1.9 2.4-1.9 1.6 0 2.2.7 2.2 2.4v.8h-1.5c-2.7 0-5.2.8-5.2 3.2-.2 2 1.3 3 3.3 3zm.1-1.3c-1.5 0-2-.7-2-1.8 0-1.5 1.5-2.1 3.6-2.1h1.4v1.3c.1 1.7-1.2 2.6-3 2.6zm7.6 1.1h1.7v-6.3c0-1.9 1.4-2.9 2.9-2.9 1.7 0 2.5.8 2.5 2.7v6.5h1.7v-6.4c0-3-1.5-4.2-3.7-4.2-1.7 0-2.9.9-3.4 1.8v-1.7h-1.7zm15.9.2c2.5 0 4.3-1.7 4.6-3.9h-1.5c-.2 1.7-1.5 2.6-3 2.6-2 0-3.4-1.4-3.4-3.9v-.2c0-2.5 1.5-4 3.4-4 1.4 0 2.6.6 2.9 2.3h1.6c-.3-2.7-2.4-3.7-4.5-3.7-2.8 0-5.1 2.2-5.1 5.4v.2c-.1 3.1 2.1 5.2 5 5.2zm11 0c2.4 0 4.1-1.1 4.5-3.2h-1.7c-.2 1.2-1.2 1.8-2.8 1.8-2.1 0-3.3-1.3-3.4-3.7h7.9v-.5c0-3.7-2.3-5.2-4.7-5.2-2.9 0-4.9 2.2-4.9 5.4v.2c0 3.1 2.1 5.2 5.1 5.2zm-3.3-6.4c.3-1.9 1.4-3 3.1-3s2.8.9 3 3zm13.9 6.4c1.5 0 3-1 3.6-2v1.8h1.7v-15.5h-1.7v6.7c-.6-1-1.7-1.9-3.4-1.9-2.9 0-4.9 2.3-4.9 5.5v.2c0 3.2 2 5.2 4.7 5.2zm.2-1.4c-1.8 0-3.2-1.3-3.2-3.9v-.2c0-2.5 1.2-4 3.3-4 2 0 3.3 1.3 3.3 3.9v.2c0 2.7-1.5 4-3.4 4zm-156.2 25.2h1.6l1.4-4.1h5.9l1.4 4.1h1.7l-4.8-14.3h-2.3zm6-12.9 2.5 7.4h-5zm8.1 12.9h1.7v-6.3c0-1.9 1.4-2.9 2.9-2.9 1.7 0 2.5.8 2.5 2.7v6.5h1.7v-6.4c0-3-1.5-4.2-3.7-4.2-1.7 0-2.9.9-3.4 1.8v-1.7h-1.7zm14.1.2c1.5 0 2.5-.5 3.3-1.5v1.3h1.7v-6.9c0-2.9-1.8-3.7-3.8-3.7s-3.9.9-4.1 3.3h1.7c.2-1.3 1-1.9 2.4-1.9 1.6 0 2.2.7 2.2 2.4v.8h-1.5c-2.7 0-5.2.8-5.2 3.2-.2 2 1.4 3 3.3 3zm.2-1.3c-1.5 0-2-.7-2-1.8 0-1.5 1.5-2.1 3.6-2.1h1.4v1.3c.1 1.7-1.3 2.6-3 2.6zm7.7 1.1h1.7v-15.5h-1.7zm5.6 3.6h1.6l5.8-14.1h-1.7l-2.9 7.5-3.2-7.5h-1.8l4.1 9.4zm12.5-3.4c2.5 0 3.8-1.3 3.8-3.2 0-2.2-1.5-2.7-3.7-3.1-1.9-.3-2.4-.7-2.4-1.7 0-.9.8-1.5 2-1.5 1.3 0 2 .5 2.2 1.6h1.6c-.3-2.3-1.9-3-3.8-3-1.6 0-3.5 1-3.5 2.9 0 1.8.9 2.6 3.6 3.1 1.6.3 2.4.7 2.4 1.8s-.7 1.7-2.3 1.7c-1.7 0-2.3-.8-2.5-2h-1.6c.2 2.1 1.7 3.4 4.2 3.4zm6-.2h1.7v-10.5h-1.7zm.8-12.6c.6 0 1.1-.5 1.1-1.1s-.5-1.1-1.1-1.1-1.1.5-1.1 1.1.5 1.1 1.1 1.1zm7.1 12.8c2.5 0 3.8-1.3 3.8-3.2 0-2.2-1.5-2.7-3.7-3.1-1.9-.3-2.4-.7-2.4-1.7 0-.9.8-1.5 2-1.5 1.3 0 2 .5 2.2 1.6h1.6c-.3-2.3-1.9-3-3.8-3-1.6 0-3.5 1-3.5 2.9 0 1.8.9 2.6 3.6 3.1 1.6.3 2.4.7 2.4 1.8s-.7 1.7-2.3 1.7c-1.7 0-2.3-.8-2.5-2h-1.6c.2 2.1 1.7 3.4 4.2 3.4zm14-.1c.7 0 1.1-.1 1.4-.2v-1.4c-.4.1-.8.2-1.3.2-.8 0-1.3-.5-1.3-1.5v-6.3h2.4v-1.4h-2.4v-2.4h-1.6v2.4h-1.5v1.4h1.5v6.4c0 1.7.9 2.8 2.8 2.8zm7.9-1.3c-2.1 0-3.4-1.6-3.4-3.9v-.2c0-2.4 1.3-4 3.4-4s3.4 1.6 3.4 4v.1c0 2.4-1.3 4-3.4 4zm0 1.4c3 0 5.2-2.2 5.2-5.3v-.2c0-3.1-2.2-5.3-5.1-5.3s-5.1 2.2-5.1 5.3v.2c-.1 3 2 5.3 5 5.3zm18.5 0c3.7 0 6.2-2.2 6.2-6.3v-1.1h-5.9v1.4h4.2c-.1 2.5-1.4 4.6-4.5 4.6-3.4 0-5.1-2.3-5.1-5.9v-.2c0-3.5 1.9-5.9 5.2-5.9 2.1 0 3.6.9 4 3.2h1.7c-.4-3.2-3-4.5-5.8-4.5-4.1 0-6.9 3.1-6.9 7.3v.2c0 4.1 2.5 7.2 6.9 7.2zm12.9 0c2.4 0 4.1-1.1 4.5-3.2h-1.7c-.2 1.2-1.2 1.8-2.8 1.8-2.1 0-3.3-1.3-3.4-3.7h7.9v-.5c0-3.7-2.3-5.2-4.7-5.2-2.9 0-4.9 2.2-4.9 5.4v.2c0 3.1 2.1 5.2 5.1 5.2zm-3.3-6.4c.3-1.9 1.4-3 3.1-3s2.8.9 3 3zm13.2 6.3c.7 0 1.1-.1 1.4-.2v-1.4c-.4.1-.8.2-1.3.2-.8 0-1.3-.5-1.3-1.5v-6.3h2.4v-1.4h-2.4v-2.4h-1.7v2.4h-1.5v1.4h1.5v6.4c.1 1.7 1 2.8 2.9 2.8zm11.6 0c.7 0 1.1-.1 1.4-.2v-1.4c-.4.1-.8.2-1.3.2-.8 0-1.3-.5-1.3-1.5v-6.3h2.4v-1.4h-2.4v-2.4h-1.7v2.4h-1.5v1.4h1.5v6.4c.1 1.7 1 2.8 2.9 2.8zm7.9-1.3c-2.1 0-3.4-1.6-3.4-3.9v-.2c0-2.4 1.3-4 3.4-4s3.4 1.6 3.4 4v.1c0 2.4-1.3 4-3.4 4zm-.1 1.4c3 0 5.2-2.2 5.2-5.3v-.2c0-3.1-2.2-5.3-5.1-5.3s-5.1 2.2-5.1 5.3v.2c-.1 3 2.1 5.3 5 5.3zm-146.5 23.9c.7 0 1.1-.1 1.4-.2v-1.4c-.4.1-.8.2-1.3.2-.8 0-1.3-.5-1.3-1.5v-6.3h2.4v-1.4h-2.4v-2.4h-1.7v2.4h-1.5v1.4h1.5v6.4c0 1.7 1 2.8 2.9 2.8zm3.5-.1h1.6v-6.3c0-1.9 1.4-2.9 2.9-2.9 1.7 0 2.5.8 2.5 2.7v6.5h1.7v-6.4c0-3-1.5-4.2-3.7-4.2-1.7 0-2.9.9-3.4 1.8v-6.7h-1.7zm15.8.2c2.4 0 4.1-1.1 4.5-3.2h-1.7c-.2 1.2-1.2 1.8-2.8 1.8-2.1 0-3.3-1.3-3.4-3.7h7.9v-.5c0-3.7-2.3-5.2-4.7-5.2-2.9 0-4.9 2.2-4.9 5.4v.2c.1 3.1 2.2 5.2 5.1 5.2zm-3.3-6.4c.3-1.9 1.4-3 3.1-3s2.8.9 3 3zm15 6.2h1.7v-6.2h2.2l4.3 6.2h1.9l-4.4-6.3c2-.4 3.5-1.5 3.5-3.9v-.1c0-2.9-2.3-4-5-4h-4.3v14.3zm1.8-7.6v-5.3h2.7c1.9 0 3.1.6 3.1 2.6v.1c0 1.8-1.1 2.6-3.1 2.6zm14.3 6.4c-2.1 0-3.4-1.6-3.4-3.9v-.2c0-2.4 1.3-4 3.4-4s3.4 1.6 3.4 4v.1c0 2.4-1.3 4-3.4 4zm0 1.4c3 0 5.2-2.2 5.2-5.3v-.2c0-3.1-2.2-5.3-5.1-5.3s-5.1 2.2-5.1 5.3v.2c-.1 3 2 5.3 5 5.3zm11.7-1.4c-2.1 0-3.4-1.6-3.4-3.9v-.2c0-2.4 1.3-4 3.4-4s3.4 1.6 3.4 4v.1c0 2.4-1.3 4-3.4 4zm0 1.4c3 0 5.2-2.2 5.2-5.3v-.2c0-3.1-2.2-5.3-5.1-5.3-3 0-5.1 2.2-5.1 5.3v.2c-.1 3 2 5.3 5 5.3zm10.5-.1c.7 0 1.1-.1 1.4-.2v-1.4c-.4.1-.8.2-1.3.2-.8 0-1.3-.5-1.3-1.5v-6.3h2.4v-1.4h-2.4v-2.4h-1.7v2.4h-1.5v1.4h1.5v6.4c.1 1.7 1 2.8 2.9 2.8zm14.5.1c3.2 0 5.5-1.6 6-4.9h-1.6c-.4 2.3-2 3.5-4.3 3.5-3.1 0-4.9-2.2-4.9-5.8v-.2c0-3.6 2-5.9 4.9-5.9 2.4 0 3.7 1.1 4.1 3.3h1.7c-.3-3.1-2.8-4.7-5.8-4.7-3.9 0-6.7 3.1-6.7 7.3v.2c-.1 4.3 2.5 7.2 6.6 7.2zm10.9 0c1.5 0 2.5-.5 3.3-1.5v1.3h1.7v-6.9c0-2.9-1.8-3.7-3.8-3.7s-3.9.9-4.1 3.3h1.7c.2-1.3 1-1.9 2.4-1.9 1.6 0 2.2.7 2.2 2.4v.8h-1.5c-2.7 0-5.2.8-5.2 3.2-.1 2 1.4 3 3.3 3zm.2-1.3c-1.5 0-2-.7-2-1.8 0-1.5 1.5-2.1 3.6-2.1h1.4v1.3c.1 1.7-1.2 2.6-3 2.6zm11.2 1.3c1.7 0 2.8-.9 3.3-1.8v1.7h1.7v-10.5h-1.7v6.3c0 1.9-1.4 2.9-2.9 2.9-1.6 0-2.4-.8-2.4-2.7v-6.5h-1.7v6.6c0 2.8 1.6 4 3.7 4zm11.1 0c2.5 0 3.8-1.3 3.8-3.2 0-2.2-1.5-2.7-3.7-3.1-1.9-.3-2.4-.7-2.4-1.7 0-.9.8-1.5 2-1.5 1.3 0 2 .5 2.2 1.6h1.6c-.3-2.3-1.9-3-3.8-3-1.6 0-3.5 1-3.5 2.9 0 1.8.9 2.6 3.6 3.1 1.6.3 2.4.7 2.4 1.8s-.7 1.7-2.3 1.7c-1.7 0-2.3-.8-2.5-2h-1.5c.1 2.1 1.6 3.4 4.1 3.4zm10.3 0c2.4 0 4.1-1.1 4.5-3.2h-1.7c-.2 1.2-1.2 1.8-2.8 1.8-2.1 0-3.3-1.3-3.4-3.7h7.9v-.5c0-3.7-2.3-5.2-4.7-5.2-2.9 0-4.9 2.2-4.9 5.4v.2c0 3.1 2.1 5.2 5.1 5.2zm-3.3-6.4c.3-1.9 1.4-3 3.1-3s2.8.9 3 3z" fill="#eef2e3"/><path d="m489.9 746.4c0-.5 0-.7 0-.9-.1-.3-.2-.6-.4-.8s-.5-.4-.8-.4c-.2 0-.4 0-.9 0h-1.5c-.5 0-.7 0-.9 0-.3-.1-.6-.2-.8-.4s-.4-.5-.4-.8c0-.2 0-.4 0-.9v-11.3c0-.5 0-.7 0-.9.1-.3.2-.6.4-.8s.5-.4.8-.4h.9 1.5.9c.3-.1.6-.2.8-.4s.4-.5.4-.8c0-.2 0-.4 0-.9v-16.2c0-.5 0-.7 0-.9-.1-.3-.2-.6-.4-.8s-.5-.4-.8-.4c-.2 0-.4 0-.9 0h-9.5c-.2 0-.4 0-.6 0-.4.1-.8.3-1.1.7-.1.2-.2.3-.3.5l-9.1 17.7-9-17.7c-.1-.2-.2-.3-.3-.5-.3-.4-.6-.6-1.1-.7-.2 0-.4 0-.6 0h-12.9c-.5 0-.7 0-.9 0-.3.1-.6.2-.8.4s-.4.5-.5.8v.9 7.4.9c.1.3.2.6.4.8s.5.4.8.4h.9 1.5.9c.3.1.6.2.8.4s.4.5.4.8v.9 10.7.9c-.1.3-.2.6-.4.8s-.5.4-.8.4c-.2 0-.4 0-.9 0h-1.5c-.5 0-.7 0-.9 0-.3.1-.6.2-.8.4s-.4.5-.4.8v.9 17.6.9c.1.3.2.6.4.8s.5.4.8.4h.9 13.2.9c.3-.1.6-.2.8-.4s.4-.5.4-.8c0-.2 0-.4 0-.9v-8.2c0-.5 0-.7 0-.9-.1-.3-.2-.6-.4-.8s-.5-.4-.8-.4c-.2 0-.4 0-.9 0h-1.4c-.5 0-.7 0-.9 0-.3-.1-.6-.2-.8-.4s-.4-.5-.4-.8c0-.2 0-.4 0-.9v-16.6l9.5 18.8c.3.5.4.7.5.9.2.2.5.3.8.3s.6-.1.8-.3c.1-.1.3-.4.5-.9l10.6-19.9v17.7.9c-.1.3-.2.6-.4.8s-.5.4-.8.4c-.2 0-.4 0-.9 0h-2.8c-.5 0-.7 0-.9 0-.3.1-.6.2-.8.4s-.4.5-.4.8v.9 8.2.9c.1.3.2.6.4.8s.5.4.8.4h.9 17.3.9c.3-.1.6-.2.8-.4s.4-.5.4-.8c0-.2 0-.4 0-.9z" fill="#043f2e"/><path d="m522.9 726.1c-.4-1.3-1.2-2.6-2.2-3.6s-2.2-1.7-3.6-2.2c-1.3-.4-3-.4-6.4-.4h-5c-3.3 0-5 0-6.4.4-1.3.4-2.6 1.2-3.6 2.2s-1.8 2.2-2.2 3.6c-.4 1.3-.4 3-.4 6.3v11.8c0 3.3 0 5 .4 6.3s1.2 2.6 2.2 3.6 2.2 1.7 3.6 2.2c1.3.4 3 .4 6.4.4h5c3.3 0 5 0 6.4-.4 1.3-.4 2.6-1.2 3.6-2.2s1.8-2.2 2.2-3.6c.4-1.3.4-3 .4-6.3v-11.8c.1-3.3.1-5-.4-6.3zm-6.2 12.8c0 1.4 0 2.1-.2 2.7s-.5 1.1-.9 1.5-.9.7-1.5.9-1.3.2-2.7.2h-6.1c-1.4 0-2.1 0-2.7-.2s-1.1-.5-1.5-.9-.7-.9-.9-1.5-.2-1.3-.2-2.7v-1.1c0-1.4 0-2.1.2-2.7s.5-1.1.9-1.5.9-.7 1.5-.9 1.3-.2 2.7-.2h6.1c1.4 0 2.1 0 2.7.2s1.1.5 1.5.9.7.9.9 1.5.2 1.3.2 2.7z" fill="#043f2e"/><path d="m557.6 708.9c-.1-.2-.2-.4-.3-.5s-.3-.3-.5-.3c-.2-.1-.4-.1-1-.1h-5.3c-.5 0-.8 0-1 .1s-.4.2-.5.3-.3.3-.3.5c-.1.2-.1.4-.1 1v7.6c0 .6 0 .9-.1 1.2s-.2.5-.4.7-.4.3-.7.4-.6.1-1.2.1h-6.2c-3.3 0-5 0-6.4.4-1.3.4-2.6 1.2-3.6 2.2s-1.8 2.2-2.2 3.6c-.4 1.3-.4 3-.4 6.3v11.8c0 3.3 0 5 .4 6.3s1.2 2.6 2.2 3.6 2.2 1.7 3.6 2.2c1.3.4 3 .4 6.4.4h5c3.3 0 5 0 6.4-.4 1.3-.4 2.6-1.2 3.6-2.2s1.8-2.2 2.2-3.6c.4-1.3.4-3 .4-6.3v-34.4c.1-.4.1-.7 0-.9zm-7.4 30c0 1.4 0 2.1-.2 2.7s-.5 1.1-.9 1.5-.9.7-1.5.9-1.3.2-2.7.2h-5.3c-1.4 0-2.1 0-2.7-.2s-1.1-.5-1.5-.9-.7-.9-.9-1.5-.2-1.3-.2-2.7v-1.1c0-1.4 0-2.1.2-2.7s.5-1.1.9-1.5.9-.7 1.5-.9 1.3-.2 2.7-.2h5.3c1.4 0 2.1 0 2.7.2s1.1.5 1.5.9.7.9.9 1.5.2 1.3.2 2.7z" fill="#043f2e"/><path d="m574.3 748.3c-1.4 0-2.1 0-2.7-.2s-1.1-.5-1.5-.9-.7-.9-.9-1.5c-.1-.4-.2-.8-.2-1.4h21.4c.4 0 .8-.2 1.1-.5s.5-.7.5-1.1v-10.2c0-3.3 0-5-.4-6.3s-1.2-2.6-2.2-3.6-2.2-1.7-3.6-2.2c-1.3-.4-3-.4-6.4-.4h-5c-3.3 0-5 0-6.4.4-1.3.4-2.6 1.2-3.6 2.2s-1.8 2.2-2.2 3.6c-.4 1.3-.4 3-.4 6.3v11.8c0 3.3 0 5 .4 6.3s1.2 2.6 2.2 3.6 2.2 1.7 3.6 2.2c1.3.4 3 .4 6.4.4h9c2 0 3.9-.7 5.5-2 1.5-1.3 2.6-3 3-5 0-.2 0-.4 0-.6s-.1-.4-.3-.5c-.1-.2-.3-.3-.5-.4s-.4-.1-.6-.1zm-5.1-13.2c.2-.6.5-1.1.9-1.5s.9-.7 1.5-.9 1.3-.2 2.7-.2h5.2c1.4 0 2.1 0 2.7.2s1.1.5 1.5.9.7.9.9 1.5.2 1.3.2 2.7v.6h-15.8v-.6c0-1.4 0-2.1.2-2.7z" fill="#043f2e"/><path d="m1250.5-10.6h-620.5v811.4h620.5z" fill="#043f2e"/><g fill="#fcfcfc"><path d="m696.1 87c.8 0 1.2-.4 1.2-1.2v-.4c0-.7-.3-1.2-1-1.3l-2.1-.6c-1-.2-1.3-.7-1.3-1.7v-23.3c0-1.5.5-2.4 2-2.4h.3c2.7 0 4.8 1.6 7.9 7.2.3.6.8.7 1.5.4l.4-.1c.6-.3.8-.6.6-1.4l-2.7-8.8c-.2-.6-.7-.9-1.3-.9h-.2c-.5 0-.8.1-1.3.5-.5.3-1 .5-1.7.5h-15.4c-.7 0-1.1-.1-1.6-.5-.5-.3-.8-.5-1.3-.5h-.2c-.6 0-1.1.3-1.2.9l-2.7 8.8c-.2.8 0 1.1.6 1.4l.5.1c.6.3 1.2.2 1.5-.4 3-5.6 5.1-7.2 7.8-7.2h.4c1.4 0 1.9.9 1.9 2.4v23.4c0 1-.3 1.5-1.3 1.7l-2.1.6c-.7.1-1 .6-1 1.3v.4c0 .7.4 1.2 1.2 1.2h10.6zm17.3.5c2.8 0 5.2-1.1 6.8-2.9.3-.3.7-.3.9 0 1 1.9 2.1 2.7 4.1 2.7 2.4 0 4.1-1.6 4.1-3.6 0-.7-.4-1.2-1-1.2-.9 0-1.2 1.6-2.5 1.6-.8 0-1.2-.4-1.2-1.5l-.1-11.1c0-5.7-2.6-8.6-8.7-8.6-3.1 0-6.5.7-8.5 1.8-.9.5-1 1.1-.6 1.9l1.2 2.6c.3.5.5.9 1.1.9.5 0 .9-.2 1.3-.9 1.7-2.4 3.4-3.6 5.6-3.6 2.9 0 4.5 1.5 4.5 4.9v2.1c0 .4-.2.5-.7.5-1-.1-2.3-.2-3.5-.2-6.8 0-10.8 2.9-10.8 7.7 0 4.5 3 6.9 8 6.9zm1.1-3.3c-3 0-4.7-1.4-4.7-4.1s1.7-4.7 6.7-4.7c1.2 0 2.3.1 3.2.3.4.1.6.3.6.7v3.5c0 .9-.2 1.4-.6 1.9-.8 1.1-2.5 2.4-5.2 2.4zm26.8 3.3c6 0 11.4-4.4 11.4-12.7 0-7.6-4.5-11.8-10.5-11.8-2.2 0-4.1.7-5.4 1.5-.5.3-.7.1-.7-.3v-11.8c0-1.2-.8-1.7-1.9-1.2l-4.5 1.8c-.7.2-1 .5-1 1.2v.2c0 .6.2.9 1.1 1.1 2 .5 2.2 1.2 2.2 2.4v28.5c0 1.1 1.2 1.3 2 .5l1-.9c.3-.3.6-.3 1 0 1.5 1.1 3.1 1.5 5.3 1.5zm-1.2-3.1c-1.1 0-2.4-.4-3.1-.8-.6-.4-.9-1-.9-2v-12.3c0-1.3.2-1.7 1.1-2.3s1.9-.8 3.5-.8c4.5 0 7.6 3.3 7.6 9-.1 6.3-3.2 9.2-8.2 9.2zm24.2 2.6c.7 0 1.2-.5 1.2-1.2v-.3c0-.7-.3-1-1-1.2l-1-.3c-1.1-.3-1.3-1-1.3-1.8v-29.8c0-1.2-.8-1.7-1.9-1.2l-4.5 1.8c-.7.2-1 .5-1 1.2v.2c0 .6.2.9 1.1 1.1 2 .5 2.2 1.3 2.2 2.5v24.2c0 1-.3 1.5-1.3 1.8l-1 .3c-.7.2-1 .5-1 1.2v.3c0 .8.5 1.2 1.2 1.2zm24-6.6c-.6-.4-1.3-.1-1.9.5-1.2 1.4-3.3 2.6-6.3 2.6-3.9 0-6.6-2.3-7.7-5.6-.1-.3 0-.6.3-.8l14.3-5.3c.7-.2 1.1-.7.9-1.6-1.1-4.8-4.8-7.4-9.5-7.4-6.2 0-11 4.8-11 12.3 0 7.4 5 12.3 11.7 12.3 5.3 0 8.4-2.6 9.5-5.1.3-1 .3-1.6-.3-1.9zm-10.1-14.4c2.2 0 4.1 1.1 4.8 3.4.2.6-.1.8-.5.9l-10.4 3.9c-.4.2-.6 0-.6-.2s0-.5 0-.6c-.1-4.5 2.9-7.4 6.7-7.4zm30.4 21.5c6.5 0 11.5-5 11.5-12.3s-5-12.3-11.5-12.3-11.5 5-11.5 12.3 4.9 12.3 11.5 12.3zm.7-3.5c-5.2 0-8.1-4.6-8.1-9.9 0-4.8 2.8-7.6 6.6-7.6 5.2 0 8.1 4.6 8.1 9.9 0 4.8-2.8 7.6-6.6 7.6zm23.3 3c.7 0 1.2-.4 1.2-1.2v-.3c0-.8-.4-1.1-1-1.2l-1.5-.3c-1-.2-1.3-.8-1.3-1.8v-15.1c0-.3.3-.6.6-.6h4.6c.7 0 1.2-.4 1.2-1.2v-.8c0-.7-.4-1.2-1.2-1.2h-.8c-3.6 0-5.7-1.7-5.7-5.3 0-2.4 1.3-4 3.3-4 1.3 0 2.8.8 4.2 2 .4.4.8.6 1.2.6.5 0 .8-.3 1-.8l1-2.5c.3-.8.2-1.3-.6-1.7-1.1-.5-2.6-.8-4.8-.8-4.6 0-8.1 2.4-8.7 7.8l-.3 2.9c-.1.9-.3 1.2-1.1 1.6l-.5.2c-.6.3-.9.7-.9 1.3v.3c0 .7.4 1.2 1.2 1.2h1.7c.3 0 .6.2.6.6v15.1c0 1.1-.4 1.5-1.2 1.8l-1 .3c-.7.2-1 .5-1 1.2v.3c0 .7.4 1.2 1.2 1.2zm23.6.5c3.8 0 7.1-1.7 8.4-4.3.7-1.2.4-1.7-.1-2.1-.6-.3-1.1-.2-1.9.5-1.2 1.2-2.8 1.9-5.4 1.9-5.3 0-8.7-4.1-8.7-9.8 0-5 3.2-7.8 6.7-7.8 2.6 0 4.3 1.4 6.9 4.4.5.6 1.1.7 1.6.4l.2-.1c.5-.2.8-.8.4-1.6l-2.4-5.2c-.3-.6-.5-.9-1.2-.9-.6 0-1 .4-2.2.4-1.1 0-2-.4-3.5-.4-6.4 0-10.9 4.9-10.9 12.2.2 7.5 4.8 12.4 12.1 12.4zm21.4 0c6.5 0 11.5-5 11.5-12.3s-5-12.3-11.5-12.3-11.5 5-11.5 12.3 5 12.3 11.5 12.3zm.7-3.5c-5.2 0-8.1-4.6-8.1-9.9 0-4.8 2.8-7.6 6.6-7.6 5.2 0 8.1 4.6 8.1 9.9 0 4.8-2.7 7.6-6.6 7.6zm22.8 3c.7 0 1.2-.4 1.2-1.2v-.3c0-.7-.3-1-1-1.2l-1-.3c-1-.3-1.3-.8-1.3-1.8v-12.2c0-.9.2-1.4 1.1-1.9 1.4-.9 3.9-1.8 6.4-1.8s3.2 1.4 3.2 4.3v15.3c0 .7.4 1.2 1.2 1.2h5.1c.7 0 1.2-.4 1.2-1.2v-.3c0-.7-.3-1-1-1.2l-.9-.3c-1-.3-1.3-.8-1.3-1.8v-12.7c0-4.3-2.1-6.7-6-6.7-2.6 0-5.2.9-7.5 2.4l-.8.4c-.4.2-.8.1-.8-.4v-1.1c0-1.2-.7-1.6-1.9-1.2l-4.3 1.7c-.7.2-1 .6-1 1.2v.3c0 .7.3 1 1.1 1.2 1.8.4 2.2 1 2.2 2.4v12.4c0 1.1-.3 1.5-1.3 1.8l-1 .3c-.7.2-1 .5-1 1.2v.3c0 .7.4 1.2 1.2 1.2zm25.5.5c3.6 0 5.6-1.8 5.6-3.6 0-.6-.4-1-.9-1-1.1 0-1.3 1.2-3.8 1.2-1.5 0-2.2-.7-2.2-2.3v-14.7c0-.3.2-.6.6-.6h4.7c.7 0 1.2-.4 1.2-1.2v-.8c0-.7-.4-1.2-1.2-1.2h-4.6c-.3 0-.6-.2-.6-.6v-3.4c0-.8-.5-1.2-1.2-1.2-.5 0-1 .2-1.4.9-1.4 2-2.6 3.5-4.3 4.7-.6.4-.8.8-.8 1.4v.3c0 .6.4 1.1 1.2 1.1h1.7c.3 0 .6.2.6.6v15.5c-.1 3 1.7 4.9 5.4 4.9zm27.5-7.1c-.6-.4-1.3-.1-1.9.5-1.2 1.4-3.3 2.6-6.3 2.6-3.9 0-6.6-2.3-7.7-5.6-.1-.3 0-.6.3-.8l14.3-5.3c.7-.2 1.1-.7.9-1.6-1.1-4.8-4.8-7.4-9.5-7.4-6.2 0-11 4.8-11 12.3 0 7.4 5 12.3 11.7 12.3 5.3 0 8.4-2.6 9.5-5.1.4-1 .3-1.6-.3-1.9zm-10.1-14.4c2.2 0 4.1 1.1 4.8 3.4.2.6-.1.8-.5.9l-10.3 3.9c-.4.2-.6 0-.6-.2s0-.5 0-.6c-.1-4.5 2.8-7.4 6.6-7.4zm21.6 21c.7 0 1.2-.4 1.2-1.2v-.3c0-.7-.3-1-1-1.2l-1-.3c-1-.3-1.3-.8-1.3-1.8v-12.2c0-.9.2-1.4 1.1-1.9 1.4-.9 3.9-1.8 6.4-1.8s3.2 1.4 3.2 4.3v15.3c0 .7.4 1.2 1.2 1.2h5.1c.7 0 1.2-.4 1.2-1.2v-.3c0-.7-.3-1-1-1.2l-.9-.3c-1-.3-1.3-.8-1.3-1.8v-12.7c0-4.3-2.1-6.7-6-6.7-2.6 0-5.2.9-7.5 2.4l-.8.4c-.4.2-.8.1-.8-.4v-1.1c0-1.2-.7-1.6-1.9-1.2l-4.3 1.7c-.7.2-1 .6-1 1.2v.3c0 .7.3 1 1.1 1.2 1.8.4 2.2 1 2.2 2.4v12.4c0 1.1-.3 1.5-1.3 1.8l-1 .3c-.7.2-1 .5-1 1.2v.3c0 .7.4 1.2 1.2 1.2zm25.4.5c3.6 0 5.6-1.8 5.6-3.6 0-.6-.4-1-.9-1-1.1 0-1.3 1.2-3.8 1.2-1.5 0-2.2-.7-2.2-2.3v-14.7c0-.3.2-.6.6-.6h4.7c.7 0 1.2-.4 1.2-1.2v-.8c0-.7-.4-1.2-1.2-1.2h-4.5c-.3 0-.6-.2-.6-.6v-3.4c0-.8-.5-1.2-1.2-1.2-.5 0-1 .2-1.4.9-1.4 2-2.6 3.5-4.3 4.7-.6.4-.8.8-.8 1.4v.3c0 .6.4 1.1 1.2 1.1h1.7c.3 0 .6.2.6.6v15.5c-.2 3 1.6 4.9 5.3 4.9zm17.8 0c4.8 0 8.3-2.5 8.3-7 0-3.8-2.5-5.8-6.6-7.1l-3.9-1.2c-3.2-1-4.5-1.9-4.5-3.7 0-1.6 1.2-2.9 3.9-2.9 2.5 0 4.5 1.4 7.3 4.3.5.6 1 .6 1.7.3l.1-.1c.6-.3.8-.9.4-1.5l-2.6-5.1c-.2-.5-.4-.7-1-.7-.5 0-1 .4-2.1.4-1.3 0-2.4-.4-3.9-.4-4.9 0-7.8 2.6-7.8 6.3 0 3.6 2.4 5.3 6.3 6.5l3.9 1.2c3 .9 4.5 2.1 4.5 4.1 0 2.1-1.4 3.5-4.4 3.5-3.3 0-6.1-1.8-8.5-5.2-.5-.7-1.2-.8-1.7-.5l-.3.2c-.6.3-.8 1-.4 1.7l3 5.9c.3.5.6.9 1.2.9.7 0 1.2-.5 2.3-.5 1.3 0 2.6.6 4.8.6z"/><path d="m756.3 149.9v-10.1h1.5c3.4 0 4.8 1.9 4.8 4.9v.2c0 3.2-1.5 5-4.7 5zm-2.7 2.1h4.3c5 0 7.4-3 7.4-7.1v-.2c0-4.2-2.4-7-7.4-7h-4.3zm16.5.2c1.6 0 2.5-.6 3.2-1.5v1.3h2.4v-6.9c0-2.9-1.8-3.8-4.2-3.8s-4.3 1-4.5 3.5h2.3c.1-1 .7-1.6 2-1.6 1.4 0 1.9.7 1.9 2.1v.5h-1.3c-3 0-5.4.9-5.4 3.3.1 2.2 1.6 3.1 3.6 3.1zm.5-1.7c-1.2 0-1.7-.6-1.7-1.5 0-1.3 1.2-1.7 3-1.7h1.2v1c.1 1.4-1 2.2-2.5 2.2zm11 1.7c2.7 0 4.2-1.2 4.2-3.3 0-2.2-1.5-2.8-3.9-3.2-1.7-.3-2.2-.6-2.2-1.3s.6-1.2 1.7-1.2 1.7.4 1.9 1.4h2.2c-.3-2.4-2-3.2-4.1-3.2-2 0-3.9 1-3.9 3.1 0 2 1 2.7 3.8 3.2 1.5.3 2.2.6 2.2 1.4 0 .9-.6 1.3-1.9 1.3-1.4 0-2-.6-2.1-1.7h-2.3c.1 2.3 1.7 3.5 4.4 3.5zm5.9-.2h2.4v-6.2c0-1.7 1.1-2.5 2.5-2.5s2.1.7 2.1 2.3v6.4h2.4v-6.6c0-2.9-1.5-4.1-3.6-4.1-1.7 0-2.9.9-3.4 1.9v-6.5h-2.4zm17.6.2c2.7 0 4.6-2 4.6-5.4v-.2c0-3.4-2-5.3-4.6-5.3-1.5 0-2.8.9-3.4 1.9v-6.5h-2.4v15.3h2.4v-1.7c.5 1.1 1.7 1.9 3.4 1.9zm-.6-1.9c-1.8 0-2.9-1.1-2.9-3.4v-.2c0-2.3 1.2-3.5 2.9-3.5 1.6 0 2.8 1.1 2.8 3.5v.2c0 2.2-1 3.4-2.8 3.4zm11.7 0c-1.8 0-2.9-1.3-2.9-3.5v-.2c0-2.2 1.1-3.5 2.9-3.5s2.9 1.3 2.9 3.5v.1c0 2.3-1.1 3.6-2.9 3.6zm0 1.9c3.1 0 5.4-2.1 5.4-5.4v-.2c0-3.2-2.3-5.3-5.4-5.3s-5.4 2.2-5.4 5.4v.2c0 3.2 2.3 5.3 5.4 5.3zm9.9 0c1.6 0 2.5-.6 3.2-1.5v1.3h2.4v-6.9c0-2.9-1.8-3.8-4.2-3.8s-4.3 1-4.5 3.5h2.3c.1-1 .7-1.6 2-1.6 1.4 0 1.9.7 1.9 2.1v.5h-1.3c-3 0-5.4.9-5.4 3.3.1 2.2 1.7 3.1 3.6 3.1zm.6-1.7c-1.2 0-1.7-.6-1.7-1.5 0-1.3 1.2-1.7 3-1.7h1.2v1c0 1.4-1.1 2.2-2.5 2.2zm7.3 1.5h2.4v-5.4c0-2.2 1.3-2.9 3.4-2.9v-2.3c-1.8 0-2.7.8-3.4 2.1v-2h-2.4zm11.3.2c1.5 0 2.9-.9 3.4-2v1.8h2.4v-15.3h-2.4v6.4c-.6-1-1.6-1.8-3.3-1.8-2.7 0-4.7 2.1-4.7 5.5v.2c0 3.3 2 5.2 4.6 5.2zm.6-1.9c-1.6 0-2.7-1.1-2.7-3.4v-.2c0-2.3 1-3.5 2.8-3.5s2.8 1.1 2.8 3.4v.2c0 2.4-1.2 3.5-2.9 3.5zm11.3 1.9c2.7 0 4.2-1.2 4.2-3.3 0-2.2-1.5-2.8-3.9-3.2-1.7-.3-2.2-.6-2.2-1.3s.6-1.2 1.7-1.2 1.7.4 1.9 1.4h2.2c-.3-2.4-2-3.2-4.1-3.2-2 0-3.9 1-3.9 3.1 0 2 1 2.7 3.8 3.2 1.5.3 2.2.6 2.2 1.4 0 .9-.6 1.3-1.9 1.3-1.4 0-2-.6-2.1-1.7h-2.3c.1 2.3 1.7 3.5 4.4 3.5zm13 0c1.6 0 2.5-.6 3.2-1.5v1.3h2.4v-6.9c0-2.9-1.8-3.8-4.2-3.8s-4.3 1-4.5 3.5h2.3c.1-1 .7-1.6 2-1.6 1.4 0 1.9.7 1.9 2.1v.5h-1.3c-3 0-5.4.9-5.4 3.3.1 2.2 1.7 3.1 3.6 3.1zm.6-1.7c-1.2 0-1.7-.6-1.7-1.5 0-1.3 1.2-1.7 3-1.7h1.2v1c.1 1.4-1 2.2-2.5 2.2zm7.5 1.5h2.4v-15.3h-2.4zm9.6-1.7c-1.8 0-2.9-1.3-2.9-3.5v-.2c0-2.2 1.1-3.5 2.9-3.5s2.9 1.3 2.9 3.5v.1c0 2.3-1.1 3.6-2.9 3.6zm0 1.9c3.1 0 5.4-2.1 5.4-5.4v-.2c0-3.2-2.3-5.3-5.4-5.3s-5.4 2.2-5.4 5.4v.2c0 3.2 2.3 5.3 5.4 5.3zm7.1-.2h2.4v-6.2c0-1.7 1.1-2.5 2.5-2.5s2.1.7 2.1 2.3v6.4h2.4v-6.6c0-2.9-1.5-4.1-3.6-4.1-1.7 0-2.9.9-3.4 1.9v-1.7h-2.4zm16.4.2c2.7 0 4.5-1.2 4.8-3.4h-2.3c-.2 1-.9 1.6-2.4 1.6-1.8 0-2.8-1.1-2.9-3.1h7.7v-.7c0-3.7-2.3-5.3-4.9-5.3-3 0-5.2 2.2-5.2 5.4v.2c-.1 3.3 2.1 5.3 5.2 5.3zm-2.8-6.5c.2-1.6 1.2-2.6 2.7-2.6s2.4.8 2.5 2.6zm18.4 6.5c2.8 0 4.7-1.7 4.8-4.1h-2.2c-.1 1.5-1.2 2.2-2.5 2.2-1.8 0-2.9-1.2-2.9-3.5v-.2c0-2.2 1.2-3.4 2.8-3.4 1.3 0 2.2.6 2.4 2h2.3c-.3-2.9-2.5-3.9-4.8-3.9-2.9 0-5.3 2.1-5.3 5.4v.2c.1 3.3 2.4 5.3 5.4 5.3zm9.2 0c1.6 0 2.5-.6 3.2-1.5v1.3h2.4v-6.9c0-2.9-1.8-3.8-4.2-3.8s-4.3 1-4.5 3.5h2.3c.1-1 .7-1.6 2-1.6 1.4 0 1.9.7 1.9 2.1v.5h-1.3c-3 0-5.4.9-5.4 3.3.1 2.2 1.7 3.1 3.6 3.1zm.6-1.7c-1.2 0-1.7-.6-1.7-1.5 0-1.3 1.2-1.7 3-1.7h1.2v1c.1 1.4-1 2.2-2.5 2.2zm7.4 1.5h2.4v-6.2c0-1.7 1.1-2.5 2.5-2.5s2.1.7 2.1 2.3v6.4h2.4v-6.6c0-2.9-1.5-4.1-3.6-4.1-1.7 0-2.9.9-3.4 1.9v-1.7h-2.4zm11.7 0h2.4v-6.2c0-1.7 1.1-2.5 2.5-2.5s2.1.7 2.1 2.3v6.4h2.4v-6.6c0-2.9-1.5-4.1-3.6-4.1-1.7 0-2.9.9-3.4 1.9v-1.7h-2.4zm16.5-1.7c-1.8 0-2.9-1.3-2.9-3.5v-.2c0-2.2 1.1-3.5 2.9-3.5s2.9 1.3 2.9 3.5v.1c0 2.3-1.1 3.6-2.9 3.6zm0 1.9c3.1 0 5.4-2.1 5.4-5.4v-.2c0-3.2-2.3-5.3-5.4-5.3s-5.4 2.2-5.4 5.4v.2c0 3.2 2.3 5.3 5.4 5.3zm10.7 0c.7 0 1.3-.1 1.6-.3v-1.9c-.3.1-.7.2-1.2.2-.8 0-1.2-.4-1.2-1.3v-5.5h2.3v-1.8h-2.3v-2.3h-2.4v2.3h-1.4v1.8h1.4v5.7c0 2 1.1 3.1 3.2 3.1zm-229.7 26.4h2.4v-5.2c.6 1 1.8 1.8 3.4 1.8 2.7 0 4.6-2 4.6-5.4v-.2c0-3.4-2-5.3-4.6-5.3-1.5 0-2.8.9-3.4 1.9v-1.7h-2.4zm5.3-5.3c-1.8 0-2.9-1.1-2.9-3.4v-.2c0-2.3 1.2-3.5 2.9-3.5 1.6 0 2.8 1.1 2.8 3.5v.2c-.1 2.2-1 3.4-2.8 3.4zm7 1.7h2.4v-5.4c0-2.2 1.3-2.9 3.4-2.9v-2.3c-1.8 0-2.7.8-3.4 2.1v-2h-2.4zm12-1.7c-1.8 0-2.9-1.3-2.9-3.5v-.2c0-2.2 1.1-3.5 2.9-3.5s2.9 1.3 2.9 3.5v.1c0 2.3-1.1 3.6-2.9 3.6zm0 1.9c3.1 0 5.4-2.1 5.4-5.4v-.2c0-3.2-2.3-5.3-5.4-5.3s-5.4 2.2-5.4 5.4v.2c0 3.2 2.3 5.3 5.4 5.3zm9.5-.2h2.8l3.8-10.5h-2.4l-2.7 8-2.7-8h-2.6zm8.1 0h2.4v-10.5h-2.4zm1.2-12.2c.8 0 1.4-.6 1.4-1.4s-.6-1.4-1.4-1.4-1.4.6-1.4 1.4c-.1.8.6 1.4 1.4 1.4zm7.7 12.4c1.5 0 2.9-.9 3.4-2v1.8h2.4v-15.3h-2.4v6.4c-.6-1-1.6-1.8-3.3-1.8-2.7 0-4.7 2.1-4.7 5.5v.2c0 3.3 1.9 5.2 4.6 5.2zm.6-1.9c-1.6 0-2.7-1.1-2.7-3.4v-.2c0-2.3 1-3.5 2.8-3.5s2.8 1.1 2.8 3.4v.2c0 2.4-1.3 3.5-2.9 3.5zm12.3 1.9c2.7 0 4.5-1.2 4.8-3.4h-2.3c-.2 1-.9 1.6-2.4 1.6-1.8 0-2.8-1.1-2.9-3.1h7.7v-.7c0-3.7-2.3-5.3-4.9-5.3-3 0-5.2 2.2-5.2 5.4v.2c-.1 3.3 2.1 5.3 5.2 5.3zm-2.8-6.5c.2-1.6 1.2-2.6 2.7-2.6s2.4.8 2.5 2.6zm17.4 6.5c2.7 0 4.2-1.2 4.2-3.3 0-2.2-1.5-2.8-3.9-3.2-1.7-.3-2.2-.6-2.2-1.3s.6-1.2 1.7-1.2 1.7.4 1.9 1.4h2.2c-.3-2.4-2-3.2-4.1-3.2-2 0-3.9 1-3.9 3.1 0 2 1 2.7 3.8 3.2 1.5.3 2.2.6 2.2 1.4 0 .9-.6 1.3-1.9 1.3-1.4 0-2-.6-2.1-1.7h-2.3c.1 2.3 1.7 3.5 4.4 3.5zm9.4 0c.7 0 1.3-.1 1.6-.3v-1.9c-.3.1-.7.2-1.2.2-.8 0-1.2-.4-1.2-1.3v-5.5h2.3v-1.8h-2.3v-2.3h-2.3v2.3h-1.4v1.8h1.4v5.7c0 2 1 3.1 3.1 3.1zm3.4-.2h2.4v-5.4c0-2.2 1.3-2.9 3.4-2.9v-2.3c-1.8 0-2.7.8-3.4 2.1v-2h-2.4zm10.1.2c1.6 0 2.5-.6 3.2-1.5v1.3h2.4v-6.9c0-2.9-1.8-3.8-4.2-3.8s-4.3 1-4.5 3.5h2.3c.1-1 .7-1.6 2-1.6 1.4 0 1.9.7 1.9 2.1v.5h-1.3c-3 0-5.4.9-5.4 3.3.1 2.2 1.7 3.1 3.6 3.1zm.6-1.7c-1.2 0-1.7-.6-1.7-1.5 0-1.3 1.2-1.7 3-1.7h1.2v1c.1 1.4-1 2.2-2.5 2.2zm10.9 1.7c.7 0 1.3-.1 1.6-.3v-1.9c-.3.1-.7.2-1.2.2-.8 0-1.2-.4-1.2-1.3v-5.5h2.3v-1.8h-2.3v-2.3h-2.3v2.3h-1.4v1.8h1.4v5.7c0 2 1.1 3.1 3.1 3.1zm8.1 0c2.7 0 4.5-1.2 4.8-3.4h-2.3c-.2 1-.9 1.6-2.4 1.6-1.8 0-2.8-1.1-2.9-3.1h7.7v-.7c0-3.7-2.3-5.3-4.9-5.3-3 0-5.2 2.2-5.2 5.4v.2c-.1 3.3 2.1 5.3 5.2 5.3zm-2.8-6.5c.2-1.6 1.2-2.6 2.7-2.6s2.4.8 2.5 2.6zm13.8 10.1c3.2 0 5.3-1.5 5.3-4.6v-9.7h-2.4v1.6c-.6-1-1.6-1.8-3.4-1.8-2.7 0-4.7 2.2-4.7 5.1v.1c0 3 2 5 4.6 5 1.5 0 2.8-.9 3.4-1.9v1.5c0 1.9-1 2.8-2.9 2.8-1.6 0-2.4-.6-2.6-1.6h-2.4c.4 2.1 1.8 3.5 5.1 3.5zm.1-6.1c-1.6 0-2.8-1.2-2.8-3.1v-.2c0-1.9 1-3.2 2.8-3.2 1.7 0 2.8 1.2 2.8 3.2v.1c.1 2-1.1 3.2-2.8 3.2zm7.8 2.3h2.4v-10.5h-2.4zm1.2-12.2c.8 0 1.4-.6 1.4-1.4s-.6-1.4-1.4-1.4-1.4.6-1.4 1.4c-.1.8.6 1.4 1.4 1.4zm8.3 12.4c2.8 0 4.7-1.7 4.8-4.1h-2.2c-.1 1.5-1.2 2.2-2.5 2.2-1.8 0-2.9-1.2-2.9-3.5v-.2c0-2.2 1.2-3.4 2.8-3.4 1.3 0 2.2.6 2.4 2h2.3c-.3-2.9-2.5-3.9-4.8-3.9-2.9 0-5.3 2.1-5.3 5.4v.2c.2 3.3 2.4 5.3 5.4 5.3zm13.7 0c1.6 0 2.5-.6 3.2-1.5v1.3h2.4v-6.9c0-2.9-1.8-3.8-4.2-3.8s-4.3 1-4.5 3.5h2.3c.1-1 .7-1.6 2-1.6 1.4 0 1.9.7 1.9 2.1v.5h-1.3c-3 0-5.4.9-5.4 3.3.1 2.2 1.6 3.1 3.6 3.1zm.5-1.7c-1.2 0-1.7-.6-1.7-1.5 0-1.3 1.2-1.7 3-1.7h1.2v1c.1 1.4-1 2.2-2.5 2.2zm7.4 1.5h2.4v-6.2c0-1.7 1.1-2.5 2.5-2.5s2.1.7 2.1 2.3v6.4h2.4v-6.6c0-2.9-1.5-4.1-3.6-4.1-1.7 0-2.9.9-3.4 1.9v-1.7h-2.4zm15.4.2c2.7 0 4.2-1.2 4.2-3.3 0-2.2-1.5-2.8-3.9-3.2-1.7-.3-2.2-.6-2.2-1.3s.6-1.2 1.7-1.2 1.7.4 1.9 1.4h2.2c-.3-2.4-2-3.2-4.1-3.2-2 0-3.9 1-3.9 3.1 0 2 1 2.7 3.8 3.2 1.5.3 2.2.6 2.2 1.4 0 .9-.6 1.3-1.9 1.3-1.4 0-2-.6-2.1-1.7h-2.3c.1 2.3 1.7 3.5 4.4 3.5zm7.8-.2h2.5l2.1-7 1.9 7h2.5l3.3-10.5h-2.4l-2.2 7.6-2-7.6h-2l-2.2 7.6-2.1-7.6h-2.6zm18.1.2c2.7 0 4.5-1.2 4.8-3.4h-2.3c-.2 1-.9 1.6-2.4 1.6-1.8 0-2.8-1.1-2.9-3.1h7.7v-.7c0-3.7-2.3-5.3-4.9-5.3-3 0-5.2 2.2-5.2 5.4v.2c-.1 3.3 2.1 5.3 5.2 5.3zm-2.8-6.5c.2-1.6 1.2-2.6 2.7-2.6s2.4.8 2.5 2.6zm9.4 6.3h2.4v-5.4c0-2.2 1.3-2.9 3.4-2.9v-2.3c-1.8 0-2.7.8-3.4 2.1v-2h-2.4zm11.1.2c2.7 0 4.2-1.2 4.2-3.3 0-2.2-1.5-2.8-3.9-3.2-1.7-.3-2.2-.6-2.2-1.3s.6-1.2 1.7-1.2 1.7.4 1.9 1.4h2.2c-.3-2.4-2-3.2-4.1-3.2-2 0-3.9 1-3.9 3.1 0 2 1 2.7 3.8 3.2 1.5.3 2.2.6 2.2 1.4 0 .9-.6 1.3-1.9 1.3-1.4 0-2-.6-2.1-1.7h-2.3c.1 2.3 1.7 3.5 4.4 3.5z"/><path d="m786.1 248h2.7v-6.2l4.5-8.1h-2.6l-3.1 5.9-3.2-5.9h-2.9l4.7 8.1v6.2zm11.6-1.7c-1.8 0-2.9-1.3-2.9-3.5v-.2c0-2.2 1.1-3.5 2.9-3.5s2.9 1.3 2.9 3.5v.1c0 2.3-1.1 3.6-2.9 3.6zm0 1.9c3.1 0 5.4-2.1 5.4-5.4v-.2c0-3.2-2.3-5.3-5.4-5.3s-5.4 2.2-5.4 5.4v.2c0 3.2 2.3 5.3 5.4 5.3zm10.6 0c1.7 0 2.8-.8 3.3-1.8v1.6h2.4v-10.5h-2.4v6.2c0 1.7-1.1 2.5-2.4 2.5-1.4 0-2.1-.7-2.1-2.3v-6.4h-2.4v6.7c0 2.8 1.6 4 3.6 4zm8.3-.2h2.4v-5.4c0-2.2 1.3-2.9 3.4-2.9v-2.3c-1.8 0-2.7.8-3.4 2.1v-2h-2.4zm11.9 0h2.4v-5.4c0-2.2 1.3-2.9 3.4-2.9v-2.3c-1.8 0-2.7.8-3.4 2.1v-2h-2.4zm11.9.2c2.7 0 4.5-1.2 4.8-3.4h-2.3c-.2 1-.9 1.6-2.4 1.6-1.8 0-2.8-1.1-2.9-3.1h7.7v-.7c0-3.7-2.3-5.3-4.9-5.3-3 0-5.2 2.2-5.2 5.4v.2c-.1 3.3 2.1 5.3 5.2 5.3zm-2.8-6.5c.2-1.6 1.2-2.6 2.7-2.6s2.4.8 2.5 2.6zm13 6.5c.7 0 1.3-.1 1.6-.3v-1.9c-.3.1-.7.2-1.2.2-.8 0-1.2-.4-1.2-1.3v-5.5h2.3v-1.8h-2.3v-2.3h-2.4v2.3h-1.4v1.8h1.4v5.7c0 2 1.1 3.1 3.2 3.1zm8 0c2.7 0 4.5-1.2 4.8-3.4h-2.3c-.2 1-.9 1.6-2.4 1.6-1.8 0-2.8-1.1-2.9-3.1h7.7v-.7c0-3.7-2.3-5.3-4.9-5.3-3 0-5.2 2.2-5.2 5.4v.2c-.1 3.3 2.1 5.3 5.2 5.3zm-2.8-6.5c.2-1.6 1.2-2.6 2.7-2.6s2.4.8 2.5 2.6zm9.4 6.3h2.4v-6.2c0-1.7 1.1-2.5 2.5-2.5s2.1.7 2.1 2.3v6.4h2.4v-6.6c0-2.9-1.5-4.1-3.6-4.1-1.7 0-2.9.9-3.4 1.9v-1.7h-2.4zm15.3.2c.7 0 1.3-.1 1.6-.3v-1.9c-.3.1-.7.2-1.2.2-.8 0-1.2-.4-1.2-1.3v-5.5h2.3v-1.8h-2.3v-2.3h-2.4v2.3h-1.3v1.8h1.4v5.7c0 2 1.1 3.1 3.1 3.1zm3.5-.2h2.4v-10.5h-2.4zm1.2-12.2c.8 0 1.4-.6 1.4-1.4s-.6-1.4-1.4-1.4-1.4.6-1.4 1.4.6 1.4 1.4 1.4zm8.5 10.5c-1.8 0-2.9-1.3-2.9-3.5v-.2c0-2.2 1.1-3.5 2.9-3.5s2.9 1.3 2.9 3.5v.1c-.1 2.3-1.1 3.6-2.9 3.6zm-.1 1.9c3.1 0 5.4-2.1 5.4-5.4v-.2c0-3.2-2.3-5.3-5.4-5.3s-5.4 2.2-5.4 5.4v.2c.1 3.2 2.4 5.3 5.4 5.3zm7.2-.2h2.4v-6.2c0-1.7 1.1-2.5 2.5-2.5s2.1.7 2.1 2.3v6.4h2.4v-6.6c0-2.9-1.5-4.1-3.6-4.1-1.7 0-2.9.9-3.4 1.9v-1.7h-2.4zm20.7.2c2.8 0 4.7-1.7 4.8-4.1h-2.2c-.1 1.5-1.2 2.2-2.5 2.2-1.8 0-2.9-1.2-2.9-3.5v-.2c0-2.2 1.2-3.4 2.8-3.4 1.3 0 2.2.6 2.4 2h2.3c-.3-2.9-2.5-3.9-4.8-3.9-2.9 0-5.3 2.1-5.3 5.4v.2c.1 3.3 2.4 5.3 5.4 5.3zm6.6-.2h2.4v-6.2c0-1.7 1.1-2.5 2.5-2.5s2.1.7 2.1 2.3v6.4h2.4v-6.6c0-2.9-1.5-4.1-3.6-4.1-1.7 0-2.9.9-3.4 1.9v-6.5h-2.4zm14.5.2c1.6 0 2.5-.6 3.2-1.5v1.3h2.4v-6.9c0-2.9-1.8-3.8-4.2-3.8s-4.3 1-4.5 3.5h2.3c.1-1 .7-1.6 2-1.6 1.4 0 1.9.7 1.9 2.1v.5h-1.3c-3 0-5.4.9-5.4 3.3.1 2.2 1.6 3.1 3.6 3.1zm.5-1.7c-1.2 0-1.7-.6-1.7-1.5 0-1.3 1.2-1.7 3-1.7h1.2v1c.1 1.4-1 2.2-2.5 2.2zm7.4 1.5h2.4v-5.4c0-2.2 1.3-2.9 3.4-2.9v-2.3c-1.8 0-2.7.8-3.4 2.1v-2h-2.4zm11.2.2c.7 0 1.3-.1 1.6-.3v-1.9c-.3.1-.7.2-1.2.2-.8 0-1.2-.4-1.2-1.3v-5.5h2.3v-1.8h-2.2v-2.3h-2.4v2.3h-1.4v1.8h1.4v5.7c0 2 1 3.1 3.1 3.1zm7.8-.2h2.4v-6.3c0-1.6 1.1-2.4 2.3-2.4s1.9.7 1.9 2.2v6.5h2.4v-6.3c0-1.6 1.1-2.4 2.3-2.4s1.9.7 1.9 2.2v6.5h2.4v-6.6c0-2.9-1.6-4.1-3.5-4.1-1.3 0-2.7.6-3.5 1.9-.5-1.3-1.6-1.9-3-1.9-1.5 0-2.7.8-3.2 1.8v-1.6h-2.4zm18 0h2.4v-10.5h-2.4zm1.2-12.2c.8 0 1.4-.6 1.4-1.4s-.6-1.4-1.4-1.4-1.4.6-1.4 1.4.6 1.4 1.4 1.4zm8.3 16c3.2 0 5.3-1.5 5.3-4.6v-9.7h-2.4v1.6c-.6-1-1.6-1.8-3.4-1.8-2.7 0-4.7 2.2-4.7 5.1v.1c0 3 2 5 4.6 5 1.5 0 2.8-.9 3.4-1.9v1.5c0 1.9-1 2.8-2.9 2.8-1.6 0-2.4-.6-2.6-1.6h-2.4c.3 2.1 1.8 3.5 5.1 3.5zm0-6.1c-1.6 0-2.8-1.2-2.8-3.1v-.2c0-1.9 1-3.2 2.8-3.2 1.7 0 2.8 1.2 2.8 3.2v.1c.1 2-1.1 3.2-2.8 3.2zm7.7 2.3h2.4v-6.2c0-1.7 1.1-2.5 2.5-2.5s2.1.7 2.1 2.3v6.4h2.4v-6.6c0-2.9-1.5-4.1-3.6-4.1-1.7 0-2.9.9-3.4 1.9v-6.5h-2.4zm15.4.2c.7 0 1.3-.1 1.6-.3v-1.9c-.3.1-.7.2-1.2.2-.8 0-1.2-.4-1.2-1.3v-5.5h2.3v-1.8h-2.3v-2.3h-2.4v2.3h-1.4v1.8h1.4v5.7c0 2 1.1 3.1 3.2 3.1zm-231.8 23c2.7 0 4.6-2 4.6-5.4v-.2c0-3.4-2-5.3-4.6-5.3-1.5 0-2.8.9-3.4 1.9v-6.5h-2.4v15.3h2.4v-1.7c.5 1.1 1.7 1.9 3.4 1.9zm-.6-1.9c-1.8 0-2.9-1.1-2.9-3.4v-.2c0-2.3 1.2-3.5 2.9-3.5 1.6 0 2.8 1.1 2.8 3.5v.2c-.1 2.2-1 3.4-2.8 3.4zm11.6 1.9c2.7 0 4.5-1.2 4.8-3.4h-2.3c-.2 1-.9 1.6-2.4 1.6-1.8 0-2.8-1.1-2.9-3.1h7.7v-.7c0-3.7-2.3-5.3-4.9-5.3-3 0-5.2 2.2-5.2 5.4v.2c-.1 3.3 2.1 5.3 5.2 5.3zm-2.8-6.5c.2-1.6 1.2-2.6 2.7-2.6s2.4.8 2.5 2.6zm13.8 6.3h2.4v-6.3c0-1.6 1.1-2.4 2.3-2.4s1.9.7 1.9 2.2v6.5h2.4v-6.3c0-1.6 1.1-2.4 2.3-2.4s1.9.7 1.9 2.2v6.5h2.4v-6.6c0-2.9-1.6-4.1-3.5-4.1-1.3 0-2.7.6-3.5 1.9-.5-1.3-1.6-1.9-3-1.9-1.5 0-2.7.8-3.2 1.8v-1.6h-2.4zm18 0h2.4v-10.5h-2.4zm1.2-12.2c.8 0 1.4-.6 1.4-1.4s-.6-1.4-1.4-1.4-1.4.6-1.4 1.4c-.1.8.6 1.4 1.4 1.4zm7.3 12.4c2.7 0 4.2-1.2 4.2-3.3 0-2.2-1.5-2.8-3.9-3.2-1.7-.3-2.2-.6-2.2-1.3s.6-1.2 1.7-1.2 1.7.4 1.9 1.4h2.2c-.3-2.4-2-3.2-4.1-3.2-2 0-3.9 1-3.9 3.1 0 2 1 2.7 3.8 3.2 1.5.3 2.2.6 2.2 1.4 0 .9-.6 1.3-1.9 1.3-1.4 0-2-.6-2.1-1.7h-2.3c.2 2.3 1.7 3.5 4.4 3.5zm6-.2h2.4v-15.3h-2.4zm9.6.2c2.7 0 4.5-1.2 4.8-3.4h-2.3c-.2 1-.9 1.6-2.4 1.6-1.8 0-2.8-1.1-2.9-3.1h7.7v-.7c0-3.7-2.3-5.3-4.9-5.3-3 0-5.2 2.2-5.2 5.4v.2c-.1 3.3 2.1 5.3 5.2 5.3zm-2.8-6.5c.2-1.6 1.2-2.6 2.7-2.6s2.4.8 2.5 2.6zm12.2 6.5c1.6 0 2.5-.6 3.2-1.5v1.3h2.4v-6.9c0-2.9-1.8-3.8-4.2-3.8s-4.3 1-4.5 3.5h2.3c.1-1 .7-1.6 2-1.6 1.4 0 1.9.7 1.9 2.1v.5h-1.3c-3 0-5.4.9-5.4 3.3.1 2.2 1.7 3.1 3.6 3.1zm.6-1.7c-1.2 0-1.7-.6-1.7-1.5 0-1.3 1.2-1.7 3-1.7h1.2v1c.1 1.4-1 2.2-2.5 2.2zm11.3 1.7c1.5 0 2.9-.9 3.4-2v1.8h2.4v-15.3h-2.4v6.4c-.6-1-1.6-1.8-3.3-1.8-2.7 0-4.7 2.1-4.7 5.5v.2c0 3.3 2 5.2 4.6 5.2zm.6-1.9c-1.6 0-2.7-1.1-2.7-3.4v-.2c0-2.3 1-3.5 2.8-3.5s2.8 1.1 2.8 3.4v.2c0 2.4-1.2 3.5-2.9 3.5zm7.8 1.7h2.4v-10.5h-2.4zm1.2-12.2c.8 0 1.4-.6 1.4-1.4s-.6-1.4-1.4-1.4-1.4.6-1.4 1.4c-.1.8.6 1.4 1.4 1.4zm3.7 12.2h2.4v-6.2c0-1.7 1.1-2.5 2.5-2.5s2.1.7 2.1 2.3v6.4h2.4v-6.6c0-2.9-1.5-4.1-3.6-4.1-1.7 0-2.9.9-3.4 1.9v-1.7h-2.4zm16.3 3.8c3.2 0 5.3-1.5 5.3-4.6v-9.7h-2.4v1.6c-.6-1-1.6-1.8-3.4-1.8-2.7 0-4.7 2.2-4.7 5.1v.1c0 3 2 5 4.6 5 1.5 0 2.8-.9 3.4-1.9v1.5c0 1.9-1 2.8-2.9 2.8-1.6 0-2.4-.6-2.6-1.6h-2.4c.3 2.1 1.8 3.5 5.1 3.5zm.1-6.1c-1.6 0-2.8-1.2-2.8-3.1v-.2c0-1.9 1-3.2 2.8-3.2 1.7 0 2.8 1.2 2.8 3.2v.1c.1 2-1.2 3.2-2.8 3.2zm13.2 5.9h2.4l5.7-14h-2.4l-2.6 6.7-2.8-6.7h-2.6l4.1 9.4zm13.8-5.3c-1.8 0-2.9-1.3-2.9-3.5v-.2c0-2.2 1.1-3.5 2.9-3.5s2.9 1.3 2.9 3.5v.1c0 2.3-1.1 3.6-2.9 3.6zm0 1.9c3.1 0 5.4-2.1 5.4-5.4v-.2c0-3.2-2.3-5.3-5.4-5.3s-5.4 2.2-5.4 5.4v.2c0 3.2 2.3 5.3 5.4 5.3zm10.6 0c1.7 0 2.8-.8 3.3-1.8v1.6h2.4v-10.5h-2.4v6.2c0 1.7-1.1 2.5-2.4 2.5-1.4 0-2.1-.7-2.1-2.3v-6.4h-2.4v6.7c0 2.8 1.6 4 3.6 4zm8.2-.2h2.4v-5.4c0-2.2 1.3-2.9 3.4-2.9v-2.3c-1.8 0-2.7.8-3.4 2.1v-2h-2.4zm15.5.2c2.7 0 4.2-1.2 4.2-3.3 0-2.2-1.5-2.8-3.9-3.2-1.7-.3-2.2-.6-2.2-1.3s.6-1.2 1.7-1.2 1.7.4 1.9 1.4h2.2c-.3-2.4-2-3.2-4.1-3.2-2 0-3.9 1-3.9 3.1 0 2 1 2.7 3.8 3.2 1.5.3 2.2.6 2.2 1.4 0 .9-.6 1.3-1.9 1.3-1.4 0-2-.6-2.1-1.7h-2.3c.1 2.3 1.7 3.5 4.4 3.5zm9.5 0c.7 0 1.3-.1 1.6-.3v-1.9c-.3.1-.7.2-1.2.2-.8 0-1.2-.4-1.2-1.3v-5.5h2.3v-1.8h-2.3v-2.3h-2.4v2.3h-1.4v1.8h1.4v5.7c0 2 1.1 3.1 3.2 3.1zm3.4-.2h2.4v-5.4c0-2.2 1.3-2.9 3.4-2.9v-2.3c-1.8 0-2.7.8-3.4 2.1v-2h-2.4zm10.1.2c1.6 0 2.5-.6 3.2-1.5v1.3h2.4v-6.9c0-2.9-1.8-3.8-4.2-3.8s-4.3 1-4.5 3.5h2.3c.1-1 .7-1.6 2-1.6 1.4 0 1.9.7 1.9 2.1v.5h-1.3c-3 0-5.4.9-5.4 3.3.1 2.2 1.7 3.1 3.6 3.1zm.6-1.7c-1.2 0-1.7-.6-1.7-1.5 0-1.3 1.2-1.7 3-1.7h1.2v1c.1 1.4-1 2.2-2.5 2.2zm10.9 1.7c.7 0 1.3-.1 1.6-.3v-1.9c-.3.1-.7.2-1.2.2-.8 0-1.2-.4-1.2-1.3v-5.5h2.3v-1.8h-2.3v-2.3h-2.4v2.3h-1.4v1.8h1.4v5.7c.1 2 1.1 3.1 3.2 3.1zm8 0c2.7 0 4.5-1.2 4.8-3.4h-2.3c-.2 1-.9 1.6-2.4 1.6-1.8 0-2.8-1.1-2.9-3.1h7.7v-.7c0-3.7-2.3-5.3-4.9-5.3-3 0-5.2 2.2-5.2 5.4v.2c-.1 3.3 2.2 5.3 5.2 5.3zm-2.7-6.5c.2-1.6 1.2-2.6 2.7-2.6s2.4.8 2.5 2.6zm13.8 10.1c3.2 0 5.3-1.5 5.3-4.6v-9.7h-2.4v1.6c-.6-1-1.6-1.8-3.4-1.8-2.7 0-4.7 2.2-4.7 5.1v.1c0 3 2 5 4.6 5 1.5 0 2.8-.9 3.4-1.9v1.5c0 1.9-1 2.8-2.9 2.8-1.6 0-2.4-.6-2.6-1.6h-2.4c.3 2.1 1.8 3.5 5.1 3.5zm.1-6.1c-1.6 0-2.8-1.2-2.8-3.1v-.2c0-1.9 1-3.2 2.8-3.2 1.7 0 2.8 1.2 2.8 3.2v.1c.1 2-1.1 3.2-2.8 3.2zm8.9 5.9h2.4l5.7-14h-2.4l-2.6 6.7-2.8-6.7h-2.6l4.1 9.4z"/><path d="m811.6 345h2.4v-10.8l4.3 10.8h.9l4.3-10.8v10.8h2.7v-14.3h-3.5l-3.7 9.8-3.8-9.8h-3.6zm21.8-1.7c-1.8 0-2.9-1.3-2.9-3.5v-.2c0-2.2 1.1-3.5 2.9-3.5s2.9 1.3 2.9 3.5v.1c0 2.3-1.1 3.6-2.9 3.6zm0 1.9c3.1 0 5.4-2.1 5.4-5.4v-.2c0-3.2-2.3-5.3-5.4-5.3s-5.4 2.2-5.4 5.4v.2c0 3.2 2.3 5.3 5.4 5.3zm9.5-.2h2.8l3.8-10.5h-2.4l-2.7 8-2.7-8h-2.6zm12.2.2c2.7 0 4.5-1.2 4.8-3.4h-2.3c-.2 1-.9 1.6-2.4 1.6-1.8 0-2.8-1.1-2.9-3.1h7.7v-.7c0-3.7-2.3-5.3-4.9-5.3-3 0-5.2 2.2-5.2 5.4v.2c-.1 3.3 2.1 5.3 5.2 5.3zm-2.8-6.5c.2-1.6 1.2-2.6 2.7-2.6s2.4.8 2.5 2.6zm21.1 9.9h2.4v-14h-2.4v1.6c-.6-1-1.6-1.8-3.3-1.8-2.7 0-4.7 2.1-4.7 5.5v.2c0 3.4 2 5.3 4.6 5.3 1.5 0 2.9-.9 3.4-1.9zm-2.8-5.3c-1.6 0-2.7-1.1-2.7-3.4v-.2c0-2.3 1-3.5 2.8-3.5s2.8 1.1 2.8 3.4v.2c0 2.4-1.2 3.5-2.9 3.5zm11.2 1.9c1.7 0 2.8-.8 3.3-1.8v1.6h2.4v-10.5h-2.4v6.2c0 1.7-1.1 2.5-2.4 2.5-1.4 0-2.1-.7-2.1-2.3v-6.4h-2.4v6.7c0 2.8 1.6 4 3.6 4zm8.3-.2h2.4v-10.5h-2.4zm1.2-12.2c.8 0 1.4-.6 1.4-1.4s-.6-1.4-1.4-1.4-1.4.6-1.4 1.4c-.1.8.6 1.4 1.4 1.4zm8.4 12.4c2.8 0 4.7-1.7 4.8-4.1h-2.2c-.1 1.5-1.2 2.2-2.5 2.2-1.8 0-2.9-1.2-2.9-3.5v-.2c0-2.2 1.2-3.4 2.8-3.4 1.3 0 2.2.6 2.4 2h2.3c-.3-2.9-2.5-3.9-4.8-3.9-2.9 0-5.3 2.1-5.3 5.4v.2c.1 3.3 2.4 5.3 5.4 5.3zm6.5-.2h2.4v-5.1l3.9 5.1h2.8l-4.4-5.7 4.1-4.8h-2.6l-3.7 4.6v-9.4h-2.4zm10.4 0h2.4v-15.3h-2.4zm6.2 3.6h2.4l5.7-14h-2.4l-2.6 6.7-2.8-6.7h-2.6l4.1 9.4zm16-3.6h2.5l2.1-7 1.9 7h2.5l3.3-10.5h-2.4l-2.2 7.6-2-7.6h-2l-2.2 7.6-2.1-7.6h-2.6zm13.7 0h2.4v-6.2c0-1.7 1.1-2.5 2.5-2.5s2.1.7 2.1 2.3v6.4h2.4v-6.6c0-2.9-1.5-4.1-3.6-4.1-1.7 0-2.9.9-3.4 1.9v-6.5h-2.4zm16.4.2c2.7 0 4.5-1.2 4.8-3.4h-2.3c-.2 1-.9 1.6-2.4 1.6-1.8 0-2.8-1.1-2.9-3.1h7.7v-.7c0-3.7-2.3-5.3-4.9-5.3-3 0-5.2 2.2-5.2 5.4v.2c-.1 3.3 2.1 5.3 5.2 5.3zm-2.8-6.5c.2-1.6 1.2-2.6 2.7-2.6s2.4.8 2.5 2.6zm9.4 6.3h2.4v-6.2c0-1.7 1.1-2.5 2.5-2.5s2.1.7 2.1 2.3v6.4h2.4v-6.6c0-2.9-1.5-4.1-3.6-4.1-1.7 0-2.9.9-3.4 1.9v-1.7h-2.4zm17.3 3.6h2.4l5.7-14h-2.4l-2.6 6.7-2.8-6.7h-2.6l4.1 9.4zm13.8-5.3c-1.8 0-2.9-1.3-2.9-3.5v-.2c0-2.2 1.1-3.5 2.9-3.5s2.9 1.3 2.9 3.5v.1c-.1 2.3-1.1 3.6-2.9 3.6zm-.1 1.9c3.1 0 5.4-2.1 5.4-5.4v-.2c0-3.2-2.3-5.3-5.4-5.3s-5.4 2.2-5.4 5.4v.2c.1 3.2 2.4 5.3 5.4 5.3zm10.7 0c1.7 0 2.8-.8 3.3-1.8v1.6h2.4v-10.5h-2.4v6.2c0 1.7-1.1 2.5-2.4 2.5-1.4 0-2.1-.7-2.1-2.3v-6.4h-2.4v6.7c0 2.8 1.5 4 3.6 4zm-202.2 23c2.7 0 4.2-1.2 4.2-3.3 0-2.2-1.5-2.8-3.9-3.2-1.7-.3-2.2-.6-2.2-1.3s.6-1.2 1.7-1.2 1.7.4 1.9 1.4h2.2c-.3-2.4-2-3.2-4.1-3.2-2 0-3.9 1-3.9 3.1 0 2 1 2.7 3.8 3.2 1.5.3 2.2.6 2.2 1.4 0 .9-.6 1.3-1.9 1.3-1.4 0-2-.6-2.1-1.7h-2.3c.1 2.3 1.7 3.5 4.4 3.5zm10.5 0c2.7 0 4.5-1.2 4.8-3.4h-2.3c-.2 1-.9 1.6-2.4 1.6-1.8 0-2.8-1.1-2.9-3.1h7.7v-.7c0-3.7-2.3-5.3-4.9-5.3-3 0-5.2 2.2-5.2 5.4v.2c-.1 3.3 2.1 5.3 5.2 5.3zm-2.8-6.5c.2-1.6 1.2-2.6 2.7-2.6s2.4.8 2.5 2.6zm14 6.5c2.7 0 4.5-1.2 4.8-3.4h-2.3c-.2 1-.9 1.6-2.4 1.6-1.8 0-2.8-1.1-2.9-3.1h7.7v-.7c0-3.7-2.3-5.3-4.9-5.3-3 0-5.2 2.2-5.2 5.4v.2c-.1 3.3 2.1 5.3 5.2 5.3zm-2.8-6.5c.2-1.6 1.2-2.6 2.7-2.6s2.4.8 2.5 2.6zm18.4 6.5c2.8 0 4.7-1.7 4.8-4.1h-2.2c-.1 1.5-1.2 2.2-2.5 2.2-1.8 0-2.9-1.2-2.9-3.5v-.2c0-2.2 1.2-3.4 2.8-3.4 1.3 0 2.2.6 2.4 2h2.3c-.3-2.9-2.5-3.9-4.8-3.9-2.9 0-5.3 2.1-5.3 5.4v.2c.1 3.3 2.4 5.3 5.4 5.3zm6.5-.2h2.4v-6.2c0-1.7 1.1-2.5 2.5-2.5s2.1.7 2.1 2.3v6.4h2.4v-6.6c0-2.9-1.5-4.1-3.6-4.1-1.7 0-2.9.9-3.4 1.9v-6.5h-2.4zm15.3.2c1.7 0 2.8-.8 3.3-1.8v1.6h2.4v-10.5h-2.4v6.2c0 1.7-1.1 2.5-2.4 2.5-1.4 0-2.1-.7-2.1-2.3v-6.4h-2.4v6.7c0 2.8 1.5 4 3.6 4zm8.2-.2h2.4v-5.4c0-2.2 1.3-2.9 3.4-2.9v-2.3c-1.8 0-2.7.8-3.4 2.1v-2h-2.4zm7.5 0h2.4v-6.2c0-1.7 1.1-2.5 2.5-2.5s2.1.7 2.1 2.3v6.4h2.4v-6.6c0-2.9-1.5-4.1-3.6-4.1-1.7 0-2.9.9-3.4 1.9v-1.7h-2.4zm16.2 0h2.4v-10.5h-2.4zm1.2-12.2c.8 0 1.4-.6 1.4-1.4s-.6-1.4-1.4-1.4-1.4.6-1.4 1.4.6 1.4 1.4 1.4zm3.8 12.2h2.4v-6.2c0-1.7 1.1-2.5 2.5-2.5s2.1.7 2.1 2.3v6.4h2.4v-6.6c0-2.9-1.5-4.1-3.6-4.1-1.7 0-2.9.9-3.4 1.9v-1.7h-2.4zm15.7.2c1.5 0 2.9-.9 3.4-2v1.8h2.4v-15.3h-2.4v6.4c-.6-1-1.6-1.8-3.3-1.8-2.7 0-4.7 2.1-4.7 5.5v.2c0 3.3 2 5.2 4.6 5.2zm.6-1.9c-1.6 0-2.7-1.1-2.7-3.4v-.2c0-2.3 1-3.5 2.8-3.5s2.8 1.1 2.8 3.4v.2c0 2.4-1.2 3.5-2.9 3.5zm7.8 1.7h2.4v-10.5h-2.4zm1.1-12.2c.8 0 1.4-.6 1.4-1.4s-.6-1.4-1.4-1.4-1.4.6-1.4 1.4.6 1.4 1.4 1.4zm8.4 12.4c2.8 0 4.7-1.7 4.8-4.1h-2.2c-.1 1.5-1.2 2.2-2.5 2.2-1.8 0-2.9-1.2-2.9-3.5v-.2c0-2.2 1.2-3.4 2.8-3.4 1.3 0 2.2.6 2.4 2h2.3c-.3-2.9-2.5-3.9-4.8-3.9-2.9 0-5.3 2.1-5.3 5.4v.2c.1 3.3 2.4 5.3 5.4 5.3zm9.3 0c1.6 0 2.5-.6 3.2-1.5v1.3h2.4v-6.9c0-2.9-1.8-3.8-4.2-3.8s-4.3 1-4.5 3.5h2.3c.1-1 .7-1.6 2-1.6 1.4 0 1.9.7 1.9 2.1v.5h-1.3c-3 0-5.4.9-5.4 3.3.1 2.2 1.7 3.1 3.6 3.1zm.6-1.7c-1.2 0-1.7-.6-1.7-1.5 0-1.3 1.2-1.7 3-1.7h1.2v1c0 1.4-1.1 2.2-2.5 2.2zm10.9 1.7c.7 0 1.3-.1 1.6-.3v-1.9c-.3.1-.7.2-1.2.2-.8 0-1.2-.4-1.2-1.3v-5.5h2.3v-1.8h-2.3v-2.3h-2.4v2.3h-1.4v1.8h1.4v5.7c0 2 1.1 3.1 3.2 3.1zm8.1-1.9c-1.8 0-2.9-1.3-2.9-3.5v-.2c0-2.2 1.1-3.5 2.9-3.5s2.9 1.3 2.9 3.5v.1c0 2.3-1.1 3.6-2.9 3.6zm0 1.9c3.1 0 5.4-2.1 5.4-5.4v-.2c0-3.2-2.3-5.3-5.4-5.3s-5.4 2.2-5.4 5.4v.2c0 3.2 2.3 5.3 5.4 5.3zm7.1-.2h2.4v-5.4c0-2.2 1.3-2.9 3.4-2.9v-2.3c-1.8 0-2.7.8-3.4 2.1v-2h-2.4zm11.2.2c2.7 0 4.2-1.2 4.2-3.3 0-2.2-1.5-2.8-3.9-3.2-1.7-.3-2.2-.6-2.2-1.3s.6-1.2 1.7-1.2 1.7.4 1.9 1.4h2.2c-.3-2.4-2-3.2-4.1-3.2-2 0-3.9 1-3.9 3.1 0 2 1 2.7 3.8 3.2 1.5.3 2.2.6 2.2 1.4 0 .9-.6 1.3-1.9 1.3-1.4 0-2-.6-2.1-1.7h-2.3c.1 2.3 1.7 3.5 4.4 3.5z"/><path d="m845.5 441.2c3.2 0 5.3-1.9 5.3-4.4 0-2.9-1.7-3.8-5.1-4.3-2.5-.4-3-.9-3-2.1 0-1.1.8-1.9 2.5-1.9 1.6 0 2.5.6 2.8 2.1h2.4c-.3-2.7-2.1-4.1-5.2-4.1-3 0-5 1.8-5 4.1 0 2.7 1.6 3.7 5 4.2 2.3.4 3 .9 3 2.2s-1.1 2.2-2.7 2.2c-2.4 0-3-1.2-3.2-2.6h-2.6c.3 2.7 1.9 4.6 5.8 4.6zm10.8 0c.7 0 1.3-.1 1.6-.3v-1.9c-.3.1-.7.2-1.2.2-.8 0-1.2-.4-1.2-1.3v-5.5h2.3v-1.8h-2.3v-2.3h-2.4v2.3h-1.4v1.8h1.4v5.7c0 2 1.1 3.1 3.2 3.1zm6.3 0c1.6 0 2.5-.6 3.2-1.5v1.3h2.4v-6.9c0-2.9-1.8-3.8-4.2-3.8s-4.3 1-4.5 3.5h2.3c.1-1 .7-1.6 2-1.6 1.4 0 1.9.7 1.9 2.1v.5h-1.3c-3 0-5.4.9-5.4 3.3.1 2.2 1.6 3.1 3.6 3.1zm.5-1.7c-1.2 0-1.7-.6-1.7-1.5 0-1.3 1.2-1.7 3-1.7h1.2v1c.1 1.4-1 2.2-2.5 2.2zm7.4 1.5h2.4v-5.4c0-2.2 1.3-2.9 3.4-2.9v-2.3c-1.8 0-2.7.8-3.4 2.1v-2h-2.4zm11.2.2c.7 0 1.3-.1 1.6-.3v-1.9c-.3.1-.7.2-1.2.2-.8 0-1.2-.4-1.2-1.3v-5.5h2.3v-1.8h-2.2v-2.3h-2.4v2.3h-1.4v1.8h1.4v5.7c0 2 1 3.1 3.1 3.1zm13.6 0c2.7 0 4.6-2 4.6-5.4v-.2c0-3.4-2-5.3-4.6-5.3-1.5 0-2.8.9-3.4 1.9v-6.5h-2.4v15.3h2.4v-1.7c.6 1.1 1.8 1.9 3.4 1.9zm-.6-1.9c-1.8 0-2.9-1.1-2.9-3.4v-.2c0-2.3 1.2-3.5 2.9-3.5 1.6 0 2.8 1.1 2.8 3.5v.2c0 2.2-1 3.4-2.8 3.4zm10.6 1.9c1.7 0 2.8-.8 3.3-1.8v1.6h2.4v-10.5h-2.4v6.2c0 1.7-1.1 2.5-2.4 2.5-1.4 0-2.1-.7-2.1-2.3v-6.4h-2.4v6.7c0 2.8 1.5 4 3.6 4zm8.2-.2h2.4v-10.5h-2.4zm1.2-12.2c.8 0 1.4-.6 1.4-1.4s-.6-1.4-1.4-1.4-1.4.6-1.4 1.4.6 1.4 1.4 1.4zm3.9 12.2h2.4v-15.3h-2.4zm8.9.2c1.5 0 2.9-.9 3.4-2v1.8h2.4v-15.3h-2.4v6.4c-.6-1-1.6-1.8-3.3-1.8-2.7 0-4.7 2.1-4.7 5.5v.2c-.1 3.3 1.9 5.2 4.6 5.2zm.5-1.9c-1.6 0-2.7-1.1-2.7-3.4v-.2c0-2.3 1-3.5 2.8-3.5s2.8 1.1 2.8 3.4v.2c.1 2.4-1.2 3.5-2.9 3.5zm7.8 1.7h2.4v-10.5h-2.4zm1.2-12.2c.8 0 1.4-.6 1.4-1.4s-.6-1.4-1.4-1.4-1.4.6-1.4 1.4.6 1.4 1.4 1.4zm3.8 12.2h2.4v-6.2c0-1.7 1.1-2.5 2.5-2.5s2.1.7 2.1 2.3v6.4h2.4v-6.6c0-2.9-1.5-4.1-3.6-4.1-1.7 0-2.9.9-3.4 1.9v-1.7h-2.4zm16.2 3.8c3.2 0 5.3-1.5 5.3-4.6v-9.7h-2.4v1.6c-.6-1-1.6-1.8-3.4-1.8-2.7 0-4.7 2.2-4.7 5.1v.1c0 3 2 5 4.6 5 1.5 0 2.8-.9 3.4-1.9v1.5c0 1.9-1 2.8-2.9 2.8-1.6 0-2.4-.6-2.6-1.6h-2.3c.3 2.1 1.8 3.5 5 3.5zm.1-6.1c-1.6 0-2.8-1.2-2.8-3.1v-.2c0-1.9 1-3.2 2.8-3.2 1.7 0 2.8 1.2 2.8 3.2v.1c.1 2-1.1 3.2-2.8 3.2zm12.1 5.9h2.4v-5.2c.6 1 1.8 1.8 3.4 1.8 2.7 0 4.6-2 4.6-5.4v-.2c0-3.4-2-5.3-4.6-5.3-1.5 0-2.8.9-3.4 1.9v-1.7h-2.4zm5.2-5.3c-1.8 0-2.9-1.1-2.9-3.4v-.2c0-2.3 1.2-3.5 2.9-3.5 1.6 0 2.8 1.1 2.8 3.5v.2c0 2.2-1 3.4-2.8 3.4zm11.7 0c-1.8 0-2.9-1.3-2.9-3.5v-.2c0-2.2 1.1-3.5 2.9-3.5s2.9 1.3 2.9 3.5v.1c0 2.3-1.1 3.6-2.9 3.6zm0 1.9c3.1 0 5.4-2.1 5.4-5.4v-.2c0-3.2-2.3-5.3-5.4-5.3s-5.4 2.2-5.4 5.4v.2c.1 3.2 2.3 5.3 5.4 5.3zm9.1-.2h2.5l2.1-7 1.9 7h2.5l3.3-10.5h-2.4l-2.2 7.6-2-7.6h-2l-2.2 7.6-2.1-7.6h-2.6zm18 .2c2.7 0 4.5-1.2 4.8-3.4h-2.3c-.2 1-.9 1.6-2.4 1.6-1.8 0-2.8-1.1-2.9-3.1h7.7v-.7c0-3.7-2.3-5.3-4.9-5.3-3 0-5.2 2.2-5.2 5.4v.2c-.1 3.3 2.1 5.3 5.2 5.3zm-2.8-6.5c.2-1.6 1.2-2.6 2.7-2.6s2.4.8 2.5 2.6zm9.4 6.3h2.4v-5.4c0-2.2 1.3-2.9 3.4-2.9v-2.3c-1.8 0-2.7.8-3.4 2.1v-2h-2.4zm8.2 0h2.4v-8.6h2.4v-1.8h-2.4v-1.6c0-.9.4-1.5 1.4-1.5.4 0 .8.1 1.1.2v-1.9c-.4-.1-.8-.2-1.4-.2-2.2 0-3.5 1.2-3.5 3.5v1.4h-1.4v1.8h1.4zm9.9.2c1.7 0 2.8-.8 3.3-1.8v1.6h2.4v-10.5h-2.4v6.2c0 1.7-1.1 2.5-2.4 2.5-1.4 0-2.1-.7-2.1-2.3v-6.4h-2.4v6.7c0 2.8 1.5 4 3.6 4zm8.3-.2h2.4v-15.3h-2.4zm9.3 3.6h2.4v-5.2c.6 1 1.8 1.8 3.4 1.8 2.7 0 4.6-2 4.6-5.4v-.2c0-3.4-2-5.3-4.6-5.3-1.5 0-2.8.9-3.4 1.9v-1.7h-2.4zm5.2-5.3c-1.8 0-2.9-1.1-2.9-3.4v-.2c0-2.3 1.2-3.5 2.9-3.5 1.6 0 2.8 1.1 2.8 3.5v.2c0 2.2-1 3.4-2.8 3.4zm7 1.7h2.4v-5.4c0-2.2 1.3-2.9 3.4-2.9v-2.3c-1.8 0-2.7.8-3.4 2.1v-2h-2.4zm12 .2c2.7 0 4.5-1.2 4.8-3.4h-2.3c-.2 1-.9 1.6-2.4 1.6-1.8 0-2.8-1.1-2.9-3.1h7.7v-.7c0-3.7-2.3-5.3-4.9-5.3-3 0-5.2 2.2-5.2 5.4v.2c-.1 3.3 2.1 5.3 5.2 5.3zm-2.8-6.5c.2-1.6 1.2-2.6 2.7-2.6s2.4.8 2.5 2.6zm13.3 6.5c1.5 0 2.9-.9 3.4-2v1.8h2.4v-15.3h-2.4v6.4c-.6-1-1.6-1.8-3.3-1.8-2.7 0-4.7 2.1-4.7 5.5v.2c0 3.3 2 5.2 4.6 5.2zm.6-1.9c-1.6 0-2.7-1.1-2.7-3.4v-.2c0-2.3 1-3.5 2.8-3.5s2.8 1.1 2.8 3.4v.2c0 2.4-1.2 3.5-2.9 3.5zm7.8 1.7h2.4v-10.5h-2.4zm1.2-12.2c.8 0 1.4-.6 1.4-1.4s-.6-1.4-1.4-1.4-1.4.6-1.4 1.4.6 1.4 1.4 1.4zm8.4 12.4c2.8 0 4.7-1.7 4.8-4.1h-2.2c-.1 1.5-1.2 2.2-2.5 2.2-1.8 0-2.9-1.2-2.9-3.5v-.2c0-2.2 1.2-3.4 2.8-3.4 1.3 0 2.2.6 2.4 2h2.3c-.3-2.9-2.5-3.9-4.8-3.9-2.9 0-5.3 2.1-5.3 5.4v.2c.1 3.3 2.4 5.3 5.4 5.3zm10 0c.7 0 1.3-.1 1.6-.3v-1.9c-.3.1-.7.2-1.2.2-.8 0-1.2-.4-1.2-1.3v-5.5h2.3v-1.8h-2.3v-2.3h-2.4v2.3h-1.4v1.8h1.4v5.7c.1 2 1.2 3.1 3.2 3.1zm3.5-.2h2.4v-10.5h-2.4zm1.2-12.2c.8 0 1.4-.6 1.4-1.4s-.6-1.4-1.4-1.4-1.4.6-1.4 1.4.6 1.4 1.4 1.4zm6.5 12.2h2.8l3.8-10.5h-2.4l-2.7 8-2.7-8h-2.6zm12.2.2c2.7 0 4.5-1.2 4.8-3.4h-2.3c-.2 1-.9 1.6-2.4 1.6-1.8 0-2.8-1.1-2.9-3.1h7.7v-.7c0-3.7-2.3-5.3-4.9-5.3-3 0-5.2 2.2-5.2 5.4v.2c-.1 3.3 2.2 5.3 5.2 5.3zm-2.7-6.5c.2-1.6 1.2-2.6 2.7-2.6s2.4.8 2.5 2.6zm-298.5 29.3h2.4v-6.3c0-1.6 1.1-2.4 2.3-2.4s1.9.7 1.9 2.2v6.5h2.4v-6.3c0-1.6 1.1-2.4 2.3-2.4s1.9.7 1.9 2.2v6.5h2.4v-6.6c0-2.9-1.6-4.1-3.5-4.1-1.3 0-2.7.6-3.5 1.9-.5-1.3-1.6-1.9-3-1.9-1.5 0-2.7.8-3.2 1.8v-1.6h-2.4zm22.7-1.7c-1.8 0-2.9-1.3-2.9-3.5v-.2c0-2.2 1.1-3.5 2.9-3.5s2.9 1.3 2.9 3.5v.1c0 2.3-1.1 3.6-2.9 3.6zm0 1.9c3.1 0 5.4-2.1 5.4-5.4v-.2c0-3.2-2.3-5.3-5.4-5.3s-5.4 2.2-5.4 5.4v.2c0 3.2 2.3 5.3 5.4 5.3zm11 0c1.5 0 2.9-.9 3.4-2v1.8h2.4v-15.3h-2.4v6.4c-.6-1-1.6-1.8-3.3-1.8-2.7 0-4.7 2.1-4.7 5.5v.2c0 3.3 2 5.2 4.6 5.2zm.6-1.9c-1.6 0-2.7-1.1-2.7-3.4v-.2c0-2.3 1-3.5 2.8-3.5s2.8 1.1 2.8 3.4v.2c.1 2.4-1.2 3.5-2.9 3.5zm12.4 1.9c2.7 0 4.5-1.2 4.8-3.4h-2.3c-.2 1-.9 1.6-2.4 1.6-1.8 0-2.8-1.1-2.9-3.1h7.7v-.7c0-3.7-2.3-5.3-4.9-5.3-3 0-5.2 2.2-5.2 5.4v.2c-.1 3.3 2.1 5.3 5.2 5.3zm-2.8-6.5c.2-1.6 1.2-2.6 2.7-2.6s2.4.8 2.5 2.6zm9.4 6.3h2.4v-15.3h-2.4zm8.6.2c2.7 0 4.2-1.2 4.2-3.3 0-2.2-1.5-2.8-3.9-3.2-1.7-.3-2.2-.6-2.2-1.3s.6-1.2 1.7-1.2 1.7.4 1.9 1.4h2.2c-.3-2.4-2-3.2-4.1-3.2-2 0-3.9 1-3.9 3.1 0 2 1 2.7 3.8 3.2 1.5.3 2.2.6 2.2 1.4 0 .9-.6 1.3-1.9 1.3-1.4 0-2-.6-2.1-1.7h-2.3c.1 2.3 1.7 3.5 4.4 3.5zm13.8 0c.7 0 1.3-.1 1.6-.3v-1.9c-.3.1-.7.2-1.2.2-.8 0-1.2-.4-1.2-1.3v-5.5h2.3v-1.8h-2.3v-2.3h-2.3v2.3h-1.4v1.8h1.4v5.7c0 2 1 3.1 3.1 3.1zm8.1-1.9c-1.8 0-2.9-1.3-2.9-3.5v-.2c0-2.2 1.1-3.5 2.9-3.5s2.9 1.3 2.9 3.5v.1c0 2.3-1.1 3.6-2.9 3.6zm0 1.9c3.1 0 5.4-2.1 5.4-5.4v-.2c0-3.2-2.3-5.3-5.4-5.3s-5.4 2.2-5.4 5.4v.2c0 3.2 2.3 5.3 5.4 5.3zm11.6-.2h2.4v-10.5h-2.4zm1.2-12.2c.8 0 1.4-.6 1.4-1.4s-.6-1.4-1.4-1.4-1.4.6-1.4 1.4c-.1.8.6 1.4 1.4 1.4zm3.8 12.2h2.4v-6.3c0-1.6 1.1-2.4 2.3-2.4s1.9.7 1.9 2.2v6.5h2.4v-6.3c0-1.6 1.1-2.4 2.3-2.4s1.9.7 1.9 2.2v6.5h2.4v-6.6c0-2.9-1.6-4.1-3.5-4.1-1.3 0-2.7.6-3.5 1.9-.5-1.3-1.6-1.9-3-1.9-1.5 0-2.7.8-3.2 1.8v-1.6h-2.4zm17.9 3.6h2.4v-5.2c.6 1 1.8 1.8 3.4 1.8 2.7 0 4.6-2 4.6-5.4v-.2c0-3.4-2-5.3-4.6-5.3-1.5 0-2.8.9-3.4 1.9v-1.7h-2.4zm5.3-5.3c-1.8 0-2.9-1.1-2.9-3.4v-.2c0-2.3 1.2-3.5 2.9-3.5 1.6 0 2.8 1.1 2.8 3.5v.2c-.1 2.2-1.1 3.4-2.8 3.4zm7 1.7h2.4v-5.4c0-2.2 1.3-2.9 3.4-2.9v-2.3c-1.8 0-2.7.8-3.4 2.1v-2h-2.4zm12-1.7c-1.8 0-2.9-1.3-2.9-3.5v-.2c0-2.2 1.1-3.5 2.9-3.5s2.9 1.3 2.9 3.5v.1c0 2.3-1.1 3.6-2.9 3.6zm0 1.9c3.1 0 5.4-2.1 5.4-5.4v-.2c0-3.2-2.3-5.3-5.4-5.3s-5.4 2.2-5.4 5.4v.2c0 3.2 2.3 5.3 5.4 5.3zm9.5-.2h2.8l3.8-10.5h-2.4l-2.7 8-2.7-8h-2.6zm12.2.2c2.7 0 4.5-1.2 4.8-3.4h-2.3c-.2 1-.9 1.6-2.4 1.6-1.8 0-2.8-1.1-2.9-3.1h7.7v-.7c0-3.7-2.3-5.3-4.9-5.3-3 0-5.2 2.2-5.2 5.4v.2c-.1 3.3 2.1 5.3 5.2 5.3zm-2.8-6.5c.2-1.6 1.2-2.6 2.7-2.6s2.4.8 2.5 2.6zm13.8 6.3h2.4v-5.4c0-2.2 1.3-2.9 3.4-2.9v-2.3c-1.8 0-2.7.8-3.4 2.1v-2h-2.4zm11.9.2c2.7 0 4.5-1.2 4.8-3.4h-2.3c-.2 1-.9 1.6-2.4 1.6-1.8 0-2.8-1.1-2.9-3.1h7.7v-.7c0-3.7-2.3-5.3-4.9-5.3-3 0-5.2 2.2-5.2 5.4v.2c-.1 3.3 2.2 5.3 5.2 5.3zm-2.7-6.5c.2-1.6 1.2-2.6 2.7-2.6s2.4.8 2.5 2.6zm12.9 6.5c.7 0 1.3-.1 1.6-.3v-1.9c-.3.1-.7.2-1.2.2-.8 0-1.2-.4-1.2-1.3v-5.5h2.3v-1.8h-2.3v-2.3h-2.4v2.3h-1.4v1.8h1.4v5.7c0 2 1.1 3.1 3.2 3.1zm8 0c2.7 0 4.5-1.2 4.8-3.4h-2.3c-.2 1-.9 1.6-2.4 1.6-1.8 0-2.8-1.1-2.9-3.1h7.7v-.7c0-3.7-2.3-5.3-4.9-5.3-3 0-5.2 2.2-5.2 5.4v.2c-.1 3.3 2.1 5.3 5.2 5.3zm-2.8-6.5c.2-1.6 1.2-2.6 2.7-2.6s2.4.8 2.5 2.6zm9.4 6.3h2.4v-6.2c0-1.7 1.1-2.5 2.5-2.5s2.1.7 2.1 2.3v6.4h2.4v-6.6c0-2.9-1.5-4.1-3.6-4.1-1.7 0-2.9.9-3.4 1.9v-1.7h-2.4zm15.3.2c.7 0 1.3-.1 1.6-.3v-1.9c-.3.1-.7.2-1.2.2-.8 0-1.2-.4-1.2-1.3v-5.5h2.3v-1.8h-2.3v-2.3h-2.4v2.3h-1.4v1.8h1.4v5.7c.1 2 1.2 3.1 3.2 3.1zm3.5-.2h2.4v-10.5h-2.4zm1.2-12.2c.8 0 1.4-.6 1.4-1.4s-.6-1.4-1.4-1.4-1.4.6-1.4 1.4.6 1.4 1.4 1.4zm8.5 10.5c-1.8 0-2.9-1.3-2.9-3.5v-.2c0-2.2 1.1-3.5 2.9-3.5s2.9 1.3 2.9 3.5v.1c0 2.3-1.1 3.6-2.9 3.6zm0 1.9c3.1 0 5.4-2.1 5.4-5.4v-.2c0-3.2-2.3-5.3-5.4-5.3s-5.4 2.2-5.4 5.4v.2c0 3.2 2.3 5.3 5.4 5.3zm7.1-.2h2.4v-6.2c0-1.7 1.1-2.5 2.5-2.5s2.1.7 2.1 2.3v6.4h2.4v-6.6c0-2.9-1.5-4.1-3.6-4.1-1.7 0-2.9.9-3.4 1.9v-1.7h-2.4z"/><path d="m868.7 537h2.7v-14.3h-2.7zm5.5 0h2.4v-6.2c0-1.7 1.1-2.5 2.5-2.5s2.1.7 2.1 2.3v6.4h2.4v-6.6c0-2.9-1.5-4.1-3.6-4.1-1.7 0-2.9.9-3.4 1.9v-1.7h-2.4zm14.3 0h2.8l3.8-10.5h-2.4l-2.7 8-2.7-8h-2.6zm12.2.2c2.7 0 4.5-1.2 4.8-3.4h-2.3c-.2 1-.9 1.6-2.4 1.6-1.8 0-2.8-1.1-2.9-3.1h7.7v-.7c0-3.7-2.3-5.3-4.9-5.3-3 0-5.2 2.2-5.2 5.4v.2c-.1 3.3 2.1 5.3 5.2 5.3zm-2.8-6.5c.2-1.6 1.2-2.6 2.7-2.6s2.4.8 2.5 2.6zm13.1 6.5c2.7 0 4.2-1.2 4.2-3.3 0-2.2-1.5-2.8-3.9-3.2-1.7-.3-2.2-.6-2.2-1.3s.6-1.2 1.7-1.2 1.7.4 1.9 1.4h2.2c-.3-2.4-2-3.2-4.1-3.2-2 0-3.9 1-3.9 3.1 0 2 1 2.7 3.8 3.2 1.5.3 2.2.6 2.2 1.4 0 .9-.6 1.3-1.9 1.3-1.4 0-2-.6-2.1-1.7h-2.3c.1 2.3 1.7 3.5 4.4 3.5zm9.4 0c.7 0 1.3-.1 1.6-.3v-1.9c-.3.1-.7.2-1.2.2-.8 0-1.2-.4-1.2-1.3v-5.5h2.3v-1.8h-2.3v-2.3h-2.4v2.3h-1.4v1.8h1.4v5.7c.1 2 1.2 3.1 3.2 3.1zm3.5-.2h2.4v-10.5h-2.4zm1.2-12.2c.8 0 1.4-.6 1.4-1.4s-.6-1.4-1.4-1.4-1.4.6-1.4 1.4.6 1.4 1.4 1.4zm3.8 12.2h2.4v-6.2c0-1.7 1.1-2.5 2.5-2.5s2.1.7 2.1 2.3v6.4h2.4v-6.6c0-2.9-1.5-4.1-3.6-4.1-1.7 0-2.9.9-3.4 1.9v-1.7h-2.4zm16.2 3.8c3.2 0 5.3-1.5 5.3-4.6v-9.7h-2.4v1.6c-.6-1-1.6-1.8-3.4-1.8-2.7 0-4.7 2.2-4.7 5.1v.1c0 3 2 5 4.6 5 1.5 0 2.8-.9 3.4-1.9v1.5c0 1.9-1 2.8-2.9 2.8-1.6 0-2.4-.6-2.6-1.6h-2.4c.4 2.1 1.8 3.5 5.1 3.5zm.1-6.1c-1.6 0-2.8-1.2-2.8-3.1v-.2c0-1.9 1-3.2 2.8-3.2 1.7 0 2.8 1.2 2.8 3.2v.1c.1 2-1.1 3.2-2.8 3.2zm12.1 2.3h2.4v-10.5h-2.4zm1.2-12.2c.8 0 1.4-.6 1.4-1.4s-.6-1.4-1.4-1.4-1.4.6-1.4 1.4.6 1.4 1.4 1.4zm3.8 12.2h2.4v-6.2c0-1.7 1.1-2.5 2.5-2.5s2.1.7 2.1 2.3v6.4h2.4v-6.6c0-2.9-1.5-4.1-3.6-4.1-1.7 0-2.9.9-3.4 1.9v-1.7h-2.4zm18.9.2c1.6 0 2.5-.6 3.2-1.5v1.3h2.4v-6.9c0-2.9-1.8-3.8-4.2-3.8s-4.3 1-4.5 3.5h2.3c.1-1 .7-1.6 2-1.6 1.4 0 1.9.7 1.9 2.1v.5h-1.3c-3 0-5.4.9-5.4 3.3.1 2.2 1.7 3.1 3.6 3.1zm.6-1.7c-1.2 0-1.7-.6-1.7-1.5 0-1.3 1.2-1.7 3-1.7h1.2v1c0 1.4-1.1 2.2-2.5 2.2zm11.2 1.7c1.5 0 2.9-.9 3.4-2v1.8h2.4v-15.3h-2.4v6.4c-.6-1-1.6-1.8-3.3-1.8-2.7 0-4.7 2.1-4.7 5.5v.2c0 3.3 2 5.2 4.6 5.2zm.6-1.9c-1.6 0-2.7-1.1-2.7-3.4v-.2c0-2.3 1-3.5 2.8-3.5s2.8 1.1 2.8 3.4v.2c.1 2.4-1.2 3.5-2.9 3.5zm10.5 1.7h2.8l3.8-10.5h-2.4l-2.7 8-2.7-8h-2.6zm10.6.2c1.6 0 2.5-.6 3.2-1.5v1.3h2.4v-6.9c0-2.9-1.8-3.8-4.2-3.8s-4.3 1-4.5 3.5h2.3c.1-1 .7-1.6 2-1.6 1.4 0 1.9.7 1.9 2.1v.5h-1.3c-3 0-5.4.9-5.4 3.3.1 2.2 1.6 3.1 3.6 3.1zm.5-1.7c-1.2 0-1.7-.6-1.7-1.5 0-1.3 1.2-1.7 3-1.7h1.2v1c.1 1.4-1 2.2-2.5 2.2zm7.4 1.5h2.4v-6.2c0-1.7 1.1-2.5 2.5-2.5s2.1.7 2.1 2.3v6.4h2.4v-6.6c0-2.9-1.5-4.1-3.6-4.1-1.7 0-2.9.9-3.4 1.9v-1.7h-2.4zm16.4.2c2.8 0 4.7-1.7 4.8-4.1h-2.2c-.1 1.5-1.2 2.2-2.5 2.2-1.8 0-2.9-1.2-2.9-3.5v-.2c0-2.2 1.2-3.4 2.8-3.4 1.3 0 2.2.6 2.4 2h2.3c-.3-2.9-2.5-3.9-4.8-3.9-2.9 0-5.3 2.1-5.3 5.4v.2c.1 3.3 2.4 5.3 5.4 5.3zm11.1 0c2.7 0 4.5-1.2 4.8-3.4h-2.3c-.2 1-.9 1.6-2.4 1.6-1.8 0-2.8-1.1-2.9-3.1h7.7v-.7c0-3.7-2.3-5.3-4.9-5.3-3 0-5.2 2.2-5.2 5.4v.2c-.1 3.3 2.1 5.3 5.2 5.3zm-2.8-6.5c.2-1.6 1.2-2.6 2.7-2.6s2.4.8 2.5 2.6zm13.3 6.5c1.5 0 2.9-.9 3.4-2v1.8h2.4v-15.3h-2.4v6.4c-.6-1-1.6-1.8-3.3-1.8-2.7 0-4.7 2.1-4.7 5.5v.2c0 3.3 2 5.2 4.6 5.2zm.6-1.9c-1.6 0-2.7-1.1-2.7-3.4v-.2c0-2.3 1-3.5 2.8-3.5s2.8 1.1 2.8 3.4v.2c0 2.4-1.2 3.5-2.9 3.5zm14.9 1.9c1.6 0 2.5-.6 3.2-1.5v1.3h2.4v-6.9c0-2.9-1.8-3.8-4.2-3.8s-4.3 1-4.5 3.5h2.3c.1-1 .7-1.6 2-1.6 1.4 0 1.9.7 1.9 2.1v.5h-1.3c-3 0-5.4.9-5.4 3.3 0 2.2 1.6 3.1 3.6 3.1zm.5-1.7c-1.2 0-1.7-.6-1.7-1.5 0-1.3 1.2-1.7 3-1.7h1.2v1c.1 1.4-1 2.2-2.5 2.2zm7.4 1.5h2.4v-6.2c0-1.7 1.1-2.5 2.5-2.5s2.1.7 2.1 2.3v6.4h2.4v-6.6c0-2.9-1.5-4.1-3.6-4.1-1.7 0-2.9.9-3.4 1.9v-1.7h-2.4zm14.5.2c1.6 0 2.5-.6 3.2-1.5v1.3h2.4v-6.9c0-2.9-1.8-3.8-4.2-3.8s-4.3 1-4.5 3.5h2.3c.1-1 .7-1.6 2-1.6 1.4 0 1.9.7 1.9 2.1v.5h-1.3c-3 0-5.4.9-5.4 3.3.1 2.2 1.7 3.1 3.6 3.1zm.6-1.7c-1.2 0-1.7-.6-1.7-1.5 0-1.3 1.2-1.7 3-1.7h1.2v1c.1 1.4-1 2.2-2.5 2.2zm7.4 1.5h2.4v-15.3h-2.4zm6.2 3.6h2.4l5.7-14h-2.4l-2.6 6.7-2.8-6.7h-2.6l4.1 9.4zm13-3.4c2.7 0 4.2-1.2 4.2-3.3 0-2.2-1.5-2.8-3.9-3.2-1.7-.3-2.2-.6-2.2-1.3s.6-1.2 1.7-1.2 1.7.4 1.9 1.4h2.2c-.3-2.4-2-3.2-4.1-3.2-2 0-3.9 1-3.9 3.1 0 2 1 2.7 3.8 3.2 1.5.3 2.2.6 2.2 1.4 0 .9-.6 1.3-1.9 1.3-1.4 0-2-.6-2.1-1.7h-2.3c.1 2.3 1.7 3.5 4.4 3.5zm6-.2h2.4v-10.5h-2.4zm1.2-12.2c.8 0 1.4-.6 1.4-1.4s-.6-1.4-1.4-1.4-1.4.6-1.4 1.4c-.1.8.6 1.4 1.4 1.4zm7.3 12.4c2.7 0 4.2-1.2 4.2-3.3 0-2.2-1.5-2.8-3.9-3.2-1.7-.3-2.2-.6-2.2-1.3s.6-1.2 1.7-1.2 1.7.4 1.9 1.4h2.2c-.3-2.4-2-3.2-4.1-3.2-2 0-3.9 1-3.9 3.1 0 2 1 2.7 3.8 3.2 1.5.3 2.2.6 2.2 1.4 0 .9-.6 1.3-1.9 1.3-1.4 0-2-.6-2.1-1.7h-2.3c.2 2.3 1.7 3.5 4.4 3.5zm-267.8 23c1.5 0 2.9-.9 3.4-2v1.8h2.4v-15.3h-2.4v6.4c-.6-1-1.6-1.8-3.3-1.8-2.7 0-4.7 2.1-4.7 5.5v.2c0 3.3 1.9 5.2 4.6 5.2zm.6-1.9c-1.6 0-2.7-1.1-2.7-3.4v-.2c0-2.3 1-3.5 2.8-3.5s2.8 1.1 2.8 3.4v.2c0 2.4-1.3 3.5-2.9 3.5zm7.7 1.7h2.4v-5.4c0-2.2 1.3-2.9 3.4-2.9v-2.3c-1.8 0-2.7.8-3.4 2.1v-2h-2.4zm7.6 0h2.4v-10.5h-2.4zm1.2-12.2c.8 0 1.4-.6 1.4-1.4s-.6-1.4-1.4-1.4-1.4.6-1.4 1.4c-.1.8.6 1.4 1.4 1.4zm6.5 12.2h2.8l3.8-10.5h-2.4l-2.7 8-2.7-8h-2.6zm12.2.2c2.7 0 4.5-1.2 4.8-3.4h-2.3c-.2 1-.9 1.6-2.4 1.6-1.8 0-2.8-1.1-2.9-3.1h7.7v-.7c0-3.7-2.3-5.3-4.9-5.3-3 0-5.2 2.2-5.2 5.4v.2c-.1 3.3 2.1 5.3 5.2 5.3zm-2.8-6.5c.2-1.6 1.2-2.6 2.7-2.6s2.4.8 2.5 2.6zm13.1 6.5c2.7 0 4.2-1.2 4.2-3.3 0-2.2-1.5-2.8-3.9-3.2-1.7-.3-2.2-.6-2.2-1.3s.6-1.2 1.7-1.2 1.7.4 1.9 1.4h2.2c-.3-2.4-2-3.2-4.1-3.2-2 0-3.9 1-3.9 3.1 0 2 1 2.7 3.8 3.2 1.5.3 2.2.6 2.2 1.4 0 .9-.6 1.3-1.9 1.3-1.4 0-2-.6-2.1-1.7h-2.3c.1 2.3 1.7 3.5 4.4 3.5zm16.1 0c2.7 0 4.6-2 4.6-5.4v-.2c0-3.4-2-5.3-4.6-5.3-1.5 0-2.8.9-3.4 1.9v-6.5h-2.4v15.3h2.4v-1.7c.5 1.1 1.7 1.9 3.4 1.9zm-.6-1.9c-1.8 0-2.9-1.1-2.9-3.4v-.2c0-2.3 1.2-3.5 2.9-3.5 1.6 0 2.8 1.1 2.8 3.5v.2c0 2.2-1 3.4-2.8 3.4zm10.5 1.9c1.7 0 2.8-.8 3.3-1.8v1.6h2.4v-10.5h-2.4v6.2c0 1.7-1.1 2.5-2.4 2.5-1.4 0-2.1-.7-2.1-2.3v-6.4h-2.4v6.7c0 2.8 1.6 4 3.6 4zm11.8 0c2.7 0 4.2-1.2 4.2-3.3 0-2.2-1.5-2.8-3.9-3.2-1.7-.3-2.2-.6-2.2-1.3s.6-1.2 1.7-1.2 1.7.4 1.9 1.4h2.2c-.3-2.4-2-3.2-4.1-3.2-2 0-3.9 1-3.9 3.1 0 2 1 2.7 3.8 3.2 1.5.3 2.2.6 2.2 1.4 0 .9-.6 1.3-1.9 1.3-1.4 0-2-.6-2.1-1.7h-2.3c.1 2.3 1.7 3.5 4.4 3.5zm6-.2h2.4v-10.5h-2.4zm1.2-12.2c.8 0 1.4-.6 1.4-1.4s-.6-1.4-1.4-1.4-1.4.6-1.4 1.4c-.1.8.6 1.4 1.4 1.4zm3.7 12.2h2.4v-6.2c0-1.7 1.1-2.5 2.5-2.5s2.1.7 2.1 2.3v6.4h2.4v-6.6c0-2.9-1.5-4.1-3.6-4.1-1.7 0-2.9.9-3.4 1.9v-1.7h-2.4zm16.4.2c2.7 0 4.5-1.2 4.8-3.4h-2.3c-.2 1-.9 1.6-2.4 1.6-1.8 0-2.8-1.1-2.9-3.1h7.7v-.7c0-3.7-2.3-5.3-4.9-5.3-3 0-5.2 2.2-5.2 5.4v.2c-.1 3.3 2.1 5.3 5.2 5.3zm-2.8-6.5c.2-1.6 1.2-2.6 2.7-2.6s2.4.8 2.5 2.6zm13.1 6.5c2.7 0 4.2-1.2 4.2-3.3 0-2.2-1.5-2.8-3.9-3.2-1.7-.3-2.2-.6-2.2-1.3s.6-1.2 1.7-1.2 1.7.4 1.9 1.4h2.2c-.3-2.4-2-3.2-4.1-3.2-2 0-3.9 1-3.9 3.1 0 2 1 2.7 3.8 3.2 1.5.3 2.2.6 2.2 1.4 0 .9-.6 1.3-1.9 1.3-1.4 0-2-.6-2.1-1.7h-2.3c.1 2.3 1.7 3.5 4.4 3.5zm9.5 0c2.7 0 4.2-1.2 4.2-3.3 0-2.2-1.5-2.8-3.9-3.2-1.7-.3-2.2-.6-2.2-1.3s.6-1.2 1.7-1.2 1.7.4 1.9 1.4h2.2c-.3-2.4-2-3.2-4.1-3.2-2 0-3.9 1-3.9 3.1 0 2 1 2.7 3.8 3.2 1.5.3 2.2.6 2.2 1.4 0 .9-.6 1.3-1.9 1.3-1.4 0-2-.6-2.1-1.7h-2.3c.1 2.3 1.7 3.5 4.4 3.5zm10.3-.2h2.4v-10.5h-2.4zm1.2-12.2c.8 0 1.4-.6 1.4-1.4s-.6-1.4-1.4-1.4-1.4.6-1.4 1.4c-.1.8.6 1.4 1.4 1.4zm3.8 12.2h2.4v-6.3c0-1.6 1.1-2.4 2.3-2.4s1.9.7 1.9 2.2v6.5h2.4v-6.3c0-1.6 1.1-2.4 2.3-2.4s1.9.7 1.9 2.2v6.5h2.4v-6.6c0-2.9-1.6-4.1-3.5-4.1-1.3 0-2.7.6-3.5 1.9-.5-1.3-1.6-1.9-3-1.9-1.5 0-2.7.8-3.2 1.8v-1.6h-2.4zm17.9 3.6h2.4v-5.2c.6 1 1.8 1.8 3.4 1.8 2.7 0 4.6-2 4.6-5.4v-.2c0-3.4-2-5.3-4.6-5.3-1.5 0-2.8.9-3.4 1.9v-1.7h-2.4zm5.3-5.3c-1.8 0-2.9-1.1-2.9-3.4v-.2c0-2.3 1.2-3.5 2.9-3.5 1.6 0 2.8 1.1 2.8 3.5v.2c-.1 2.2-1.1 3.4-2.8 3.4zm9.7 1.9c1.6 0 2.5-.6 3.2-1.5v1.3h2.4v-6.9c0-2.9-1.8-3.8-4.2-3.8s-4.3 1-4.5 3.5h2.3c.1-1 .7-1.6 2-1.6 1.4 0 1.9.7 1.9 2.1v.5h-1.3c-3 0-5.4.9-5.4 3.3.1 2.2 1.7 3.1 3.6 3.1zm.6-1.7c-1.2 0-1.7-.6-1.7-1.5 0-1.3 1.2-1.7 3-1.7h1.2v1c.1 1.4-1 2.2-2.5 2.2zm12 1.7c2.8 0 4.7-1.7 4.8-4.1h-2.2c-.1 1.5-1.2 2.2-2.5 2.2-1.8 0-2.9-1.2-2.9-3.5v-.2c0-2.2 1.2-3.4 2.8-3.4 1.3 0 2.2.6 2.4 2h2.3c-.3-2.9-2.5-3.9-4.8-3.9-2.9 0-5.3 2.1-5.3 5.4v.2c.1 3.3 2.4 5.3 5.4 5.3zm10 0c.7 0 1.3-.1 1.6-.3v-1.9c-.3.1-.7.2-1.2.2-.8 0-1.2-.4-1.2-1.3v-5.5h2.3v-1.8h-2.3v-2.3h-2.4v2.3h-1.4v1.8h1.4v5.7c.1 2 1.2 3.1 3.2 3.1z"/></g><path d="m695.4 149.5v7.2c0 2.6-1.5 4.1-4.1 4.1h-4.7c-2.6 0-4.1-1.5-4.1-4.1v-7.2c0-2.6 1.5-4.1 4.1-4.1h4.7c2.7 0 4.1 1.5 4.1 4.1zm-20.1 21.7c0 4.7 3.1 7.8 7.8 7.8h11.8c4.7 0 7.8-3.1 7.8-7.8v-28.6c0-4.7-3.1-7.8-7.8-7.8h-11.8c-4.7 0-7.8 3.1-7.8 7.8zm30.2-17.4h4.8c4.7 0 7.8-3.1 7.8-7.8v-.6h.6v13.2c0 1.3-.9 2.2-2.2 2.2h-10.9c-1 0-1.7.7-1.7 1.7v14.8c0 1 .7 1.7 1.7 1.7h24.1c1 0 1.7-.7 1.7-1.7v-14.8c0-1-.7-1.7-1.7-1.7h-1.1c-1.3 0-2.2-.9-2.2-2.2v-10.9c0-1.3.9-2.2 2.2-2.2h1.1c1 0 1.7-.7 1.7-1.7v-7.3c0-1-.7-1.7-1.7-1.7h-10.7c-1 0-1.7.7-1.7 1.7v.1c0 1.3-.9 2.2-2.2 2.2h-9.5c-1 0-1.7.7-1.7 1.7v11.8c-.1.8.6 1.5 1.6 1.5z" fill="#c8f169"/><path d="m724.4 244.5v7.2c0 2.6-1.5 4.1-4.1 4.1h-4.7c-2.6 0-4.1-1.5-4.1-4.1v-7.2c0-2.6 1.5-4.1 4.1-4.1h4.7c2.7 0 4.1 1.5 4.1 4.1zm-20.1 21.7c0 4.7 3.1 7.8 7.8 7.8h11.8c4.7 0 7.8-3.1 7.8-7.8v-28.6c0-4.7-3.1-7.8-7.8-7.8h-11.8c-4.7 0-7.8 3.1-7.8 7.8zm35.5-34.8c0-1-.7-1.7-1.7-1.7h-3.6c-1 0-1.7.7-1.7 1.7v12c0 1 .7 1.7 1.7 1.7h4.2c1 0 1.7-.7 1.7-1.7v-.8c0-1.3.9-2.2 2.2-2.2h9.8v.6c-14.3 4.6-19.6 8.7-19.6 14.8v16.5c0 1 .7 1.7 1.7 1.7h3.6c1 0 1.7-.7 1.7-1.7v-12.9h.6v6.7c0 4.7 3.1 7.8 7.8 7.8h10.1c1.2 0 2-.7 2-2v-21.1c0-1-.7-1.7-1.7-1.7h-4.2c-1 0-1.7.7-1.7 1.7v2.6c0 1.3-.9 2.2-2.2 2.2h-7.8c-1.1 0-1.6-.5-1.6-1.2 0-2 3.1-4.3 10.9-7 6.3-2.1 8.2-3.6 8.2-7.8v-2.1c0-4.7-3.1-7.8-7.8-7.8h-4.2c-4.7 0-7.8 3.1-7.8 7.8v.6h-.6z" fill="#c8f169"/><path d="m753.4 341.5v7.2c0 2.6-1.5 4.1-4.1 4.1h-4.7c-2.6 0-4.1-1.5-4.1-4.1v-7.2c0-2.6 1.5-4.1 4.1-4.1h4.7c2.7 0 4.1 1.5 4.1 4.1zm-20.1 21.7c0 4.7 3.1 7.8 7.8 7.8h11.8c4.7 0 7.8-3.1 7.8-7.8v-28.6c0-4.7-3.1-7.8-7.8-7.8h-11.8c-4.7 0-7.8 3.1-7.8 7.8zm30.2 7.8h18.3c1 0 1.7-.7 1.7-1.7v-14.8c0-1-.7-1.7-1.7-1.7h-6.3c-.8 0-1.2-.3-1.2-.9 0-.7.4-1.1 2-2.2l9.4-6.6c2.6-1.8 3.8-3.8 3.8-6.4v-8.3c0-1-.7-1.7-1.7-1.7h-3.8c-1 0-1.7.7-1.7 1.7v6.7h-.6v-.6c0-4.7-3.1-7.8-7.8-7.8h-10.4c-1 0-1.7.7-1.7 1.7v15.4c0 1 .7 1.7 1.7 1.7h4.2c1 0 1.7-.7 1.7-1.7v-4.2c0-1.3.9-2.2 2.2-2.2h10.1v.6l-12.7 8.9c-6.6 4.6-7.2 7-7.2 11.3v11.2c0 .9.7 1.6 1.7 1.6z" fill="#c8f169"/><path d="m782.4 437.5v7.2c0 2.6-1.5 4.1-4.1 4.1h-4.7c-2.6 0-4.1-1.5-4.1-4.1v-7.2c0-2.6 1.5-4.1 4.1-4.1h4.7c2.7 0 4.1 1.5 4.1 4.1zm-20.1 21.7c0 4.7 3.1 7.8 7.8 7.8h11.8c4.7 0 7.8-3.1 7.8-7.8v-28.6c0-4.7-3.1-7.8-7.8-7.8h-11.8c-4.7 0-7.8 3.1-7.8 7.8zm56-26.7v-1.9c0-4.7-3.1-7.8-7.8-7.8h-11.8c-4.7 0-7.8 3.1-7.8 7.8v2.1c0 3.8 1.7 5.4 6.6 7.2v.6c-4.3.3-6.6 2.9-6.6 7.5v11.2c0 4.7 3.1 7.8 7.8 7.8h11.8c4.7 0 7.8-3.1 7.8-7.8v-10.4c0-3.7-2-6.7-6.6-9.4v-.6c3.9-.2 6.2-2.4 6.6-6.3zm-19.9 14.1v-3.9c0-1.4.8-2 2.2-1.5l2.8 1c4.5 1.6 6.6 3.7 6.6 5.4 0 .7-.4 1.2-1.6 1.2h-7.8c-1.3 0-2.2-.9-2.2-2.2zm.3-12.6v-.6h9.8c1.3 0 2.2.9 2.2 2.2v1.2c0 1.2-.7 1.6-1.8 1.1-2.7-1.3-6.1-2.6-10.2-3.9z" fill="#c8f169"/><path d="m810.4 533.5v7.2c0 2.6-1.5 4.1-4.1 4.1h-4.7c-2.6 0-4.1-1.5-4.1-4.1v-7.2c0-2.6 1.5-4.1 4.1-4.1h4.7c2.7 0 4.1 1.5 4.1 4.1zm-20.1 21.7c0 4.7 3.1 7.8 7.8 7.8h11.8c4.7 0 7.8-3.1 7.8-7.8v-28.6c0-4.7-3.1-7.8-7.8-7.8h-11.8c-4.7 0-7.8 3.1-7.8 7.8zm45.2-10.4h-14.4c-1.3 0-2.2.9-2.2 2.2v8.1c0 4.7 3.1 7.9 7.8 7.9h11.8c4.7 0 7.8-3.2 7.8-7.9v-28.5c0-4.7-3.1-7.8-7.8-7.8h-11.8c-4.7 0-7.8 3.1-7.8 7.8v9.8c0 4.7 3.1 7.8 7.8 7.8h8.3c2.5 0 4-1.1 4-3.8v-2.7h.6v2.9c0 2.7-1.5 4.2-4.1 4.2zm-9.1-9.2v-3.9c0-1.3.9-2.2 2.2-2.2h7.8c1.3 0 2.2.9 2.2 2.2v3.9c0 1.3-.9 2.2-2.2 2.2h-7.8c-1.3 0-2.2-.9-2.2-2.2z" fill="#c8f169"/></g></svg>