<svg viewBox="0 0 600 576" xmlns="http://www.w3.org/2000/svg" xmlns:xlink="http://www.w3.org/1999/xlink"><clipPath id="a"><path d="m0 0h600v576h-600z"/></clipPath><g clip-path="url(#a)"><path d="m0 0h600v576h-600z" fill="#043f2e"/><path d="m0 0h600v106h-600z" fill="#043f2e"/><path d="m39.9538 480h-4.2187l7.6811-21.818h4.8793l7.6917 21.818h-4.2187l-5.8274-17.344h-.1705zm.1385-8.555h11.5057v3.175h-11.5057zm17.9982 8.555v-16.364h3.7394v2.728h.1704c.2983-.945.8097-1.673 1.5341-2.184.7315-.519 1.5661-.778 2.5036-.778.213 0 .451.011.7137.032.2699.014.4936.039.6712.075v3.547c-.1633-.057-.4226-.106-.7777-.149-.348-.05-.6854-.075-1.0121-.075-.7031 0-1.3352.153-1.8963.458-.554.299-.9907.714-1.3103 1.247s-.4794 1.147-.4794 1.843v9.62zm20.3446-16.364v2.983h-9.4069v-2.983zm-7.0845-3.92h3.8565v15.362c0 .519.0782.916.2344 1.193.1634.27.3764.455.6392.554.2628.1.554.149.8736.149.2415 0 .4616-.017.6605-.053.206-.035.3622-.067.4688-.096l.6498 3.015c-.206.071-.5007.149-.8842.235-.3764.085-.8381.135-1.385.149-.9659.028-1.8359-.117-2.61-.437-.7742-.327-1.3885-.831-1.8431-1.513-.4474-.682-.6676-1.534-.6605-2.557zm9.7098 20.284v-16.364h3.8566v16.364zm1.939-18.686c-.6108 0-1.1364-.202-1.5767-.607-.4404-.412-.6606-.906-.6606-1.481 0-.583.2202-1.076.6606-1.481.4403-.412.9659-.618 1.5767-.618.6179 0 1.1434.206 1.5767.618.4403.405.6605.898.6605 1.481 0 .575-.2202 1.069-.6605 1.481-.4333.405-.9588.607-1.5767.607zm12.4211 19.006c-1.6335 0-3.0362-.359-4.2081-1.076-1.1648-.718-2.0632-1.708-2.6953-2.973-.625-1.271-.9375-2.734-.9375-4.389 0-1.662.3196-3.128.9588-4.4.6392-1.278 1.5412-2.272 2.706-2.983 1.1718-.717 2.5568-1.076 4.1548-1.076 1.3281 0 2.5035.245 3.5263.735 1.0298.483 1.8505 1.169 2.4605 2.056.611.881.959 1.911 1.044 3.09h-3.6856c-.1492-.788-.5043-1.445-1.0654-1.971-.554-.533-1.2962-.799-2.2266-.799-.7883 0-1.4808.213-2.0774.639-.5966.419-1.0618 1.023-1.3956 1.811-.3267.789-.49 1.733-.49 2.834 0 1.115.1633 2.074.49 2.877.3267.795.7848 1.409 1.3743 1.843.5966.426 1.2962.639 2.0987.639.5682 0 1.076-.107 1.5235-.32.4545-.22.8345-.536 1.1399-.948s.5149-.913.6286-1.502h3.6856c-.092 1.158-.433 2.184-1.022 3.079-.59.888-1.392 1.584-2.408 2.088-1.0156.497-2.2088.746-3.5795.746zm13.4335-22.138v21.818h-3.857v-21.818zm10.61 22.138c-1.641 0-3.058-.341-4.251-1.023-1.186-.689-2.099-1.662-2.738-2.919-.639-1.264-.959-2.752-.959-4.464 0-1.683.32-3.16.959-4.432.646-1.278 1.548-2.272 2.706-2.983 1.158-.717 2.518-1.076 4.08-1.076 1.009 0 1.961.164 2.855.49.902.32 1.698.817 2.387 1.492.696.675 1.243 1.534 1.64 2.578.398 1.037.597 2.273.597 3.707v1.183h-13.413v-2.6h9.716c-.007-.738-.167-1.395-.479-1.97-.313-.583-.749-1.041-1.31-1.375-.554-.334-1.201-.5-1.939-.5-.789 0-1.481.191-2.078.575-.596.376-1.062.873-1.395 1.491-.327.611-.494 1.282-.501 2.014v2.269c0 .952.174 1.768.522 2.45.348.675.834 1.193 1.459 1.556.625.355 1.357.532 2.195.532.561 0 1.069-.078 1.523-.234.455-.163.849-.401 1.183-.714.334-.312.586-.699.756-1.161l3.601.405c-.227.951-.66 1.782-1.299 2.493-.633.703-1.442 1.25-2.429 1.64-.988.384-2.117.576-3.388.576zm22.872-12.358-3.516.383c-.099-.355-.273-.689-.522-1.001-.241-.313-.568-.565-.98-.757-.412-.191-.916-.287-1.513-.287-.802 0-1.477.174-2.024.522-.54.348-.806.799-.799 1.353-.007.476.167.863.522 1.161.362.298.959.543 1.79.735l2.791.597c1.548.333 2.699.863 3.452 1.587.76.724 1.143 1.673 1.15 2.844-.007 1.03-.309 1.939-.905 2.728-.59.781-1.41 1.392-2.461 1.832s-2.259.661-3.622.661c-2.003 0-3.615-.419-4.837-1.258-1.221-.845-1.949-2.02-2.184-3.526l3.761-.362c.17.739.533 1.296 1.087 1.673.553.376 1.274.564 2.162.564.916 0 1.651-.188 2.205-.564.561-.377.842-.842.842-1.396 0-.469-.181-.856-.543-1.161-.355-.306-.909-.54-1.662-.703l-2.791-.586c-1.57-.327-2.731-.877-3.484-1.652-.753-.781-1.126-1.768-1.119-2.961-.007-1.009.267-1.882.821-2.621.561-.746 1.338-1.321 2.333-1.726 1.001-.412 2.155-.618 3.462-.618 1.918 0 3.427.409 4.528 1.225 1.108.817 1.793 1.922 2.056 3.314zm13.15 12.038-4.624-16.364h3.932l2.876 11.506h.149l2.94-11.506h3.889l2.94 11.442h.16l2.834-11.442h3.942l-4.635 16.364h-4.016l-3.068-11.058h-.224l-3.068 11.058zm27.906.32c-1.641 0-3.058-.341-4.251-1.023-1.186-.689-2.099-1.662-2.738-2.919-.639-1.264-.959-2.752-.959-4.464 0-1.683.32-3.16.959-4.432.647-1.278 1.549-2.272 2.706-2.983 1.158-.717 2.518-1.076 4.08-1.076 1.009 0 1.961.164 2.856.49.902.32 1.697.817 2.386 1.492.696.675 1.243 1.534 1.641 2.578.397 1.037.596 2.273.596 3.707v1.183h-13.412v-2.6h9.715c-.007-.738-.166-1.395-.479-1.97-.312-.583-.749-1.041-1.31-1.375-.554-.334-1.201-.5-1.939-.5-.789 0-1.481.191-2.078.575-.596.376-1.061.873-1.395 1.491-.327.611-.494 1.282-.501 2.014v2.269c0 .952.174 1.768.522 2.45.348.675.835 1.193 1.46 1.556.625.355 1.356.532 2.194.532.561 0 1.069-.078 1.524-.234.454-.163.848-.401 1.182-.714.334-.312.586-.699.756-1.161l3.601.405c-.227.951-.66 1.782-1.299 2.493-.632.703-1.442 1.25-2.429 1.64-.988.384-2.117.576-3.388.576zm20.637-22.138v21.818h-3.857v-21.818zm10.503 22.138c-1.598 0-2.983-.352-4.155-1.055-1.171-.703-2.081-1.687-2.727-2.951-.639-1.264-.959-2.742-.959-4.432s.32-3.171.959-4.442c.646-1.272 1.556-2.259 2.727-2.962 1.172-.703 2.557-1.055 4.155-1.055s2.983.352 4.155 1.055 2.077 1.69 2.717 2.962c.646 1.271.969 2.752.969 4.442s-.323 3.168-.969 4.432c-.64 1.264-1.545 2.248-2.717 2.951s-2.557 1.055-4.155 1.055zm.022-3.09c.866 0 1.59-.238 2.173-.714.582-.483 1.015-1.129 1.3-1.939.291-.809.436-1.711.436-2.706 0-1.001-.145-1.907-.436-2.716-.285-.817-.718-1.467-1.3-1.95-.583-.483-1.307-.724-2.173-.724-.888 0-1.627.241-2.216.724-.583.483-1.02 1.133-1.311 1.95-.284.809-.426 1.715-.426 2.716 0 .995.142 1.897.426 2.706.291.81.728 1.456 1.311 1.939.589.476 1.328.714 2.216.714zm24.552-13.594-5.827 16.364h-4.262l-5.827-16.364h4.112l3.761 12.156h.17l3.772-12.156zm8.757 16.684c-1.641 0-3.058-.341-4.251-1.023-1.186-.689-2.099-1.662-2.738-2.919-.639-1.264-.959-2.752-.959-4.464 0-1.683.32-3.16.959-4.432.646-1.278 1.548-2.272 2.706-2.983 1.158-.717 2.518-1.076 4.08-1.076 1.009 0 1.96.164 2.855.49.902.32 1.698.817 2.387 1.492.696.675 1.243 1.534 1.64 2.578.398 1.037.597 2.273.597 3.707v1.183h-13.413v-2.6h9.716c-.007-.738-.167-1.395-.479-1.97-.313-.583-.75-1.041-1.311-1.375-.554-.334-1.2-.5-1.939-.5-.788 0-1.48.191-2.077.575-.597.376-1.062.873-1.396 1.491-.326.611-.493 1.282-.5 2.014v2.269c0 .952.174 1.768.522 2.45.348.675.834 1.193 1.459 1.556.625.355 1.357.532 2.195.532.561 0 1.069-.078 1.523-.234.455-.163.849-.401 1.183-.714.334-.312.586-.699.756-1.161l3.601.405c-.227.951-.66 1.782-1.3 2.493-.632.703-1.441 1.25-2.429 1.64-.987.384-2.116.576-3.387.576zm16.011-.032c-1.286 0-2.436-.331-3.452-.991-1.015-.661-1.818-1.619-2.407-2.877-.59-1.257-.885-2.784-.885-4.581 0-1.818.299-3.352.895-4.602.604-1.257 1.417-2.205 2.44-2.844 1.023-.647 2.162-.97 3.42-.97.958 0 1.747.164 2.365.49.618.32 1.108.707 1.47 1.162.362.447.643.87.841 1.267h.16v-8.16h3.867v21.818h-3.792v-2.578h-.235c-.198.398-.486.82-.863 1.268-.376.44-.873.816-1.491 1.129-.618.312-1.396.469-2.333.469zm1.076-3.164c.817 0 1.513-.221 2.088-.661.575-.447 1.012-1.069 1.31-1.864.299-.796.448-1.723.448-2.781s-.149-1.978-.448-2.759c-.291-.781-.724-1.389-1.299-1.822-.569-.433-1.268-.65-2.099-.65-.859 0-1.577.224-2.152.672-.575.447-1.009 1.065-1.3 1.853-.291.789-.437 1.691-.437 2.706 0 1.023.146 1.936.437 2.738.298.796.735 1.424 1.311 1.886.582.454 1.296.682 2.141.682z" fill="#eef2e3"/><g fill="#c8f169"><path d="m473.114 47.0909h1.961v7.6705c-.004.7031-.153 1.3086-.448 1.8164-.295.5042-.707.8931-1.236 1.1665-.525.2699-1.138.4048-1.837.4048-.64 0-1.215-.1136-1.726-.3409-.508-.2308-.911-.5717-1.209-1.0227-.299-.451-.448-1.0121-.448-1.6832h1.966c.003.2947.067.5486.191.7617.128.2131.304.3764.528.49.224.1137.481.1705.772.1705.316 0 .584-.0657.805-.1971.22-.1349.387-.3338.5-.5966.117-.2628.178-.5859.181-.9694zm6.255 10.9091h-2.109l3.841-10.9091h2.439l3.846 10.9091h-2.109l-2.914-8.6719h-.085zm.07-4.2773h5.753v1.5873h-5.753zm19.099-6.6318v10.9091h-1.758l-5.14-7.4308h-.091v7.4308h-1.976v-10.9091h1.769l5.134 7.4361h.096v-7.4361zm11.183 11.0582c-.768 0-1.449-.1313-2.046-.3941-.593-.2628-1.062-.6286-1.406-1.0973-.345-.4688-.528-1.0103-.549-1.6247h2.003c.018.2948.115.5522.293.7724.178.2166.414.3853.708.506.295.1208.625.1811.991.1811.391 0 .737-.0674 1.039-.2024.302-.1385.538-.3302.708-.5753.171-.245.254-.5273.251-.8469.003-.3303-.082-.6215-.256-.8736s-.426-.4492-.756-.5912c-.327-.1421-.721-.2131-1.183-.2131h-.964v-1.5235h.964c.38 0 .712-.0656.996-.197.288-.1314.513-.3161.677-.554.163-.2415.243-.5203.239-.8363.004-.309-.065-.5771-.207-.8043-.139-.2309-.336-.4102-.592-.538-.252-.1279-.548-.1918-.889-.1918-.334 0-.643.0604-.927.1811s-.513.293-.687.5167c-.174.2202-.266.483-.277.7883h-1.902c.014-.6107.19-1.147.528-1.6086.34-.4652.795-.8274 1.363-1.0867.568-.2627 1.206-.3941 1.912-.3941.728 0 1.361.1367 1.897.4101.54.2699.957.6339 1.252 1.092.294.4581.442.9641.442 1.5181.003.6143-.178 1.1293-.544 1.5447-.362.4155-.838.6872-1.427.815v.0853c.767.1065 1.355.3906 1.763.8522.412.4581.616 1.0281.613 1.7099 0 .6108-.174 1.1577-.523 1.6406-.344.4794-.82.8559-1.427 1.1293-.604.2734-1.296.4101-2.077.4101zm8.568-1.6406-.069.586c-.05.4474-.139.9019-.267 1.3636-.124.4652-.255.8931-.394 1.2837-.138.3907-.25.6978-.336.9216h-1.299c.049-.2167.117-.5114.202-.8843.089-.3728.174-.7919.256-1.2571s.137-.9375.165-1.4169l.037-.5966zm7.022 1.4915v-1.4276l3.788-3.7127c.362-.3657.664-.6907.905-.9748.242-.284.423-.5593.543-.8256.121-.2663.182-.5504.182-.8523 0-.3444-.079-.6392-.235-.8842-.156-.2486-.371-.4403-.644-.5753-.274-.1349-.585-.2024-.933-.2024-.358 0-.673.0746-.942.2237-.27.1456-.48.3534-.629.6232-.146.2699-.218.5913-.218.9642h-1.881c0-.6925.158-1.2944.474-1.8058.316-.5113.751-.9073 1.305-1.1878.558-.2806 1.197-.4208 1.918-.4208.732 0 1.374.1367 1.928.4101.554.2735.984.6481 1.289 1.124.309.4758.464 1.0191.464 1.6299 0 .4084-.078.8097-.235 1.2039-.156.3941-.431.8309-.825 1.3103-.391.4794-.939 1.06-1.646 1.7419l-1.88 1.9122v.0746h4.751v1.6513zm14.099.2077c-.877 0-1.63-.2219-2.259-.6658-.625-.4474-1.106-1.092-1.443-1.9336-.334-.8452-.501-1.8626-.501-3.0522.004-1.1896.172-2.2017.506-3.0362.338-.8381.819-1.4773 1.444-1.9176.628-.4404 1.379-.6605 2.253-.6605s1.625.2201 2.253.6605c.629.4403 1.11 1.0795 1.444 1.9176.337.8381.506 1.8501.506 3.0362 0 1.1932-.169 2.2124-.506 3.0575-.334.8417-.815 1.4844-1.444 1.9283-.625.4439-1.376.6658-2.253.6658zm0-1.6672c.682 0 1.22-.3356 1.614-1.0068.398-.6747.597-1.6672.597-2.9776 0-.8665-.091-1.5945-.272-2.1839-.181-.5895-.437-1.0334-.767-1.3317-.33-.3019-.721-.4528-1.172-.4528-.678 0-1.215.3374-1.609 1.0121-.394.6712-.593 1.6566-.596 2.9563-.004.87.083 1.6016.261 2.1946.181.593.437 1.0405.767 1.3423.33.2983.722.4475 1.177.4475zm6.723 1.4595v-1.4276l3.787-3.7127c.362-.3657.664-.6907.905-.9748.242-.284.423-.5593.544-.8256.12-.2663.181-.5504.181-.8523 0-.3444-.078-.6392-.235-.8842-.156-.2486-.371-.4403-.644-.5753-.274-.1349-.584-.2024-.932-.2024-.359 0-.673.0746-.943.2237-.27.1456-.48.3534-.629.6232-.145.2699-.218.5913-.218.9642h-1.88c0-.6925.158-1.2944.474-1.8058.316-.5113.751-.9073 1.305-1.1878.557-.2806 1.196-.4208 1.917-.4208.732 0 1.375.1367 1.929.4101.554.2735.983.6481 1.289 1.124.309.4758.463 1.0191.463 1.6299 0 .4084-.078.8097-.234 1.2039-.157.3941-.432.8309-.826 1.3103-.391.4794-.939 1.06-1.646 1.7419l-1.88 1.9122v.0746h4.751v1.6513zm13.981.1491c-.767 0-1.449-.1313-2.045-.3941-.593-.2628-1.062-.6286-1.407-1.0973-.344-.4688-.527-1.0103-.548-1.6247h2.003c.017.2948.115.5522.293.7724.177.2166.413.3853.708.506.295.1208.625.1811.991.1811.39 0 .737-.0674 1.038-.2024.302-.1385.538-.3302.709-.5753.17-.245.254-.5273.25-.8469.004-.3303-.081-.6215-.255-.8736s-.427-.4492-.757-.5912c-.327-.1421-.721-.2131-1.182-.2131h-.964v-1.5235h.964c.38 0 .712-.0656.996-.197.287-.1314.513-.3161.676-.554.164-.2415.244-.5203.24-.8363.004-.309-.066-.5771-.208-.8043-.138-.2309-.335-.4102-.591-.538-.252-.1279-.549-.1918-.89-.1918-.333 0-.642.0604-.926.1811-.285.1207-.514.293-.688.5167-.174.2202-.266.483-.277.7883h-1.901c.014-.6107.19-1.147.527-1.6086.341-.4652.796-.8274 1.364-1.0867.568-.2627 1.205-.3941 1.912-.3941.728 0 1.36.1367 1.896.4101.54.2699.957.6339 1.252 1.092s.442.9641.442 1.5181c.004.6143-.177 1.1293-.543 1.5447-.362.4155-.838.6872-1.428.815v.0853c.767.1065 1.355.3906 1.763.8522.412.4581.617 1.0281.613 1.7099 0 .6108-.174 1.1577-.522 1.6406-.344.4794-.82.8559-1.428 1.1293-.603.2734-1.296.4101-2.077.4101z"/><path d="m71.9502 64.0991c0-.3551 0-.5322-.0348-.678-.0546-.228-.1712-.4365-.337-.6024-.1657-.1658-.3741-.2826-.602-.3375-.1467-.0347-.3238-.0347-.678-.0347h-1.1484c-.3543 0-.5314 0-.6781-.0356-.2278-.0548-.4361-.1715-.6018-.3372-.1658-.1657-.2824-.374-.3372-.6019-.0356-.1466-.0356-.3237-.0356-.678v-8.5599c0-.3551 0-.5323.0356-.678.0548-.228.1716-.4364.3375-.6021.1659-.1658.3744-.2824.6024-.337.1458-.0356.3237-.0356.678-.0347h1.1467c.3543 0 .5314 0 .678-.0348.228-.0546.4365-.1712.6024-.337.1659-.1657.2827-.3741.3375-.602.0348-.1467.0348-.3238.0348-.6781v-12.2754c0-.3543 0-.5323-.0348-.6781-.0546-.228-.1712-.4365-.337-.6023-.1657-.1659-.3741-.2827-.602-.3375-.1467-.0348-.3238-.0348-.678-.0348h-7.215c-.1471-.0056-.2944.0001-.4407.017-.3246.0539-.6156.2316-.8119.4958-.0821.1222-.1546.2505-.217.3839l-6.9107 13.4382-6.8242-13.4306c-.0616-.1345-.1336-.264-.2153-.3873-.1961-.2663-.4882-.4456-.8144-.5-.1471-.017-.2953-.0226-.4433-.017h-9.7465c-.3542 0-.5313 0-.678.0348-.2292.0537-.439.17-.606.3359-.167.166-.2846.3751-.3398.6039-.0356.1458-.0356.3238-.0356.6781v5.5724c0 .3543 0 .5314.0356.678.0548.2279.1714.4362.3372.6019.1657.1657.374.2824.6018.3372.1467.0356.3238.0356.6781.0356h1.1068c.3551 0 .5323 0 .678.0347.228.0548.4364.1717.6021.3375.1658.1659.2824.3744.337.6024.0347.1458.0347.3229.0347.678v8.0998c0 .3542 0 .5314-.0347.678-.0548.2279-.1715.4362-.3372.6019s-.374.2824-.6019.3371c-.1466.0356-.3237.0356-.678.0356h-1.1043c-.3543 0-.5314 0-.678.0348-.2285.0544-.4374.171-.6036.3369s-.2832.3746-.338.603c-.0356.1458-.0356.3229-.0356.678v13.3595c0 .3542 0 .5314.0356.678.0548.2278.1714.4362.3372.6019.1657.1657.374.2824.6018.3371.1467.0356.3238.0356.6781.0356h9.971c.3551 0 .5323 0 .6781-.0356.2278-.0547.4361-.1714.6018-.3371.1658-.1657.2824-.3741.3372-.6019.0347-.1466.0347-.3238.0347-.678v-6.198c0-.3551 0-.5322-.0347-.678-.0546-.228-.1712-.4365-.337-.6024-.1657-.1658-.3741-.2826-.602-.3375-.1467-.0347-.3238-.0347-.6781-.0347h-1.095c-.3542 0-.5314 0-.678-.0356-.2279-.0548-.4362-.1715-.6019-.3372s-.2824-.374-.3371-.6019c-.0356-.1466-.0356-.3237-.0356-.678v-12.5594l7.1963 14.2384c.1898.3763.2847.5644.3847.6619.1563.1531.3658.2398.5846.242.2187.0022.4299-.0802.5893-.2302.1025-.0966.2008-.2822.3983-.6542l7.9836-15.0715v13.373c0 .3543 0 .5314-.0347.678-.0549.2281-.1719.4366-.3379.6023s-.3747.2823-.6029.3368c-.1466.0356-.3237.0356-.678.0356h-2.1323c-.3543 0-.5314 0-.6781.0347-.2279.0549-.4363.1717-.602.3375-.1658.1659-.2824.3744-.337.6024-.0356.1458-.0356.3229-.0356.678v6.198c0 .3542 0 .5314.0356.678.0547.2278.1714.4362.3371.6019.1658.1657.3741.2824.6019.3371.1467.0356.3238.0356.6781.0356h13.0704c.3551 0 .5322 0 .678-.0356.2279-.0547.4362-.1714.6019-.3371s.2824-.3741.3372-.6019c.0347-.1466.0347-.3238.0347-.678z"/><path d="m96.9367 48.7075c-.3308-1.0177-.8978-1.9426-1.6547-2.6992-.7568-.7565-1.682-1.3232-2.6998-1.6536-1.017-.3322-2.2832-.3322-4.8072-.3322h-3.7706c-2.5239 0-3.7858 0-4.8071.3322-1.0177.3305-1.9427.8972-2.6994 1.6538-.7567.7565-1.3236 1.6814-1.6543 2.699-.3314 1.0171-.3314 2.2833-.3314 4.8072v8.9684c0 2.5239 0 3.7859.3314 4.8072.3306 1.0177.8974 1.9428 1.6541 2.6995s1.6818 1.3236 2.6996 1.6542c1.017.3314 2.2832.3314 4.8071.3314h3.7723c2.524 0 3.7859 0 4.8072-.3314 1.0175-.3307 1.9423-.8974 2.6989-1.654.7565-.7565 1.3233-1.6814 1.6539-2.6989.3323-1.017.3323-2.2832.3323-4.8071v-8.9693c0-2.5239 0-3.7859-.3323-4.8072zm-4.6935 9.7304c0 1.073 0 1.6103-.1416 2.0434-.1404.4324-.3812.8254-.7026 1.147s-.7143.5625-1.1467.7031c-.4347.1407-.9704.1407-2.0433.1407h-4.6444c-1.073 0-1.6103 0-2.0434-.1407-.4325-.1405-.8256-.3814-1.1472-.7029-.3215-.3216-.5624-.7147-.7029-1.1472-.1407-.4339-.1407-.9704-.1407-2.0434v-.8305c0-1.0722 0-1.6103.1407-2.0426.1405-.4325.3814-.8256.7029-1.1471.3216-.3216.7147-.5625 1.1472-.703.4339-.1415.9704-.1415 2.0434-.1415h4.6444c1.0729 0 1.6103 0 2.0433.1415.4324.1406.8253.3816 1.1467.7031.3214.3216.5622.7146.7026 1.147.1416.434.1416.9704.1416 2.0426z"/><path d="m123.178 35.7044c-.05-.1526-.135-.2913-.249-.4047-.113-.1134-.252-.1984-.405-.2479-.153-.05-.339-.05-.721-.05h-3.974c-.378 0-.568 0-.721.05-.152.0495-.291.1345-.405.2479-.113.1134-.198.2521-.248.4047-.05.1534-.05.339-.05.7213v5.7911c0 .4729 0 .7093-.062.9009-.062.1908-.168.3642-.31.506-.142.1419-.315.2482-.506.3101-.192.0628-.424.0628-.902.0628h-4.661c-2.524 0-3.786 0-4.807.3313-1.018.3307-1.943.8975-2.7 1.6542-.756.7567-1.323 1.6818-1.654 2.6996-.332 1.0212-.332 2.2832-.332 4.8071v8.9718c0 2.5239 0 3.7859.332 4.8072.332 1.0164.899 1.94 1.656 2.6953.757.7554 1.682 1.321 2.699 1.6507 1.017.3323 2.283.3323 4.807.3323h3.772c2.524 0 3.786 0 4.807-.3323 1.018-.3305 1.943-.8972 2.7-1.6538.756-.7565 1.323-1.6814 1.654-2.699.331-1.017.331-2.2832.331-4.8072v-26.0281c0-.3789 0-.5679-.051-.7213zm-5.613 22.7076c0 1.073 0 1.6103-.14 2.0434-.141.4323-.382.8253-.704 1.1467-.321.3214-.714.5621-1.147.7026-.433.1415-.97.1415-2.043.1415h-3.998c-1.073 0-1.611 0-2.043-.1415-.434-.1397-.828-.3801-1.15-.7015-.323-.3215-.565-.7148-.706-1.1478-.142-.4348-.142-.9704-.142-2.0434v-.8305c0-1.073 0-1.6103.142-2.0434.14-.4325.381-.8256.703-1.1472.321-.3215.715-.5624 1.147-.7029.434-.1407.97-.1407 2.043-.1407h4.005c1.073 0 1.61 0 2.043.1407.433.1405.826.3814 1.147.7029.322.3216.563.7147.703 1.1472.141.4339.141.9704.141 2.0434z"/><path d="m135.782 65.512c-1.073 0-1.61 0-2.043-.1407-.433-.1405-.826-.3814-1.148-.703-.321-.3215-.562-.7146-.703-1.1471-.089-.2763-.122-.5933-.133-1.0679h16.202c.315 0 .617-.125.839-.3475.223-.2225.348-.5243.348-.839v-7.7277c0-2.5239 0-3.7859-.331-4.8071-.331-1.0177-.898-1.9426-1.655-2.6991-.756-.7566-1.681-1.3233-2.699-1.6538-1.017-.3322-2.283-.3322-4.807-.3322h-3.773c-2.523 0-3.785 0-4.807.3322-1.017.3306-1.942.8972-2.698 1.6536-.757.7564-1.324 1.681-1.655 2.6984-.332 1.0213-.332 2.2832-.332 4.8071v8.9693c0 2.524 0 3.7859.332 4.8072.331 1.0177.898 1.9427 1.654 2.6994.757.7567 1.682 1.3236 2.699 1.6543 1.017.3314 2.284.3314 4.807.3314h6.781c1.511-.0002 2.975-.5278 4.139-1.4919s1.955-2.3041 2.236-3.789c.028-.1471.024-.2986-.014-.4436-.037-.1449-.106-.2799-.202-.3952-.095-.1153-.215-.208-.35-.2717-.136-.0636-.284-.0965-.434-.0964zm-3.894-9.9753c.141-.4325.382-.8256.703-1.1472.322-.3215.715-.5624 1.148-.7029.434-.1416.97-.1416 2.043-.1416h3.966c1.073 0 1.611 0 2.044.1416.432.1405.825.3814 1.147.7029.321.3216.562.7147.703 1.1472.141.4339.141.9704.141 2.0425v.4679h-12.035v-.4679c0-1.0721 0-1.6086.14-2.0425z"/></g><path d="m0 0h600v300h-600z" fill="#043f2e" transform="translate(0 106)"/><path d="m271 324.863c0-2.269 0-3.4-.222-4.331-.349-1.456-1.094-2.788-2.152-3.847-1.059-1.06-2.39-1.806-3.846-2.156-.936-.222-2.067-.222-4.33-.222h-7.335c-2.263 0-3.394 0-4.33-.227-1.456-.35-2.786-1.095-3.845-2.154-1.058-1.058-1.803-2.389-2.153-3.844-.227-.936-.227-2.068-.227-4.33v-54.673c0-2.268 0-3.399.227-4.33.35-1.456 1.096-2.787 2.156-3.846 1.059-1.058 2.391-1.803 3.847-2.152.931-.227 2.068-.227 4.331-.222h7.323c2.263 0 3.394 0 4.331-.222 1.456-.349 2.788-1.094 3.847-2.152 1.06-1.059 1.806-2.389 2.156-3.845.222-.937.222-2.068.222-4.331v-78.403c0-2.263 0-3.4-.222-4.331-.349-1.456-1.094-2.788-2.152-3.847-1.059-1.06-2.39-1.806-3.846-2.156-.936-.222-2.067-.222-4.33-.222h-46.082c-.939-.036-1.88.001-2.815.109-2.073.344-3.932 1.479-5.185 3.166-.525.781-.988 1.601-1.386 2.452l-44.138 85.83-43.587-85.781c-.393-.859-.853-1.686-1.375-2.474-1.252-1.7-3.118-2.846-5.202-3.193-.939-.108-1.886-.145-2.831-.109h-62.2502c-2.2626 0-3.394 0-4.3304.222-1.4641.343-2.8041 1.086-3.8708 2.146-1.0666 1.06-1.8179 2.395-2.1702 3.857-.2274.931-.2274 2.068-.2274 4.331v35.591c0 2.263 0 3.394.2274 4.33.3497 1.456 1.095 2.786 2.1534 3.845 1.0584 1.058 2.3888 1.803 3.8443 2.153.9364.227 2.0678.227 4.3304.227h7.0695c2.2681 0 3.3995 0 4.3305.222 1.4561.351 2.787 1.097 3.8455 2.156s1.8034 2.391 2.1522 3.847c.222.932.222 2.063.222 4.331v51.733c0 2.263 0 3.394-.222 4.33-.3497 1.456-1.095 2.786-2.1534 3.845-1.0585 1.058-2.3889 1.803-3.8443 2.153-.9364.227-2.0678.227-4.3305.227h-7.0532c-2.2627 0-3.394 0-4.3305.222-1.4591.348-2.7934 1.093-3.855 2.152-1.0615 1.06-1.8088 2.393-2.1589 3.851-.2274.932-.2274 2.063-.2274 4.331v85.327c0 2.262 0 3.394.2274 4.33.3497 1.455 1.095 2.786 2.1534 3.844 1.0584 1.059 2.3888 1.804 3.8443 2.154.9364.227 2.0678.227 4.3304.227h63.6855c2.268 0 3.399 0 4.33-.227 1.455-.35 2.786-1.095 3.844-2.154 1.059-1.058 1.804-2.389 2.154-3.844.222-.936.222-2.068.222-4.33v-39.586c0-2.269 0-3.4-.222-4.331-.349-1.456-1.094-2.788-2.152-3.847-1.059-1.06-2.39-1.806-3.846-2.156-.936-.222-2.068-.222-4.33-.222h-6.994c-2.2628 0-3.3942 0-4.3306-.227-1.4554-.35-2.7859-1.095-3.8443-2.154-1.0584-1.058-1.8037-2.389-2.1534-3.844-.2274-.936-.2274-2.068-.2274-4.33v-80.217l45.9627 90.94c1.212 2.403 1.819 3.605 2.457 4.227.999.978 2.336 1.532 3.734 1.546 1.397.015 2.746-.512 3.764-1.47.655-.617 1.282-1.802 2.544-4.179l50.991-96.261v85.414c0 2.262 0 3.394-.222 4.33-.351 1.457-1.097 2.788-2.158 3.847-1.06 1.058-2.393 1.803-3.85 2.151-.937.227-2.068.227-4.331.227h-13.619c-2.263 0-3.394 0-4.331.222-1.456.35-2.787 1.096-3.845 2.156-1.059 1.059-1.804 2.391-2.152 3.847-.228.931-.228 2.062-.228 4.331v39.586c0 2.262 0 3.394.228 4.33.349 1.455 1.095 2.786 2.153 3.844 1.058 1.059 2.389 1.804 3.844 2.154.937.227 2.068.227 4.331.227h83.48c2.269 0 3.4 0 4.331-.227 1.455-.35 2.786-1.095 3.844-2.154 1.059-1.058 1.804-2.389 2.154-3.844.222-.936.222-2.068.222-4.33z" fill="#78c51c"/><path clip-rule="evenodd" d="m334.939 374.698c.095.027.19.052.286.075.937.227 2.068.227 4.331.227h63.685c2.268 0 3.399 0 4.33-.227.096-.023.191-.048.286-.075zm118.849-78.293 41.356-78.073v85.415c0 2.262 0 3.394-.222 4.33-.35 1.457-1.097 2.788-2.158 3.847-1.06 1.058-2.393 1.803-3.85 2.151-.937.227-2.068.227-4.331.227h-13.619c-2.263 0-3.394 0-4.331.222-1.456.35-2.787 1.096-3.845 2.156-1.059 1.059-1.804 2.391-2.152 3.847-.228.931-.228 2.063-.228 4.33v.001 39.586.001c0 2.262 0 3.393.228 4.33.349 1.455 1.095 2.786 2.153 3.844 1.058 1.059 2.389 1.804 3.844 2.154.937.227 2.068.227 4.331.227h83.481c2.268 0 3.399 0 4.33-.227 1.455-.35 2.786-1.095 3.844-2.154 1.059-1.058 1.804-2.389 2.154-3.844.222-.937.222-2.068.222-4.33v-.001l.005-39.586v-.001c0-2.267 0-3.399-.222-4.33-.349-1.456-1.094-2.788-2.152-3.847-1.059-1.06-2.39-1.806-3.846-2.156-.936-.222-2.067-.222-4.33-.222h-7.335c-2.262 0-3.394 0-4.33-.227-1.456-.35-2.786-1.095-3.845-2.154-1.058-1.058-1.803-2.388-2.153-3.844-.227-.936-.227-2.068-.227-4.33v-54.673c0-2.268 0-3.4.227-4.331.35-1.456 1.096-2.787 2.156-3.845 1.059-1.059 2.391-1.804 3.847-2.153.931-.227 2.068-.227 4.331-.222h7.324c2.262 0 3.394 0 4.33-.221 1.456-.349 2.788-1.094 3.847-2.153 1.06-1.058 1.806-2.389 2.156-3.845.222-.937.222-2.068.222-4.33v-.001-78.404c0-2.263 0-3.399-.222-4.33-.349-1.457-1.094-2.788-2.152-3.848-1.059-1.059-2.39-1.805-3.846-2.156-.936-.222-2.067-.222-4.33-.222h-46.082c-.939-.035-1.88.001-2.815.109-2.073.344-3.932 1.479-5.185 3.166-.525.781-.988 1.601-1.386 2.453l-44.138 85.831-1.056-2.078z" fill="#78c51c" fill-rule="evenodd"/><path d="m230 139h278v236h-278z" fill="#78c51c"/><path d="m261.475 223.966c.728 0 1.165-.437 1.165-1.165v-.34c0-.485-.242-.873-.873-1.068l-.874-.339c-1.359-.583-1.699-1.262-1.262-2.476l1.408-3.834c.097-.34.339-.486.679-.486h11.746c.34 0 .583.146.68.437l1.602 4.32c.388 1.068.242 1.505-.971 1.942l-.922.339c-.631.195-.874.583-.874 1.117v.388c0 .728.437 1.165 1.213 1.165h9.126c.728 0 1.164-.437 1.164-1.165v-.388c0-.534-.242-.922-.873-1.214l-1.02-.437c-1.164-.533-1.795-1.164-2.475-2.863l-10.678-26.89c-.243-.68-.777-1.02-1.505-1.02h-5.63c-.777 0-1.165.34-1.36 1.02l-.097.388c-.194.728.049 1.213 1.068 1.602l1.65.582c1.117.437 1.554 1.165 1.068 2.427l-8.542 22.425c-.486 1.165-1.165 1.893-2.476 2.427l-1.068.436c-.631.243-.873.534-.873 1.165v.34c0 .728.436 1.165 1.213 1.165zm1.505-12.668c-.388 0-.631-.243-.485-.68l4.611-12.426c.194-.485.582-.485.776 0l4.709 12.426c.145.437-.049.68-.486.68zm32.869 12.668c.728 0 1.165-.437 1.165-1.165v-.34c0-.679-.34-1.019-1.02-1.213l-.97-.291c-.971-.292-1.311-.777-1.311-1.845v-12.329c0-.922.243-1.407 1.116-1.892 1.408-.874 3.981-1.845 6.456-1.845s3.203 1.456 3.203 4.32v15.435c0 .728.437 1.165 1.165 1.165h5.194c.728 0 1.165-.437 1.165-1.165v-.34c0-.679-.34-1.019-1.019-1.213l-.923-.291c-1.019-.292-1.359-.777-1.359-1.845v-12.717c0-4.32-2.135-6.795-6.116-6.795-2.621 0-5.242.922-7.571 2.378l-.777.437c-.388.243-.777.097-.777-.388v-1.068c0-1.214-.728-1.65-1.893-1.214l-4.32 1.699c-.728.243-1.019.631-1.019 1.165v.291c0 .68.291.971 1.068 1.165 1.844.437 2.233 1.02 2.233 2.476v12.571c0 1.068-.34 1.553-1.311 1.845l-.971.291c-.679.194-1.019.534-1.019 1.213v.34c0 .728.437 1.165 1.165 1.165zm27.053.485c2.815 0 5.29-1.067 6.843-2.912.292-.34.68-.34.923.049 1.019 1.941 2.087 2.766 4.174 2.766 2.475 0 4.174-1.601 4.174-3.64 0-.68-.388-1.165-1.019-1.165-.922 0-1.214 1.602-2.573 1.602-.825 0-1.262-.437-1.262-1.553l-.097-11.261c-.048-5.728-2.621-8.737-8.834-8.737-3.106 0-6.601.728-8.639 1.796-.874.485-.971 1.068-.583 1.893l1.214 2.669c.291.534.533.874 1.116.874.534 0 .874-.194 1.359-.874 1.699-2.427 3.446-3.64 5.63-3.64 2.913 0 4.563 1.505 4.563 4.951v2.087c0 .388-.243.534-.68.485-.97-.097-2.329-.194-3.494-.194-6.893 0-10.921 2.913-10.921 7.766 0 4.66 3.058 7.038 8.106 7.038zm1.116-3.3c-3.009 0-4.708-1.456-4.708-4.126 0-2.767 1.699-4.708 6.746-4.708 1.214 0 2.33.097 3.253.291.436.097.582.291.582.728v3.495c0 .922-.194 1.407-.631 1.941-.825 1.02-2.524 2.379-5.242 2.379zm25.428 2.815c.728 0 1.165-.485 1.165-1.213v-.292c0-.679-.292-1.019-.971-1.213l-1.019-.291c-1.068-.292-1.311-.971-1.311-1.845v-30.142c0-1.213-.776-1.699-1.941-1.213l-4.563 1.795c-.68.243-.971.534-.971 1.165v.243c0 .631.194.922 1.068 1.116 2.039.486 2.233 1.36 2.233 2.573v24.463c0 1.019-.34 1.553-1.311 1.845l-.97.291c-.68.194-1.02.534-1.02 1.213v.292c0 .776.486 1.213 1.214 1.213zm10.243 10.436c.68 0 1.02-.292 1.311-.923l11.358-27.375c.873-1.99 1.165-2.524 2.038-3.009l.874-.389c.582-.339.777-.582.777-1.116v-.34c0-.728-.389-1.165-1.165-1.165h-6.456c-.728 0-1.165.437-1.165 1.165v.34c0 .437.194.825.728 1.019l1.165.437c.534.243.728.631.486 1.262l-5.291 13.251c-.146.34-.437.291-.534 0l-5.873-16.552c-.243-.631-.728-.922-1.408-.922h-4.077c-.777 0-1.213.437-1.213 1.165v.34c0 .679.291 1.019.873 1.262l.923.34c.922.339 1.359 1.116 2.087 2.96l5.776 15.339c.485 1.407.485 2.572-.34 4.028l-4.271 7.524c-.437.728-.049 1.359.825 1.359zm25.711-9.951c3.591 0 5.63-1.796 5.63-3.591 0-.583-.388-.971-.922-.971-1.117 0-1.359 1.165-3.835 1.165-1.504 0-2.232-.728-2.232-2.282v-14.949c0-.34.242-.583.582-.583h4.708c.728 0 1.165-.437 1.165-1.165v-.825c0-.728-.437-1.165-1.165-1.165h-4.514c-.34 0-.582-.242-.582-.582v-3.446c0-.777-.486-1.262-1.214-1.262-.534 0-1.019.242-1.456.922-1.407 1.99-2.669 3.495-4.32 4.708-.631.437-.825.825-.825 1.408v.339c0 .631.437 1.068 1.165 1.068h1.747c.34 0 .583.243.583.583v15.677c0 3.058 1.747 4.951 5.485 4.951zm12.846-28.977c1.893 0 3.252-1.31 3.252-3.009s-1.359-3.01-3.252-3.01-3.252 1.311-3.252 3.01c0 1.65 1.359 3.009 3.252 3.009zm4.756 28.492c.728 0 1.165-.437 1.165-1.165v-.34c0-.679-.34-1.019-1.019-1.213l-.971-.291c-.971-.292-1.31-.777-1.31-1.845v-18.153c0-1.214-.728-1.65-1.942-1.214l-4.514 1.796c-.728.243-1.019.631-1.019 1.165v.292c0 .679.291.97 1.068 1.164 1.844.437 2.232 1.02 2.232 2.476v12.474c0 1.068-.339 1.553-1.31 1.845l-.971.291c-.679.194-1.019.534-1.019 1.213v.34c0 .728.437 1.165 1.165 1.165zm16.054.485c3.883 0 7.135-1.747 8.494-4.368.679-1.214.388-1.747-.146-2.087-.582-.34-1.116-.194-1.893.534-1.213 1.213-2.815 1.893-5.436 1.893-5.388 0-8.834-4.126-8.834-9.902 0-5.048 3.203-7.912 6.795-7.912 2.621 0 4.369 1.408 6.99 4.466.485.582 1.068.728 1.65.388l.194-.097c.534-.243.777-.825.437-1.602l-2.378-5.242c-.292-.582-.534-.874-1.165-.874-.583 0-1.02.437-2.184.437-1.068 0-1.991-.437-3.544-.437-6.455 0-11.018 4.951-11.018 12.378 0 7.474 4.66 12.425 12.038 12.425zm22.238 0c4.854 0 8.397-2.524 8.349-7.086-.049-3.835-2.476-5.825-6.699-7.135l-3.98-1.165c-3.203-.971-4.562-1.942-4.562-3.738 0-1.65 1.213-2.912 3.98-2.912 2.524 0 4.562 1.456 7.377 4.368.534.631 1.068.631 1.699.34l.146-.097c.582-.291.777-.874.437-1.504l-2.67-5.194c-.242-.485-.437-.68-.971-.68-.485 0-1.019.437-2.087.437-1.359 0-2.427-.388-3.98-.388-4.999 0-7.863 2.67-7.863 6.358 0 3.641 2.427 5.388 6.407 6.602l3.98 1.213c3.058.922 4.563 2.136 4.563 4.126 0 2.135-1.408 3.495-4.417 3.495-3.301 0-6.213-1.796-8.64-5.291-.485-.728-1.165-.825-1.747-.534l-.34.194c-.631.291-.825 1.019-.437 1.747l3.058 5.922c.291.534.582.874 1.262.874.728 0 1.213-.534 2.33-.534 1.213 0 2.572.582 4.805.582zm-171.616 48.515c8.543 0 14.853-5.582 14.853-15.338 0-10.387-7.135-18.93-20.871-18.93-3.204 0-5.874.097-9.223.534-.728.097-1.165.534-1.165 1.165v.34c0 .776.34 1.068.971 1.31l1.456.534c.923.34 1.262.777 1.262 1.796v23.395c0 1.02-.339 1.457-1.31 1.845l-1.408.485c-.631.243-.971.583-.971 1.311v.388c0 .728.437 1.165 1.165 1.165zm-6.213-2.961c-1.31 0-2.038-.679-2.038-2.038v-23.784c0-1.408.485-1.99 2.087-2.281 1.019-.146 1.456-.146 2.136-.146 7.232 0 13.882 6.067 13.882 15.581 0 8.397-4.563 12.668-12.912 12.668zm29.618-25.531c1.893 0 3.252-1.31 3.252-3.009s-1.359-3.01-3.252-3.01-3.252 1.311-3.252 3.01c0 1.65 1.359 3.009 3.252 3.009zm4.757 28.492c.728 0 1.164-.437 1.164-1.165v-.34c0-.679-.339-1.019-1.019-1.213l-.971-.291c-.97-.292-1.31-.777-1.31-1.845v-18.153c0-1.214-.728-1.65-1.942-1.214l-4.514 1.796c-.728.243-1.019.631-1.019 1.165v.292c0 .679.291.97 1.068 1.164 1.844.437 2.233 1.02 2.233 2.476v12.474c0 1.068-.34 1.553-1.311 1.845l-.971.291c-.679.194-1.019.534-1.019 1.213v.34c0 .728.437 1.165 1.165 1.165zm15.325.485c4.853 0 8.397-2.524 8.348-7.086-.048-3.835-2.475-5.825-6.698-7.135l-3.98-1.165c-3.204-.971-4.563-1.942-4.563-3.738 0-1.65 1.214-2.912 3.98-2.912 2.524 0 4.563 1.456 7.378 4.368.534.631 1.068.631 1.699.34l.146-.097c.582-.291.776-.874.436-1.504l-2.669-5.194c-.243-.485-.437-.68-.971-.68-.485 0-1.019.437-2.087.437-1.359 0-2.427-.388-3.98-.388-5 0-7.863 2.67-7.863 6.358 0 3.641 2.427 5.388 6.407 6.602l3.98 1.213c3.058.922 4.562 2.136 4.562 4.126 0 2.135-1.407 3.495-4.417 3.495-3.3 0-6.212-1.796-8.639-5.291-.486-.728-1.165-.825-1.748-.534l-.339.194c-.631.291-.826 1.019-.437 1.747l3.058 5.922c.291.534.582.874 1.262.874.728 0 1.213-.534 2.329-.534 1.214 0 2.573.582 4.806.582zm21.177 9.999c.728 0 1.214-.437 1.214-1.165v-.339c0-.777-.437-1.117-1.02-1.214l-1.456-.291c-1.019-.243-1.359-.825-1.359-1.845v-5.581c0-.437.291-.583.68-.437 1.116.437 2.766.873 4.708.873 6.164 0 11.406-4.562 11.406-12.862 0-7.863-4.562-11.892-10.435-11.892-2.67 0-4.369.825-5.922 2.184-.388.34-.631.146-.631-.194v-.728c0-1.214-.728-1.65-1.942-1.214l-4.32 1.699c-.728.243-1.019.631-1.019 1.165v.291c0 .68.291.971 1.068 1.165 1.844.486 2.281 1.02 2.281 2.476v23.055c0 1.02-.339 1.554-1.359 1.845l-.971.291c-.679.194-1.019.534-1.019 1.214v.339c0 .728.486 1.165 1.214 1.165zm1.65-13.154c-1.019 0-2.281-.145-3.252-.679-.728-.34-1.019-1.019-1.019-2.233v-12.426c0-1.116.388-1.698 1.116-2.184.923-.631 2.088-.776 3.544-.776 4.562 0 7.62 3.3 7.62 9.076 0 6.795-3.64 9.222-8.009 9.222zm24.216 3.155c2.815 0 5.29-1.067 6.843-2.912.292-.34.68-.34.923.049 1.019 1.941 2.087 2.766 4.174 2.766 2.475 0 4.174-1.601 4.174-3.64 0-.68-.388-1.165-1.019-1.165-.922 0-1.213 1.602-2.573 1.602-.825 0-1.262-.437-1.262-1.553l-.097-11.261c-.048-5.728-2.621-8.737-8.834-8.737-3.106 0-6.601.728-8.639 1.796-.874.485-.971 1.068-.583 1.893l1.214 2.669c.291.534.534.874 1.116.874.534 0 .874-.194 1.359-.874 1.699-2.427 3.446-3.64 5.631-3.64 2.912 0 4.562 1.505 4.562 4.951v2.087c0 .388-.243.534-.679.485-.971-.097-2.33-.194-3.495-.194-6.893 0-10.921 2.913-10.921 7.766 0 4.66 3.058 7.038 8.106 7.038zm1.116-3.3c-3.009 0-4.708-1.456-4.708-4.126 0-2.767 1.699-4.708 6.747-4.708 1.213 0 2.329.097 3.252.291.436.097.582.291.582.728v3.495c0 .922-.194 1.407-.631 1.941-.825 1.02-2.524 2.379-5.242 2.379zm24.313 3.3c3.591 0 5.63-1.796 5.63-3.591 0-.583-.388-.971-.922-.971-1.117 0-1.359 1.165-3.835 1.165-1.504 0-2.232-.728-2.232-2.282v-14.949c0-.34.242-.583.582-.583h4.708c.728 0 1.165-.437 1.165-1.165v-.825c0-.728-.437-1.165-1.165-1.165h-4.514c-.34 0-.582-.242-.582-.582v-3.446c0-.777-.486-1.262-1.214-1.262-.534 0-1.019.242-1.456.922-1.407 1.99-2.669 3.495-4.32 4.708-.631.437-.825.825-.825 1.408v.339c0 .631.437 1.068 1.165 1.068h1.747c.34 0 .583.243.583.583v15.677c0 3.058 1.747 4.951 5.485 4.951zm19.695 0c3.883 0 7.135-1.747 8.494-4.368.68-1.214.389-1.747-.145-2.087-.583-.34-1.117-.194-1.893.534-1.214 1.213-2.815 1.893-5.437 1.893-5.387 0-8.833-4.126-8.833-9.902 0-5.048 3.203-7.912 6.795-7.912 2.621 0 4.368 1.408 6.989 4.466.486.582 1.068.728 1.651.388l.194-.097c.534-.243.776-.825.437-1.602l-2.379-5.242c-.291-.582-.534-.874-1.165-.874-.582 0-1.019.437-2.184.437-1.068 0-1.99-.437-3.543-.437-6.456 0-11.018 4.951-11.018 12.378 0 7.474 4.659 12.425 12.037 12.425zm20.006-.485c.728 0 1.165-.437 1.165-1.165v-.34c0-.679-.34-1.019-1.02-1.213l-.97-.291c-.971-.292-1.311-.777-1.311-1.845v-12.377c0-.922.243-1.408 1.117-1.893 1.407-.874 3.98-1.796 6.455-1.796 2.476 0 3.204 1.408 3.204 4.271v15.484c0 .728.436 1.165 1.165 1.165h5.193c.728 0 1.165-.437 1.165-1.165v-.34c0-.679-.34-1.019-1.019-1.213l-.922-.291c-1.02-.292-1.36-.777-1.36-1.845v-12.717c0-4.368-2.135-6.844-6.115-6.844-2.67 0-5 .777-7.378 2.282l-.68.436c-.388.243-.825.146-.825-.339v-13.009c0-1.213-.825-1.601-1.893-1.164l-4.562 1.795c-.68.243-.971.534-.971 1.165v.292c0 .631.291.97 1.019 1.116 1.845.388 2.233 1.019 2.233 2.524v24.463c0 1.068-.34 1.553-1.311 1.845l-.97.291c-.68.194-1.02.534-1.02 1.213v.34c0 .728.437 1.165 1.165 1.165z" fill="#043f2e"/><rect fill="#043f2e" height="34.6618" rx="5.61114" width="175" x="248" y="297"/><path d="m272.087 319.144c2.271 0 3.78-1.394 3.78-3.176 0-2.056-1.25-2.746-3.665-3.076-1.782-.259-2.127-.676-2.127-1.509 0-.791.604-1.351 1.768-1.351 1.179 0 1.797.46 1.983 1.538h1.754c-.201-1.969-1.524-2.975-3.737-2.975-2.141 0-3.578 1.264-3.578 2.946 0 1.926 1.164 2.673 3.621 3.004 1.667.273 2.142.632 2.142 1.581 0 .948-.805 1.581-1.941 1.581-1.739 0-2.155-.863-2.285-1.898h-1.839c.143 1.941 1.322 3.335 4.124 3.335zm5.2-.144h1.739v-4.427c0-1.192.79-1.796 1.768-1.796 1.034 0 1.494.517 1.494 1.653v4.57h1.739v-4.728c0-2.07-1.063-2.947-2.572-2.947-1.236 0-2.07.618-2.429 1.351v-4.671h-1.739zm10.425.144c1.15 0 1.811-.417 2.3-1.064v.92h1.71v-4.93c0-2.055-1.322-2.745-3.004-2.745-1.681 0-3.075.733-3.219 2.487h1.681c.087-.748.532-1.179 1.438-1.179 1.02 0 1.365.503 1.365 1.509v.388h-.934c-2.156 0-3.852.633-3.852 2.386 0 1.567 1.135 2.228 2.515 2.228zm.417-1.251c-.862 0-1.207-.416-1.207-1.049 0-.92.848-1.221 2.17-1.221h.891v.747c0 .963-.791 1.523-1.854 1.523zm5.299 1.107h1.739v-3.909c0-1.595.92-2.084 2.443-2.098v-1.625c-1.265.015-1.969.575-2.443 1.524v-1.409h-1.739zm8.59.144c1.926 0 3.205-.863 3.449-2.444h-1.681c-.13.733-.676 1.15-1.725 1.15-1.294 0-2.012-.805-2.07-2.227h5.505v-.503c0-2.688-1.682-3.795-3.55-3.795-2.141 0-3.737 1.553-3.737 3.881v.115c0 2.371 1.596 3.823 3.809 3.823zm-1.998-4.686c.173-1.164.877-1.868 1.926-1.868 1.078 0 1.739.575 1.825 1.868zm12.437 4.671c.532 0 .905-.086 1.179-.186v-1.38c-.245.1-.503.144-.848.144-.547 0-.863-.302-.863-.963v-3.953h1.653v-1.308h-1.653v-1.652h-1.739v1.652h-1.006v1.308h1.006v4.111c0 1.423.776 2.227 2.271 2.227zm2.46-.129h1.739v-4.427c0-1.192.79-1.796 1.767-1.796 1.035 0 1.495.517 1.495 1.653v4.57h1.739v-4.728c0-2.07-1.063-2.947-2.572-2.947-1.236 0-2.07.618-2.429 1.351v-4.671h-1.739zm11.762.144c1.926 0 3.205-.863 3.449-2.444h-1.682c-.129.733-.675 1.15-1.724 1.15-1.294 0-2.012-.805-2.07-2.227h5.505v-.503c0-2.688-1.682-3.795-3.55-3.795-2.142 0-3.737 1.553-3.737 3.881v.115c0 2.371 1.595 3.823 3.809 3.823zm-1.998-4.686c.172-1.164.877-1.868 1.926-1.868 1.078 0 1.739.575 1.825 1.868zm9.879 4.542h1.739v-4.427c0-1.192.79-1.796 1.767-1.796 1.035 0 1.495.517 1.495 1.653v4.57h1.739v-4.728c0-2.07-1.063-2.947-2.572-2.947-1.236 0-2.07.618-2.429 1.351v-1.193h-1.739zm11.762.144c1.926 0 3.205-.863 3.449-2.444h-1.682c-.129.733-.675 1.15-1.724 1.15-1.294 0-2.012-.805-2.07-2.227h5.505v-.503c0-2.688-1.682-3.795-3.55-3.795-2.142 0-3.737 1.553-3.737 3.881v.115c0 2.371 1.595 3.823 3.809 3.823zm-1.998-4.686c.172-1.164.877-1.868 1.926-1.868 1.078 0 1.739.575 1.825 1.868zm8.153 4.542h1.782l1.524-5.059 1.394 5.059h1.768l2.357-7.517h-1.696l-1.567 5.433-1.466-5.433h-1.451l-1.595 5.433-1.495-5.433h-1.854zm12.439.144c1.925 0 3.003-.877 3.003-2.4 0-1.596-1.049-2.027-2.817-2.3-1.192-.201-1.552-.417-1.552-.963 0-.532.446-.891 1.193-.891.805 0 1.193.316 1.337 1.006h1.609c-.186-1.696-1.408-2.271-2.946-2.271-1.408 0-2.817.748-2.817 2.257 0 1.408.733 1.969 2.717 2.285 1.106.187 1.609.417 1.609 1.035 0 .632-.417.963-1.351.963-1.02 0-1.408-.446-1.494-1.208h-1.639c.072 1.596 1.207 2.487 3.148 2.487zm4.285-.144h1.739v-10.995h-1.739zm6.876.144c1.926 0 3.205-.863 3.45-2.444h-1.682c-.129.733-.675 1.15-1.725 1.15-1.293 0-2.012-.805-2.069-2.227h5.504v-.503c0-2.688-1.681-3.795-3.55-3.795-2.141 0-3.736 1.553-3.736 3.881v.115c0 2.371 1.595 3.823 3.808 3.823zm-1.997-4.686c.172-1.164.876-1.868 1.925-1.868 1.078 0 1.739.575 1.826 1.868zm9.299 4.671c.532 0 .906-.086 1.179-.186v-1.38c-.244.1-.503.144-.848.144-.546 0-.862-.302-.862-.963v-3.953h1.652v-1.308h-1.652v-1.652h-1.739v1.652h-1.006v1.308h1.006v4.111c0 1.423.776 2.227 2.27 2.227zm5.018 0c.532 0 .906-.086 1.179-.186v-1.38c-.245.1-.503.144-.848.144-.546 0-.863-.302-.863-.963v-3.953h1.653v-1.308h-1.653v-1.652h-1.739v1.652h-1.006v1.308h1.006v4.111c0 1.423.777 2.227 2.271 2.227zm5.765.015c1.926 0 3.205-.863 3.45-2.444h-1.682c-.129.733-.675 1.15-1.724 1.15-1.294 0-2.013-.805-2.07-2.227h5.504v-.503c0-2.688-1.681-3.795-3.549-3.795-2.142 0-3.737 1.553-3.737 3.881v.115c0 2.371 1.595 3.823 3.808 3.823zm-1.997-4.686c.172-1.164.876-1.868 1.926-1.868 1.077 0 1.739.575 1.825 1.868zm6.741 4.542h1.739v-3.909c0-1.595.92-2.084 2.444-2.098v-1.625c-1.265.015-1.969.575-2.444 1.524v-1.409h-1.739z" fill="#c8f169"/><path d="m41.0114 557v-11.636h7.7045v2.028h-5.2443v2.773h4.7329v2.028h-4.7329v4.807zm10.1593 0v-11.636h4.5909c.8788 0 1.6288.157 2.25.471.625.311 1.1004.752 1.4262 1.324.3295.568.4943 1.237.4943 2.006 0 .772-.1667 1.437-.5 1.994-.3333.553-.8163.977-1.4489 1.273-.6287.295-1.3901.443-2.2841.443h-3.0738v-1.977h2.6761c.4697 0 .8599-.065 1.1705-.193.3106-.129.5416-.322.6932-.58.1553-.258.2329-.578.2329-.96 0-.387-.0776-.712-.2329-.977-.1516-.266-.3845-.466-.6989-.603-.3106-.14-.7027-.21-1.1761-.21h-1.6591v9.625zm6.2841-5.295 2.8921 5.295h-2.7159l-2.8296-5.295zm15.7091-.523c0 1.269-.2405 2.348-.7216 3.238-.4772.891-1.1288 1.571-1.9545 2.04-.822.466-1.7462.699-2.7727.699-1.0341 0-1.9622-.235-2.7841-.704-.822-.47-1.4716-1.15-1.9489-2.04s-.7159-1.968-.7159-3.233c0-1.269.2386-2.349.7159-3.239s1.1269-1.568 1.9489-2.034c.8219-.47 1.75-.704 2.7841-.704 1.0265 0 1.9507.234 2.7727.704.8257.466 1.4773 1.144 1.9545 2.034.4811.89.7216 1.97.7216 3.239zm-2.4943 0c0-.822-.1231-1.515-.3693-2.08-.2424-.564-.5852-.992-1.0284-1.284-.4432-.291-.9621-.437-1.5568-.437s-1.1137.146-1.5569.437c-.4431.292-.7878.72-1.0341 1.284-.2424.565-.3636 1.258-.3636 2.08s.1212 1.515.3636 2.079c.2463.565.591.993 1.0341 1.284.4432.292.9622.438 1.5569.438s1.1136-.146 1.5568-.438c.4432-.291.786-.719 1.0284-1.284.2462-.564.3693-1.257.3693-2.079zm5.1168-5.818h3.0341l3.2045 7.818h.1364l3.2045-7.818h3.0341v11.636h-2.3864v-7.574h-.0966l-3.0113 7.517h-1.625l-3.0114-7.545h-.0966v7.602h-2.3863zm19.5005 2.028v-2.028h9.5571v2.028h-3.563v9.608h-2.4316v-9.608zm11.9311 9.608v-11.636h2.46v4.801h4.994v-4.801h2.455v11.636h-2.455v-4.807h-4.994v4.807zm12.737 0v-11.636h7.841v2.028h-5.381v2.773h4.978v2.028h-4.978v2.779h5.404v2.028zm15.1-11.636h3.034l3.205 7.818h.136l3.205-7.818h3.034v11.636h-2.387v-7.574h-.096l-3.012 7.517h-1.625l-3.011-7.545h-.097v7.602h-2.386zm26.134 5.818c0 1.269-.241 2.348-.722 3.238-.477.891-1.128 1.571-1.954 2.04-.822.466-1.746.699-2.773.699-1.034 0-1.962-.235-2.784-.704-.822-.47-1.472-1.15-1.949-2.04s-.716-1.968-.716-3.233c0-1.269.239-2.349.716-3.239s1.127-1.568 1.949-2.034c.822-.47 1.75-.704 2.784-.704 1.027 0 1.951.234 2.773.704.826.466 1.477 1.144 1.954 2.034.481.89.722 1.97.722 3.239zm-2.494 0c0-.822-.124-1.515-.37-2.08-.242-.564-.585-.992-1.028-1.284-.443-.291-.962-.437-1.557-.437s-1.114.146-1.557.437c-.443.292-.788.72-1.034 1.284-.242.565-.363 1.258-.363 2.08s.121 1.515.363 2.079c.246.565.591.993 1.034 1.284.443.292.962.438 1.557.438s1.114-.146 1.557-.438c.443-.291.786-.719 1.028-1.284.246-.564.37-1.257.37-2.079zm9.241 5.818h-4.125v-11.636h4.159c1.171 0 2.178.233 3.023.698.845.463 1.495 1.127 1.949 1.995.458.867.688 1.905.688 3.113 0 1.213-.23 2.254-.688 3.125-.454.872-1.108 1.54-1.96 2.006-.849.466-1.864.699-3.046.699zm-1.664-2.108h1.562c.727 0 1.339-.129 1.835-.386.5-.262.875-.665 1.125-1.211.254-.549.381-1.257.381-2.125 0-.859-.127-1.562-.381-2.108-.25-.545-.623-.946-1.119-1.204s-1.108-.386-1.835-.386h-1.568zm9.98 2.108v-11.636h7.841v2.028h-5.381v2.773h4.977v2.028h-4.977v2.779h5.404v2.028zm15.1 0v-11.636h4.659c.856 0 1.57.127 2.142.38.572.254 1.002.606 1.29 1.057.288.447.432.962.432 1.546 0 .454-.091.854-.273 1.198-.182.341-.432.622-.75.841-.314.216-.674.37-1.08.461v.113c.444.019.858.144 1.245.375.39.231.706.555.949.972.242.413.363.905.363 1.477 0 .618-.153 1.169-.46 1.654-.303.481-.752.861-1.347 1.142-.594.28-1.327.42-2.198.42zm2.46-2.011h2.006c.686 0 1.186-.131 1.5-.392.314-.266.471-.618.471-1.057 0-.322-.077-.606-.232-.852-.156-.247-.377-.44-.665-.58-.284-.14-.623-.21-1.017-.21h-2.063zm0-4.756h1.824c.337 0 .636-.059.898-.176.265-.121.473-.292.625-.512.155-.219.233-.483.233-.789 0-.421-.15-.76-.449-1.017-.296-.258-.716-.387-1.261-.387h-1.87zm8.918 6.767v-11.636h2.46v9.608h4.989v2.028zm20.118-5.818c0 1.269-.24 2.348-.721 3.238-.478.891-1.129 1.571-1.955 2.04-.822.466-1.746.699-2.773.699-1.034 0-1.962-.235-2.784-.704-.822-.47-1.471-1.15-1.949-2.04-.477-.89-.715-1.968-.715-3.233 0-1.269.238-2.349.715-3.239.478-.89 1.127-1.568 1.949-2.034.822-.47 1.75-.704 2.784-.704 1.027 0 1.951.234 2.773.704.826.466 1.477 1.144 1.955 2.034.481.89.721 1.97.721 3.239zm-2.494 0c0-.822-.123-1.515-.369-2.08-.243-.564-.586-.992-1.029-1.284-.443-.291-.962-.437-1.557-.437-.594 0-1.113.146-1.556.437-.444.292-.788.72-1.034 1.284-.243.565-.364 1.258-.364 2.08s.121 1.515.364 2.079c.246.565.59.993 1.034 1.284.443.292.962.438 1.556.438.595 0 1.114-.146 1.557-.438.443-.291.786-.719 1.029-1.284.246-.564.369-1.257.369-2.079zm12.833-2.057c-.08-.277-.192-.521-.336-.733-.144-.216-.32-.398-.528-.545-.205-.152-.439-.267-.705-.347-.261-.08-.551-.119-.869-.119-.595 0-1.117.147-1.568.443-.447.295-.795.725-1.045 1.29-.25.56-.375 1.246-.375 2.056 0 .811.123 1.5.369 2.069.246.568.595 1.002 1.045 1.301.451.295.983.443 1.597.443.557 0 1.032-.099 1.426-.295.398-.201.701-.483.909-.847.212-.364.318-.794.318-1.29l.5.074h-3v-1.852h4.87v1.466c0 1.022-.216 1.901-.648 2.636-.432.731-1.027 1.295-1.784 1.693-.758.394-1.625.591-2.602.591-1.091 0-2.05-.24-2.875-.721-.826-.485-1.47-1.173-1.932-2.063-.459-.894-.688-1.955-.688-3.182 0-.943.137-1.784.409-2.523.277-.742.663-1.371 1.159-1.886.497-.515 1.074-.907 1.733-1.176s1.373-.403 2.142-.403c.659 0 1.273.096 1.841.289.568.19 1.072.459 1.512.807.443.349.805.763 1.085 1.244.28.478.46 1.004.54 1.58z" fill="#78c51c"/></g></svg>
