<svg viewBox="0 0 2974 1584" xmlns="http://www.w3.org/2000/svg" xmlns:xlink="http://www.w3.org/1999/xlink"><clipPath id="a"><path d="m0 0h2974v1584h-2974z"/></clipPath><mask id="b" height="335" maskUnits="userSpaceOnUse" width="1029" x="1564" y="29"><path clip-rule="evenodd" d="m2242 29h336c8.28 0 15 6.7157 15 15v126c0 8.284-6.72 15-15 15h-321c-8.28 0-15 6.716-15 15v149c0 8.284-6.72 15-15 15h-648c-8.28 0-15-6.716-15-15v-164-141c0-8.2843 6.72-15 15-15z" fill="#7ea6f3" fill-rule="evenodd"/></mask><g clip-path="url(#a)"><path d="m1440 0h-1440v750h1440z" fill="#78c51c"/><path clip-rule="evenodd" d="m1410 45c0-8.2843-6.72-15-15-15h-298c-8.28 0-15 6.7157-15 15v505c0 8.284-6.72 15-15 15h-321c-8.284 0-15 6.716-15 15v125c0 8.284 6.716 15 15 15h336 152 161c8.28 0 15-6.716 15-15z" fill="#c8f169" fill-rule="evenodd"/><path clip-rule="evenodd" d="m709 208h335c8.28 0 15 6.716 15 15v304c0 8.284-6.72 15-15 15h-320c-8.284 0-15 6.716-15 15v148c0 8.284-6.716 15-15 15h-298c-8.284 0-15-6.716-15-15v-163-319c0-8.284 6.716-15 15-15z" fill="#2a6f2b" fill-rule="evenodd"/><path clip-rule="evenodd" d="m358 527c0 8.284-6.716 15-15 15h-298c-8.2843 0-15-6.716-15-15v-341-141c0-8.2843 6.7157-15 15-15h313 686c8.28 0 15 6.7157 15 15v126c0 8.284-6.72 15-15 15h-671c-8.284 0-15 6.716-15 15z" fill="#043f2e" fill-rule="evenodd"/><path d="m447.416 319c1.68 0 2.688-1.008 2.688-2.688v-.784c0-1.12-.56-2.016-2.016-2.464l-2.016-.784c-3.136-1.344-3.92-2.912-2.912-5.712l3.248-8.848c.224-.784.784-1.12 1.568-1.12h27.104c.784 0 1.344.336 1.568 1.008l3.696 9.968c.896 2.464.56 3.472-2.24 4.48l-2.128.784c-1.456.448-2.016 1.344-2.016 2.576v.896c0 1.68 1.008 2.688 2.8 2.688h21.056c1.68 0 2.688-1.008 2.688-2.688v-.896c0-1.232-.56-2.128-2.016-2.8l-2.352-1.008c-2.688-1.232-4.144-2.688-5.712-6.608l-24.64-62.048c-.56-1.568-1.792-2.352-3.472-2.352h-12.992c-1.792 0-2.688.784-3.136 2.352l-.224.896c-.448 1.68.112 2.8 2.464 3.696l3.808 1.344c2.576 1.008 3.584 2.688 2.464 5.6l-19.712 51.744c-1.12 2.688-2.688 4.368-5.712 5.6l-2.464 1.008c-1.456.56-2.016 1.232-2.016 2.688v.784c0 1.68 1.008 2.688 2.8 2.688zm3.472-29.232c-.896 0-1.456-.56-1.12-1.568l10.64-28.672c.448-1.12 1.344-1.12 1.792 0l10.864 28.672c.336 1.008-.112 1.568-1.12 1.568zm92.371 29.232c1.792 0 2.8-1.008 2.8-2.688v-.672c0-1.68-.784-2.576-2.352-3.024l-3.248-1.008c-2.24-.896-3.024-1.904-3.024-4.256v-47.936c0-1.232.896-1.568 1.68-.672l39.312 40.544c1.232 1.232 1.792 2.464 1.792 4.368v3.696c0 2.352-.784 3.36-3.024 4.144l-3.36 1.12c-1.456.448-2.24 1.344-2.24 3.024v.672c0 1.68 1.008 2.688 2.688 2.688h19.824c1.792 0 2.8-1.008 2.8-2.688v-.672c0-1.68-.784-2.576-2.352-3.024l-3.248-1.12c-2.352-.784-3.136-1.792-3.136-4.144v-55.104c0-2.352.784-3.36 3.136-4.256l3.248-1.008c1.456-.448 2.24-1.344 2.24-3.024v-.672c0-1.68-1.008-2.688-2.688-2.688h-19.712c-1.68 0-2.8 1.008-2.8 2.688v.672c0 1.68.784 2.576 2.352 3.024l3.248 1.008c2.24.896 3.024 1.904 3.024 4.256v31.248c0 1.232-.896 1.568-1.68.672l-39.872-41.776c-1.008-1.008-2.24-1.792-3.92-1.792h-11.2c-1.792 0-2.8 1.008-2.8 2.688v.896c0 1.568.784 2.464 2.24 2.912l3.36 1.12c2.24.784 3.024 1.792 3.024 4.144v54.992c0 2.352-.784 3.36-3.024 4.256l-3.36 1.008c-1.456.448-2.24 1.344-2.24 3.024v.672c0 1.68 1.008 2.688 2.8 2.688zm109.583-15.456c-1.457-1.008-3.025-.336-4.48 1.232-2.8 3.36-7.728 6.048-14.785 6.048-9.071 0-15.344-5.264-17.92-12.992-.224-.784 0-1.456.784-1.792l33.265-12.32c1.679-.56 2.463-1.568 2.016-3.696-2.464-11.088-11.088-17.248-22.176-17.248-14.449 0-25.649 11.2-25.649 28.672 0 17.36 11.648 28.672 27.328 28.672 12.321 0 19.489-6.048 22.065-11.984 1.008-2.352.896-3.808-.448-4.592zm-23.632-33.488c5.039 0 9.519 2.576 11.311 7.84.449 1.344-.224 1.792-1.231 2.128l-24.193 9.184c-.896.448-1.344.112-1.456-.56-.112-.56-.112-1.12-.112-1.344 0-10.64 6.832-17.248 15.681-17.248zm52.824 48.944c1.568 0 2.464-.56 3.024-2.24l11.2-32.816c.336-1.008 1.344-1.008 1.68 0l11.088 32.816c.56 1.68 1.68 2.24 3.024 2.24h3.696c1.456 0 2.464-.56 3.024-2.24l12.432-39.088c1.568-4.592 2.8-6.16 4.816-7.056l2.016-.784c1.232-.448 1.792-1.12 1.792-2.576v-.672c0-1.68-.896-2.688-2.8-2.688h-14.784c-1.68 0-2.8 1.008-2.8 2.688v.672c0 1.12.448 1.904 1.68 2.352l2.688 1.008c1.232.56 1.456 1.456 1.12 2.8l-9.296 30.128c-.448 1.456-1.344 1.344-1.792.112l-12.432-37.52c-.448-1.456-1.344-2.24-3.024-2.24h-9.52c-1.68 0-2.688 1.008-2.688 2.688v.784c0 1.12.448 1.792 1.792 2.24l3.024 1.344c1.456.56 1.904 1.568 1.344 3.36l-10.08 29.344c-.448 1.232-1.456 1.232-1.792-.112l-11.536-37.408c-.448-1.456-1.344-2.24-3.024-2.24h-9.52c-1.68 0-2.688 1.008-2.688 2.688v.784c0 1.568.56 2.352 1.904 2.8l2.128.784c2.352.896 3.472 2.464 4.816 6.944l12.768 38.864c.56 1.68 1.68 2.24 3.136 2.24zm-198.106 112.128c1.568 0 2.688-.56 3.36-2.464l6.16-17.584c.448-1.232.224-2.688-1.344-3.36l-.896-.56c-1.568-.784-2.8-.56-3.808.896-7.952 11.648-14.56 14.112-32.816 14.112-4.48 0-7.28-1.568-7.28-4.816v-29.792c0-.784.56-1.344 1.344-1.344h5.264c8.176 0 13.44 2.464 20.048 10.304 1.008 1.232 2.128 1.568 3.472.784l.896-.448c1.456-.896 1.568-1.904 1.008-3.136l-6.832-13.664c-.672-1.344-1.232-2.128-2.576-2.128-2.128 0-3.696 1.456-8.848 1.456h-12.432c-.784 0-1.344-.56-1.344-1.344v-15.904c0-3.136 1.568-4.704 6.944-4.704 17.136 0 21.84 2.576 29.568 10.976 1.12 1.232 2.464 1.456 3.808.56l.672-.448c1.344-.896 1.568-1.904 1.008-3.248l-7.168-14.896c-.56-1.232-1.456-2.016-2.912-2.016h-.56c-1.232 0-1.904.336-3.024 1.12-1.232.784-2.24 1.12-4.032 1.12h-40.432c-1.68 0-2.688 1.008-2.688 2.688v.896c0 1.68.784 2.464 2.24 3.024l3.248 1.12c2.24.896 3.024 1.904 3.024 4.256v54.432c0 2.352-.784 3.36-3.024 4.256l-3.248 1.12c-1.456.56-2.24 1.344-2.24 3.024v.896c0 1.68 1.008 2.688 2.688 2.688h45.248c1.792 0 2.688.448 3.92 1.12 1.12.672 1.792 1.008 3.136 1.008zm37.772-2.128c1.68 0 2.688-1.008 2.688-2.688v-.784c0-1.792-.896-2.576-2.24-2.8l-3.472-.672c-2.24-.56-3.024-1.904-3.024-4.256v-26.768c0-5.264 2.352-7.616 6.832-7.616 2.576 0 4.48 1.008 6.384 2.464 1.792 1.008 2.464 1.456 3.696 1.456s2.352-.784 2.576-2.8l.784-7.728c.224-2.464-1.008-3.808-3.808-3.808-5.152 0-10.864 2.688-14.784 6.16-1.12 1.12-2.24.56-2.24-.56v-2.688c0-2.8-1.68-3.808-4.368-2.8l-9.968 3.92c-1.68.56-2.352 1.456-2.352 2.688v.672c0 1.568.672 2.24 2.464 2.688 4.256 1.008 5.152 2.352 5.152 5.712v29.008c0 2.464-.784 3.584-3.024 4.256l-2.24.672c-1.568.448-2.352 1.232-2.352 2.8v.784c0 1.68 1.008 2.688 2.688 2.688zm37.105 1.12c6.496 0 12.208-2.464 15.792-6.72.672-.784 1.568-.784 2.128.112 2.352 4.48 4.816 6.384 9.632 6.384 5.712 0 9.632-3.696 9.632-8.4 0-1.568-.896-2.688-2.352-2.688-2.128 0-2.8 3.696-5.936 3.696-1.904 0-2.912-1.008-2.912-3.584l-.224-25.984c-.112-13.216-6.048-20.16-20.384-20.16-7.168 0-15.232 1.68-19.936 4.144-2.016 1.12-2.24 2.464-1.344 4.368l2.8 6.16c.672 1.232 1.232 2.016 2.576 2.016 1.232 0 2.016-.448 3.136-2.016 3.92-5.6 7.952-8.4 12.992-8.4 6.72 0 10.528 3.472 10.528 11.424v4.816c0 .896-.56 1.232-1.568 1.12-2.24-.224-5.376-.448-8.064-.448-15.904 0-25.2 6.72-25.2 17.92 0 10.752 7.056 16.24 18.704 16.24zm2.576-7.616c-6.944 0-10.864-3.36-10.864-9.52 0-6.384 3.92-10.864 15.568-10.864 2.8 0 5.376.224 7.504.672 1.008.224 1.344.672 1.344 1.68v8.064c0 2.128-.448 3.248-1.456 4.48-1.904 2.352-5.824 5.488-12.096 5.488zm80.802 7.616c15.232 0 26.88-11.648 26.88-28.672s-11.648-28.672-26.88-28.672-26.88 11.648-26.88 28.672 11.648 28.672 26.88 28.672zm1.68-8.176c-12.096 0-18.816-10.64-18.816-23.184 0-11.312 6.496-17.808 15.456-17.808 12.208 0 18.816 10.64 18.816 23.072 0 11.424-6.496 17.92-15.456 17.92zm55.475 7.056c1.68 0 2.688-1.008 2.688-2.688v-.784c0-1.792-.896-2.576-2.24-2.8l-3.472-.672c-2.24-.56-3.024-1.904-3.024-4.256v-35.28c0-.784.672-1.344 1.456-1.344h10.752c1.68 0 2.688-1.008 2.688-2.688v-1.904c0-1.68-1.008-2.688-2.688-2.688h-1.904c-8.512 0-13.216-3.92-13.216-12.32 0-5.6 3.136-9.296 7.616-9.296 3.136 0 6.496 1.904 9.744 4.704 1.008.896 1.904 1.456 2.912 1.456 1.12 0 1.792-.672 2.24-1.792l2.352-5.824c.784-1.904.448-3.024-1.456-3.92-2.464-1.232-6.16-1.904-11.2-1.904-10.64 0-18.928 5.6-20.384 18.256l-.672 6.832c-.336 2.016-.784 2.8-2.576 3.808l-1.232.56c-1.344.672-2.128 1.568-2.128 3.136v.784c0 1.68 1.008 2.8 2.688 2.8h4.032c.784 0 1.344.56 1.344 1.344v35.28c0 2.576-.896 3.584-2.912 4.256l-2.352.672c-1.568.448-2.352 1.232-2.352 2.8v.784c0 1.68 1.008 2.688 2.688 2.688zm69.348 0c15.232 0 24.976-8.288 24.976-21.84 0-8.624-4.48-16.576-14.784-20.944-.784-.336-.896-1.008-.112-1.456 4.368-2.576 8.736-6.608 8.736-13.664 0-11.872-10.304-21.168-33.152-21.168-7.616 0-16.016.448-22.288 1.232-1.68.224-2.688 1.232-2.688 2.688v.784c0 1.792.784 2.464 2.24 3.024l3.36 1.232c2.128.784 2.912 1.792 2.912 4.144v53.984c0 2.352-.784 3.36-3.024 4.256l-3.248 1.12c-1.456.56-2.24 1.344-2.24 3.024v.896c0 1.68 1.008 2.688 2.688 2.688zm-19.152-46.928c-.784 0-1.344-.672-1.344-1.456v-19.824c0-2.128.784-3.584 3.36-3.92 2.24-.336 3.36-.336 4.592-.336 11.872 0 20.944 5.152 20.944 15.68 0 6.496-4.592 10.752-12.768 10.416zm3.808 40.208c-3.36 0-5.152-1.792-5.152-5.04v-27.216c0-.896.56-1.232 1.344-1.232l12.32.448c12.88.56 20.608 7.504 20.608 18.368 0 9.184-6.272 14.672-17.024 14.672zm72.018 6.72c1.68 0 2.688-1.008 2.688-2.688v-.896c0-1.68-.784-2.464-2.24-3.024l-3.248-1.12c-2.352-.896-3.136-1.904-3.136-4.256v-54.432c0-2.352.784-3.36 3.136-4.256l3.248-1.12c1.456-.56 2.24-1.344 2.24-3.024v-.896c0-1.68-1.008-2.688-2.688-2.688h-22.064c-1.68 0-2.688 1.008-2.688 2.688v.896c0 1.68.784 2.464 2.24 3.024l3.248 1.12c2.24.896 3.024 1.904 3.024 4.256v54.432c0 2.352-.784 3.36-3.024 4.256l-3.248 1.12c-1.456.56-2.24 1.344-2.24 3.024v.896c0 1.68 1.008 2.688 2.688 2.688z" fill="#fcfcfc"/><path d="m149.612 668.008c0-.879 0-1.317-.087-1.678-.135-.564-.424-1.08-.835-1.49-.411-.411-.928-.7-1.493-.835-.363-.086-.803-.086-1.681-.086h-2.847c-.878 0-1.318 0-1.681-.089-.565-.135-1.082-.424-1.492-.834-.411-.41-.701-.925-.836-1.489-.089-.363-.089-.801-.089-1.678v-21.182c0-.879 0-1.317.089-1.678.136-.564.425-1.08.836-1.49.412-.41.929-.699 1.494-.834.361-.088.803-.088 1.681-.086h2.843c.878 0 1.318 0 1.681-.086.565-.135 1.082-.424 1.494-.834.411-.41.7-.926.836-1.49.087-.363.087-.801.087-1.678v-30.376c0-.877 0-1.317-.087-1.678-.135-.564-.424-1.08-.835-1.491-.411-.41-.928-.699-1.493-.835-.363-.086-.803-.086-1.681-.086h-17.888c-.365-.014-.73 0-1.093.042-.805.134-1.526.573-2.013 1.227-.203.302-.383.62-.538.95l-17.133 33.254-16.92-33.235c-.1527-.333-.3312-.653-.5337-.958-.4862-.659-1.2106-1.103-2.0193-1.238-.3647-.042-.7321-.056-1.099-.042h-24.1647c-.8783 0-1.3175 0-1.681.086-.5683.133-1.0885.421-1.5026.832-.414.41-.7057.928-.8424 1.494-.0883.361-.0883.801-.0883 1.678v13.789c0 .877 0 1.315.0883 1.678.1357.564.425 1.079.8359 1.49.4109.41.9273.698 1.4923.834.3635.088.8027.088 1.681.088h2.7443c.8804 0 1.3196 0 1.681.086.5652.136 1.0819.425 1.4927.835.4109.411.7001.927.8355 1.491.0862.361.0862.799.0862 1.678v20.043c0 .877 0 1.315-.0862 1.678-.1358.564-.4251 1.079-.8359 1.489-.4109.41-.9273.699-1.4923.835-.3635.088-.8027.088-1.681.088h-2.738c-.8783 0-1.3175 0-1.681.086-.5664.134-1.0844.423-1.4965.833-.412.411-.7021.927-.838 1.493-.0883.36-.0883.799-.0883 1.677v33.059c0 .877 0 1.315.0883 1.678.1357.564.425 1.08.8359 1.49s.9273.698 1.4923.834c.3635.088.8027.088 1.681.088h24.7215c.8805 0 1.3196 0 1.6811-.088.5649-.136 1.0814-.424 1.4922-.834.4109-.41.7002-.926.836-1.49.0861-.363.0861-.801.0861-1.678v-15.337c0-.879 0-1.317-.0861-1.678-.1354-.564-.4246-1.08-.8355-1.49-.4109-.411-.9275-.7-1.4927-.835-.3636-.086-.8027-.086-1.6811-.086h-2.7148c-.8783 0-1.3175 0-1.681-.089-.565-.135-1.0815-.424-1.4923-.834-.4109-.41-.7002-.925-.836-1.489-.0882-.363-.0882-.801-.0882-1.678v-31.079l17.842 35.234c.4706.931.706 1.396.9539 1.637.3875.379.9068.594 1.4494.599.542.006 1.066-.198 1.461-.569.254-.239.498-.699.988-1.619l19.794-37.296v33.093c0 .877 0 1.315-.087 1.678-.136.564-.426 1.08-.837 1.49-.412.41-.929.699-1.495.833-.364.089-.803.089-1.681.089h-5.287c-.878 0-1.317 0-1.681.086-.565.135-1.082.424-1.493.835-.411.41-.7.926-.835 1.49-.088.361-.088.799-.088 1.678v15.337c0 .877 0 1.315.088 1.678.136.564.425 1.08.836 1.49s.927.698 1.492.834c.364.088.803.088 1.681.088h32.406c.88 0 1.32 0 1.681-.088.565-.136 1.081-.424 1.492-.834s.701-.926.836-1.49c.086-.363.086-.801.086-1.678z" fill="#043f2e"/><path d="m211.561 629.922c-.82-2.518-2.226-4.807-4.102-6.679-1.877-1.872-4.171-3.275-6.694-4.092-2.522-.823-5.661-.823-11.919-.823h-9.348c-6.258 0-9.387 0-11.919.823-2.523.818-4.816 2.22-6.692 4.092s-3.282 4.161-4.102 6.679c-.821 2.517-.821 5.65-.821 11.896v22.193c0 6.246 0 9.368.821 11.896.82 2.518 2.225 4.807 4.101 6.68 1.876 1.872 4.17 3.275 6.693 4.093 2.522.82 5.661.82 11.919.82h9.353c6.257 0 9.386 0 11.918-.82 2.523-.818 4.816-2.221 6.692-4.093 1.875-1.872 3.28-4.16 4.1-6.678.824-2.517.824-5.65.824-11.896v-22.195c0-6.246 0-9.369-.824-11.896zm-11.637 24.079c0 2.655 0 3.984-.351 5.056-.348 1.07-.945 2.043-1.742 2.839-.796.795-1.771 1.391-2.843 1.739-1.077.349-2.405.349-5.066.349h-11.515c-2.66 0-3.992 0-5.066-.349-1.072-.347-2.047-.943-2.844-1.739s-1.395-1.769-1.743-2.839c-.349-1.074-.349-2.401-.349-5.056v-2.056c0-2.653 0-3.984.349-5.054.348-1.07.946-2.043 1.743-2.839.797-.795 1.772-1.392 2.844-1.739 1.076-.351 2.406-.351 5.066-.351h11.515c2.661 0 3.993 0 5.066.351 1.072.348 2.047.944 2.843 1.74.797.795 1.394 1.768 1.742 2.838.351 1.074.351 2.401.351 5.054z" fill="#043f2e"/><path d="m276.621 597.743c-.123-.377-.334-.721-.616-1.001-.281-.281-.625-.491-1.004-.614-.38-.123-.84-.123-1.788-.123h-9.853c-.937 0-1.408 0-1.786.123-.379.123-.723.333-1.004.614-.282.28-.493.624-.616 1.001-.124.38-.124.839-.124 1.785v14.331c0 1.17 0 1.755-.154 2.229-.153.472-.417.901-.768 1.252-.352.351-.782.614-1.255.768-.475.155-1.051.155-2.236.155h-11.557c-6.257 0-9.386 0-11.918.82-2.524.818-4.817 2.221-6.693 4.093-1.876 1.873-3.282 4.162-4.102 6.681-.823 2.527-.823 5.65-.823 11.895v22.202c0 6.245 0 9.368.823 11.895.823 2.516 2.23 4.801 4.106 6.67s4.169 3.269 6.691 4.085c2.521.822 5.661.822 11.918.822h9.353c6.258 0 9.386 0 11.918-.822 2.524-.818 4.817-2.22 6.693-4.092s3.282-4.161 4.102-6.679c.821-2.517.821-5.65.821-11.896v-64.409c0-.937 0-1.405-.128-1.785zm-13.914 56.192c0 2.655 0 3.985-.349 5.057-.349 1.07-.946 2.042-1.744 2.837-.797.796-1.771 1.391-2.843 1.739-1.076.35-2.406.35-5.067.35h-9.913c-2.659 0-3.993 0-5.064-.35-1.075-.346-2.053-.941-2.853-1.736-.8-.796-1.399-1.769-1.749-2.84-.351-1.076-.351-2.402-.351-5.057v-2.055c0-2.655 0-3.985.351-5.057.348-1.07.945-2.043 1.743-2.838.797-.796 1.771-1.392 2.844-1.74 1.076-.348 2.406-.348 5.064-.348h9.931c2.66 0 3.992 0 5.066.348 1.072.348 2.047.944 2.844 1.74.797.795 1.394 1.768 1.743 2.838.349 1.074.349 2.402.349 5.057z" fill="#043f2e"/><path d="m307.871 671.504c-2.66 0-3.992 0-5.066-.348-1.073-.348-2.047-.944-2.844-1.739-.798-.796-1.395-1.769-1.743-2.839-.223-.684-.303-1.468-.332-2.643h40.172c.78 0 1.528-.309 2.08-.86.552-.55.862-1.297.862-2.076v-19.123c0-6.245 0-9.368-.822-11.895-.82-2.518-2.225-4.807-4.101-6.679-1.877-1.872-4.17-3.275-6.693-4.093-2.522-.822-5.661-.822-11.919-.822h-9.352c-6.258 0-9.387 0-11.919.822-2.522.818-4.815 2.22-6.691 4.092s-3.281 4.16-4.101 6.678c-.824 2.527-.824 5.65-.824 11.895v22.195c0 6.246 0 9.369.824 11.896.82 2.518 2.225 4.807 4.1 6.68 1.876 1.872 4.169 3.275 6.692 4.094 2.522.82 5.661.82 11.919.82h16.81c3.747-.001 7.377-1.306 10.262-3.692 2.886-2.386 4.848-5.702 5.546-9.376.069-.364.057-.739-.036-1.098-.092-.359-.263-.693-.5-.978s-.534-.515-.87-.672c-.336-.158-.702-.239-1.074-.239zm-9.653-24.684c.348-1.071.945-2.043 1.743-2.839.797-.796 1.771-1.392 2.844-1.74 1.078-.35 2.406-.35 5.066-.35h9.834c2.66 0 3.992 0 5.066.35 1.072.348 2.047.944 2.844 1.74.798.796 1.395 1.768 1.743 2.839.349 1.073.349 2.401.349 5.054v1.158h-29.838v-1.158c0-2.653 0-3.981.349-5.054z" fill="#043f2e"/><path d="m1440 834h-1440v750h1440z" fill="#043f2e"/><path clip-rule="evenodd" d="m381 879c0-8.284 6.716-15 15-15h122c8.284 0 15 6.716 15 15v163 334 163c0 8.28-6.716 15-15 15h-473c-8.2843 0-15-6.72-15-15v-482c0-8.28 6.7157-15 15-15h321c8.284 0 15-6.72 15-15z" fill="#a68fff" fill-rule="evenodd"/><path clip-rule="evenodd" d="m1059 1057c0-8.28-6.72-15-15-15h-473c-8.284 0-15 6.72-15 15v163 156 163c0 8.28 6.716 15 15 15h824c8.28 0 15-6.72 15-15v-304c0-8.28-6.72-15-15-15h-321c-8.28 0-15-6.72-15-15z" fill="#c8f169" fill-rule="evenodd"/><path d="m149.612 973.008c0-.879 0-1.317-.087-1.678-.135-.564-.424-1.08-.835-1.49-.411-.411-.928-.7-1.493-.835-.363-.086-.803-.086-1.681-.086h-2.847c-.878 0-1.318 0-1.681-.089-.565-.135-1.082-.424-1.492-.834-.411-.41-.701-.925-.836-1.489-.089-.363-.089-.801-.089-1.678v-21.182c0-.879 0-1.317.089-1.678.136-.564.425-1.08.836-1.49.412-.41.929-.699 1.494-.834.361-.088.803-.088 1.681-.086h2.843c.878 0 1.318 0 1.681-.086.565-.135 1.082-.424 1.494-.834.411-.41.7-.926.836-1.49.087-.363.087-.801.087-1.678v-30.376c0-.877 0-1.317-.087-1.678-.135-.564-.424-1.08-.835-1.491-.411-.41-.928-.699-1.493-.835-.363-.086-.803-.086-1.681-.086h-17.888c-.365-.014-.73 0-1.093.042-.805.134-1.526.573-2.013 1.227-.203.302-.383.62-.538.95l-17.133 33.254-16.92-33.235c-.1527-.333-.3312-.653-.5337-.958-.4862-.659-1.2106-1.103-2.0193-1.238-.3647-.042-.7321-.056-1.099-.042h-24.1647c-.8783 0-1.3175 0-1.681.086-.5683.133-1.0885.421-1.5026.832-.414.41-.7057.928-.8424 1.494-.0883.361-.0883.801-.0883 1.678v13.789c0 .877 0 1.315.0883 1.678.1357.564.425 1.079.8359 1.49.4109.41.9273.698 1.4923.834.3635.088.8027.088 1.681.088h2.7443c.8804 0 1.3196 0 1.681.086.5652.136 1.0819.425 1.4927.835.4109.411.7001.927.8355 1.491.0862.361.0862.799.0862 1.678v20.043c0 .877 0 1.315-.0862 1.678-.1358.564-.4251 1.079-.8359 1.489-.4109.41-.9273.699-1.4923.835-.3635.088-.8027.088-1.681.088h-2.738c-.8783 0-1.3175 0-1.681.086-.5664.134-1.0844.423-1.4965.833-.412.411-.7021.927-.838 1.493-.0883.36-.0883.799-.0883 1.677v33.059c0 .877 0 1.315.0883 1.678.1357.564.425 1.08.8359 1.49s.9273.698 1.4923.834c.3635.088.8027.088 1.681.088h24.7215c.8805 0 1.3196 0 1.6811-.088.5649-.136 1.0814-.424 1.4922-.834.4109-.41.7002-.926.836-1.49.0861-.363.0861-.801.0861-1.678v-15.337c0-.879 0-1.317-.0861-1.678-.1354-.564-.4246-1.08-.8355-1.49-.4109-.411-.9275-.7-1.4927-.835-.3636-.086-.8027-.086-1.6811-.086h-2.7148c-.8783 0-1.3175 0-1.681-.089-.565-.135-1.0815-.424-1.4923-.834-.4109-.41-.7002-.925-.836-1.489-.0882-.363-.0882-.801-.0882-1.678v-31.079l17.842 35.234c.4706.931.706 1.396.9539 1.637.3875.379.9068.594 1.4494.599.542.006 1.066-.198 1.461-.569.254-.239.498-.699.988-1.619l19.794-37.296v33.093c0 .877 0 1.315-.087 1.678-.136.564-.426 1.08-.837 1.49-.412.41-.929.699-1.495.833-.364.089-.803.089-1.681.089h-5.287c-.878 0-1.317 0-1.681.086-.565.135-1.082.424-1.493.835-.411.41-.7.926-.835 1.49-.088.361-.088.799-.088 1.678v15.337c0 .877 0 1.315.088 1.678.136.564.425 1.08.836 1.49s.927.698 1.492.834c.364.088.803.088 1.681.088h32.406c.88 0 1.32 0 1.681-.088.565-.136 1.081-.424 1.492-.834s.701-.926.836-1.49c.086-.363.086-.801.086-1.678z" fill="#c8f169"/><path d="m211.561 934.922c-.82-2.518-2.226-4.807-4.102-6.679-1.877-1.872-4.171-3.275-6.694-4.092-2.522-.823-5.661-.823-11.919-.823h-9.348c-6.258 0-9.387 0-11.919.823-2.523.818-4.816 2.22-6.692 4.092s-3.282 4.161-4.102 6.679c-.821 2.517-.821 5.65-.821 11.896v22.193c0 6.246 0 9.368.821 11.896.82 2.518 2.225 4.807 4.101 6.68 1.876 1.872 4.17 3.275 6.693 4.093 2.522.82 5.661.82 11.919.82h9.353c6.257 0 9.386 0 11.918-.82 2.523-.818 4.816-2.221 6.692-4.093 1.875-1.872 3.28-4.16 4.1-6.678.824-2.517.824-5.65.824-11.896v-22.195c0-6.246 0-9.369-.824-11.896zm-11.637 24.079c0 2.655 0 3.984-.351 5.056-.348 1.07-.945 2.043-1.742 2.839-.796.795-1.771 1.391-2.843 1.739-1.077.349-2.405.349-5.066.349h-11.515c-2.66 0-3.992 0-5.066-.349-1.072-.347-2.047-.943-2.844-1.739s-1.395-1.769-1.743-2.839c-.349-1.074-.349-2.401-.349-5.056v-2.056c0-2.653 0-3.984.349-5.054.348-1.07.946-2.043 1.743-2.839.797-.795 1.772-1.392 2.844-1.739 1.076-.351 2.406-.351 5.066-.351h11.515c2.661 0 3.993 0 5.066.351 1.072.348 2.047.944 2.843 1.74.797.795 1.394 1.768 1.742 2.838.351 1.074.351 2.401.351 5.054z" fill="#c8f169"/><path d="m276.621 902.743c-.123-.377-.334-.721-.616-1.001-.281-.281-.625-.491-1.004-.614-.38-.123-.84-.123-1.788-.123h-9.853c-.937 0-1.408 0-1.786.123-.379.123-.723.333-1.004.614-.282.28-.493.624-.616 1.001-.124.38-.124.839-.124 1.785v14.331c0 1.17 0 1.755-.154 2.229-.153.472-.417.901-.768 1.252-.352.351-.782.614-1.255.768-.475.155-1.051.155-2.236.155h-11.557c-6.257 0-9.386 0-11.918.82-2.524.818-4.817 2.221-6.693 4.093-1.876 1.873-3.282 4.162-4.102 6.681-.823 2.527-.823 5.65-.823 11.895v22.202c0 6.245 0 9.368.823 11.895.823 2.516 2.23 4.801 4.106 6.67s4.169 3.269 6.691 4.085c2.521.822 5.661.822 11.918.822h9.353c6.258 0 9.386 0 11.918-.822 2.524-.818 4.817-2.22 6.693-4.092s3.282-4.161 4.102-6.679c.821-2.517.821-5.65.821-11.896v-64.409c0-.937 0-1.405-.128-1.785zm-13.914 56.192c0 2.655 0 3.985-.349 5.057-.349 1.07-.946 2.042-1.744 2.837-.797.796-1.771 1.391-2.843 1.739-1.076.35-2.406.35-5.067.35h-9.913c-2.659 0-3.993 0-5.064-.35-1.075-.346-2.053-.941-2.853-1.736-.8-.796-1.399-1.769-1.749-2.84-.351-1.076-.351-2.402-.351-5.057v-2.055c0-2.655 0-3.985.351-5.057.348-1.07.945-2.043 1.743-2.838.797-.796 1.771-1.392 2.844-1.74 1.076-.348 2.406-.348 5.064-.348h9.931c2.66 0 3.992 0 5.066.348 1.072.348 2.047.944 2.844 1.74.797.795 1.394 1.768 1.743 2.838.349 1.074.349 2.402.349 5.057z" fill="#c8f169"/><path d="m307.871 976.504c-2.66 0-3.992 0-5.066-.348-1.073-.348-2.047-.944-2.844-1.739-.798-.796-1.395-1.769-1.743-2.839-.223-.684-.303-1.468-.332-2.643h40.172c.78 0 1.528-.309 2.08-.86.552-.55.862-1.297.862-2.076v-19.123c0-6.245 0-9.368-.822-11.895-.82-2.518-2.225-4.807-4.101-6.679-1.877-1.872-4.17-3.275-6.693-4.093-2.522-.822-5.661-.822-11.919-.822h-9.352c-6.258 0-9.387 0-11.919.822-2.522.818-4.815 2.22-6.691 4.092s-3.281 4.16-4.101 6.678c-.824 2.527-.824 5.65-.824 11.895v22.195c0 6.246 0 9.369.824 11.896.82 2.518 2.225 4.807 4.1 6.68 1.876 1.872 4.169 3.275 6.692 4.094 2.522.82 5.661.82 11.919.82h16.81c3.747-.001 7.377-1.306 10.262-3.692 2.886-2.386 4.848-5.702 5.546-9.376.069-.364.057-.739-.036-1.098-.092-.359-.263-.693-.5-.978s-.534-.515-.87-.672c-.336-.158-.702-.239-1.074-.239zm-9.653-24.684c.348-1.071.945-2.043 1.743-2.839.797-.796 1.771-1.392 2.844-1.74 1.078-.35 2.406-.35 5.066-.35h9.834c2.66 0 3.992 0 5.066.35 1.072.348 2.047.944 2.844 1.74.798.796 1.395 1.768 1.743 2.839.349 1.073.349 2.401.349 5.054v1.158h-29.838v-1.158c0-2.653 0-3.981.349-5.054z" fill="#c8f169"/><path d="m622.83 1426c15.84 0 27.54-10.35 27.54-28.44 0-19.26-13.23-35.1-38.7-35.1-5.94 0-10.89.18-17.1.99-1.35.18-2.16.99-2.16 2.16v.63c0 1.44.63 1.98 1.8 2.43l2.7.99c1.71.63 2.34 1.44 2.34 3.33v43.38c0 1.89-.63 2.7-2.43 3.42l-2.61.9c-1.17.45-1.8 1.08-1.8 2.43v.72c0 1.35.81 2.16 2.16 2.16zm-11.52-5.49c-2.43 0-3.78-1.26-3.78-3.78v-44.1c0-2.61.9-3.69 3.87-4.23 1.89-.27 2.7-.27 3.96-.27 13.41 0 25.74 11.25 25.74 28.89 0 15.57-8.46 23.49-23.94 23.49zm59.867 6.39c5.22 0 9.81-1.98 12.69-5.4.54-.63 1.26-.63 1.71.09 1.89 3.6 3.87 5.13 7.74 5.13 4.59 0 7.74-2.97 7.74-6.75 0-1.26-.72-2.16-1.89-2.16-1.71 0-2.25 2.97-4.77 2.97-1.53 0-2.34-.81-2.34-2.88l-.18-20.88c-.09-10.62-4.86-16.2-16.38-16.2-5.76 0-12.24 1.35-16.02 3.33-1.62.9-1.8 1.98-1.08 3.51l2.25 4.95c.54.99.99 1.62 2.07 1.62.99 0 1.62-.36 2.52-1.62 3.15-4.5 6.39-6.75 10.44-6.75 5.4 0 8.46 2.79 8.46 9.18v3.87c0 .72-.45.99-1.26.9-1.8-.18-4.32-.36-6.48-.36-12.78 0-20.25 5.4-20.25 14.4 0 8.64 5.67 13.05 15.03 13.05zm2.07-6.12c-5.58 0-8.73-2.7-8.73-7.65 0-5.13 3.15-8.73 12.51-8.73 2.25 0 4.32.18 6.03.54.81.18 1.08.54 1.08 1.35v6.48c0 1.71-.36 2.61-1.17 3.6-1.53 1.89-4.68 4.41-9.72 4.41zm44.181 6.12c6.66 0 10.44-3.33 10.44-6.66 0-1.08-.72-1.8-1.71-1.8-2.07 0-2.52 2.16-7.11 2.16-2.79 0-4.14-1.35-4.14-4.23v-27.72c0-.63.45-1.08 1.08-1.08h8.73c1.35 0 2.16-.81 2.16-2.16v-1.53c0-1.35-.81-2.16-2.16-2.16h-8.37c-.63 0-1.08-.45-1.08-1.08v-6.39c0-1.44-.9-2.34-2.25-2.34-.99 0-1.89.45-2.7 1.71-2.61 3.69-4.95 6.48-8.01 8.73-1.17.81-1.53 1.53-1.53 2.61v.63c0 1.17.81 1.98 2.16 1.98h3.24c.63 0 1.08.45 1.08 1.08v29.07c0 5.67 3.24 9.18 10.17 9.18zm28.769 0c5.22 0 9.81-1.98 12.69-5.4.54-.63 1.26-.63 1.71.09 1.89 3.6 3.87 5.13 7.74 5.13 4.59 0 7.74-2.97 7.74-6.75 0-1.26-.72-2.16-1.89-2.16-1.71 0-2.25 2.97-4.77 2.97-1.53 0-2.34-.81-2.34-2.88l-.18-20.88c-.09-10.62-4.86-16.2-16.38-16.2-5.76 0-12.24 1.35-16.02 3.33-1.62.9-1.8 1.98-1.08 3.51l2.25 4.95c.54.99.99 1.62 2.07 1.62.99 0 1.62-.36 2.52-1.62 3.15-4.5 6.39-6.75 10.44-6.75 5.4 0 8.46 2.79 8.46 9.18v3.87c0 .72-.45.99-1.26.9-1.8-.18-4.32-.36-6.48-.36-12.78 0-20.25 5.4-20.25 14.4 0 8.64 5.67 13.05 15.03 13.05zm2.07-6.12c-5.58 0-8.73-2.7-8.73-7.65 0-5.13 3.15-8.73 12.51-8.73 2.25 0 4.32.18 6.03.54.81.18 1.08.54 1.08 1.35v6.48c0 1.71-.36 2.61-1.17 3.6-1.53 1.89-4.68 4.41-9.72 4.41zm58.9 5.22c1.35 0 2.16-.81 2.16-2.16v-.63c0-.9-.45-1.62-1.62-1.98l-1.62-.63c-2.52-1.08-3.15-2.34-2.34-4.59l2.61-7.11c.18-.63.63-.9 1.26-.9h21.78c.63 0 1.08.27 1.26.81l2.97 8.01c.72 1.98.45 2.79-1.8 3.6l-1.71.63c-1.17.36-1.62 1.08-1.62 2.07v.72c0 1.35.81 2.16 2.25 2.16h16.92c1.35 0 2.16-.81 2.16-2.16v-.72c0-.99-.45-1.71-1.62-2.25l-1.89-.81c-2.16-.99-3.33-2.16-4.59-5.31l-19.8-49.86c-.45-1.26-1.44-1.89-2.79-1.89h-10.44c-1.44 0-2.16.63-2.52 1.89l-.18.72c-.36 1.35.09 2.25 1.98 2.97l3.06 1.08c2.07.81 2.88 2.16 1.98 4.5l-15.84 41.58c-.9 2.16-2.16 3.51-4.59 4.5l-1.98.81c-1.17.45-1.62.99-1.62 2.16v.63c0 1.35.81 2.16 2.25 2.16zm2.79-23.49c-.72 0-1.17-.45-.9-1.26l8.55-23.04c.36-.9 1.08-.9 1.44 0l8.73 23.04c.27.81-.09 1.26-.9 1.26zm60.045 23.49c1.35 0 2.16-.81 2.16-2.16v-.63c0-1.26-.63-1.89-1.89-2.25l-1.8-.54c-1.8-.54-2.43-1.44-2.43-3.42v-22.86c0-1.71.45-2.61 2.07-3.51 2.61-1.62 7.38-3.42 11.97-3.42s5.94 2.7 5.94 8.01v28.62c0 1.35.81 2.16 2.16 2.16h9.63c1.35 0 2.16-.81 2.16-2.16v-.63c0-1.26-.63-1.89-1.89-2.25l-1.71-.54c-1.89-.54-2.52-1.44-2.52-3.42v-23.58c0-8.01-3.96-12.6-11.34-12.6-4.86 0-9.72 1.71-14.04 4.41l-1.44.81c-.72.45-1.44.18-1.44-.72v-1.98c0-2.25-1.35-3.06-3.51-2.25l-8.01 3.15c-1.35.45-1.89 1.17-1.89 2.16v.54c0 1.26.54 1.8 1.98 2.16 3.42.81 4.14 1.89 4.14 4.59v23.31c0 1.98-.63 2.88-2.43 3.42l-1.8.54c-1.26.36-1.89.99-1.89 2.25v.63c0 1.35.81 2.16 2.16 2.16zm49.262.9c5.22 0 9.81-1.98 12.69-5.4.54-.63 1.26-.63 1.71.09 1.89 3.6 3.87 5.13 7.74 5.13 4.59 0 7.74-2.97 7.74-6.75 0-1.26-.72-2.16-1.89-2.16-1.71 0-2.25 2.97-4.77 2.97-1.53 0-2.34-.81-2.34-2.88l-.18-20.88c-.09-10.62-4.86-16.2-16.38-16.2-5.76 0-12.24 1.35-16.02 3.33-1.62.9-1.8 1.98-1.08 3.51l2.25 4.95c.54.99.99 1.62 2.07 1.62.99 0 1.62-.36 2.52-1.62 3.15-4.5 6.39-6.75 10.44-6.75 5.4 0 8.46 2.79 8.46 9.18v3.87c0 .72-.45.99-1.26.9-1.8-.18-4.32-.36-6.48-.36-12.78 0-20.25 5.4-20.25 14.4 0 8.64 5.67 13.05 15.03 13.05zm2.07-6.12c-5.58 0-8.73-2.7-8.73-7.65 0-5.13 3.15-8.73 12.51-8.73 2.25 0 4.32.18 6.03.54.81.18 1.08.54 1.08 1.35v6.48c0 1.71-.36 2.61-1.17 3.6-1.53 1.89-4.68 4.41-9.72 4.41zm46.249 5.22c1.35 0 2.16-.9 2.16-2.25v-.54c0-1.26-.54-1.89-1.8-2.25l-1.89-.54c-1.98-.54-2.43-1.8-2.43-3.42v-55.89c0-2.25-1.44-3.15-3.6-2.25l-8.46 3.33c-1.26.45-1.8.99-1.8 2.16v.45c0 1.17.36 1.71 1.98 2.07 3.78.9 4.14 2.52 4.14 4.77v45.36c0 1.89-.63 2.88-2.43 3.42l-1.8.54c-1.26.36-1.89.99-1.89 2.25v.54c0 1.44.9 2.25 2.25 2.25zm18.093 19.35c1.26 0 1.89-.54 2.43-1.71l21.064-50.76c1.62-3.69 2.16-4.68 3.78-5.58l1.62-.72c1.08-.63 1.44-1.08 1.44-2.07v-.63c0-1.35-.72-2.16-2.16-2.16h-11.97c-1.35 0-2.164.81-2.164 2.16v.63c0 .81.364 1.53 1.354 1.89l2.16.81c.99.45 1.35 1.17.9 2.34l-9.814 24.57c-.27.63-.81.54-.99 0l-10.89-30.69c-.45-1.17-1.35-1.71-2.61-1.71h-7.56c-1.44 0-2.25.81-2.25 2.16v.63c0 1.26.54 1.89 1.62 2.34l1.71.63c1.71.63 2.52 2.07 3.87 5.49l10.71 28.44c.9 2.61.9 4.77-.63 7.47l-7.92 13.95c-.81 1.35-.09 2.52 1.53 2.52zm52.364-18.45c9 0 15.57-4.68 15.48-13.14-.09-7.11-4.59-10.8-12.42-13.23l-7.38-2.16c-5.94-1.8-8.46-3.6-8.46-6.93 0-3.06 2.25-5.4 7.38-5.4 4.68 0 8.46 2.7 13.68 8.1.99 1.17 1.98 1.17 3.15.63l.27-.18c1.08-.54 1.44-1.62.81-2.79l-4.95-9.63c-.45-.9-.81-1.26-1.8-1.26-.9 0-1.89.81-3.87.81-2.52 0-4.5-.72-7.38-.72-9.27 0-14.58 4.95-14.58 11.79 0 6.75 4.5 9.99 11.88 12.24l7.38 2.25c5.67 1.71 8.46 3.96 8.46 7.65 0 3.96-2.61 6.48-8.19 6.48-6.12 0-11.52-3.33-16.02-9.81-.9-1.35-2.16-1.53-3.24-.99l-.63.36c-1.17.54-1.53 1.89-.81 3.24l5.67 10.98c.54.99 1.08 1.62 2.34 1.62 1.35 0 2.25-.99 4.32-.99 2.25 0 4.77 1.08 8.91 1.08zm35.04 0c6.66 0 10.44-3.33 10.44-6.66 0-1.08-.72-1.8-1.71-1.8-2.07 0-2.52 2.16-7.11 2.16-2.79 0-4.14-1.35-4.14-4.23v-27.72c0-.63.45-1.08 1.08-1.08h8.73c1.35 0 2.16-.81 2.16-2.16v-1.53c0-1.35-.81-2.16-2.16-2.16h-8.37c-.63 0-1.08-.45-1.08-1.08v-6.39c0-1.44-.9-2.34-2.25-2.34-.99 0-1.89.45-2.7 1.71-2.61 3.69-4.95 6.48-8.01 8.73-1.17.81-1.53 1.53-1.53 2.61v.63c0 1.17.81 1.98 2.16 1.98h3.24c.63 0 1.08.45 1.08 1.08v29.07c0 5.67 3.24 9.18 10.17 9.18zm-460.78 89.1c1.35 0 2.16-.81 2.16-2.16v-.72c0-1.35-.63-1.98-1.8-2.43l-2.61-.9c-1.89-.72-2.52-1.53-2.52-3.42v-43.74c0-1.89.63-2.7 2.52-3.42l2.61-.9c1.17-.45 1.8-1.08 1.8-2.43v-.72c0-1.35-.81-2.16-2.16-2.16h-17.73c-1.35 0-2.16.81-2.16 2.16v.72c0 1.35.63 1.98 1.8 2.43l2.61.9c1.8.72 2.43 1.53 2.43 3.42v43.74c0 1.89-.63 2.7-2.43 3.42l-2.61.9c-1.17.45-1.8 1.08-1.8 2.43v.72c0 1.35.81 2.16 2.16 2.16zm25.9 0c1.35 0 2.16-.81 2.16-2.16v-.63c0-1.26-.63-1.89-1.89-2.25l-1.8-.54c-1.8-.54-2.43-1.44-2.43-3.42v-22.86c0-1.71.45-2.61 2.07-3.51 2.61-1.62 7.38-3.42 11.97-3.42s5.94 2.7 5.94 8.01v28.62c0 1.35.81 2.16 2.16 2.16h9.63c1.35 0 2.16-.81 2.16-2.16v-.63c0-1.26-.63-1.89-1.89-2.25l-1.71-.54c-1.89-.54-2.52-1.44-2.52-3.42v-23.58c0-8.01-3.96-12.6-11.34-12.6-4.86 0-9.72 1.71-14.04 4.41l-1.44.81c-.72.45-1.44.18-1.44-.72v-1.98c0-2.25-1.35-3.06-3.51-2.25l-8.01 3.15c-1.35.45-1.89 1.17-1.89 2.16v.54c0 1.26.54 1.8 1.98 2.16 3.42.81 4.14 1.89 4.14 4.59v23.31c0 1.98-.63 2.88-2.43 3.42l-1.8.54c-1.26.36-1.89.99-1.89 2.25v.63c0 1.35.81 2.16 2.16 2.16zm48.554.9c6.66 0 10.44-3.33 10.44-6.66 0-1.08-.72-1.8-1.71-1.8-2.07 0-2.52 2.16-7.11 2.16-2.79 0-4.14-1.35-4.14-4.23v-27.72c0-.63.45-1.08 1.08-1.08h8.73c1.35 0 2.16-.81 2.16-2.16v-1.53c0-1.35-.81-2.16-2.16-2.16h-8.37c-.63 0-1.08-.45-1.08-1.08v-6.39c0-1.44-.9-2.34-2.25-2.34-.99 0-1.89.45-2.7 1.71-2.61 3.69-4.95 6.48-8.01 8.73-1.17.81-1.53 1.53-1.53 2.61v.63c0 1.17.81 1.98 2.16 1.98h3.24c.63 0 1.08.45 1.08 1.08v29.07c0 5.67 3.24 9.18 10.17 9.18zm52.63-13.32c-1.17-.81-2.43-.27-3.6.99-2.25 2.7-6.21 4.86-11.88 4.86-7.29 0-12.33-4.23-14.4-10.44-.18-.63 0-1.17.63-1.44l26.73-9.9c1.35-.45 1.98-1.26 1.62-2.97-1.98-8.91-8.91-13.86-17.82-13.86-11.61 0-20.61 9-20.61 23.04 0 13.95 9.36 23.04 21.96 23.04 9.9 0 15.66-4.86 17.73-9.63.81-1.89.72-3.06-.36-3.69zm-18.99-26.91c4.05 0 7.65 2.07 9.09 6.3.36 1.08-.18 1.44-.99 1.71l-19.44 7.38c-.72.36-1.08.09-1.17-.45-.09-.45-.09-.9-.09-1.08 0-8.55 5.49-13.86 12.6-13.86zm42.178 39.33c1.35 0 2.16-.81 2.16-2.16v-.63c0-1.44-.72-2.07-1.8-2.25l-2.79-.54c-1.8-.45-2.43-1.53-2.43-3.42v-21.51c0-4.23 1.89-6.12 5.49-6.12 2.07 0 3.6.81 5.13 1.89 1.44.81 1.89 1.17 2.97 1.17s2.07-.72 2.07-2.34v-6.12c0-1.98-.81-2.97-2.88-2.97-3.69 0-8.28 2.16-11.43 4.95-.9.9-1.8.45-1.8-.45v-2.16c0-2.25-1.35-3.06-3.51-2.25l-8.01 3.15c-1.35.45-1.89 1.17-1.89 2.16v.54c0 1.26.54 1.8 1.98 2.16 3.42.81 4.14 1.89 4.14 4.59v23.31c0 1.98-.63 2.88-2.43 3.42l-1.8.54c-1.26.36-1.89.99-1.89 2.25v.63c0 1.35.81 2.16 2.16 2.16zm37.8 0c1.17 0 1.98-.45 2.52-1.8l11.79-31.32c1.35-3.69 2.34-5.04 3.96-5.67l1.62-.63c.9-.45 1.44-.99 1.44-2.07v-.63c0-1.35-.81-2.16-2.16-2.16h-12.42c-1.35 0-2.25.81-2.25 2.16v.63c0 .81.36 1.53 1.44 1.89l2.16.81c1.08.45 1.35 1.17.9 2.43l-8.73 24.57c-.36.99-1.08.9-1.44 0l-10.98-30.78c-.45-1.26-1.17-1.71-2.43-1.71h-7.47c-1.35 0-2.16.81-2.16 2.16v.63c0 1.26.45 1.8 1.53 2.34l1.71.72c1.53.63 2.34 1.89 3.78 5.49l11.88 31.23c.54 1.26 1.53 1.71 2.7 1.71zm31.958-52.83c3.51 0 6.03-2.43 6.03-5.58s-2.52-5.58-6.03-5.58-6.03 2.43-6.03 5.58c0 3.06 2.52 5.58 6.03 5.58zm8.82 52.83c1.35 0 2.16-.81 2.16-2.16v-.63c0-1.26-.63-1.89-1.89-2.25l-1.8-.54c-1.8-.54-2.43-1.44-2.43-3.42v-33.66c0-2.25-1.35-3.06-3.6-2.25l-8.37 3.33c-1.35.45-1.89 1.17-1.89 2.16v.54c0 1.26.54 1.8 1.98 2.16 3.42.81 4.14 1.89 4.14 4.59v23.13c0 1.98-.63 2.88-2.43 3.42l-1.8.54c-1.26.36-1.89.99-1.89 2.25v.63c0 1.35.81 2.16 2.16 2.16zm45.876-12.42c-1.17-.81-2.43-.27-3.6.99-2.25 2.7-6.21 4.86-11.88 4.86-7.29 0-12.33-4.23-14.4-10.44-.18-.63 0-1.17.63-1.44l26.73-9.9c1.35-.45 1.98-1.26 1.62-2.97-1.98-8.91-8.91-13.86-17.82-13.86-11.61 0-20.61 9-20.61 23.04 0 13.95 9.36 23.04 21.96 23.04 9.9 0 15.66-4.86 17.73-9.63.81-1.89.72-3.06-.36-3.69zm-18.99-26.91c4.05 0 7.65 2.07 9.09 6.3.36 1.08-.18 1.44-.99 1.71l-19.44 7.38c-.72.36-1.08.09-1.17-.45-.09-.45-.09-.9-.09-1.08 0-8.55 5.49-13.86 12.6-13.86zm42.448 39.33c1.26 0 1.98-.45 2.43-1.8l9-26.37c.27-.81 1.08-.81 1.35 0l8.91 26.37c.45 1.35 1.35 1.8 2.43 1.8h2.97c1.17 0 1.98-.45 2.43-1.8l9.99-31.41c1.26-3.69 2.25-4.95 3.87-5.67l1.62-.63c.99-.36 1.44-.9 1.44-2.07v-.54c0-1.35-.72-2.16-2.25-2.16h-11.88c-1.35 0-2.25.81-2.25 2.16v.54c0 .9.36 1.53 1.35 1.89l2.16.81c.99.45 1.17 1.17.9 2.25l-7.47 24.21c-.36 1.17-1.08 1.08-1.44.09l-9.99-30.15c-.36-1.17-1.08-1.8-2.43-1.8h-7.65c-1.35 0-2.16.81-2.16 2.16v.63c0 .9.36 1.44 1.44 1.8l2.43 1.08c1.17.45 1.53 1.26 1.08 2.7l-8.1 23.58c-.36.99-1.17.99-1.44-.09l-9.27-30.06c-.36-1.17-1.08-1.8-2.43-1.8h-7.65c-1.35 0-2.16.81-2.16 2.16v.63c0 1.26.45 1.89 1.53 2.25l1.71.63c1.89.72 2.79 1.98 3.87 5.58l10.26 31.23c.45 1.35 1.35 1.8 2.52 1.8zm121.926 4.05c5.04 0 9-3.15 9-7.65 0-1.62-.99-2.61-2.16-2.61-1.98 0-2.7 2.34-6.57 2.34-2.07 0-4.32-.99-6.66-3.06-.54-.45-.54-1.08-.09-1.62 5.31-5.58 8.55-13.59 8.55-22.95 0-19.08-13.14-32.4-30.69-32.4-17.456 0-30.596 13.32-30.596 32.4s13.14 32.4 30.596 32.4c5.4 0 10.26-1.26 14.58-3.51.54-.27.99-.18 1.53.27 4.68 4.95 8.46 6.39 12.51 6.39zm-12.87-17.64c-7.2-8.28-12.06-11.25-18.45-11.25-4.856 0-9.986 2.52-13.406 6.75-.54.63-1.26.63-1.62 0-2.79-4.86-4.14-10.8-4.14-16.92 0-14.22 8.73-21.96 19.796-21.96 15.39 0 24.03 14.04 24.03 28.89 0 6.03-1.71 10.98-4.77 14.58-.45.54-.9.54-1.44-.09zm-13.59 7.56c-6.026 0-11.156-2.16-14.936-5.67-.45-.45-.54-.99-.18-1.44 3.06-3.87 6.3-5.67 9.896-5.67 4.5 0 7.2 2.07 13.68 9.72.45.54.36 1.17-.36 1.53-2.43.99-5.13 1.53-8.1 1.53zm53.62 6.93c4.95 0 9.9-1.44 13.23-4.05l1.26-.99c.72-.54 1.35-.27 1.53.72l.18 1.17c.18 1.53.9 2.25 2.43 2.25h8.55c1.35 0 2.25-.81 2.25-2.25v-.54c0-1.44-.81-1.98-2.16-2.34l-1.62-.45c-1.89-.54-2.52-1.53-2.52-3.33v-33.75c0-2.43-1.44-3.06-3.42-2.25l-8.46 3.33c-1.62.63-1.89 1.26-1.89 2.16v.45c0 1.26.54 1.89 1.98 2.16 3.42.72 4.14 1.62 4.14 4.41v19.71c0 1.71-.45 2.52-1.98 3.69-2.79 2.07-7.02 3.51-11.43 3.51-5.31 0-6.57-2.52-6.57-7.65v-29.52c0-2.34-1.53-3.06-3.51-2.25l-8.55 3.33c-1.71.63-1.89 1.26-1.89 2.16v.45c0 1.17.54 1.89 1.89 2.16 3.51.72 4.23 1.62 4.23 4.41v20.88c0 7.56 3.15 12.42 12.33 12.42zm73.15-13.32c-1.17-.81-2.43-.27-3.6.99-2.25 2.7-6.21 4.86-11.88 4.86-7.29 0-12.33-4.23-14.4-10.44-.18-.63 0-1.17.63-1.44l26.73-9.9c1.35-.45 1.98-1.26 1.62-2.97-1.98-8.91-8.91-13.86-17.82-13.86-11.61 0-20.61 9-20.61 23.04 0 13.95 9.36 23.04 21.96 23.04 9.9 0 15.66-4.86 17.73-9.63.81-1.89.72-3.06-.36-3.69zm-18.99-26.91c4.05 0 7.65 2.07 9.09 6.3.36 1.08-.18 1.44-.99 1.71l-19.44 7.38c-.72.36-1.08.09-1.17-.45-.09-.45-.09-.9-.09-1.08 0-8.55 5.49-13.86 12.6-13.86zm44.24 40.23c9 0 15.57-4.68 15.48-13.14-.09-7.11-4.59-10.8-12.42-13.23l-7.38-2.16c-5.94-1.8-8.46-3.6-8.46-6.93 0-3.06 2.25-5.4 7.38-5.4 4.68 0 8.46 2.7 13.68 8.1.99 1.17 1.98 1.17 3.15.63l.27-.18c1.08-.54 1.44-1.62.81-2.79l-4.95-9.63c-.45-.9-.81-1.26-1.8-1.26-.9 0-1.89.81-3.87.81-2.52 0-4.5-.72-7.38-.72-9.27 0-14.58 4.95-14.58 11.79 0 6.75 4.5 9.99 11.88 12.24l7.38 2.25c5.67 1.71 8.46 3.96 8.46 7.65 0 3.96-2.61 6.48-8.19 6.48-6.12 0-11.52-3.33-16.02-9.81-.9-1.35-2.16-1.53-3.24-.99l-.63.36c-1.17.54-1.53 1.89-.81 3.24l5.67 10.98c.54.99 1.08 1.62 2.34 1.62 1.35 0 2.25-.99 4.32-.99 2.25 0 4.77 1.08 8.91 1.08zm35.04 0c6.66 0 10.44-3.33 10.44-6.66 0-1.08-.72-1.8-1.71-1.8-2.07 0-2.52 2.16-7.11 2.16-2.79 0-4.14-1.35-4.14-4.23v-27.72c0-.63.45-1.08 1.08-1.08h8.73c1.35 0 2.16-.81 2.16-2.16v-1.53c0-1.35-.81-2.16-2.16-2.16h-8.37c-.63 0-1.08-.45-1.08-1.08v-6.39c0-1.44-.9-2.34-2.25-2.34-.99 0-1.89.45-2.7 1.71-2.61 3.69-4.95 6.48-8.01 8.73-1.17.81-1.53 1.53-1.53 2.61v.63c0 1.17.81 1.98 2.16 1.98h3.24c.63 0 1.08.45 1.08 1.08v29.07c0 5.67 3.24 9.18 10.17 9.18zm22.92-53.73c3.51 0 6.03-2.43 6.03-5.58s-2.52-5.58-6.03-5.58-6.03 2.43-6.03 5.58c0 3.06 2.52 5.58 6.03 5.58zm8.82 52.83c1.35 0 2.16-.81 2.16-2.16v-.63c0-1.26-.63-1.89-1.89-2.25l-1.8-.54c-1.8-.54-2.43-1.44-2.43-3.42v-33.66c0-2.25-1.35-3.06-3.6-2.25l-8.37 3.33c-1.35.45-1.89 1.17-1.89 2.16v.54c0 1.26.54 1.8 1.98 2.16 3.42.81 4.14 1.89 4.14 4.59v23.13c0 1.98-.63 2.88-2.43 3.42l-1.8.54c-1.26.36-1.89.99-1.89 2.25v.63c0 1.35.81 2.16 2.16 2.16zm28.15.9c12.24 0 21.6-9.36 21.6-23.04s-9.36-23.04-21.6-23.04-21.6 9.36-21.6 23.04 9.36 23.04 21.6 23.04zm1.35-6.57c-9.72 0-15.12-8.55-15.12-18.63 0-9.09 5.22-14.31 12.42-14.31 9.81 0 15.12 8.55 15.12 18.54 0 9.18-5.22 14.4-12.42 14.4zm43.67 5.67c1.35 0 2.16-.81 2.16-2.16v-.63c0-1.26-.63-1.89-1.89-2.25l-1.8-.54c-1.8-.54-2.43-1.44-2.43-3.42v-22.86c0-1.71.45-2.61 2.07-3.51 2.61-1.62 7.38-3.42 11.97-3.42s5.94 2.7 5.94 8.01v28.62c0 1.35.81 2.16 2.16 2.16h9.63c1.35 0 2.16-.81 2.16-2.16v-.63c0-1.26-.63-1.89-1.89-2.25l-1.71-.54c-1.89-.54-2.52-1.44-2.52-3.42v-23.58c0-8.01-3.96-12.6-11.34-12.6-4.86 0-9.72 1.71-14.04 4.41l-1.44.81c-.72.45-1.44.18-1.44-.72v-1.98c0-2.25-1.35-3.06-3.51-2.25l-8.01 3.15c-1.35.45-1.89 1.17-1.89 2.16v.54c0 1.26.54 1.8 1.98 2.16 3.42.81 4.14 1.89 4.14 4.59v23.31c0 1.98-.63 2.88-2.43 3.42l-1.8.54c-1.26.36-1.89.99-1.89 2.25v.63c0 1.35.81 2.16 2.16 2.16zm55.21.9c9 0 15.57-4.68 15.48-13.14-.09-7.11-4.59-10.8-12.42-13.23l-7.38-2.16c-5.94-1.8-8.46-3.6-8.46-6.93 0-3.06 2.25-5.4 7.38-5.4 4.68 0 8.46 2.7 13.68 8.1.99 1.17 1.98 1.17 3.15.63l.27-.18c1.08-.54 1.44-1.62.81-2.79l-4.95-9.63c-.45-.9-.81-1.26-1.8-1.26-.9 0-1.89.81-3.87.81-2.52 0-4.5-.72-7.38-.72-9.27 0-14.58 4.95-14.58 11.79 0 6.75 4.5 9.99 11.88 12.24l7.38 2.25c5.67 1.71 8.46 3.96 8.46 7.65 0 3.96-2.61 6.48-8.19 6.48-6.12 0-11.52-3.33-16.02-9.81-.9-1.35-2.16-1.53-3.24-.99l-.63.36c-1.17.54-1.53 1.89-.81 3.24l5.67 10.98c.54.99 1.08 1.62 2.34 1.62 1.35 0 2.25-.99 4.32-.99 2.25 0 4.77 1.08 8.91 1.08z" fill="#043f2e"/><path clip-rule="evenodd" d="m571 863c-8.284 0-15 6.716-15 15v126c0 8.28 6.716 15 15 15h496c8.28 0 15 6.72 15 15v148c0 8.28 6.72 15 15 15h298c8.28 0 15-6.72 15-15v-178-126c0-.518-.03-1.029-.08-1.534-.77-7.564-7.15-13.466-14.92-13.466h-298z" fill="#fcfcfc" fill-rule="evenodd"/><path d="m454.152 1241h-185.741c-15.366 0-27.825 12.47-27.825 27.84v90.18c0 15.38 12.459 27.84 27.825 27.84h116.187l83.772 53.14-15.082-53.14h.859c15.366 0 27.826-12.46 27.826-27.84v-90.18c0-15.37-12.46-27.84-27.826-27.84z" fill="#00402d" stroke="#a58eff" stroke-miterlimit="10" stroke-width="3"/><path d="m285.566 1186h-185.7402c-15.3662 0-27.8258 12.47-27.8258 27.84v90.18c0 15.38 12.4596 27.84 27.8258 27.84h6.3922l-15.0814 53.14 83.7724-53.14h110.652c15.366 0 27.826-12.46 27.826-27.84v-90.18c0-15.37-12.46-27.84-27.826-27.84z" fill="#00402d" stroke="#a58eff" stroke-miterlimit="10" stroke-width="3"/><path d="m429.948 1277.73c.81 0 1.586.32 2.158.9.572.57.894 1.34.894 2.15v4.57c0 .81-.322 1.58-.894 2.15-.572.58-1.348.9-2.158.9h-24.796c-.81 0-1.586.32-2.158.89s-.894 1.35-.894 2.15v10.67c0 .8.322 1.58.894 2.15s1.348.89 2.158.89h24.796c.81 0 1.586.32 2.158.9.572.57.894 1.34.894 2.15v41.93c0 .81-.322 1.58-.894 2.15s-1.348.9-2.158.9l-25.868.09c-2.512.01-5.001-.48-7.325-1.43s-4.437-2.35-6.217-4.12-3.192-3.87-4.156-6.19c-.964-2.31-1.46-4.8-1.46-7.3v-41.26c0-4.04 1.608-7.92 4.469-10.77 2.862-2.86 6.743-4.47 10.79-4.47z" fill="#a68fff"/><path d="m375.015 1277.73c.809 0 1.585.32 2.158.9.572.57.894 1.34.894 2.15v4.57c0 .81-.322 1.58-.894 2.15-.573.58-1.349.9-2.158.9h-24.797c-.809 0-1.585.32-2.158.89-.572.57-.893 1.35-.893 2.15v10.67c0 .8.321 1.58.893 2.15.573.57 1.349.89 2.158.89h24.797c.809 0 1.585.32 2.158.9.572.57.894 1.34.894 2.15v41.93c0 .81-.322 1.58-.894 2.15-.573.57-1.349.9-2.158.9l-25.868.09c-2.511.01-5-.48-7.322-1.43-2.323-.95-4.434-2.36-6.213-4.12-1.779-1.77-3.19-3.88-4.153-6.19-.963-2.32-1.459-4.8-1.459-7.3v-41.26c0-4.04 1.608-7.92 4.469-10.77 2.862-2.86 6.743-4.47 10.79-4.47z" fill="#a68fff"/><path d="m190.406 1283.8h-9.152c-5.737 0-10.387 4.64-10.387 10.37v9.13c0 5.73 4.65 10.37 10.387 10.37h9.152c5.737 0 10.387-4.64 10.387-10.37v-9.13c0-5.73-4.65-10.37-10.387-10.37z" fill="#a68fff"/><path d="m170.962 1250.53v-44.81c0-2.06 1.667-3.72 3.725-3.72h39.087c11.476 0 20.783 9.28 20.783 20.74v39.68c0 9.7-7.881 18.39-17.599 18.39h-42.355c-2.011 0-3.641-1.62-3.641-3.63v-4.3c0-2.05 1.663-3.7 3.712-3.7h28.684c2.685 0 4.863-2.18 4.863-4.86v-5.13c0-2.72-2.207-4.93-4.934-4.93h-28.588c-2.066 0-3.741-1.67-3.741-3.73z" fill="#a68fff"/><path d="m2974 0h-1440v750h1440z" fill="#c8f169"/><path clip-rule="evenodd" d="m2441 208h-161c-8.28 0-15 6.716-15 15v126c0 8.284 6.72 15 15 15h146c8.28 0 15 6.716 15 15v148c0 8.284 6.72 15 15 15h122c8.28 0 15-6.716 15-15v-163-141c0-8.284-6.72-15-15-15z" fill="#2a6f2b" fill-rule="evenodd"/><path clip-rule="evenodd" d="m2242 386h-663c-8.28 0-15 6.716-15 15v141 163c0 8.284 6.72 15 15 15h648c8.28 0 15-6.716 15-15v-148c0-8.284 6.72-15 15-15h146c8.28 0 15-6.716 15-15v-126c0-8.284-6.72-15-15-15z" fill="#043f2e" fill-rule="evenodd"/><path clip-rule="evenodd" d="m2242 29h336c8.28 0 15 6.7157 15 15v126c0 8.284-6.72 15-15 15h-321c-8.28 0-15 6.716-15 15v149c0 8.284-6.72 15-15 15h-648c-8.28 0-15-6.716-15-15v-164-141c0-8.2843 6.72-15 15-15z" fill="#7ea6f3" fill-rule="evenodd"/><path clip-rule="evenodd" d="m2944 223c0-8.284-6.72-15-15-15h-298c-8.28 0-15 6.716-15 15v327c0 8.284-6.72 15-15 15h-321c-8.28 0-15 6.716-15 15v125c0 8.284 6.72 15 15 15h336 313c8.28 0 15-6.716 15-15z" fill="#78c51c" fill-rule="evenodd"/><path d="m2741.61 135.008c0-.879 0-1.317-.08-1.678-.14-.564-.43-1.08-.84-1.49-.41-.411-.93-.7-1.49-.835-.37-.086-.81-.086-1.68-.086h-2.85c-.88 0-1.32 0-1.68-.089-.57-.135-1.08-.424-1.49-.834-.42-.41-.7-.925-.84-1.489-.09-.363-.09-.801-.09-1.678v-21.182c0-.879 0-1.317.09-1.678.14-.564.43-1.08.84-1.49s.92-.699 1.49-.834c.36-.088.8-.088 1.68-.086h2.84c.88 0 1.32 0 1.69-.086.56-.135 1.08-.424 1.49-.834s.7-.9255.84-1.4897c.08-.3628.08-.8012.08-1.6778v-30.3767c0-.8766 0-1.317-.08-1.6778-.14-.5642-.43-1.0801-.84-1.4906s-.93-.6995-1.49-.8352c-.37-.086-.81-.086-1.68-.086h-17.89c-.37-.0139-.73.0001-1.09.0419-.81.1336-1.53.5734-2.02 1.2269-.2.3025-.38.6201-.54.9501l-17.13 33.2541-16.92-33.2352c-.15-.3328-.33-.6533-.53-.9585-.49-.6589-1.21-1.1027-2.02-1.2374-.37-.0418-.73-.0558-1.1-.0419h-24.17c-.87 0-1.31 0-1.68.086-.57.1329-1.09.4208-1.5.8314-.41.4107-.7.9281-.84 1.4944-.09.3608-.09.8012-.09 1.6778v13.7895c0 .8767 0 1.315.09 1.6778.13.5639.42 1.0794.83 1.4894.42.4101.93.6989 1.5.8344.36.088.8.0881 1.68.0881h2.74c.88 0 1.32 0 1.68.0859.57.1357 1.08.4248 1.5.8352.41.4105.7.9264.83 1.4907.09.3607.09.799.09 1.6778v20.0434c0 .877 0 1.315-.09 1.678-.13.564-.42 1.079-.83 1.489-.42.41-.93.699-1.5.835-.36.088-.8.088-1.68.088h-2.74c-.87 0-1.31 0-1.68.086-.56.134-1.08.423-1.49.833-.42.411-.71.927-.84 1.493-.09.36-.09.799-.09 1.677v33.059c0 .877 0 1.315.09 1.678.13.564.42 1.08.83 1.49.42.41.93.698 1.5.834.36.088.8.088 1.68.088h24.72c.88 0 1.32 0 1.68-.088.57-.136 1.08-.424 1.49-.834s.7-.926.84-1.49c.08-.363.08-.801.08-1.678v-15.337c0-.879 0-1.317-.08-1.678-.14-.564-.43-1.08-.84-1.49-.41-.411-.92-.7-1.49-.835-.36-.086-.8-.086-1.68-.086h-2.72c-.87 0-1.31 0-1.68-.089-.56-.135-1.08-.424-1.49-.834s-.7-.925-.84-1.489c-.08-.363-.08-.801-.08-1.678v-31.0794l17.84 35.2344c.47.931.7 1.396.95 1.637.39.379.91.594 1.45.599.54.006 1.07-.198 1.46-.569.26-.239.5-.699.99-1.619l19.79-37.2957v33.0927c0 .877 0 1.315-.08 1.678-.14.564-.43 1.08-.84 1.49s-.93.699-1.49.833c-.37.089-.81.089-1.69.089h-5.28c-.88 0-1.32 0-1.68.086-.57.135-1.08.424-1.5.835-.41.41-.7.926-.83 1.49-.09.361-.09.799-.09 1.678v15.337c0 .877 0 1.315.09 1.678.13.564.42 1.08.83 1.49.42.41.93.698 1.5.834.36.088.8.088 1.68.088h32.4c.88 0 1.32 0 1.69-.088.56-.136 1.08-.424 1.49-.834s.7-.926.83-1.49c.09-.363.09-.801.09-1.678z" fill="#043f2e"/><path d="m2803.56 96.9219c-.82-2.5184-2.22-4.8073-4.1-6.6794-1.88-1.8722-4.17-3.2744-6.7-4.0921-2.52-.8221-5.66-.8221-11.91-.8221h-9.35c-6.26 0-9.39 0-11.92.8221-2.52.818-4.82 2.2203-6.69 4.0925-1.88 1.8721-3.29 4.1608-4.11 6.679-.82 2.5167-.82 5.6501-.82 11.8961v22.193c0 6.245 0 9.368.82 11.895.82 2.519 2.23 4.808 4.11 6.681 1.87 1.872 4.17 3.275 6.69 4.093 2.52.82 5.66.82 11.92.82h9.35c6.26 0 9.39 0 11.92-.82 2.52-.818 4.81-2.221 6.69-4.093s3.28-4.161 4.1-6.679c.82-2.516.82-5.65.82-11.895v-22.195c0-6.246 0-9.3689-.82-11.8961zm-11.64 24.0791c0 2.655 0 3.984-.35 5.056-.34 1.07-.94 2.043-1.74 2.838-.8.796-1.77 1.392-2.84 1.74-1.08.348-2.41.348-5.07.348h-11.51c-2.66 0-4 0-5.07-.348-1.07-.347-2.05-.944-2.84-1.739-.8-.796-1.4-1.769-1.75-2.839-.34-1.074-.34-2.401-.34-5.056v-2.056c0-2.653 0-3.985.34-5.054.35-1.07.95-2.043 1.75-2.839.79-.796 1.77-1.392 2.84-1.739 1.08-.351 2.41-.351 5.07-.351h11.51c2.66 0 3.99 0 5.07.351 1.07.348 2.04.944 2.84 1.739.8.796 1.4 1.769 1.74 2.839.35 1.074.35 2.401.35 5.054z" fill="#043f2e"/><path d="m2868.62 64.7434c-.12-.3777-.33-.7209-.61-1.0016-.29-.2807-.63-.4908-1.01-.6133-.38-.1237-.84-.1237-1.79-.1237h-9.85c-.94 0-1.41 0-1.79.1237-.37.1225-.72.3326-1 .6133s-.49.6239-.62 1.0016c-.12.3796-.12.8389-.12 1.7847v14.3306c0 1.1703 0 1.7554-.15 2.2294-.16.4721-.42.9012-.77 1.2522s-.78.614-1.26.7674c-.47.1552-1.05.1552-2.23.1552h-11.56c-6.26 0-9.39 0-11.92.8201-2.52.8181-4.82 2.2208-6.69 4.0933-1.88 1.8725-3.28 4.1617-4.1 6.6803-.83 2.5272-.83 5.6504-.83 11.8954v22.202c0 6.245 0 9.368.83 11.895.82 2.516 2.23 4.801 4.1 6.67 1.88 1.869 4.17 3.269 6.69 4.085 2.53.822 5.66.822 11.92.822h9.36c6.25 0 9.38 0 11.91-.822 2.53-.818 4.82-2.22 6.7-4.092 1.87-1.872 3.28-4.161 4.1-6.679.82-2.517.82-5.65.82-11.896v-64.4089c0-.9374 0-1.4051-.13-1.7847zm-13.91 56.1916c0 2.655 0 3.985-.35 5.057-.35 1.07-.95 2.042-1.75 2.837-.79.796-1.77 1.391-2.84 1.739-1.08.35-2.41.35-5.07.35h-9.91c-2.66 0-3.99 0-5.06-.35-1.08-.346-2.06-.941-2.86-1.736-.8-.796-1.4-1.769-1.75-2.84-.35-1.076-.35-2.402-.35-5.057v-2.055c0-2.655 0-3.985.35-5.057.35-1.07.95-2.043 1.75-2.838.79-.796 1.77-1.392 2.84-1.74 1.08-.348 2.41-.348 5.07-.348h9.93c2.66 0 3.99 0 5.06.348 1.08.348 2.05.944 2.85 1.74.79.795 1.39 1.768 1.74 2.838.35 1.074.35 2.402.35 5.057z" fill="#043f2e"/><path d="m2899.87 138.504c-2.66 0-3.99 0-5.07-.348-1.07-.348-2.04-.944-2.84-1.739-.8-.796-1.39-1.769-1.74-2.839-.22-.684-.3-1.468-.33-2.643h40.17c.78 0 1.53-.309 2.08-.86.55-.55.86-1.297.86-2.076v-19.123c0-6.245 0-9.3681-.82-11.8953-.82-2.5182-2.23-4.8069-4.1-6.679-1.88-1.8722-4.17-3.2746-6.7-4.0925-2.52-.8221-5.66-.8221-11.91-.8221h-9.36c-6.25 0-9.38 0-11.92.8221-2.52.818-4.81 2.2202-6.69 4.0919-1.87 1.8718-3.28 4.1599-4.1 6.6775-.82 2.5272-.82 5.6504-.82 11.8954v22.195c0 6.246 0 9.369.82 11.896.82 2.518 2.23 4.807 4.1 6.68 1.88 1.872 4.17 3.275 6.69 4.094 2.53.82 5.67.82 11.92.82h16.81c3.75-.001 7.38-1.306 10.27-3.692 2.88-2.386 4.84-5.702 5.54-9.376.07-.364.06-.739-.03-1.098-.1-.359-.27-.693-.5-.978-.24-.285-.54-.515-.87-.672-.34-.158-.71-.239-1.08-.239zm-9.65-24.684c.35-1.071.94-2.043 1.74-2.839s1.77-1.392 2.84-1.74c1.08-.35 2.41-.35 5.07-.35h9.84c2.66 0 3.99 0 5.06.35 1.07.348 2.05.944 2.85 1.74.79.796 1.39 1.768 1.74 2.839.35 1.073.35 2.401.35 5.054v1.158h-29.84v-1.158c0-2.653 0-3.981.35-5.054z" fill="#043f2e"/><path d="m1661.4 542c1.4 0 2.3-.7 2.7-2l14.1-47.7c.3-1.2 1.3-1.2 1.6 0l13.5 47.7c.4 1.4 1.3 2 2.7 2h3.7c1.4 0 2.4-.7 2.8-2l16.1-56.1c.8-2.8 2.2-4.1 4.9-5.4l1.8-.8c1.3-.7 1.8-1.2 1.8-2.5v-.8c0-1.5-.9-2.4-2.4-2.4h-17.1c-1.5 0-2.4.9-2.4 2.4v.7c0 1.1.5 1.7 1.8 2.3l1.8.8c2.8 1.2 3.3 2.4 2.6 4.9l-11.7 41.8c-.3 1-1.3 1-1.6 0l-14.5-50.9c-.4-1.3-1.1-2-2.5-2h-11.4c-1.5 0-2.4.9-2.4 2.4v.7c0 1.1.5 1.7 1.8 2.3l2.2 1c2.8 1.2 3.3 2.2 2.4 5.1l-12.5 41.4c-.3 1-1.2 1-1.5 0l-12.5-42.5c-.6-2.2-.1-3.1 2-4l1.9-.8c1.3-.6 1.8-1.3 1.8-2.4v-.8c0-1.5-.9-2.4-2.5-2.4h-18.2c-1.5 0-2.4.9-2.4 2.4v.8c0 1.1.5 1.8 1.8 2.4l1.8 1c2.3 1.3 4 2.6 5 6l16.5 55.4c.4 1.4 1.4 2 2.8 2zm87.48 0c1.5 0 2.4-.9 2.4-2.4v-.7c0-1.4-.7-2.1-2.1-2.5l-2-.6c-2-.6-2.7-1.6-2.7-3.8v-25.5c0-1.9.5-2.9 2.3-3.9 2.9-1.8 8.2-3.7 13.3-3.7s6.6 2.9 6.6 8.8v31.9c0 1.5.9 2.4 2.4 2.4h10.7c1.5 0 2.4-.9 2.4-2.4v-.7c0-1.4-.7-2.1-2.1-2.5l-1.9-.6c-2.1-.6-2.8-1.6-2.8-3.8v-26.2c0-9-4.4-14.1-12.6-14.1-5.5 0-10.3 1.6-15.2 4.7l-1.4.9c-.8.5-1.7.3-1.7-.7v-26.8c0-2.5-1.7-3.3-3.9-2.4l-9.4 3.7c-1.4.5-2 1.1-2 2.4v.6c0 1.3.6 2 2.1 2.3 3.8.8 4.6 2.1 4.6 5.2v50.4c0 2.2-.7 3.2-2.7 3.8l-2 .6c-1.4.4-2.1 1.1-2.1 2.5v.7c0 1.5.9 2.4 2.4 2.4zm54.67 1c5.8 0 10.9-2.2 14.1-6 .6-.7 1.4-.7 1.9.1 2.1 4 4.3 5.7 8.6 5.7 5.1 0 8.6-3.3 8.6-7.5 0-1.4-.8-2.4-2.1-2.4-1.9 0-2.5 3.3-5.3 3.3-1.7 0-2.6-.9-2.6-3.2l-.2-23.2c-.1-11.8-5.4-18-18.2-18-6.4 0-13.6 1.5-17.8 3.7-1.8 1-2 2.2-1.2 3.9l2.5 5.5c.6 1.1 1.1 1.8 2.3 1.8 1.1 0 1.8-.4 2.8-1.8 3.5-5 7.1-7.5 11.6-7.5 6 0 9.4 3.1 9.4 10.2v4.3c0 .8-.5 1.1-1.4 1-2-.2-4.8-.4-7.2-.4-14.2 0-22.5 6-22.5 16 0 9.6 6.3 14.5 16.7 14.5zm2.3-6.8c-6.2 0-9.7-3-9.7-8.5 0-5.7 3.5-9.7 13.9-9.7 2.5 0 4.8.2 6.7.6.9.2 1.2.6 1.2 1.5v7.2c0 1.9-.4 2.9-1.3 4-1.7 2.1-5.2 4.9-10.8 4.9zm49.09 6.8c7.4 0 11.6-3.7 11.6-7.4 0-1.2-.8-2-1.9-2-2.3 0-2.8 2.4-7.9 2.4-3.1 0-4.6-1.5-4.6-4.7v-30.8c0-.7.5-1.2 1.2-1.2h9.7c1.5 0 2.4-.9 2.4-2.4v-1.7c0-1.5-.9-2.4-2.4-2.4h-9.3c-.7 0-1.2-.5-1.2-1.2v-7.1c0-1.6-1-2.6-2.5-2.6-1.1 0-2.1.5-3 1.9-2.9 4.1-5.5 7.2-8.9 9.7-1.3.9-1.7 1.7-1.7 2.9v.7c0 1.3.9 2.2 2.4 2.2h3.6c.7 0 1.2.5 1.2 1.2v32.3c0 6.3 3.6 10.2 11.3 10.2zm40.92-59.7c3.9 0 6.7-2.7 6.7-6.2s-2.8-6.2-6.7-6.2-6.7 2.7-6.7 6.2c0 3.4 2.8 6.2 6.7 6.2zm9.8 58.7c1.5 0 2.4-.9 2.4-2.4v-.7c0-1.4-.7-2.1-2.1-2.5l-2-.6c-2-.6-2.7-1.6-2.7-3.8v-37.4c0-2.5-1.5-3.4-4-2.5l-9.3 3.7c-1.5.5-2.1 1.3-2.1 2.4v.6c0 1.4.6 2 2.2 2.4 3.8.9 4.6 2.1 4.6 5.1v25.7c0 2.2-.7 3.2-2.7 3.8l-2 .6c-1.4.4-2.1 1.1-2.1 2.5v.7c0 1.5.9 2.4 2.4 2.4zm30.58 1c10 0 17.3-5.2 17.2-14.6-.1-7.9-5.1-12-13.8-14.7l-8.2-2.4c-6.6-2-9.4-4-9.4-7.7 0-3.4 2.5-6 8.2-6 5.2 0 9.4 3 15.2 9 1.1 1.3 2.2 1.3 3.5.7l.3-.2c1.2-.6 1.6-1.8.9-3.1l-5.5-10.7c-.5-1-.9-1.4-2-1.4-1 0-2.1.9-4.3.9-2.8 0-5-.8-8.2-.8-10.3 0-16.2 5.5-16.2 13.1 0 7.5 5 11.1 13.2 13.6l8.2 2.5c6.3 1.9 9.4 4.4 9.4 8.5 0 4.4-2.9 7.2-9.1 7.2-6.8 0-12.8-3.7-17.8-10.9-1-1.5-2.4-1.7-3.6-1.1l-.7.4c-1.3.6-1.7 2.1-.9 3.6l6.3 12.2c.6 1.1 1.2 1.8 2.6 1.8 1.5 0 2.5-1.1 4.8-1.1 2.5 0 5.3 1.2 9.9 1.2zm72.09-1c17.6 0 30.6-11.5 30.6-31.6 0-21.4-14.7-39-43-39-6.6 0-12.1.2-19 1.1-1.5.2-2.4 1.1-2.4 2.4v.7c0 1.6.7 2.2 2 2.7l3 1.1c1.9.7 2.59 1.6 2.59 3.7v48.2c0 2.1-.69 3-2.69 3.8l-2.9 1c-1.3.5-2 1.2-2 2.7v.8c0 1.5.9 2.4 2.4 2.4zm-12.8-6.1c-2.7 0-4.2-1.4-4.2-4.2v-49c0-2.9 1-4.1 4.3-4.7 2.1-.3 3-.3 4.4-.3 14.9 0 28.6 12.5 28.6 32.1 0 17.3-9.4 26.1-26.6 26.1zm66.51 7.1c5.8 0 10.9-2.2 14.1-6 .6-.7 1.4-.7 1.9.1 2.1 4 4.3 5.7 8.6 5.7 5.1 0 8.6-3.3 8.6-7.5 0-1.4-.8-2.4-2.1-2.4-1.9 0-2.5 3.3-5.3 3.3-1.7 0-2.6-.9-2.6-3.2l-.2-23.2c-.1-11.8-5.4-18-18.2-18-6.4 0-13.6 1.5-17.8 3.7-1.8 1-2 2.2-1.2 3.9l2.5 5.5c.6 1.1 1.1 1.8 2.3 1.8 1.1 0 1.8-.4 2.8-1.8 3.5-5 7.1-7.5 11.6-7.5 6 0 9.4 3.1 9.4 10.2v4.3c0 .8-.5 1.1-1.4 1-2-.2-4.8-.4-7.2-.4-14.2 0-22.5 6-22.5 16 0 9.6 6.3 14.5 16.7 14.5zm2.3-6.8c-6.2 0-9.7-3-9.7-8.5 0-5.7 3.5-9.7 13.9-9.7 2.5 0 4.8.2 6.7.6.9.2 1.2.6 1.2 1.5v7.2c0 1.9-.4 2.9-1.3 4-1.7 2.1-5.2 4.9-10.8 4.9zm49.09 6.8c7.4 0 11.6-3.7 11.6-7.4 0-1.2-.8-2-1.9-2-2.3 0-2.8 2.4-7.9 2.4-3.1 0-4.6-1.5-4.6-4.7v-30.8c0-.7.5-1.2 1.2-1.2h9.7c1.5 0 2.4-.9 2.4-2.4v-1.7c0-1.5-.9-2.4-2.4-2.4h-9.3c-.7 0-1.2-.5-1.2-1.2v-7.1c0-1.6-1-2.6-2.5-2.6-1.1 0-2.1.5-3 1.9-2.9 4.1-5.5 7.2-8.9 9.7-1.3.9-1.7 1.7-1.7 2.9v.7c0 1.3.9 2.2 2.4 2.2h3.6c.7 0 1.2.5 1.2 1.2v32.3c0 6.3 3.6 10.2 11.3 10.2zm31.97 0c5.8 0 10.9-2.2 14.1-6 .6-.7 1.4-.7 1.9.1 2.1 4 4.3 5.7 8.6 5.7 5.1 0 8.6-3.3 8.6-7.5 0-1.4-.8-2.4-2.1-2.4-1.9 0-2.5 3.3-5.3 3.3-1.7 0-2.6-.9-2.6-3.2l-.2-23.2c-.1-11.8-5.4-18-18.2-18-6.4 0-13.6 1.5-17.8 3.7-1.8 1-2 2.2-1.2 3.9l2.5 5.5c.6 1.1 1.1 1.8 2.3 1.8 1.1 0 1.8-.4 2.8-1.8 3.5-5 7.1-7.5 11.6-7.5 6 0 9.4 3.1 9.4 10.2v4.3c0 .8-.5 1.1-1.4 1-2-.2-4.8-.4-7.2-.4-14.2 0-22.5 6-22.5 16 0 9.6 6.3 14.5 16.7 14.5zm2.3-6.8c-6.2 0-9.7-3-9.7-8.5 0-5.7 3.5-9.7 13.9-9.7 2.5 0 4.8.2 6.7.6.9.2 1.2.6 1.2 1.5v7.2c0 1.9-.4 2.9-1.3 4-1.7 2.1-5.2 4.9-10.8 4.9zm-465.3 105.7c1.4 0 2.4-.5 3-2.2l5.5-15.7c.4-1.1.2-2.4-1.2-3l-.8-.5c-1.4-.7-2.5-.5-3.4.8-7.1 10.4-13 12.6-29.3 12.6-4 0-6.5-1.4-6.5-4.3v-26.6c0-.7.5-1.2 1.2-1.2h4.7c7.3 0 12 2.2 17.9 9.2.9 1.1 1.9 1.4 3.1.7l.8-.4c1.3-.8 1.4-1.7.9-2.8l-6.1-12.2c-.6-1.2-1.1-1.9-2.3-1.9-1.9 0-3.3 1.3-7.9 1.3h-11.1c-.7 0-1.2-.5-1.2-1.2v-14.2c0-2.8 1.4-4.2 6.2-4.2 15.3 0 19.5 2.3 26.4 9.8 1 1.1 2.2 1.3 3.4.5l.6-.4c1.2-.8 1.4-1.7.9-2.9l-6.4-13.3c-.5-1.1-1.3-1.8-2.6-1.8h-.5c-1.1 0-1.7.3-2.7 1-1.1.7-2 1-3.6 1h-36.1c-1.5 0-2.4.9-2.4 2.4v.8c0 1.5.7 2.2 2 2.7l2.9 1c2 .8 2.7 1.7 2.7 3.8v48.6c0 2.1-.7 3-2.7 3.8l-2.9 1c-1.3.5-2 1.2-2 2.7v.8c0 1.5.9 2.4 2.4 2.4h40.4c1.6 0 2.4.4 3.5 1 1 .6 1.6.9 2.8.9zm26.43-1.9c1.6 0 2.6-.9 2.6-2.3v-.5c0-1.1-.4-1.8-1.6-2.4l-1.9-.8c-1.2-.6-1.2-1.5-.4-2.7l7.4-10.2c.5-.7 1.2-.8 1.7 0l12 17.5c.7 1 1.7 1.4 3 1.4h8.2c1.5 0 2.4-.9 2.4-2.4v-.7c0-1.5-.5-2.1-1.9-2.6l-2.8-1c-2-.7-3.6-2.1-6.2-5.7l-8.4-12.2c-.4-.5-.4-1.1 0-1.6l7.7-10.6c2.9-3.9 4.4-5.1 6.3-6.1l2.1-.9c1.2-.5 1.7-1.2 1.7-2.3v-.7c0-1.5-.9-2.4-2.5-2.4h-13.5c-1.6 0-2.6.9-2.6 2.2v.6c0 1.1.4 1.8 1.6 2.4l1.9.8c1.1.6 1.3 1.2.4 2.6l-6.4 8.8c-.5.7-1.2.8-1.7 0l-10.9-16c-.7-1-1.71-1.4-2.9-1.4h-8.3c-1.5 0-2.4.9-2.4 2.4v.7c0 1.5.49 2.1 1.9 2.6l2.8 1c2 .7 3.7 2.2 6.2 5.7l7.2 10.5c.4.5.4 1.1 0 1.6l-9 12.7c-2.9 4.1-5 4.9-6.5 5.6l-2.2 1c-1.1.5-1.6 1-1.6 2.3v.6c0 1.5.9 2.5 2.6 2.5zm56.13 21.6c1.5 0 2.5-.9 2.5-2.4v-.7c0-1.6-.9-2.3-2.1-2.5l-3-.6c-2.1-.5-2.8-1.7-2.8-3.8v-11.5c0-.9.6-1.2 1.4-.9 2.3.9 5.7 1.8 9.7 1.8 12.7 0 23.5-9.4 23.5-26.5 0-16.2-9.4-24.5-21.5-24.5-5.5 0-9 1.7-12.2 4.5-.8.7-1.3.3-1.3-.4v-1.5c0-2.5-1.5-3.4-4-2.5l-8.9 3.5c-1.5.5-2.1 1.3-2.1 2.4v.6c0 1.4.6 2 2.2 2.4 3.8 1 4.7 2.1 4.7 5.1v47.5c0 2.1-.7 3.2-2.8 3.8l-2 .6c-1.4.4-2.1 1.1-2.1 2.5v.7c0 1.5 1 2.4 2.5 2.4zm3.4-27.1c-2.1 0-4.7-.3-6.7-1.4-1.5-.7-2.1-2.1-2.1-4.6v-25.6c0-2.3.8-3.5 2.3-4.5 1.9-1.3 4.3-1.6 7.3-1.6 9.4 0 15.7 6.8 15.7 18.7 0 14-7.5 19-16.5 19zm50.89 5.5c1.5 0 2.4-1 2.4-2.5v-.6c0-1.4-.6-2.1-2-2.5l-2.1-.6c-2.2-.6-2.7-2-2.7-3.8v-62.1c0-2.5-1.6-3.5-4-2.5l-9.4 3.7c-1.4.5-2 1.1-2 2.4v.5c0 1.3.4 1.9 2.2 2.3 4.2 1 4.6 2.8 4.6 5.3v50.4c0 2.1-.7 3.2-2.7 3.8l-2 .6c-1.4.4-2.1 1.1-2.1 2.5v.6c0 1.6 1 2.5 2.5 2.5zm31.3 1c13.6 0 24-10.4 24-25.6s-10.4-25.6-24-25.6-24 10.4-24 25.6 10.4 25.6 24 25.6zm1.5-7.3c-10.8 0-16.8-9.5-16.8-20.7 0-10.1 5.8-15.9 13.8-15.9 10.9 0 16.8 9.5 16.8 20.6 0 10.2-5.8 16-13.8 16zm49.54 6.3c1.5 0 2.4-.9 2.4-2.4v-.7c0-1.6-.8-2.3-2-2.5l-3.1-.6c-2-.5-2.7-1.7-2.7-3.8v-23.9c0-4.7 2.1-6.8 6.1-6.8 2.3 0 4 .9 5.7 2.2 1.6.9 2.2 1.3 3.3 1.3s2.1-.7 2.3-2.5l.7-6.9c.2-2.2-.9-3.4-3.4-3.4-4.6 0-9.7 2.4-13.2 5.5-1 1-2 .5-2-.5v-2.4c0-2.5-1.5-3.4-3.9-2.5l-8.9 3.5c-1.5.5-2.1 1.3-2.1 2.4v.6c0 1.4.6 2 2.2 2.4 3.8.9 4.6 2.1 4.6 5.1v25.9c0 2.2-.7 3.2-2.7 3.8l-2 .6c-1.4.4-2.1 1.1-2.1 2.5v.7c0 1.5.9 2.4 2.4 2.4zm33.13 1c5.8 0 10.9-2.2 14.1-6 .6-.7 1.4-.7 1.9.1 2.1 4 4.3 5.7 8.6 5.7 5.1 0 8.6-3.3 8.6-7.5 0-1.4-.8-2.4-2.1-2.4-1.9 0-2.5 3.3-5.3 3.3-1.7 0-2.6-.9-2.6-3.2l-.2-23.2c-.1-11.8-5.4-18-18.2-18-6.4 0-13.6 1.5-17.8 3.7-1.8 1-2 2.2-1.2 3.9l2.5 5.5c.6 1.1 1.1 1.8 2.3 1.8 1.1 0 1.8-.4 2.8-1.8 3.5-5 7.1-7.5 11.6-7.5 6 0 9.4 3.1 9.4 10.2v4.3c0 .8-.5 1.1-1.4 1-2-.2-4.8-.4-7.2-.4-14.2 0-22.5 6-22.5 16 0 9.6 6.3 14.5 16.7 14.5zm2.3-6.8c-6.2 0-9.7-3-9.7-8.5 0-5.7 3.5-9.7 13.9-9.7 2.5 0 4.8.2 6.7.6.9.2 1.2.6 1.2 1.5v7.2c0 1.9-.4 2.9-1.3 4-1.7 2.1-5.2 4.9-10.8 4.9zm49.09 6.8c7.4 0 11.6-3.7 11.6-7.4 0-1.2-.8-2-1.9-2-2.3 0-2.8 2.4-7.9 2.4-3.1 0-4.6-1.5-4.6-4.7v-30.8c0-.7.5-1.2 1.2-1.2h9.7c1.5 0 2.4-.9 2.4-2.4v-1.7c0-1.5-.9-2.4-2.4-2.4h-9.3c-.7 0-1.2-.5-1.2-1.2v-7.1c0-1.6-1-2.6-2.5-2.6-1.1 0-2.1.5-3 1.9-2.9 4.1-5.5 7.2-8.9 9.7-1.3.9-1.7 1.7-1.7 2.9v.7c0 1.3.9 2.2 2.4 2.2h3.6c.7 0 1.2.5 1.2 1.2v32.3c0 6.3 3.6 10.2 11.3 10.2zm25.46-59.7c3.9 0 6.7-2.7 6.7-6.2s-2.8-6.2-6.7-6.2-6.7 2.7-6.7 6.2c0 3.4 2.8 6.2 6.7 6.2zm9.8 58.7c1.5 0 2.4-.9 2.4-2.4v-.7c0-1.4-.7-2.1-2.1-2.5l-2-.6c-2-.6-2.7-1.6-2.7-3.8v-37.4c0-2.5-1.5-3.4-4-2.5l-9.3 3.7c-1.5.5-2.1 1.3-2.1 2.4v.6c0 1.4.6 2 2.2 2.4 3.8.9 4.6 2.1 4.6 5.1v25.7c0 2.2-.7 3.2-2.7 3.8l-2 .6c-1.4.4-2.1 1.1-2.1 2.5v.7c0 1.5.9 2.4 2.4 2.4zm31.27 1c13.6 0 24-10.4 24-25.6s-10.4-25.6-24-25.6-24 10.4-24 25.6 10.4 25.6 24 25.6zm1.5-7.3c-10.8 0-16.8-9.5-16.8-20.7 0-10.1 5.8-15.9 13.8-15.9 10.9 0 16.8 9.5 16.8 20.6 0 10.2-5.8 16-13.8 16zm48.54 6.3c1.5 0 2.4-.9 2.4-2.4v-.7c0-1.4-.7-2.1-2.1-2.5l-2-.6c-2-.6-2.7-1.6-2.7-3.8v-25.4c0-1.9.5-2.9 2.3-3.9 2.9-1.8 8.2-3.8 13.3-3.8s6.6 3 6.6 8.9v31.8c0 1.5.9 2.4 2.4 2.4h10.7c1.5 0 2.4-.9 2.4-2.4v-.7c0-1.4-.7-2.1-2.1-2.5l-1.9-.6c-2.1-.6-2.8-1.6-2.8-3.8v-26.2c0-8.9-4.4-14-12.6-14-5.4 0-10.8 1.9-15.6 4.9l-1.6.9c-.8.5-1.6.2-1.6-.8v-2.2c0-2.5-1.5-3.4-3.9-2.5l-8.9 3.5c-1.5.5-2.1 1.3-2.1 2.4v.6c0 1.4.6 2 2.2 2.4 3.8.9 4.6 2.1 4.6 5.1v25.9c0 2.2-.7 3.2-2.7 3.8l-2 .6c-1.4.4-2.1 1.1-2.1 2.5v.7c0 1.5.9 2.4 2.4 2.4zm52.38-21.6c1.3 1.1 2.7 1.2 4.2-.1 12.8-12.2 21.9-21.4 21.9-32.5 0-10.7-7.4-16.8-20.6-16.8-3.5 0-11.5 1.2-15.4 2.5-1.4.5-2.4 1.2-2.8 2.7l-3.4 12.6c-.5 1.6.1 2.6 1.6 3.1l.7.3c1.4.5 2.3.3 3.2-1.3 5.4-9.3 9.8-13.1 15.7-13.1 7.4 0 11 4 11 10.6 0 8.1-6.2 15.2-16.2 27.9-1.2 1.5-1.2 3 .1 4.1zm2.3 22.6c4 0 6.8-2.8 6.8-6.4 0-3.7-2.8-6.5-6.8-6.5s-6.8 2.8-6.8 6.5c0 3.6 2.8 6.4 6.8 6.4z" fill="#c8f169"/><g mask="url(#b)"><g stroke-miterlimit="10" stroke-width="2"><path d="m1764.01 234.029 118.29-34.091c14.84-4.274 30.58-4.274 45.41 0l118.29 34.091-69.82-132.212-52.79-17.1128c-11.98-3.8828-30.17-4.1063-42.28-.6313l-56.57 17.7441z" fill="#7ea6f3" stroke="#043f2e"/><path d="m1748.64 317.451c66.63 0 120.64-54.051 120.64-120.726 0-66.674-54.01-120.725-120.64-120.725s-120.64 54.051-120.64 120.725c0 66.675 54.01 120.726 120.64 120.726z" fill="#7ea6f3" stroke="#043f2e"/><path d="m1748.64 297.679c55.72 0 100.88-45.198 100.88-100.953 0-55.756-45.16-100.9542-100.88-100.9542s-100.88 45.1982-100.88 100.9542c0 55.755 45.16 100.953 100.88 100.953z" fill="#043f2e" stroke="#7ea6f3"/><path d="m1748.64 288.215c50.49 0 91.42-40.961 91.42-91.489 0-50.529-40.93-91.49-91.42-91.49s-91.43 40.961-91.43 91.49c0 50.528 40.94 91.489 91.43 91.489z" fill="#043f2e" stroke="#7ea6f3"/><path d="m2055.36 317.451c66.63 0 120.64-54.051 120.64-120.726 0-66.674-54.01-120.725-120.64-120.725s-120.64 54.051-120.64 120.725c0 66.675 54.01 120.726 120.64 120.726z" fill="#7ea6f3" stroke="#043f2e"/><path d="m2055.36 297.679c55.72 0 100.88-45.198 100.88-100.953 0-55.756-45.16-100.9542-100.88-100.9542s-100.88 45.1982-100.88 100.9542c0 55.755 45.16 100.953 100.88 100.953z" fill="#043f2e" stroke="#7ea6f3"/><path d="m2055.36 288.215c50.49 0 91.42-40.961 91.42-91.489 0-50.529-40.93-91.49-91.42-91.49s-91.42 40.961-91.42 91.49c0 50.528 40.93 91.489 91.42 91.489z" fill="#043f2e" stroke="#7ea6f3"/><path d="m1901.07 151.17c13.84 0 25.06-11.231 25.06-25.085s-11.22-25.085-25.06-25.085c-13.85 0-25.07 11.231-25.07 25.085s11.22 25.085 25.07 25.085z" stroke="#043f2e"/><path d="m1789.85 144.265h-40.24c-1.29 0-2.33-.91-2.33-2.039 0-2.732-2.52-4.95-5.64-4.95h-39.23c-3.11 0-5.64 2.218-5.64 4.95v97.781c0 5.167 4.78 9.352 10.66 9.352h82.42c5.89 0 10.66-4.19 10.66-9.352v-86.384c0-5.168-4.77-9.352-10.66-9.352z" fill="#043f2e" stroke="#7ea6f3"/></g><path d="m1786.79 161.411h-76.3c-1.76 0-3.19 1.429-3.19 3.19v1.894c0 1.762 1.43 3.19 3.19 3.19h76.3c1.76 0 3.18-1.428 3.18-3.19v-1.894c0-1.761-1.42-3.19-3.18-3.19z" fill="#7ea6f3"/><path d="m1768.72 211.436h-58.23c-1.76 0-3.19 1.428-3.19 3.19v1.894c0 1.762 1.43 3.19 3.19 3.19h58.23c1.76 0 3.19-1.428 3.19-3.19v-1.894c0-1.762-1.43-3.19-3.19-3.19z" fill="#7ea6f3"/><path d="m1763.62 173.92h-53.13c-1.76 0-3.19 1.429-3.19 3.19v1.894c0 1.762 1.43 3.19 3.19 3.19h53.13c1.76 0 3.19-1.428 3.19-3.19v-1.894c0-1.761-1.43-3.19-3.19-3.19z" fill="#7ea6f3"/><path d="m1743.92 198.927h-33.43c-1.76 0-3.19 1.428-3.19 3.19v1.894c0 1.762 1.43 3.19 3.19 3.19h33.43c1.76 0 3.19-1.428 3.19-3.19v-1.894c0-1.762-1.43-3.19-3.19-3.19z" fill="#7ea6f3"/><path d="m1728.6 223.939h-18.11c-1.76 0-3.19 1.428-3.19 3.19v1.894c0 1.762 1.43 3.19 3.19 3.19h18.11c1.76 0 3.19-1.428 3.19-3.19v-1.894c0-1.762-1.43-3.19-3.19-3.19z" fill="#7ea6f3"/><path d="m1758.36 223.939h-18.11c-1.76 0-3.19 1.428-3.19 3.19v1.894c0 1.762 1.43 3.19 3.19 3.19h18.11c1.76 0 3.19-1.428 3.19-3.19v-1.894c0-1.762-1.43-3.19-3.19-3.19z" fill="#7ea6f3"/><path d="m1750.65 186.424h-40.16c-1.76 0-3.19 1.428-3.19 3.19v1.894c0 1.761 1.43 3.19 3.19 3.19h40.16c1.76 0 3.19-1.429 3.19-3.19v-1.894c0-1.762-1.43-3.19-3.19-3.19z" fill="#7ea6f3"/><path d="m1779.07 186.424h-16.89c-1.76 0-3.19 1.428-3.19 3.19v1.894c0 1.761 1.43 3.19 3.19 3.19h16.89c1.76 0 3.19-1.429 3.19-3.19v-1.894c0-1.762-1.43-3.19-3.19-3.19z" fill="#7ea6f3"/><path d="m2055.36 254.851c33.96 0 61.49-27.55 61.49-61.534 0-33.983-27.53-61.533-61.49-61.533s-61.49 27.55-61.49 61.533c0 33.984 27.53 61.534 61.49 61.534z" fill="#043f2e" stroke="#7ea6f3" stroke-miterlimit="10" stroke-width="2"/><path d="m2116.85 193.317c0 33.985-27.53 61.534-61.49 61.534v-61.534z" fill="#7ea6f3"/><path d="m2088.69 141.6-33.33 51.717-11.52-61.533" stroke="#7ea6f3" stroke-miterlimit="10" stroke-width="2"/><path d="m2113.18 172.333-57.82 20.984v59.399" stroke="#7ea6f3" stroke-miterlimit="10" stroke-width="2"/></g><path d="m2974 834h-1440v750h1440z" fill="#043f2e"/><path d="m2578 1042h-298c-8.28 0-15 6.72-15 15v304c0 8.28 6.72 15 15 15h298c8.28 0 15-6.72 15-15v-304c0-8.28-6.72-15-15-15z" fill="#c8f169"/><path clip-rule="evenodd" d="m2242 863h336c8.28 0 15 6.716 15 15v126c0 8.28-6.72 15-15 15h-321c-8.28 0-15 6.72-15 15v327c0 8.28-6.72 15-15 15h-648c-8.28 0-15-6.72-15-15v-342-141c0-8.284 6.72-15 15-15z" fill="#2a6f2b" fill-rule="evenodd"/><path clip-rule="evenodd" d="m2944 1057c0-8.28-6.72-15-15-15h-298c-8.28 0-15 6.72-15 15v327c0 8.28-6.72 15-15 15h-1022c-8.28 0-15 6.72-15 15v125c0 8.28 6.72 15 15 15h1037 313c8.28 0 15-6.72 15-15z" fill="#7ea6f3" fill-rule="evenodd"/><path d="m1635.4 980c1.5 0 2.4-.9 2.4-2.4v-.8c0-1.5-.7-2.4-2-2.7l-4.3-1.2c-2.1-.5-2.8-1.5-2.8-3.6v-17.2c0-.8.4-1.3 1.3-1.2 3.6.5 8.2 1.2 13 1.2 14.8 0 21.6-7.8 21.6-18.4 0-15.6-11.5-24.5-32.5-24.5-4.7 0-11 .4-17.8 1.3-1.5.2-2.4 1.1-2.4 2.4v.7c0 1.6.7 2.2 2 2.7l3 1.1c1.9.7 2.6 1.6 2.6 3.7v48.2c0 2.1-.7 3-2.7 3.8l-2.9 1c-1.3.5-2 1.2-2 2.7v.8c0 1.5.9 2.4 2.4 2.4zm5-34.2c-3.8 0-8-.5-10.5-1.1-.7-.2-1.2-.6-1.2-1.3v-23.9c0-3 1.5-4.2 5.3-4.2 12.3 0 21 6.3 21 17.8 0 8.4-5.1 12.7-14.6 12.7zm47.93 34.2c1.5 0 2.4-.9 2.4-2.4v-.7c0-1.4-.7-2.1-2.1-2.5l-2-.6c-2-.6-2.7-1.6-2.7-3.8v-25.5c0-1.9.5-2.9 2.3-3.9 2.9-1.8 8.2-3.7 13.3-3.7s6.6 2.9 6.6 8.8v31.9c0 1.5.9 2.4 2.4 2.4h10.7c1.5 0 2.4-.9 2.4-2.4v-.7c0-1.4-.7-2.1-2.1-2.5l-1.9-.6c-2.1-.6-2.8-1.6-2.8-3.8v-26.2c0-9-4.4-14.1-12.6-14.1-5.5 0-10.3 1.6-15.2 4.7l-1.4.9c-.8.5-1.7.3-1.7-.7v-26.8c0-2.5-1.7-3.3-3.9-2.4l-9.4 3.7c-1.4.5-2 1.1-2 2.4v.6c0 1.3.6 2 2.1 2.3 3.8.8 4.6 2.1 4.6 5.2v50.4c0 2.2-.7 3.2-2.7 3.8l-2 .6c-1.4.4-2.1 1.1-2.1 2.5v.7c0 1.5.9 2.4 2.4 2.4zm54.67 1c5.8 0 10.9-2.2 14.1-6 .6-.7 1.4-.7 1.9.1 2.1 4 4.3 5.7 8.6 5.7 5.1 0 8.6-3.3 8.6-7.5 0-1.4-.8-2.4-2.1-2.4-1.9 0-2.5 3.3-5.3 3.3-1.7 0-2.6-.9-2.6-3.2l-.2-23.2c-.1-11.8-5.4-18-18.2-18-6.4 0-13.6 1.5-17.8 3.7-1.8 1-2 2.2-1.2 3.9l2.5 5.5c.6 1.1 1.1 1.8 2.3 1.8 1.1 0 1.8-.4 2.8-1.8 3.5-5 7.1-7.5 11.6-7.5 6 0 9.4 3.1 9.4 10.2v4.3c0 .8-.5 1.1-1.4 1-2-.2-4.8-.4-7.2-.4-14.2 0-22.5 6-22.5 16 0 9.6 6.3 14.5 16.7 14.5zm2.3-6.8c-6.2 0-9.7-3-9.7-8.5 0-5.7 3.5-9.7 13.9-9.7 2.5 0 4.8.2 6.7.6.9.2 1.2.6 1.2 1.5v7.2c0 1.9-.4 2.9-1.3 4-1.7 2.1-5.2 4.9-10.8 4.9zm55.4 6.8c10 0 17.3-5.2 17.2-14.6-.1-7.9-5.1-12-13.8-14.7l-8.2-2.4c-6.6-2-9.4-4-9.4-7.7 0-3.4 2.5-6 8.2-6 5.2 0 9.4 3 15.2 9 1.1 1.3 2.2 1.3 3.5.7l.3-.2c1.2-.6 1.6-1.8.9-3.1l-5.5-10.7c-.5-1-.9-1.4-2-1.4-1 0-2.1.9-4.3.9-2.8 0-5-.8-8.2-.8-10.3 0-16.2 5.5-16.2 13.1 0 7.5 5 11.1 13.2 13.6l8.2 2.5c6.3 1.9 9.4 4.4 9.4 8.5 0 4.4-2.9 7.2-9.1 7.2-6.8 0-12.8-3.7-17.8-10.9-1-1.5-2.4-1.7-3.6-1.1l-.7.4c-1.3.6-1.7 2.1-.9 3.6l6.3 12.2c.6 1.1 1.2 1.8 2.6 1.8 1.5 0 2.5-1.1 4.8-1.1 2.5 0 5.3 1.2 9.9 1.2zm66.13-14.8c-1.3-.9-2.7-.3-4 1.1-2.5 3-6.9 5.4-13.2 5.4-8.1 0-13.7-4.7-16-11.6-.2-.7 0-1.3.7-1.6l29.7-11c1.5-.5 2.2-1.4 1.8-3.3-2.2-9.9-9.9-15.4-19.8-15.4-12.9 0-22.9 10-22.9 25.6 0 15.5 10.4 25.6 24.4 25.6 11 0 17.4-5.4 19.7-10.7.9-2.1.8-3.4-.4-4.1zm-21.1-29.9c4.5 0 8.5 2.3 10.1 7 .4 1.2-.2 1.6-1.1 1.9l-21.6 8.2c-.8.4-1.2.1-1.3-.5-.1-.5-.1-1-.1-1.2 0-9.5 6.1-15.4 14-15.4zm49.17 44.7c10 0 17.3-5.2 17.2-14.6-.1-7.9-5.1-12-13.8-14.7l-8.2-2.4c-6.6-2-9.4-4-9.4-7.7 0-3.4 2.5-6 8.2-6 5.2 0 9.4 3 15.2 9 1.1 1.3 2.2 1.3 3.5.7l.3-.2c1.2-.6 1.6-1.8.9-3.1l-5.5-10.7c-.5-1-.9-1.4-2-1.4-1 0-2.1.9-4.3.9-2.8 0-5-.8-8.2-.8-10.3 0-16.2 5.5-16.2 13.1 0 7.5 5 11.1 13.2 13.6l8.2 2.5c6.3 1.9 9.4 4.4 9.4 8.5 0 4.4-2.9 7.2-9.1 7.2-6.8 0-12.8-3.7-17.8-10.9-1-1.5-2.4-1.7-3.6-1.1l-.7.4c-1.3.6-1.7 2.1-.9 3.6l6.3 12.2c.6 1.1 1.2 1.8 2.6 1.8 1.5 0 2.5-1.1 4.8-1.1 2.5 0 5.3 1.2 9.9 1.2zm61.89 0c13.6 0 24-10.4 24-25.6s-10.4-25.6-24-25.6-24 10.4-24 25.6 10.4 25.6 24 25.6zm1.5-7.3c-10.8 0-16.8-9.5-16.8-20.7 0-10.1 5.8-15.9 13.8-15.9 10.9 0 16.8 9.5 16.8 20.6 0 10.2-5.8 16-13.8 16zm49.53 6.3c1.5 0 2.4-.9 2.4-2.4v-.7c0-1.6-.8-2.3-2-2.5l-3.1-.6c-2-.5-2.7-1.7-2.7-3.8v-31.5c0-.7.6-1.2 1.3-1.2h9.6c1.5 0 2.4-.9 2.4-2.4v-1.7c0-1.5-.9-2.4-2.4-2.4h-1.7c-7.6 0-11.8-3.5-11.8-11 0-5 2.8-8.3 6.8-8.3 2.8 0 5.8 1.7 8.7 4.2.9.8 1.7 1.3 2.6 1.3 1 0 1.6-.6 2-1.6l2.1-5.2c.7-1.7.4-2.7-1.3-3.5-2.2-1.1-5.5-1.7-10-1.7-9.5 0-16.9 5-18.2 16.3l-.6 6.1c-.3 1.8-.7 2.5-2.3 3.4l-1.1.5c-1.2.6-1.9 1.4-1.9 2.8v.7c0 1.5.9 2.5 2.4 2.5h3.6c.7 0 1.2.5 1.2 1.2v31.5c0 2.3-.8 3.2-2.6 3.8l-2.1.6c-1.4.4-2.1 1.1-2.1 2.5v.7c0 1.5.9 2.4 2.4 2.4zm43.11 1c5.8 0 10.9-2.2 14.1-6 .6-.7 1.4-.7 1.9.1 2.1 4 4.3 5.7 8.6 5.7 5.1 0 8.6-3.3 8.6-7.5 0-1.4-.8-2.4-2.1-2.4-1.9 0-2.5 3.3-5.3 3.3-1.7 0-2.6-.9-2.6-3.2l-.2-23.2c-.1-11.8-5.4-18-18.2-18-6.4 0-13.6 1.5-17.8 3.7-1.8 1-2 2.2-1.2 3.9l2.5 5.5c.6 1.1 1.1 1.8 2.3 1.8 1.1 0 1.8-.4 2.8-1.8 3.5-5 7.1-7.5 11.6-7.5 6 0 9.4 3.1 9.4 10.2v4.3c0 .8-.5 1.1-1.4 1-2-.2-4.8-.4-7.2-.4-14.2 0-22.5 6-22.5 16 0 9.6 6.3 14.5 16.7 14.5zm2.3-6.8c-6.2 0-9.7-3-9.7-8.5 0-5.7 3.5-9.7 13.9-9.7 2.5 0 4.8.2 6.7.6.9.2 1.2.6 1.2 1.5v7.2c0 1.9-.4 2.9-1.3 4-1.7 2.1-5.2 4.9-10.8 4.9zm-420.23 104.8c6.2 0 10.1-2.4 12.3-4.3.8-.7 1.6-.6 1.8.3l.3 1.1c.3 1.3 1.2 1.9 2.6 1.9h9.4c1.5 0 2.4-1 2.4-2.5v-.6c0-1.6-.9-2.2-2.3-2.6l-1.8-.5c-2.3-.6-2.7-2.1-2.7-3.7v-62.2c0-2.7-1.8-3.3-4-2.5l-10.3 3.7c-1.5.5-2.1 1.1-2.1 2.4v.5c0 1.1.3 2.1 2.2 2.4 5.3.9 5.6 2.3 5.6 5v10.4c0 .8-.5 1.1-1.3.9-2.2-.4-4.7-.7-6.8-.7-15 0-26.4 9.8-26.4 26.6 0 16 9.9 24.4 21.1 24.4zm4-6.9c-8.9 0-15.8-7.6-15.8-18.9 0-12 7.2-18.8 17.3-18.8 2 0 3.1.1 4.8.6 1.9.6 3.1 1.6 3.1 4v27.9c0 1.6-.7 2.6-2 3.4-1.3.9-3.5 1.8-7.4 1.8zm46.4 6.9c5.8 0 10.9-2.2 14.1-6 .6-.7 1.4-.7 1.9.1 2.1 4 4.3 5.7 8.6 5.7 5.1 0 8.6-3.3 8.6-7.5 0-1.4-.8-2.4-2.1-2.4-1.9 0-2.5 3.3-5.3 3.3-1.7 0-2.6-.9-2.6-3.2l-.2-23.2c-.1-11.8-5.4-18-18.2-18-6.4 0-13.6 1.5-17.8 3.7-1.8 1-2 2.2-1.2 3.9l2.5 5.5c.6 1.1 1.1 1.8 2.3 1.8 1.1 0 1.8-.4 2.8-1.8 3.5-5 7.1-7.5 11.6-7.5 6 0 9.4 3.1 9.4 10.2v4.3c0 .8-.5 1.1-1.4 1-2-.2-4.8-.4-7.2-.4-14.2 0-22.5 6-22.5 16 0 9.6 6.3 14.5 16.7 14.5zm2.3-6.8c-6.2 0-9.7-3-9.7-8.5 0-5.7 3.5-9.7 13.9-9.7 2.5 0 4.8.2 6.7.6.9.2 1.2.6 1.2 1.5v7.2c0 1.9-.4 2.9-1.3 4-1.7 2.1-5.2 4.9-10.8 4.9zm49.09 6.8c7.4 0 11.6-3.7 11.6-7.4 0-1.2-.8-2-1.9-2-2.3 0-2.8 2.4-7.9 2.4-3.1 0-4.6-1.5-4.6-4.7v-30.8c0-.7.5-1.2 1.2-1.2h9.7c1.5 0 2.4-.9 2.4-2.4v-1.7c0-1.5-.9-2.4-2.4-2.4h-9.3c-.7 0-1.2-.5-1.2-1.2v-7.1c0-1.6-1-2.6-2.5-2.6-1.1 0-2.1.5-3 1.9-2.9 4.1-5.5 7.2-8.9 9.7-1.3.9-1.7 1.7-1.7 2.9v.7c0 1.3.9 2.2 2.4 2.2h3.6c.7 0 1.2.5 1.2 1.2v32.3c0 6.3 3.6 10.2 11.3 10.2zm31.97 0c5.8 0 10.9-2.2 14.1-6 .6-.7 1.4-.7 1.9.1 2.1 4 4.3 5.7 8.6 5.7 5.1 0 8.6-3.3 8.6-7.5 0-1.4-.8-2.4-2.1-2.4-1.9 0-2.5 3.3-5.3 3.3-1.7 0-2.6-.9-2.6-3.2l-.2-23.2c-.1-11.8-5.4-18-18.2-18-6.4 0-13.6 1.5-17.8 3.7-1.8 1-2 2.2-1.2 3.9l2.5 5.5c.6 1.1 1.1 1.8 2.3 1.8 1.1 0 1.8-.4 2.8-1.8 3.5-5 7.1-7.5 11.6-7.5 6 0 9.4 3.1 9.4 10.2v4.3c0 .8-.5 1.1-1.4 1-2-.2-4.8-.4-7.2-.4-14.2 0-22.5 6-22.5 16 0 9.6 6.3 14.5 16.7 14.5zm2.3-6.8c-6.2 0-9.7-3-9.7-8.5 0-5.7 3.5-9.7 13.9-9.7 2.5 0 4.8.2 6.7.6.9.2 1.2.6 1.2 1.5v7.2c0 1.9-.4 2.9-1.3 4-1.7 2.1-5.2 4.9-10.8 4.9zm58.11-20.9c1.5 0 2.4-.9 2.4-2.4v-2.2c0-1.5-.9-2.4-2.4-2.4h-23.2c-1.6 0-2.5.9-2.5 2.4v2.2c0 1.5.9 2.4 2.5 2.4zm32.53 27.7c6.2 0 10.1-2.4 12.3-4.3.8-.7 1.6-.6 1.8.3l.3 1.1c.3 1.3 1.2 1.9 2.6 1.9h9.4c1.5 0 2.4-1 2.4-2.5v-.6c0-1.6-.9-2.2-2.3-2.6l-1.8-.5c-2.3-.6-2.7-2.1-2.7-3.7v-62.2c0-2.7-1.8-3.3-4-2.5l-10.3 3.7c-1.5.5-2.1 1.1-2.1 2.4v.5c0 1.1.3 2.1 2.2 2.4 5.3.9 5.6 2.3 5.6 5v10.4c0 .8-.5 1.1-1.3.9-2.2-.4-4.7-.7-6.8-.7-15 0-26.4 9.8-26.4 26.6 0 16 9.9 24.4 21.1 24.4zm4-6.9c-8.9 0-15.8-7.6-15.8-18.9 0-12 7.2-18.8 17.3-18.8 2 0 3.1.1 4.8.6 1.9.6 3.1 1.6 3.1 4v27.9c0 1.6-.7 2.6-2 3.4-1.3.9-3.5 1.8-7.4 1.8zm50.7 5.9c1.5 0 2.4-.9 2.4-2.4v-.7c0-1.6-.8-2.3-2-2.5l-3.1-.6c-2-.5-2.7-1.7-2.7-3.8v-23.9c0-4.7 2.1-6.8 6.1-6.8 2.3 0 4 .9 5.7 2.2 1.6.9 2.2 1.3 3.3 1.3s2.1-.7 2.3-2.5l.7-6.9c.2-2.2-.9-3.4-3.4-3.4-4.6 0-9.7 2.4-13.2 5.5-1 1-2 .5-2-.5v-2.4c0-2.5-1.5-3.4-3.9-2.5l-8.9 3.5c-1.5.5-2.1 1.3-2.1 2.4v.6c0 1.4.6 2 2.2 2.4 3.8.9 4.6 2.1 4.6 5.1v25.9c0 2.2-.7 3.2-2.7 3.8l-2 .6c-1.4.4-2.1 1.1-2.1 2.5v.7c0 1.5.9 2.4 2.4 2.4zm26.63-58.7c3.9 0 6.7-2.7 6.7-6.2s-2.8-6.2-6.7-6.2-6.7 2.7-6.7 6.2c0 3.4 2.8 6.2 6.7 6.2zm9.8 58.7c1.5 0 2.4-.9 2.4-2.4v-.7c0-1.4-.7-2.1-2.1-2.5l-2-.6c-2-.6-2.7-1.6-2.7-3.8v-37.4c0-2.5-1.5-3.4-4-2.5l-9.3 3.7c-1.5.5-2.1 1.3-2.1 2.4v.6c0 1.4.6 2 2.2 2.4 3.8.9 4.6 2.1 4.6 5.1v25.7c0 2.2-.7 3.2-2.7 3.8l-2 .6c-1.4.4-2.1 1.1-2.1 2.5v.7c0 1.5.9 2.4 2.4 2.4zm29.78 0c1.3 0 2.2-.5 2.8-2l13.2-34.8c1.5-4.1 2.6-5.6 4.3-6.3l1.8-.7c1-.5 1.6-1.1 1.6-2.3v-.7c0-1.5-.9-2.4-2.4-2.4h-13.8c-1.5 0-2.4.9-2.4 2.4v.7c0 .9.4 1.7 1.5 2.1l2.5.9c1.1.5 1.4 1.3.9 2.7l-9.6 27.3c-.4 1.1-1.3 1-1.6 0l-12.1-34.2c-.5-1.4-1.3-1.9-2.8-1.9h-8.7c-1.6 0-2.5.9-2.5 2.4v.7c0 1.4.6 2.1 1.8 2.6l2.2.8c1.7.6 2.7 2.1 4.2 6.1l13.3 34.7c.5 1.4 1.6 1.9 2.9 1.9zm68.98-13.8c-1.3-.9-2.7-.3-4 1.1-2.5 3-6.9 5.4-13.2 5.4-8.1 0-13.7-4.7-16-11.6-.2-.7 0-1.3.7-1.6l29.7-11c1.5-.5 2.2-1.4 1.8-3.3-2.2-9.9-9.9-15.4-19.8-15.4-12.9 0-22.9 10-22.9 25.6 0 15.5 10.4 25.6 24.4 25.6 11 0 17.4-5.4 19.7-10.7.9-2.1.8-3.4-.4-4.1zm-21.1-29.9c4.5 0 8.5 2.3 10.1 7 .4 1.2-.2 1.6-1.1 1.9l-21.6 8.2c-.8.4-1.2.1-1.3-.5-.1-.5-.1-1-.1-1.2 0-9.5 6.1-15.4 14-15.4zm45.86 43.7c1.5 0 2.4-.9 2.4-2.4v-.7c0-1.4-.7-2.1-2.1-2.5l-2-.6c-2-.6-2.7-1.6-2.7-3.8v-25.4c0-1.9.5-2.9 2.3-3.9 2.9-1.8 8.2-3.8 13.3-3.8s6.6 3 6.6 8.9v31.8c0 1.5.9 2.4 2.4 2.4h10.7c1.5 0 2.4-.9 2.4-2.4v-.7c0-1.4-.7-2.1-2.1-2.5l-1.9-.6c-2.1-.6-2.8-1.6-2.8-3.8v-26.2c0-8.9-4.4-14-12.6-14-5.4 0-10.8 1.9-15.6 4.9l-1.6.9c-.8.5-1.6.2-1.6-.8v-2.2c0-2.5-1.5-3.4-3.9-2.5l-8.9 3.5c-1.5.5-2.1 1.3-2.1 2.4v.6c0 1.4.6 2 2.2 2.4 3.8.9 4.6 2.1 4.6 5.1v25.9c0 2.2-.7 3.2-2.7 3.8l-2 .6c-1.4.4-2.1 1.1-2.1 2.5v.7c0 1.5.9 2.4 2.4 2.4zm-439.55 99c10 0 17.3-5.2 17.2-14.6-.1-7.9-5.1-12-13.8-14.7l-8.2-2.4c-6.6-2-9.4-4-9.4-7.7 0-3.4 2.5-6 8.2-6 5.2 0 9.4 3 15.2 9 1.1 1.3 2.2 1.3 3.5.7l.3-.2c1.2-.6 1.6-1.8.9-3.1l-5.5-10.7c-.5-1-.9-1.4-2-1.4-1 0-2.1.9-4.3.9-2.8 0-5-.8-8.2-.8-10.3 0-16.2 5.5-16.2 13.1 0 7.5 5 11.1 13.2 13.6l8.2 2.5c6.3 1.9 9.4 4.4 9.4 8.5 0 4.4-2.9 7.2-9.1 7.2-6.8 0-12.8-3.7-17.8-10.9-1-1.5-2.4-1.7-3.6-1.1l-.7.4c-1.3.6-1.7 2.1-.9 3.6l6.3 12.2c.6 1.1 1.2 1.8 2.6 1.8 1.5 0 2.5-1.1 4.8-1.1 2.5 0 5.3 1.2 9.9 1.2zm38.93 0c7.4 0 11.6-3.7 11.6-7.4 0-1.2-.8-2-1.9-2-2.3 0-2.8 2.4-7.9 2.4-3.1 0-4.6-1.5-4.6-4.7v-30.8c0-.7.5-1.2 1.2-1.2h9.7c1.5 0 2.4-.9 2.4-2.4v-1.7c0-1.5-.9-2.4-2.4-2.4h-9.3c-.7 0-1.2-.5-1.2-1.2v-7.1c0-1.6-1-2.6-2.5-2.6-1.1 0-2.1.5-3 1.9-2.9 4.1-5.5 7.2-8.9 9.7-1.3.9-1.7 1.7-1.7 2.9v.7c0 1.3.9 2.2 2.4 2.2h3.6c.7 0 1.2.5 1.2 1.2v32.3c0 6.3 3.6 10.2 11.3 10.2zm31.97 0c5.8 0 10.9-2.2 14.1-6 .6-.7 1.4-.7 1.9.1 2.1 4 4.3 5.7 8.6 5.7 5.1 0 8.6-3.3 8.6-7.5 0-1.4-.8-2.4-2.1-2.4-1.9 0-2.5 3.3-5.3 3.3-1.7 0-2.6-.9-2.6-3.2l-.2-23.2c-.1-11.8-5.4-18-18.2-18-6.4 0-13.6 1.5-17.8 3.7-1.8 1-2 2.2-1.2 3.9l2.5 5.5c.6 1.1 1.1 1.8 2.3 1.8 1.1 0 1.8-.4 2.8-1.8 3.5-5 7.1-7.5 11.6-7.5 6 0 9.4 3.1 9.4 10.2v4.3c0 .8-.5 1.1-1.4 1-2-.2-4.8-.4-7.2-.4-14.2 0-22.5 6-22.5 16 0 9.6 6.3 14.5 16.7 14.5zm2.3-6.8c-6.2 0-9.7-3-9.7-8.5 0-5.7 3.5-9.7 13.9-9.7 2.5 0 4.8.2 6.7.6.9.2 1.2.6 1.2 1.5v7.2c0 1.9-.4 2.9-1.3 4-1.7 2.1-5.2 4.9-10.8 4.9zm53.68 5.8c1.5 0 2.4-.9 2.4-2.4v-.7c0-1.6-.8-2.3-2-2.5l-3.1-.6c-2-.5-2.7-1.7-2.7-3.8v-23.9c0-4.7 2.1-6.8 6.1-6.8 2.3 0 4 .9 5.7 2.2 1.6.9 2.2 1.3 3.3 1.3s2.1-.7 2.3-2.5l.7-6.9c.2-2.2-.9-3.4-3.4-3.4-4.6 0-9.7 2.4-13.2 5.5-1 1-2 .5-2-.5v-2.4c0-2.5-1.5-3.4-3.9-2.5l-8.9 3.5c-1.5.5-2.1 1.3-2.1 2.4v.6c0 1.4.6 2 2.2 2.4 3.8.9 4.6 2.1 4.6 5.1v25.9c0 2.2-.7 3.2-2.7 3.8l-2 .6c-1.4.4-2.1 1.1-2.1 2.5v.7c0 1.5.9 2.4 2.4 2.4zm32.93 1c7.4 0 11.6-3.7 11.6-7.4 0-1.2-.8-2-1.9-2-2.3 0-2.8 2.4-7.9 2.4-3.1 0-4.6-1.5-4.6-4.7v-30.8c0-.7.5-1.2 1.2-1.2h9.7c1.5 0 2.4-.9 2.4-2.4v-1.7c0-1.5-.9-2.4-2.4-2.4h-9.3c-.7 0-1.2-.5-1.2-1.2v-7.1c0-1.6-1-2.6-2.5-2.6-1.1 0-2.1.5-3 1.9-2.9 4.1-5.5 7.2-8.9 9.7-1.3.9-1.7 1.7-1.7 2.9v.7c0 1.3.9 2.2 2.4 2.2h3.6c.7 0 1.2.5 1.2 1.2v32.3c0 6.3 3.6 10.2 11.3 10.2zm33.97 0c5.5 0 11-1.6 14.7-4.5l1.4-1.1c.8-.6 1.5-.3 1.7.8l.2 1.3c.2 1.7 1 2.5 2.7 2.5h9.5c1.5 0 2.5-.9 2.5-2.5v-.6c0-1.6-.9-2.2-2.4-2.6l-1.8-.5c-2.1-.6-2.8-1.7-2.8-3.7v-37.5c0-2.7-1.6-3.4-3.8-2.5l-9.4 3.7c-1.8.7-2.1 1.4-2.1 2.4v.5c0 1.4.6 2.1 2.2 2.4 3.8.8 4.6 1.8 4.6 4.9v21.9c0 1.9-.5 2.8-2.2 4.1-3.1 2.3-7.8 3.9-12.7 3.9-5.9 0-7.3-2.8-7.3-8.5v-32.8c0-2.6-1.7-3.4-3.9-2.5l-9.5 3.7c-1.9.7-2.1 1.4-2.1 2.4v.5c0 1.3.6 2.1 2.1 2.4 3.9.8 4.7 1.8 4.7 4.9v23.2c0 8.4 3.5 13.8 13.7 13.8zm57.78 20.6c1.5 0 2.5-.9 2.5-2.4v-.7c0-1.6-.9-2.3-2.1-2.5l-3-.6c-2.1-.5-2.8-1.7-2.8-3.8v-11.5c0-.9.6-1.2 1.4-.9 2.3.9 5.7 1.8 9.7 1.8 12.7 0 23.5-9.4 23.5-26.5 0-16.2-9.4-24.5-21.5-24.5-5.5 0-9 1.7-12.2 4.5-.8.7-1.3.3-1.3-.4v-1.5c0-2.5-1.5-3.4-4-2.5l-8.9 3.5c-1.5.5-2.1 1.3-2.1 2.4v.6c0 1.4.6 2 2.2 2.4 3.8 1 4.7 2.1 4.7 5.1v47.5c0 2.1-.7 3.2-2.8 3.8l-2 .6c-1.4.4-2.1 1.1-2.1 2.5v.7c0 1.5 1 2.4 2.5 2.4zm3.4-27.1c-2.1 0-4.7-.3-6.7-1.4-1.5-.7-2.1-2.1-2.1-4.6v-25.6c0-2.3.8-3.5 2.3-4.5 1.9-1.3 4.3-1.6 7.3-1.6 9.4 0 15.7 6.8 15.7 18.7 0 14-7.5 19-16.5 19z" fill="#eef2e3"/><path d="m2741.61 969.008c0-.879 0-1.317-.08-1.678-.14-.564-.43-1.08-.84-1.49-.41-.411-.93-.7-1.49-.835-.37-.086-.81-.086-1.68-.086h-2.85c-.88 0-1.32 0-1.68-.089-.57-.135-1.08-.424-1.49-.834-.42-.41-.7-.925-.84-1.489-.09-.363-.09-.801-.09-1.678v-21.182c0-.879 0-1.317.09-1.678.14-.564.43-1.08.84-1.49s.92-.699 1.49-.834c.36-.088.8-.088 1.68-.086h2.84c.88 0 1.32 0 1.69-.086.56-.135 1.08-.424 1.49-.834s.7-.926.84-1.49c.08-.363.08-.801.08-1.678v-30.376c0-.877 0-1.317-.08-1.678-.14-.564-.43-1.08-.84-1.491-.41-.41-.93-.699-1.49-.835-.37-.086-.81-.086-1.68-.086h-17.89c-.37-.014-.73 0-1.09.042-.81.134-1.53.573-2.02 1.227-.2.302-.38.62-.54.95l-17.13 33.254-16.92-33.235c-.15-.333-.33-.653-.53-.958-.49-.659-1.21-1.103-2.02-1.238-.37-.042-.73-.056-1.1-.042h-24.17c-.87 0-1.31 0-1.68.086-.57.133-1.09.421-1.5.832-.41.41-.7.928-.84 1.494-.09.361-.09.801-.09 1.678v13.789c0 .877 0 1.315.09 1.678.13.564.42 1.079.83 1.49.42.41.93.698 1.5.834.36.088.8.088 1.68.088h2.74c.88 0 1.32 0 1.68.086.57.136 1.08.425 1.5.835.41.411.7.927.83 1.491.09.361.09.799.09 1.678v20.043c0 .877 0 1.315-.09 1.678-.13.564-.42 1.079-.83 1.489-.42.41-.93.699-1.5.835-.36.088-.8.088-1.68.088h-2.74c-.87 0-1.31 0-1.68.086-.56.134-1.08.423-1.49.833-.42.411-.71.927-.84 1.493-.09.36-.09.799-.09 1.677v33.059c0 .877 0 1.315.09 1.678.13.564.42 1.08.83 1.49.42.41.93.698 1.5.834.36.088.8.088 1.68.088h24.72c.88 0 1.32 0 1.68-.088.57-.136 1.08-.424 1.49-.834s.7-.926.84-1.49c.08-.363.08-.801.08-1.678v-15.337c0-.879 0-1.317-.08-1.678-.14-.564-.43-1.08-.84-1.49-.41-.411-.92-.7-1.49-.835-.36-.086-.8-.086-1.68-.086h-2.72c-.87 0-1.31 0-1.68-.089-.56-.135-1.08-.424-1.49-.834s-.7-.925-.84-1.489c-.08-.363-.08-.801-.08-1.678v-31.079l17.84 35.234c.47.931.7 1.396.95 1.637.39.379.91.594 1.45.599.54.006 1.07-.198 1.46-.569.26-.239.5-.699.99-1.619l19.79-37.296v33.093c0 .877 0 1.315-.08 1.678-.14.564-.43 1.08-.84 1.49s-.93.699-1.49.833c-.37.089-.81.089-1.69.089h-5.28c-.88 0-1.32 0-1.68.086-.57.135-1.08.424-1.5.835-.41.41-.7.926-.83 1.49-.09.361-.09.799-.09 1.678v15.337c0 .877 0 1.315.09 1.678.13.564.42 1.08.83 1.49.42.41.93.698 1.5.834.36.088.8.088 1.68.088h32.4c.88 0 1.32 0 1.69-.088.56-.136 1.08-.424 1.49-.834s.7-.926.83-1.49c.09-.363.09-.801.09-1.678z" fill="#c8f169"/><path d="m2803.56 930.922c-.82-2.518-2.22-4.807-4.1-6.679s-4.17-3.275-6.7-4.092c-2.52-.823-5.66-.823-11.91-.823h-9.35c-6.26 0-9.39 0-11.92.823-2.52.818-4.82 2.22-6.69 4.092-1.88 1.872-3.29 4.161-4.11 6.679-.82 2.517-.82 5.65-.82 11.896v22.193c0 6.246 0 9.368.82 11.896.82 2.518 2.23 4.807 4.11 6.68 1.87 1.872 4.17 3.275 6.69 4.093 2.52.82 5.66.82 11.92.82h9.35c6.26 0 9.39 0 11.92-.82 2.52-.818 4.81-2.221 6.69-4.093s3.28-4.16 4.1-6.678c.82-2.517.82-5.65.82-11.896v-22.195c0-6.246 0-9.369-.82-11.896zm-11.64 24.079c0 2.655 0 3.984-.35 5.056-.34 1.07-.94 2.043-1.74 2.839-.8.795-1.77 1.391-2.84 1.739-1.08.349-2.41.349-5.07.349h-11.51c-2.66 0-4 0-5.07-.349-1.07-.347-2.05-.943-2.84-1.739-.8-.796-1.4-1.769-1.75-2.839-.34-1.074-.34-2.401-.34-5.056v-2.056c0-2.653 0-3.984.34-5.054.35-1.07.95-2.043 1.75-2.839.79-.795 1.77-1.392 2.84-1.739 1.08-.351 2.41-.351 5.07-.351h11.51c2.66 0 3.99 0 5.07.351 1.07.348 2.04.944 2.84 1.74.8.795 1.4 1.768 1.74 2.838.35 1.074.35 2.401.35 5.054z" fill="#c8f169"/><path d="m2868.62 898.743c-.12-.377-.33-.721-.61-1.001-.29-.281-.63-.491-1.01-.614s-.84-.123-1.79-.123h-9.85c-.94 0-1.41 0-1.79.123-.37.123-.72.333-1 .614-.28.28-.49.624-.62 1.001-.12.38-.12.839-.12 1.785v14.331c0 1.17 0 1.755-.15 2.229-.16.472-.42.901-.77 1.252s-.78.614-1.26.768c-.47.155-1.05.155-2.23.155h-11.56c-6.26 0-9.39 0-11.92.82-2.52.818-4.82 2.221-6.69 4.093-1.88 1.873-3.28 4.162-4.1 6.681-.83 2.527-.83 5.65-.83 11.895v22.202c0 6.245 0 9.368.83 11.895.82 2.516 2.23 4.801 4.1 6.67 1.88 1.869 4.17 3.269 6.69 4.085 2.53.822 5.66.822 11.92.822h9.36c6.25 0 9.38 0 11.91-.822 2.53-.818 4.82-2.22 6.7-4.092 1.87-1.872 3.28-4.161 4.1-6.679.82-2.517.82-5.65.82-11.896v-64.409c0-.937 0-1.405-.13-1.785zm-13.91 56.192c0 2.655 0 3.985-.35 5.057-.35 1.07-.95 2.042-1.75 2.837-.79.796-1.77 1.391-2.84 1.739-1.08.35-2.41.35-5.07.35h-9.91c-2.66 0-3.99 0-5.06-.35-1.08-.346-2.06-.941-2.86-1.736-.8-.796-1.4-1.769-1.75-2.84-.35-1.076-.35-2.402-.35-5.057v-2.055c0-2.655 0-3.985.35-5.057.35-1.07.95-2.043 1.75-2.838.79-.796 1.77-1.392 2.84-1.74 1.08-.348 2.41-.348 5.07-.348h9.93c2.66 0 3.99 0 5.06.348 1.08.348 2.05.944 2.85 1.74.79.795 1.39 1.768 1.74 2.838.35 1.074.35 2.402.35 5.057z" fill="#c8f169"/><path d="m2899.87 972.504c-2.66 0-3.99 0-5.07-.348-1.07-.348-2.04-.944-2.84-1.739-.8-.796-1.39-1.769-1.74-2.839-.22-.684-.3-1.468-.33-2.643h40.17c.78 0 1.53-.309 2.08-.86.55-.55.86-1.297.86-2.076v-19.123c0-6.245 0-9.368-.82-11.895-.82-2.518-2.23-4.807-4.1-6.679-1.88-1.872-4.17-3.275-6.7-4.093-2.52-.822-5.66-.822-11.91-.822h-9.36c-6.25 0-9.38 0-11.92.822-2.52.818-4.81 2.22-6.69 4.092-1.87 1.872-3.28 4.16-4.1 6.678-.82 2.527-.82 5.65-.82 11.895v22.195c0 6.246 0 9.369.82 11.896.82 2.518 2.23 4.807 4.1 6.68 1.88 1.872 4.17 3.275 6.69 4.094 2.53.82 5.67.82 11.92.82h16.81c3.75-.001 7.38-1.306 10.27-3.692 2.88-2.386 4.84-5.702 5.54-9.376.07-.364.06-.739-.03-1.098-.1-.359-.27-.693-.5-.978-.24-.285-.54-.515-.87-.672-.34-.158-.71-.239-1.08-.239zm-9.65-24.684c.35-1.071.94-2.043 1.74-2.839s1.77-1.392 2.84-1.74c1.08-.35 2.41-.35 5.07-.35h9.84c2.66 0 3.99 0 5.06.35 1.07.348 2.05.944 2.85 1.74.79.796 1.39 1.768 1.74 2.839.35 1.073.35 2.401.35 5.054v1.158h-29.84v-1.158c0-2.653 0-3.981.35-5.054z" fill="#c8f169"/><g fill="#043f2e"><path d="m1893.6 1438.4v15.09c0 3.98 1.58 7.8 4.39 10.61 2.82 2.81 6.63 4.39 10.61 4.39h16.59c.21 0 .42.09.57.24s.24.36.24.57v2.49c0 .21-.09.42-.24.57s-.36.24-.57.24h-52.38c-.11 0-.21.02-.31.06s-.19.1-.26.18c-.08.07-.14.16-.18.26s-.06.2-.06.31v6.18c0 .21.09.42.24.57s.36.24.57.24h52.38c.21 0 .42.09.57.24s.24.36.24.57v2.65c0 .21-.09.42-.24.57s-.36.24-.57.24h-16.59c-3.98 0-7.79 1.58-10.61 4.39-2.81 2.82-4.39 6.63-4.39 10.61v14.93c0 .64.25 1.25.7 1.7s1.06.7 1.7.7h33c.64 0 1.25-.25 1.7-.7s.7-1.06.7-1.7v-16.92c0-2.43.48-4.83 1.41-7.07.92-2.25 2.29-4.28 4-6 1.72-1.71 3.75-3.08 6-4 2.24-.93 4.64-1.41 7.07-1.41h2.31c.21 0 .42-.09.57-.24s.24-.36.24-.57v-3.78c0-.21-.09-.42-.24-.57s-.36-.24-.57-.24h-2.31c-2.43 0-4.83-.48-7.07-1.41-2.25-.92-4.28-2.29-6-4-1.71-1.72-3.08-3.75-4-6-.93-2.24-1.41-4.64-1.41-7.07v-16.92c0-.64-.25-1.25-.7-1.7s-1.06-.7-1.7-.7h-33c-.64 0-1.25.25-1.7.7s-.7 1.06-.7 1.7z"/><path d="m2121.6 1438.4v15.09c0 3.98 1.58 7.8 4.39 10.61 2.82 2.81 6.63 4.39 10.61 4.39h16.59c.21 0 .42.09.57.24s.24.36.24.57v2.49c0 .21-.09.42-.24.57s-.36.24-.57.24h-52.38c-.11 0-.21.02-.31.06s-.19.1-.26.18c-.08.07-.14.16-.18.26s-.06.2-.06.31v6.18c0 .21.09.42.24.57s.36.24.57.24h52.38c.21 0 .42.09.57.24s.24.36.24.57v2.65c0 .21-.09.42-.24.57s-.36.24-.57.24h-16.59c-3.98 0-7.79 1.58-10.61 4.39-2.81 2.82-4.39 6.63-4.39 10.61v14.93c0 .64.25 1.25.7 1.7s1.06.7 1.7.7h33c.64 0 1.25-.25 1.7-.7s.7-1.06.7-1.7v-16.92c0-2.43.48-4.83 1.41-7.07.92-2.25 2.29-4.28 4-6 1.72-1.71 3.75-3.08 6-4 2.24-.93 4.64-1.41 7.07-1.41h2.31c.21 0 .42-.09.57-.24s.24-.36.24-.57v-3.78c0-.21-.09-.42-.24-.57s-.36-.24-.57-.24h-2.31c-2.43 0-4.83-.48-7.07-1.41-2.25-.92-4.28-2.29-6-4-1.71-1.72-3.08-3.75-4-6-.93-2.24-1.41-4.64-1.41-7.07v-16.92c0-.64-.25-1.25-.7-1.7s-1.06-.7-1.7-.7h-33c-.64 0-1.25.25-1.7.7s-.7 1.06-.7 1.7z"/><path d="m2349.6 1438.4v15.09c0 3.98 1.58 7.8 4.39 10.61 2.82 2.81 6.63 4.39 10.61 4.39h16.59c.21 0 .42.09.57.24s.24.36.24.57v2.49c0 .21-.09.42-.24.57s-.36.24-.57.24h-52.38c-.11 0-.21.02-.31.06s-.19.1-.26.18c-.08.07-.14.16-.18.26s-.06.2-.06.31v6.18c0 .21.09.42.24.57s.36.24.57.24h52.38c.21 0 .42.09.57.24s.24.36.24.57v2.65c0 .21-.09.42-.24.57s-.36.24-.57.24h-16.59c-3.98 0-7.79 1.58-10.61 4.39-2.81 2.82-4.39 6.63-4.39 10.61v14.93c0 .64.25 1.25.7 1.7s1.06.7 1.7.7h33c.64 0 1.25-.25 1.7-.7s.7-1.06.7-1.7v-16.92c0-2.43.48-4.83 1.41-7.07.92-2.25 2.29-4.28 4-6 1.72-1.71 3.75-3.08 6-4 2.24-.93 4.64-1.41 7.07-1.41h2.31c.21 0 .42-.09.57-.24s.24-.36.24-.57v-3.78c0-.21-.09-.42-.24-.57s-.36-.24-.57-.24h-2.31c-2.43 0-4.83-.48-7.07-1.41-2.25-.92-4.28-2.29-6-4-1.71-1.72-3.08-3.75-4-6-.93-2.24-1.41-4.64-1.41-7.07v-16.92c0-.64-.25-1.25-.7-1.7s-1.06-.7-1.7-.7h-33c-.64 0-1.25.25-1.7.7s-.7 1.06-.7 1.7z"/><path d="m2577.6 1438.4v15.09c0 3.98 1.58 7.8 4.39 10.61 2.82 2.81 6.63 4.39 10.61 4.39h16.59c.21 0 .42.09.57.24s.24.36.24.57v2.49c0 .21-.09.42-.24.57s-.36.24-.57.24h-52.38c-.11 0-.21.02-.31.06s-.19.1-.26.18c-.08.07-.14.16-.18.26s-.06.2-.06.31v6.18c0 .21.09.42.24.57s.36.24.57.24h52.38c.21 0 .42.09.57.24s.24.36.24.57v2.65c0 .21-.09.42-.24.57s-.36.24-.57.24h-16.59c-3.98 0-7.79 1.58-10.61 4.39-2.81 2.82-4.39 6.63-4.39 10.61v14.93c0 .64.25 1.25.7 1.7s1.06.7 1.7.7h33c.64 0 1.25-.25 1.7-.7s.7-1.06.7-1.7v-16.92c0-2.43.48-4.83 1.41-7.07.92-2.25 2.29-4.28 4-6 1.72-1.71 3.75-3.08 6-4 2.24-.93 4.64-1.41 7.07-1.41h2.31c.21 0 .42-.09.57-.24s.24-.36.24-.57v-3.78c0-.21-.09-.42-.24-.57s-.36-.24-.57-.24h-2.31c-2.43 0-4.83-.48-7.07-1.41-2.25-.92-4.28-2.29-6-4-1.71-1.72-3.08-3.75-4-6-.93-2.24-1.41-4.64-1.41-7.07v-16.92c0-.64-.25-1.25-.7-1.7s-1.06-.7-1.7-.7h-33c-.64 0-1.25.25-1.7.7s-.7 1.06-.7 1.7z"/><path d="m1798.5 1487c5.8 0 10.5-4.7 10.5-10.5s-4.7-10.5-10.5-10.5-10.5 4.7-10.5 10.5 4.7 10.5 10.5 10.5z"/><path d="m2026.5 1487c5.8 0 10.5-4.7 10.5-10.5s-4.7-10.5-10.5-10.5-10.5 4.7-10.5 10.5 4.7 10.5 10.5 10.5z"/><path d="m2254.5 1487c5.8 0 10.5-4.7 10.5-10.5s-4.7-10.5-10.5-10.5-10.5 4.7-10.5 10.5 4.7 10.5 10.5 10.5z"/><path d="m2482.5 1487c5.8 0 10.5-4.7 10.5-10.5s-4.7-10.5-10.5-10.5-10.5 4.7-10.5 10.5 4.7 10.5 10.5 10.5z"/><path d="m2710.5 1487c5.8 0 10.5-4.7 10.5-10.5s-4.7-10.5-10.5-10.5-10.5 4.7-10.5 10.5 4.7 10.5 10.5 10.5z"/><path d="m1712.87 1455.82v20.02c0 7.29-4.03 11.33-11.33 11.33h-13.03c-7.3 0-11.33-4.04-11.33-11.33v-20.02c0-7.3 4.03-11.33 11.33-11.33h13.03c7.3 0 11.33 4.03 11.33 11.33zm-55.87 60.06c0 13.04 8.69 21.73 21.73 21.73h32.59c13.04 0 21.73-8.69 21.73-21.73v-79.15c0-13.04-8.69-21.73-21.73-21.73h-32.59c-13.04 0-21.73 8.69-21.73 21.73z"/><path d="m2780.66 1467.77h13.19c13.03 0 21.73-8.69 21.73-21.73v-1.55h1.55v36.47c0 3.72-2.49 6.21-6.21 6.21h-30.26c-2.8 0-4.66 1.86-4.66 4.65v41.13c0 2.8 1.86 4.66 4.66 4.66h66.73c2.8 0 4.66-1.86 4.66-4.66v-41.13c0-2.79-1.86-4.65-4.66-4.65h-3.1c-3.73 0-6.21-2.49-6.21-6.21v-30.26c0-3.73 2.48-6.21 6.21-6.21h3.1c2.8 0 4.66-1.86 4.66-4.66v-20.17c0-2.8-1.86-4.66-4.66-4.66h-29.49c-2.79 0-4.65 1.86-4.65 4.66v.15c0 3.73-2.49 6.05-6.21 6.05h-26.38c-2.8 0-4.66 1.87-4.66 4.66v32.59c0 2.8 1.86 4.66 4.66 4.66z"/></g></g></svg>
