<svg viewBox="0 0 1020 854" xmlns="http://www.w3.org/2000/svg"><g fill="#222"><path d="m390.853 539.375v-224.662h41.247v224.662z"/><path d="m786.467 386.703h39.389v18.625c8.371-14.893 27.919-22.967 44.662-22.967 20.788 0 37.531 9.003 45.283 25.444 12.088-18.626 28.229-25.444 48.388-25.444 28.22 0 55.201 17.069 55.201 58.024v98.99h-40.007v-90.605c0-16.45-8.071-28.858-26.99-28.858-17.682 0-28.23 13.655-28.23 30.105v89.368h-40.928v-90.615c0-16.45-8.372-28.858-26.99-28.858-17.991 0-28.54 13.345-28.54 30.105v89.368h-41.238z"/><path d="m525.314 543.799c-46.467 0-80.116-34.466-80.116-80.756 0-45.553 33.541-80.838 80.116-80.838 46.803 0 80.117 35.612 80.117 80.838 0 45.954-33.669 80.756-80.117 80.756zm0-124.225c-23.966 0-43.461 19.499-43.461 43.479 0 23.977 19.495 43.477 43.461 43.477 23.967 0 43.452-19.5 43.452-43.477 0-23.98-19.485-43.479-43.452-43.479z"/><path d="m693.535 543.799c-46.467 0-80.116-34.466-80.116-80.756 0-45.553 33.54-80.838 80.116-80.838 46.803 0 80.116 35.612 80.116 80.838 0 45.954-33.686 80.756-80.116 80.756zm0-124.744c-24.24 0-43.961 19.736-43.961 43.978 0 24.244 19.721 43.979 43.961 43.979 24.239 0 43.962-19.735 43.962-43.979-.01-24.242-19.731-43.978-43.962-43.978z"/></g><path d="m307.719 409.971h-89.804l77.774-44.903-17.079-29.591-77.774 44.903 44.893-77.768-29.592-17.09-44.893 77.768v-89.797h-34.161v89.805l-44.9102-77.776-29.5821 17.081 44.9013 77.768-77.7741-44.894-17.0808 29.583 77.7743 44.902h-89.803002v34.163h89.794402l-77.7657 44.903 17.0808 29.591 77.7661-44.894-44.9019 77.767 29.5907 17.082 44.9012-77.776v89.805h34.162v-89.797l44.893 77.768 29.59-17.082-44.901-77.775 77.774 44.902 17.081-29.591-77.766-44.895h89.794v-34.162zm-153.555 63.538c-25.759 0-46.638-20.877-46.638-46.637s20.879-46.639 46.638-46.639c25.758 0 46.636 20.879 46.636 46.639s-20.878 46.637-46.636 46.637z" fill="#625df5"/></svg>
